%TF.GenerationSoftware,KiCad,Pcbnew,9.0.8*%
%TF.CreationDate,2026-07-09T03:31:01+03:00*%
%TF.ProjectId,STM32-SDMMC-Logger-Board,53544d33-322d-4534-944d-4d432d4c6f67,rev?*%
%TF.SameCoordinates,Original*%
%TF.FileFunction,Legend,Top*%
%TF.FilePolarity,Positive*%
%FSLAX46Y46*%
G04 Gerber Fmt 4.6, Leading zero omitted, Abs format (unit mm)*
G04 Created by KiCad (PCBNEW 9.0.8) date 2026-07-09 03:31:01*
%MOMM*%
%LPD*%
G01*
G04 APERTURE LIST*
%ADD10C,0.125000*%
%ADD11C,0.120000*%
%ADD12C,0.100000*%
G04 APERTURE END LIST*
D10*
X135985714Y-34787404D02*
X135947618Y-34825500D01*
X135947618Y-34825500D02*
X135833333Y-34863595D01*
X135833333Y-34863595D02*
X135757142Y-34863595D01*
X135757142Y-34863595D02*
X135642856Y-34825500D01*
X135642856Y-34825500D02*
X135566666Y-34749309D01*
X135566666Y-34749309D02*
X135528571Y-34673119D01*
X135528571Y-34673119D02*
X135490475Y-34520738D01*
X135490475Y-34520738D02*
X135490475Y-34406452D01*
X135490475Y-34406452D02*
X135528571Y-34254071D01*
X135528571Y-34254071D02*
X135566666Y-34177880D01*
X135566666Y-34177880D02*
X135642856Y-34101690D01*
X135642856Y-34101690D02*
X135757142Y-34063595D01*
X135757142Y-34063595D02*
X135833333Y-34063595D01*
X135833333Y-34063595D02*
X135947618Y-34101690D01*
X135947618Y-34101690D02*
X135985714Y-34139785D01*
X136747618Y-34863595D02*
X136290475Y-34863595D01*
X136519047Y-34863595D02*
X136519047Y-34063595D01*
X136519047Y-34063595D02*
X136442856Y-34177880D01*
X136442856Y-34177880D02*
X136366666Y-34254071D01*
X136366666Y-34254071D02*
X136290475Y-34292166D01*
X137433333Y-34330261D02*
X137433333Y-34863595D01*
X137242857Y-34025500D02*
X137052380Y-34596928D01*
X137052380Y-34596928D02*
X137547619Y-34596928D01*
X140119048Y-35982642D02*
X140119048Y-36363595D01*
X139852381Y-35563595D02*
X140119048Y-35982642D01*
X140119048Y-35982642D02*
X140385714Y-35563595D01*
X141071428Y-36363595D02*
X140614285Y-36363595D01*
X140842857Y-36363595D02*
X140842857Y-35563595D01*
X140842857Y-35563595D02*
X140766666Y-35677880D01*
X140766666Y-35677880D02*
X140690476Y-35754071D01*
X140690476Y-35754071D02*
X140614285Y-35792166D01*
X133630714Y-39287404D02*
X133592618Y-39325500D01*
X133592618Y-39325500D02*
X133478333Y-39363595D01*
X133478333Y-39363595D02*
X133402142Y-39363595D01*
X133402142Y-39363595D02*
X133287856Y-39325500D01*
X133287856Y-39325500D02*
X133211666Y-39249309D01*
X133211666Y-39249309D02*
X133173571Y-39173119D01*
X133173571Y-39173119D02*
X133135475Y-39020738D01*
X133135475Y-39020738D02*
X133135475Y-38906452D01*
X133135475Y-38906452D02*
X133173571Y-38754071D01*
X133173571Y-38754071D02*
X133211666Y-38677880D01*
X133211666Y-38677880D02*
X133287856Y-38601690D01*
X133287856Y-38601690D02*
X133402142Y-38563595D01*
X133402142Y-38563595D02*
X133478333Y-38563595D01*
X133478333Y-38563595D02*
X133592618Y-38601690D01*
X133592618Y-38601690D02*
X133630714Y-38639785D01*
X134392618Y-39363595D02*
X133935475Y-39363595D01*
X134164047Y-39363595D02*
X134164047Y-38563595D01*
X134164047Y-38563595D02*
X134087856Y-38677880D01*
X134087856Y-38677880D02*
X134011666Y-38754071D01*
X134011666Y-38754071D02*
X133935475Y-38792166D01*
X134659285Y-38563595D02*
X135154523Y-38563595D01*
X135154523Y-38563595D02*
X134887857Y-38868357D01*
X134887857Y-38868357D02*
X135002142Y-38868357D01*
X135002142Y-38868357D02*
X135078333Y-38906452D01*
X135078333Y-38906452D02*
X135116428Y-38944547D01*
X135116428Y-38944547D02*
X135154523Y-39020738D01*
X135154523Y-39020738D02*
X135154523Y-39211214D01*
X135154523Y-39211214D02*
X135116428Y-39287404D01*
X135116428Y-39287404D02*
X135078333Y-39325500D01*
X135078333Y-39325500D02*
X135002142Y-39363595D01*
X135002142Y-39363595D02*
X134773571Y-39363595D01*
X134773571Y-39363595D02*
X134697380Y-39325500D01*
X134697380Y-39325500D02*
X134659285Y-39287404D01*
X101610714Y-35058595D02*
X101344047Y-34677642D01*
X101153571Y-35058595D02*
X101153571Y-34258595D01*
X101153571Y-34258595D02*
X101458333Y-34258595D01*
X101458333Y-34258595D02*
X101534523Y-34296690D01*
X101534523Y-34296690D02*
X101572618Y-34334785D01*
X101572618Y-34334785D02*
X101610714Y-34410976D01*
X101610714Y-34410976D02*
X101610714Y-34525261D01*
X101610714Y-34525261D02*
X101572618Y-34601452D01*
X101572618Y-34601452D02*
X101534523Y-34639547D01*
X101534523Y-34639547D02*
X101458333Y-34677642D01*
X101458333Y-34677642D02*
X101153571Y-34677642D01*
X102372618Y-35058595D02*
X101915475Y-35058595D01*
X102144047Y-35058595D02*
X102144047Y-34258595D01*
X102144047Y-34258595D02*
X102067856Y-34372880D01*
X102067856Y-34372880D02*
X101991666Y-34449071D01*
X101991666Y-34449071D02*
X101915475Y-34487166D01*
X103058333Y-34525261D02*
X103058333Y-35058595D01*
X102867857Y-34220500D02*
X102677380Y-34791928D01*
X102677380Y-34791928D02*
X103172619Y-34791928D01*
X96390476Y-37788595D02*
X96390476Y-38436214D01*
X96390476Y-38436214D02*
X96428571Y-38512404D01*
X96428571Y-38512404D02*
X96466666Y-38550500D01*
X96466666Y-38550500D02*
X96542857Y-38588595D01*
X96542857Y-38588595D02*
X96695238Y-38588595D01*
X96695238Y-38588595D02*
X96771428Y-38550500D01*
X96771428Y-38550500D02*
X96809523Y-38512404D01*
X96809523Y-38512404D02*
X96847619Y-38436214D01*
X96847619Y-38436214D02*
X96847619Y-37788595D01*
X97152380Y-37788595D02*
X97647618Y-37788595D01*
X97647618Y-37788595D02*
X97380952Y-38093357D01*
X97380952Y-38093357D02*
X97495237Y-38093357D01*
X97495237Y-38093357D02*
X97571428Y-38131452D01*
X97571428Y-38131452D02*
X97609523Y-38169547D01*
X97609523Y-38169547D02*
X97647618Y-38245738D01*
X97647618Y-38245738D02*
X97647618Y-38436214D01*
X97647618Y-38436214D02*
X97609523Y-38512404D01*
X97609523Y-38512404D02*
X97571428Y-38550500D01*
X97571428Y-38550500D02*
X97495237Y-38588595D01*
X97495237Y-38588595D02*
X97266666Y-38588595D01*
X97266666Y-38588595D02*
X97190475Y-38550500D01*
X97190475Y-38550500D02*
X97152380Y-38512404D01*
X101985714Y-37243595D02*
X101719047Y-36862642D01*
X101528571Y-37243595D02*
X101528571Y-36443595D01*
X101528571Y-36443595D02*
X101833333Y-36443595D01*
X101833333Y-36443595D02*
X101909523Y-36481690D01*
X101909523Y-36481690D02*
X101947618Y-36519785D01*
X101947618Y-36519785D02*
X101985714Y-36595976D01*
X101985714Y-36595976D02*
X101985714Y-36710261D01*
X101985714Y-36710261D02*
X101947618Y-36786452D01*
X101947618Y-36786452D02*
X101909523Y-36824547D01*
X101909523Y-36824547D02*
X101833333Y-36862642D01*
X101833333Y-36862642D02*
X101528571Y-36862642D01*
X102747618Y-37243595D02*
X102290475Y-37243595D01*
X102519047Y-37243595D02*
X102519047Y-36443595D01*
X102519047Y-36443595D02*
X102442856Y-36557880D01*
X102442856Y-36557880D02*
X102366666Y-36634071D01*
X102366666Y-36634071D02*
X102290475Y-36672166D01*
X103471428Y-36443595D02*
X103090476Y-36443595D01*
X103090476Y-36443595D02*
X103052380Y-36824547D01*
X103052380Y-36824547D02*
X103090476Y-36786452D01*
X103090476Y-36786452D02*
X103166666Y-36748357D01*
X103166666Y-36748357D02*
X103357142Y-36748357D01*
X103357142Y-36748357D02*
X103433333Y-36786452D01*
X103433333Y-36786452D02*
X103471428Y-36824547D01*
X103471428Y-36824547D02*
X103509523Y-36900738D01*
X103509523Y-36900738D02*
X103509523Y-37091214D01*
X103509523Y-37091214D02*
X103471428Y-37167404D01*
X103471428Y-37167404D02*
X103433333Y-37205500D01*
X103433333Y-37205500D02*
X103357142Y-37243595D01*
X103357142Y-37243595D02*
X103166666Y-37243595D01*
X103166666Y-37243595D02*
X103090476Y-37205500D01*
X103090476Y-37205500D02*
X103052380Y-37167404D01*
X95608333Y-29364547D02*
X95341667Y-29364547D01*
X95341667Y-29783595D02*
X95341667Y-28983595D01*
X95341667Y-28983595D02*
X95722619Y-28983595D01*
X96446428Y-29783595D02*
X95989285Y-29783595D01*
X96217857Y-29783595D02*
X96217857Y-28983595D01*
X96217857Y-28983595D02*
X96141666Y-29097880D01*
X96141666Y-29097880D02*
X96065476Y-29174071D01*
X96065476Y-29174071D02*
X95989285Y-29212166D01*
X145870714Y-37488595D02*
X145604047Y-37107642D01*
X145413571Y-37488595D02*
X145413571Y-36688595D01*
X145413571Y-36688595D02*
X145718333Y-36688595D01*
X145718333Y-36688595D02*
X145794523Y-36726690D01*
X145794523Y-36726690D02*
X145832618Y-36764785D01*
X145832618Y-36764785D02*
X145870714Y-36840976D01*
X145870714Y-36840976D02*
X145870714Y-36955261D01*
X145870714Y-36955261D02*
X145832618Y-37031452D01*
X145832618Y-37031452D02*
X145794523Y-37069547D01*
X145794523Y-37069547D02*
X145718333Y-37107642D01*
X145718333Y-37107642D02*
X145413571Y-37107642D01*
X146632618Y-37488595D02*
X146175475Y-37488595D01*
X146404047Y-37488595D02*
X146404047Y-36688595D01*
X146404047Y-36688595D02*
X146327856Y-36802880D01*
X146327856Y-36802880D02*
X146251666Y-36879071D01*
X146251666Y-36879071D02*
X146175475Y-36917166D01*
X147127857Y-36688595D02*
X147204047Y-36688595D01*
X147204047Y-36688595D02*
X147280238Y-36726690D01*
X147280238Y-36726690D02*
X147318333Y-36764785D01*
X147318333Y-36764785D02*
X147356428Y-36840976D01*
X147356428Y-36840976D02*
X147394523Y-36993357D01*
X147394523Y-36993357D02*
X147394523Y-37183833D01*
X147394523Y-37183833D02*
X147356428Y-37336214D01*
X147356428Y-37336214D02*
X147318333Y-37412404D01*
X147318333Y-37412404D02*
X147280238Y-37450500D01*
X147280238Y-37450500D02*
X147204047Y-37488595D01*
X147204047Y-37488595D02*
X147127857Y-37488595D01*
X147127857Y-37488595D02*
X147051666Y-37450500D01*
X147051666Y-37450500D02*
X147013571Y-37412404D01*
X147013571Y-37412404D02*
X146975476Y-37336214D01*
X146975476Y-37336214D02*
X146937380Y-37183833D01*
X146937380Y-37183833D02*
X146937380Y-36993357D01*
X146937380Y-36993357D02*
X146975476Y-36840976D01*
X146975476Y-36840976D02*
X147013571Y-36764785D01*
X147013571Y-36764785D02*
X147051666Y-36726690D01*
X147051666Y-36726690D02*
X147127857Y-36688595D01*
X146751667Y-38488595D02*
X146485000Y-38107642D01*
X146294524Y-38488595D02*
X146294524Y-37688595D01*
X146294524Y-37688595D02*
X146599286Y-37688595D01*
X146599286Y-37688595D02*
X146675476Y-37726690D01*
X146675476Y-37726690D02*
X146713571Y-37764785D01*
X146713571Y-37764785D02*
X146751667Y-37840976D01*
X146751667Y-37840976D02*
X146751667Y-37955261D01*
X146751667Y-37955261D02*
X146713571Y-38031452D01*
X146713571Y-38031452D02*
X146675476Y-38069547D01*
X146675476Y-38069547D02*
X146599286Y-38107642D01*
X146599286Y-38107642D02*
X146294524Y-38107642D01*
X147132619Y-38488595D02*
X147285000Y-38488595D01*
X147285000Y-38488595D02*
X147361190Y-38450500D01*
X147361190Y-38450500D02*
X147399286Y-38412404D01*
X147399286Y-38412404D02*
X147475476Y-38298119D01*
X147475476Y-38298119D02*
X147513571Y-38145738D01*
X147513571Y-38145738D02*
X147513571Y-37840976D01*
X147513571Y-37840976D02*
X147475476Y-37764785D01*
X147475476Y-37764785D02*
X147437381Y-37726690D01*
X147437381Y-37726690D02*
X147361190Y-37688595D01*
X147361190Y-37688595D02*
X147208809Y-37688595D01*
X147208809Y-37688595D02*
X147132619Y-37726690D01*
X147132619Y-37726690D02*
X147094524Y-37764785D01*
X147094524Y-37764785D02*
X147056428Y-37840976D01*
X147056428Y-37840976D02*
X147056428Y-38031452D01*
X147056428Y-38031452D02*
X147094524Y-38107642D01*
X147094524Y-38107642D02*
X147132619Y-38145738D01*
X147132619Y-38145738D02*
X147208809Y-38183833D01*
X147208809Y-38183833D02*
X147361190Y-38183833D01*
X147361190Y-38183833D02*
X147437381Y-38145738D01*
X147437381Y-38145738D02*
X147475476Y-38107642D01*
X147475476Y-38107642D02*
X147513571Y-38031452D01*
X136366667Y-33863595D02*
X136100000Y-33482642D01*
X135909524Y-33863595D02*
X135909524Y-33063595D01*
X135909524Y-33063595D02*
X136214286Y-33063595D01*
X136214286Y-33063595D02*
X136290476Y-33101690D01*
X136290476Y-33101690D02*
X136328571Y-33139785D01*
X136328571Y-33139785D02*
X136366667Y-33215976D01*
X136366667Y-33215976D02*
X136366667Y-33330261D01*
X136366667Y-33330261D02*
X136328571Y-33406452D01*
X136328571Y-33406452D02*
X136290476Y-33444547D01*
X136290476Y-33444547D02*
X136214286Y-33482642D01*
X136214286Y-33482642D02*
X135909524Y-33482642D01*
X137128571Y-33863595D02*
X136671428Y-33863595D01*
X136900000Y-33863595D02*
X136900000Y-33063595D01*
X136900000Y-33063595D02*
X136823809Y-33177880D01*
X136823809Y-33177880D02*
X136747619Y-33254071D01*
X136747619Y-33254071D02*
X136671428Y-33292166D01*
X104107404Y-29838332D02*
X104145500Y-29876428D01*
X104145500Y-29876428D02*
X104183595Y-29990713D01*
X104183595Y-29990713D02*
X104183595Y-30066904D01*
X104183595Y-30066904D02*
X104145500Y-30181190D01*
X104145500Y-30181190D02*
X104069309Y-30257380D01*
X104069309Y-30257380D02*
X103993119Y-30295475D01*
X103993119Y-30295475D02*
X103840738Y-30333571D01*
X103840738Y-30333571D02*
X103726452Y-30333571D01*
X103726452Y-30333571D02*
X103574071Y-30295475D01*
X103574071Y-30295475D02*
X103497880Y-30257380D01*
X103497880Y-30257380D02*
X103421690Y-30181190D01*
X103421690Y-30181190D02*
X103383595Y-30066904D01*
X103383595Y-30066904D02*
X103383595Y-29990713D01*
X103383595Y-29990713D02*
X103421690Y-29876428D01*
X103421690Y-29876428D02*
X103459785Y-29838332D01*
X104183595Y-29076428D02*
X104183595Y-29533571D01*
X104183595Y-29304999D02*
X103383595Y-29304999D01*
X103383595Y-29304999D02*
X103497880Y-29381190D01*
X103497880Y-29381190D02*
X103574071Y-29457380D01*
X103574071Y-29457380D02*
X103612166Y-29533571D01*
X124287404Y-27514285D02*
X124325500Y-27552381D01*
X124325500Y-27552381D02*
X124363595Y-27666666D01*
X124363595Y-27666666D02*
X124363595Y-27742857D01*
X124363595Y-27742857D02*
X124325500Y-27857143D01*
X124325500Y-27857143D02*
X124249309Y-27933333D01*
X124249309Y-27933333D02*
X124173119Y-27971428D01*
X124173119Y-27971428D02*
X124020738Y-28009524D01*
X124020738Y-28009524D02*
X123906452Y-28009524D01*
X123906452Y-28009524D02*
X123754071Y-27971428D01*
X123754071Y-27971428D02*
X123677880Y-27933333D01*
X123677880Y-27933333D02*
X123601690Y-27857143D01*
X123601690Y-27857143D02*
X123563595Y-27742857D01*
X123563595Y-27742857D02*
X123563595Y-27666666D01*
X123563595Y-27666666D02*
X123601690Y-27552381D01*
X123601690Y-27552381D02*
X123639785Y-27514285D01*
X124363595Y-26752381D02*
X124363595Y-27209524D01*
X124363595Y-26980952D02*
X123563595Y-26980952D01*
X123563595Y-26980952D02*
X123677880Y-27057143D01*
X123677880Y-27057143D02*
X123754071Y-27133333D01*
X123754071Y-27133333D02*
X123792166Y-27209524D01*
X123563595Y-26257142D02*
X123563595Y-26180952D01*
X123563595Y-26180952D02*
X123601690Y-26104761D01*
X123601690Y-26104761D02*
X123639785Y-26066666D01*
X123639785Y-26066666D02*
X123715976Y-26028571D01*
X123715976Y-26028571D02*
X123868357Y-25990476D01*
X123868357Y-25990476D02*
X124058833Y-25990476D01*
X124058833Y-25990476D02*
X124211214Y-26028571D01*
X124211214Y-26028571D02*
X124287404Y-26066666D01*
X124287404Y-26066666D02*
X124325500Y-26104761D01*
X124325500Y-26104761D02*
X124363595Y-26180952D01*
X124363595Y-26180952D02*
X124363595Y-26257142D01*
X124363595Y-26257142D02*
X124325500Y-26333333D01*
X124325500Y-26333333D02*
X124287404Y-26371428D01*
X124287404Y-26371428D02*
X124211214Y-26409523D01*
X124211214Y-26409523D02*
X124058833Y-26447619D01*
X124058833Y-26447619D02*
X123868357Y-26447619D01*
X123868357Y-26447619D02*
X123715976Y-26409523D01*
X123715976Y-26409523D02*
X123639785Y-26371428D01*
X123639785Y-26371428D02*
X123601690Y-26333333D01*
X123601690Y-26333333D02*
X123563595Y-26257142D01*
X128283595Y-48391666D02*
X128855023Y-48391666D01*
X128855023Y-48391666D02*
X128969309Y-48429761D01*
X128969309Y-48429761D02*
X129045500Y-48505952D01*
X129045500Y-48505952D02*
X129083595Y-48620237D01*
X129083595Y-48620237D02*
X129083595Y-48696428D01*
X128359785Y-48048809D02*
X128321690Y-48010713D01*
X128321690Y-48010713D02*
X128283595Y-47934523D01*
X128283595Y-47934523D02*
X128283595Y-47744047D01*
X128283595Y-47744047D02*
X128321690Y-47667856D01*
X128321690Y-47667856D02*
X128359785Y-47629761D01*
X128359785Y-47629761D02*
X128435976Y-47591666D01*
X128435976Y-47591666D02*
X128512166Y-47591666D01*
X128512166Y-47591666D02*
X128626452Y-47629761D01*
X128626452Y-47629761D02*
X129083595Y-48086904D01*
X129083595Y-48086904D02*
X129083595Y-47591666D01*
X147350714Y-24818595D02*
X147084047Y-24437642D01*
X146893571Y-24818595D02*
X146893571Y-24018595D01*
X146893571Y-24018595D02*
X147198333Y-24018595D01*
X147198333Y-24018595D02*
X147274523Y-24056690D01*
X147274523Y-24056690D02*
X147312618Y-24094785D01*
X147312618Y-24094785D02*
X147350714Y-24170976D01*
X147350714Y-24170976D02*
X147350714Y-24285261D01*
X147350714Y-24285261D02*
X147312618Y-24361452D01*
X147312618Y-24361452D02*
X147274523Y-24399547D01*
X147274523Y-24399547D02*
X147198333Y-24437642D01*
X147198333Y-24437642D02*
X146893571Y-24437642D01*
X148112618Y-24818595D02*
X147655475Y-24818595D01*
X147884047Y-24818595D02*
X147884047Y-24018595D01*
X147884047Y-24018595D02*
X147807856Y-24132880D01*
X147807856Y-24132880D02*
X147731666Y-24209071D01*
X147731666Y-24209071D02*
X147655475Y-24247166D01*
X148493571Y-24818595D02*
X148645952Y-24818595D01*
X148645952Y-24818595D02*
X148722142Y-24780500D01*
X148722142Y-24780500D02*
X148760238Y-24742404D01*
X148760238Y-24742404D02*
X148836428Y-24628119D01*
X148836428Y-24628119D02*
X148874523Y-24475738D01*
X148874523Y-24475738D02*
X148874523Y-24170976D01*
X148874523Y-24170976D02*
X148836428Y-24094785D01*
X148836428Y-24094785D02*
X148798333Y-24056690D01*
X148798333Y-24056690D02*
X148722142Y-24018595D01*
X148722142Y-24018595D02*
X148569761Y-24018595D01*
X148569761Y-24018595D02*
X148493571Y-24056690D01*
X148493571Y-24056690D02*
X148455476Y-24094785D01*
X148455476Y-24094785D02*
X148417380Y-24170976D01*
X148417380Y-24170976D02*
X148417380Y-24361452D01*
X148417380Y-24361452D02*
X148455476Y-24437642D01*
X148455476Y-24437642D02*
X148493571Y-24475738D01*
X148493571Y-24475738D02*
X148569761Y-24513833D01*
X148569761Y-24513833D02*
X148722142Y-24513833D01*
X148722142Y-24513833D02*
X148798333Y-24475738D01*
X148798333Y-24475738D02*
X148836428Y-24437642D01*
X148836428Y-24437642D02*
X148874523Y-24361452D01*
X151370714Y-28158595D02*
X151104047Y-27777642D01*
X150913571Y-28158595D02*
X150913571Y-27358595D01*
X150913571Y-27358595D02*
X151218333Y-27358595D01*
X151218333Y-27358595D02*
X151294523Y-27396690D01*
X151294523Y-27396690D02*
X151332618Y-27434785D01*
X151332618Y-27434785D02*
X151370714Y-27510976D01*
X151370714Y-27510976D02*
X151370714Y-27625261D01*
X151370714Y-27625261D02*
X151332618Y-27701452D01*
X151332618Y-27701452D02*
X151294523Y-27739547D01*
X151294523Y-27739547D02*
X151218333Y-27777642D01*
X151218333Y-27777642D02*
X150913571Y-27777642D01*
X152132618Y-28158595D02*
X151675475Y-28158595D01*
X151904047Y-28158595D02*
X151904047Y-27358595D01*
X151904047Y-27358595D02*
X151827856Y-27472880D01*
X151827856Y-27472880D02*
X151751666Y-27549071D01*
X151751666Y-27549071D02*
X151675475Y-27587166D01*
X152589761Y-27701452D02*
X152513571Y-27663357D01*
X152513571Y-27663357D02*
X152475476Y-27625261D01*
X152475476Y-27625261D02*
X152437380Y-27549071D01*
X152437380Y-27549071D02*
X152437380Y-27510976D01*
X152437380Y-27510976D02*
X152475476Y-27434785D01*
X152475476Y-27434785D02*
X152513571Y-27396690D01*
X152513571Y-27396690D02*
X152589761Y-27358595D01*
X152589761Y-27358595D02*
X152742142Y-27358595D01*
X152742142Y-27358595D02*
X152818333Y-27396690D01*
X152818333Y-27396690D02*
X152856428Y-27434785D01*
X152856428Y-27434785D02*
X152894523Y-27510976D01*
X152894523Y-27510976D02*
X152894523Y-27549071D01*
X152894523Y-27549071D02*
X152856428Y-27625261D01*
X152856428Y-27625261D02*
X152818333Y-27663357D01*
X152818333Y-27663357D02*
X152742142Y-27701452D01*
X152742142Y-27701452D02*
X152589761Y-27701452D01*
X152589761Y-27701452D02*
X152513571Y-27739547D01*
X152513571Y-27739547D02*
X152475476Y-27777642D01*
X152475476Y-27777642D02*
X152437380Y-27853833D01*
X152437380Y-27853833D02*
X152437380Y-28006214D01*
X152437380Y-28006214D02*
X152475476Y-28082404D01*
X152475476Y-28082404D02*
X152513571Y-28120500D01*
X152513571Y-28120500D02*
X152589761Y-28158595D01*
X152589761Y-28158595D02*
X152742142Y-28158595D01*
X152742142Y-28158595D02*
X152818333Y-28120500D01*
X152818333Y-28120500D02*
X152856428Y-28082404D01*
X152856428Y-28082404D02*
X152894523Y-28006214D01*
X152894523Y-28006214D02*
X152894523Y-27853833D01*
X152894523Y-27853833D02*
X152856428Y-27777642D01*
X152856428Y-27777642D02*
X152818333Y-27739547D01*
X152818333Y-27739547D02*
X152742142Y-27701452D01*
X130412404Y-43433332D02*
X130450500Y-43471428D01*
X130450500Y-43471428D02*
X130488595Y-43585713D01*
X130488595Y-43585713D02*
X130488595Y-43661904D01*
X130488595Y-43661904D02*
X130450500Y-43776190D01*
X130450500Y-43776190D02*
X130374309Y-43852380D01*
X130374309Y-43852380D02*
X130298119Y-43890475D01*
X130298119Y-43890475D02*
X130145738Y-43928571D01*
X130145738Y-43928571D02*
X130031452Y-43928571D01*
X130031452Y-43928571D02*
X129879071Y-43890475D01*
X129879071Y-43890475D02*
X129802880Y-43852380D01*
X129802880Y-43852380D02*
X129726690Y-43776190D01*
X129726690Y-43776190D02*
X129688595Y-43661904D01*
X129688595Y-43661904D02*
X129688595Y-43585713D01*
X129688595Y-43585713D02*
X129726690Y-43471428D01*
X129726690Y-43471428D02*
X129764785Y-43433332D01*
X130031452Y-42976190D02*
X129993357Y-43052380D01*
X129993357Y-43052380D02*
X129955261Y-43090475D01*
X129955261Y-43090475D02*
X129879071Y-43128571D01*
X129879071Y-43128571D02*
X129840976Y-43128571D01*
X129840976Y-43128571D02*
X129764785Y-43090475D01*
X129764785Y-43090475D02*
X129726690Y-43052380D01*
X129726690Y-43052380D02*
X129688595Y-42976190D01*
X129688595Y-42976190D02*
X129688595Y-42823809D01*
X129688595Y-42823809D02*
X129726690Y-42747618D01*
X129726690Y-42747618D02*
X129764785Y-42709523D01*
X129764785Y-42709523D02*
X129840976Y-42671428D01*
X129840976Y-42671428D02*
X129879071Y-42671428D01*
X129879071Y-42671428D02*
X129955261Y-42709523D01*
X129955261Y-42709523D02*
X129993357Y-42747618D01*
X129993357Y-42747618D02*
X130031452Y-42823809D01*
X130031452Y-42823809D02*
X130031452Y-42976190D01*
X130031452Y-42976190D02*
X130069547Y-43052380D01*
X130069547Y-43052380D02*
X130107642Y-43090475D01*
X130107642Y-43090475D02*
X130183833Y-43128571D01*
X130183833Y-43128571D02*
X130336214Y-43128571D01*
X130336214Y-43128571D02*
X130412404Y-43090475D01*
X130412404Y-43090475D02*
X130450500Y-43052380D01*
X130450500Y-43052380D02*
X130488595Y-42976190D01*
X130488595Y-42976190D02*
X130488595Y-42823809D01*
X130488595Y-42823809D02*
X130450500Y-42747618D01*
X130450500Y-42747618D02*
X130412404Y-42709523D01*
X130412404Y-42709523D02*
X130336214Y-42671428D01*
X130336214Y-42671428D02*
X130183833Y-42671428D01*
X130183833Y-42671428D02*
X130107642Y-42709523D01*
X130107642Y-42709523D02*
X130069547Y-42747618D01*
X130069547Y-42747618D02*
X130031452Y-42823809D01*
X108287404Y-30633332D02*
X108325500Y-30671428D01*
X108325500Y-30671428D02*
X108363595Y-30785713D01*
X108363595Y-30785713D02*
X108363595Y-30861904D01*
X108363595Y-30861904D02*
X108325500Y-30976190D01*
X108325500Y-30976190D02*
X108249309Y-31052380D01*
X108249309Y-31052380D02*
X108173119Y-31090475D01*
X108173119Y-31090475D02*
X108020738Y-31128571D01*
X108020738Y-31128571D02*
X107906452Y-31128571D01*
X107906452Y-31128571D02*
X107754071Y-31090475D01*
X107754071Y-31090475D02*
X107677880Y-31052380D01*
X107677880Y-31052380D02*
X107601690Y-30976190D01*
X107601690Y-30976190D02*
X107563595Y-30861904D01*
X107563595Y-30861904D02*
X107563595Y-30785713D01*
X107563595Y-30785713D02*
X107601690Y-30671428D01*
X107601690Y-30671428D02*
X107639785Y-30633332D01*
X107639785Y-30328571D02*
X107601690Y-30290475D01*
X107601690Y-30290475D02*
X107563595Y-30214285D01*
X107563595Y-30214285D02*
X107563595Y-30023809D01*
X107563595Y-30023809D02*
X107601690Y-29947618D01*
X107601690Y-29947618D02*
X107639785Y-29909523D01*
X107639785Y-29909523D02*
X107715976Y-29871428D01*
X107715976Y-29871428D02*
X107792166Y-29871428D01*
X107792166Y-29871428D02*
X107906452Y-29909523D01*
X107906452Y-29909523D02*
X108363595Y-30366666D01*
X108363595Y-30366666D02*
X108363595Y-29871428D01*
X149294524Y-27988595D02*
X149294524Y-27188595D01*
X149294524Y-27188595D02*
X149485000Y-27188595D01*
X149485000Y-27188595D02*
X149599286Y-27226690D01*
X149599286Y-27226690D02*
X149675476Y-27302880D01*
X149675476Y-27302880D02*
X149713571Y-27379071D01*
X149713571Y-27379071D02*
X149751667Y-27531452D01*
X149751667Y-27531452D02*
X149751667Y-27645738D01*
X149751667Y-27645738D02*
X149713571Y-27798119D01*
X149713571Y-27798119D02*
X149675476Y-27874309D01*
X149675476Y-27874309D02*
X149599286Y-27950500D01*
X149599286Y-27950500D02*
X149485000Y-27988595D01*
X149485000Y-27988595D02*
X149294524Y-27988595D01*
X150513571Y-27988595D02*
X150056428Y-27988595D01*
X150285000Y-27988595D02*
X150285000Y-27188595D01*
X150285000Y-27188595D02*
X150208809Y-27302880D01*
X150208809Y-27302880D02*
X150132619Y-27379071D01*
X150132619Y-27379071D02*
X150056428Y-27417166D01*
X126485714Y-47863595D02*
X126219047Y-47482642D01*
X126028571Y-47863595D02*
X126028571Y-47063595D01*
X126028571Y-47063595D02*
X126333333Y-47063595D01*
X126333333Y-47063595D02*
X126409523Y-47101690D01*
X126409523Y-47101690D02*
X126447618Y-47139785D01*
X126447618Y-47139785D02*
X126485714Y-47215976D01*
X126485714Y-47215976D02*
X126485714Y-47330261D01*
X126485714Y-47330261D02*
X126447618Y-47406452D01*
X126447618Y-47406452D02*
X126409523Y-47444547D01*
X126409523Y-47444547D02*
X126333333Y-47482642D01*
X126333333Y-47482642D02*
X126028571Y-47482642D01*
X126790475Y-47139785D02*
X126828571Y-47101690D01*
X126828571Y-47101690D02*
X126904761Y-47063595D01*
X126904761Y-47063595D02*
X127095237Y-47063595D01*
X127095237Y-47063595D02*
X127171428Y-47101690D01*
X127171428Y-47101690D02*
X127209523Y-47139785D01*
X127209523Y-47139785D02*
X127247618Y-47215976D01*
X127247618Y-47215976D02*
X127247618Y-47292166D01*
X127247618Y-47292166D02*
X127209523Y-47406452D01*
X127209523Y-47406452D02*
X126752380Y-47863595D01*
X126752380Y-47863595D02*
X127247618Y-47863595D01*
X127742857Y-47063595D02*
X127819047Y-47063595D01*
X127819047Y-47063595D02*
X127895238Y-47101690D01*
X127895238Y-47101690D02*
X127933333Y-47139785D01*
X127933333Y-47139785D02*
X127971428Y-47215976D01*
X127971428Y-47215976D02*
X128009523Y-47368357D01*
X128009523Y-47368357D02*
X128009523Y-47558833D01*
X128009523Y-47558833D02*
X127971428Y-47711214D01*
X127971428Y-47711214D02*
X127933333Y-47787404D01*
X127933333Y-47787404D02*
X127895238Y-47825500D01*
X127895238Y-47825500D02*
X127819047Y-47863595D01*
X127819047Y-47863595D02*
X127742857Y-47863595D01*
X127742857Y-47863595D02*
X127666666Y-47825500D01*
X127666666Y-47825500D02*
X127628571Y-47787404D01*
X127628571Y-47787404D02*
X127590476Y-47711214D01*
X127590476Y-47711214D02*
X127552380Y-47558833D01*
X127552380Y-47558833D02*
X127552380Y-47368357D01*
X127552380Y-47368357D02*
X127590476Y-47215976D01*
X127590476Y-47215976D02*
X127628571Y-47139785D01*
X127628571Y-47139785D02*
X127666666Y-47101690D01*
X127666666Y-47101690D02*
X127742857Y-47063595D01*
X115811667Y-39087404D02*
X115773571Y-39125500D01*
X115773571Y-39125500D02*
X115659286Y-39163595D01*
X115659286Y-39163595D02*
X115583095Y-39163595D01*
X115583095Y-39163595D02*
X115468809Y-39125500D01*
X115468809Y-39125500D02*
X115392619Y-39049309D01*
X115392619Y-39049309D02*
X115354524Y-38973119D01*
X115354524Y-38973119D02*
X115316428Y-38820738D01*
X115316428Y-38820738D02*
X115316428Y-38706452D01*
X115316428Y-38706452D02*
X115354524Y-38554071D01*
X115354524Y-38554071D02*
X115392619Y-38477880D01*
X115392619Y-38477880D02*
X115468809Y-38401690D01*
X115468809Y-38401690D02*
X115583095Y-38363595D01*
X115583095Y-38363595D02*
X115659286Y-38363595D01*
X115659286Y-38363595D02*
X115773571Y-38401690D01*
X115773571Y-38401690D02*
X115811667Y-38439785D01*
X116078333Y-38363595D02*
X116611667Y-38363595D01*
X116611667Y-38363595D02*
X116268809Y-39163595D01*
X139308332Y-30500500D02*
X139422618Y-30538595D01*
X139422618Y-30538595D02*
X139613094Y-30538595D01*
X139613094Y-30538595D02*
X139689285Y-30500500D01*
X139689285Y-30500500D02*
X139727380Y-30462404D01*
X139727380Y-30462404D02*
X139765475Y-30386214D01*
X139765475Y-30386214D02*
X139765475Y-30310023D01*
X139765475Y-30310023D02*
X139727380Y-30233833D01*
X139727380Y-30233833D02*
X139689285Y-30195738D01*
X139689285Y-30195738D02*
X139613094Y-30157642D01*
X139613094Y-30157642D02*
X139460713Y-30119547D01*
X139460713Y-30119547D02*
X139384523Y-30081452D01*
X139384523Y-30081452D02*
X139346428Y-30043357D01*
X139346428Y-30043357D02*
X139308332Y-29967166D01*
X139308332Y-29967166D02*
X139308332Y-29890976D01*
X139308332Y-29890976D02*
X139346428Y-29814785D01*
X139346428Y-29814785D02*
X139384523Y-29776690D01*
X139384523Y-29776690D02*
X139460713Y-29738595D01*
X139460713Y-29738595D02*
X139651190Y-29738595D01*
X139651190Y-29738595D02*
X139765475Y-29776690D01*
X140032142Y-29738595D02*
X140222618Y-30538595D01*
X140222618Y-30538595D02*
X140374999Y-29967166D01*
X140374999Y-29967166D02*
X140527380Y-30538595D01*
X140527380Y-30538595D02*
X140717857Y-29738595D01*
X141441666Y-30538595D02*
X140984523Y-30538595D01*
X141213095Y-30538595D02*
X141213095Y-29738595D01*
X141213095Y-29738595D02*
X141136904Y-29852880D01*
X141136904Y-29852880D02*
X141060714Y-29929071D01*
X141060714Y-29929071D02*
X140984523Y-29967166D01*
X112063595Y-36584523D02*
X112711214Y-36584523D01*
X112711214Y-36584523D02*
X112787404Y-36546428D01*
X112787404Y-36546428D02*
X112825500Y-36508333D01*
X112825500Y-36508333D02*
X112863595Y-36432142D01*
X112863595Y-36432142D02*
X112863595Y-36279761D01*
X112863595Y-36279761D02*
X112825500Y-36203571D01*
X112825500Y-36203571D02*
X112787404Y-36165476D01*
X112787404Y-36165476D02*
X112711214Y-36127380D01*
X112711214Y-36127380D02*
X112063595Y-36127380D01*
X112863595Y-35327381D02*
X112863595Y-35784524D01*
X112863595Y-35555952D02*
X112063595Y-35555952D01*
X112063595Y-35555952D02*
X112177880Y-35632143D01*
X112177880Y-35632143D02*
X112254071Y-35708333D01*
X112254071Y-35708333D02*
X112292166Y-35784524D01*
X145985714Y-42912404D02*
X145947618Y-42950500D01*
X145947618Y-42950500D02*
X145833333Y-42988595D01*
X145833333Y-42988595D02*
X145757142Y-42988595D01*
X145757142Y-42988595D02*
X145642856Y-42950500D01*
X145642856Y-42950500D02*
X145566666Y-42874309D01*
X145566666Y-42874309D02*
X145528571Y-42798119D01*
X145528571Y-42798119D02*
X145490475Y-42645738D01*
X145490475Y-42645738D02*
X145490475Y-42531452D01*
X145490475Y-42531452D02*
X145528571Y-42379071D01*
X145528571Y-42379071D02*
X145566666Y-42302880D01*
X145566666Y-42302880D02*
X145642856Y-42226690D01*
X145642856Y-42226690D02*
X145757142Y-42188595D01*
X145757142Y-42188595D02*
X145833333Y-42188595D01*
X145833333Y-42188595D02*
X145947618Y-42226690D01*
X145947618Y-42226690D02*
X145985714Y-42264785D01*
X146747618Y-42988595D02*
X146290475Y-42988595D01*
X146519047Y-42988595D02*
X146519047Y-42188595D01*
X146519047Y-42188595D02*
X146442856Y-42302880D01*
X146442856Y-42302880D02*
X146366666Y-42379071D01*
X146366666Y-42379071D02*
X146290475Y-42417166D01*
X147052380Y-42264785D02*
X147090476Y-42226690D01*
X147090476Y-42226690D02*
X147166666Y-42188595D01*
X147166666Y-42188595D02*
X147357142Y-42188595D01*
X147357142Y-42188595D02*
X147433333Y-42226690D01*
X147433333Y-42226690D02*
X147471428Y-42264785D01*
X147471428Y-42264785D02*
X147509523Y-42340976D01*
X147509523Y-42340976D02*
X147509523Y-42417166D01*
X147509523Y-42417166D02*
X147471428Y-42531452D01*
X147471428Y-42531452D02*
X147014285Y-42988595D01*
X147014285Y-42988595D02*
X147509523Y-42988595D01*
X159068333Y-22138595D02*
X159068333Y-22710023D01*
X159068333Y-22710023D02*
X159030238Y-22824309D01*
X159030238Y-22824309D02*
X158954047Y-22900500D01*
X158954047Y-22900500D02*
X158839762Y-22938595D01*
X158839762Y-22938595D02*
X158763571Y-22938595D01*
X159373095Y-22138595D02*
X159868333Y-22138595D01*
X159868333Y-22138595D02*
X159601667Y-22443357D01*
X159601667Y-22443357D02*
X159715952Y-22443357D01*
X159715952Y-22443357D02*
X159792143Y-22481452D01*
X159792143Y-22481452D02*
X159830238Y-22519547D01*
X159830238Y-22519547D02*
X159868333Y-22595738D01*
X159868333Y-22595738D02*
X159868333Y-22786214D01*
X159868333Y-22786214D02*
X159830238Y-22862404D01*
X159830238Y-22862404D02*
X159792143Y-22900500D01*
X159792143Y-22900500D02*
X159715952Y-22938595D01*
X159715952Y-22938595D02*
X159487381Y-22938595D01*
X159487381Y-22938595D02*
X159411190Y-22900500D01*
X159411190Y-22900500D02*
X159373095Y-22862404D01*
X124363595Y-45423332D02*
X123982642Y-45689999D01*
X124363595Y-45880475D02*
X123563595Y-45880475D01*
X123563595Y-45880475D02*
X123563595Y-45575713D01*
X123563595Y-45575713D02*
X123601690Y-45499523D01*
X123601690Y-45499523D02*
X123639785Y-45461428D01*
X123639785Y-45461428D02*
X123715976Y-45423332D01*
X123715976Y-45423332D02*
X123830261Y-45423332D01*
X123830261Y-45423332D02*
X123906452Y-45461428D01*
X123906452Y-45461428D02*
X123944547Y-45499523D01*
X123944547Y-45499523D02*
X123982642Y-45575713D01*
X123982642Y-45575713D02*
X123982642Y-45880475D01*
X123563595Y-45156666D02*
X123563595Y-44661428D01*
X123563595Y-44661428D02*
X123868357Y-44928094D01*
X123868357Y-44928094D02*
X123868357Y-44813809D01*
X123868357Y-44813809D02*
X123906452Y-44737618D01*
X123906452Y-44737618D02*
X123944547Y-44699523D01*
X123944547Y-44699523D02*
X124020738Y-44661428D01*
X124020738Y-44661428D02*
X124211214Y-44661428D01*
X124211214Y-44661428D02*
X124287404Y-44699523D01*
X124287404Y-44699523D02*
X124325500Y-44737618D01*
X124325500Y-44737618D02*
X124363595Y-44813809D01*
X124363595Y-44813809D02*
X124363595Y-45042380D01*
X124363595Y-45042380D02*
X124325500Y-45118571D01*
X124325500Y-45118571D02*
X124287404Y-45156666D01*
X91108333Y-30563595D02*
X91108333Y-31135023D01*
X91108333Y-31135023D02*
X91070238Y-31249309D01*
X91070238Y-31249309D02*
X90994047Y-31325500D01*
X90994047Y-31325500D02*
X90879762Y-31363595D01*
X90879762Y-31363595D02*
X90803571Y-31363595D01*
X91908333Y-31363595D02*
X91451190Y-31363595D01*
X91679762Y-31363595D02*
X91679762Y-30563595D01*
X91679762Y-30563595D02*
X91603571Y-30677880D01*
X91603571Y-30677880D02*
X91527381Y-30754071D01*
X91527381Y-30754071D02*
X91451190Y-30792166D01*
X149274524Y-24988595D02*
X149274524Y-24188595D01*
X149274524Y-24188595D02*
X149465000Y-24188595D01*
X149465000Y-24188595D02*
X149579286Y-24226690D01*
X149579286Y-24226690D02*
X149655476Y-24302880D01*
X149655476Y-24302880D02*
X149693571Y-24379071D01*
X149693571Y-24379071D02*
X149731667Y-24531452D01*
X149731667Y-24531452D02*
X149731667Y-24645738D01*
X149731667Y-24645738D02*
X149693571Y-24798119D01*
X149693571Y-24798119D02*
X149655476Y-24874309D01*
X149655476Y-24874309D02*
X149579286Y-24950500D01*
X149579286Y-24950500D02*
X149465000Y-24988595D01*
X149465000Y-24988595D02*
X149274524Y-24988595D01*
X150036428Y-24264785D02*
X150074524Y-24226690D01*
X150074524Y-24226690D02*
X150150714Y-24188595D01*
X150150714Y-24188595D02*
X150341190Y-24188595D01*
X150341190Y-24188595D02*
X150417381Y-24226690D01*
X150417381Y-24226690D02*
X150455476Y-24264785D01*
X150455476Y-24264785D02*
X150493571Y-24340976D01*
X150493571Y-24340976D02*
X150493571Y-24417166D01*
X150493571Y-24417166D02*
X150455476Y-24531452D01*
X150455476Y-24531452D02*
X149998333Y-24988595D01*
X149998333Y-24988595D02*
X150493571Y-24988595D01*
X121912404Y-25753332D02*
X121950500Y-25791428D01*
X121950500Y-25791428D02*
X121988595Y-25905713D01*
X121988595Y-25905713D02*
X121988595Y-25981904D01*
X121988595Y-25981904D02*
X121950500Y-26096190D01*
X121950500Y-26096190D02*
X121874309Y-26172380D01*
X121874309Y-26172380D02*
X121798119Y-26210475D01*
X121798119Y-26210475D02*
X121645738Y-26248571D01*
X121645738Y-26248571D02*
X121531452Y-26248571D01*
X121531452Y-26248571D02*
X121379071Y-26210475D01*
X121379071Y-26210475D02*
X121302880Y-26172380D01*
X121302880Y-26172380D02*
X121226690Y-26096190D01*
X121226690Y-26096190D02*
X121188595Y-25981904D01*
X121188595Y-25981904D02*
X121188595Y-25905713D01*
X121188595Y-25905713D02*
X121226690Y-25791428D01*
X121226690Y-25791428D02*
X121264785Y-25753332D01*
X121188595Y-25067618D02*
X121188595Y-25219999D01*
X121188595Y-25219999D02*
X121226690Y-25296190D01*
X121226690Y-25296190D02*
X121264785Y-25334285D01*
X121264785Y-25334285D02*
X121379071Y-25410475D01*
X121379071Y-25410475D02*
X121531452Y-25448571D01*
X121531452Y-25448571D02*
X121836214Y-25448571D01*
X121836214Y-25448571D02*
X121912404Y-25410475D01*
X121912404Y-25410475D02*
X121950500Y-25372380D01*
X121950500Y-25372380D02*
X121988595Y-25296190D01*
X121988595Y-25296190D02*
X121988595Y-25143809D01*
X121988595Y-25143809D02*
X121950500Y-25067618D01*
X121950500Y-25067618D02*
X121912404Y-25029523D01*
X121912404Y-25029523D02*
X121836214Y-24991428D01*
X121836214Y-24991428D02*
X121645738Y-24991428D01*
X121645738Y-24991428D02*
X121569547Y-25029523D01*
X121569547Y-25029523D02*
X121531452Y-25067618D01*
X121531452Y-25067618D02*
X121493357Y-25143809D01*
X121493357Y-25143809D02*
X121493357Y-25296190D01*
X121493357Y-25296190D02*
X121531452Y-25372380D01*
X121531452Y-25372380D02*
X121569547Y-25410475D01*
X121569547Y-25410475D02*
X121645738Y-25448571D01*
X145870714Y-44988595D02*
X145604047Y-44607642D01*
X145413571Y-44988595D02*
X145413571Y-44188595D01*
X145413571Y-44188595D02*
X145718333Y-44188595D01*
X145718333Y-44188595D02*
X145794523Y-44226690D01*
X145794523Y-44226690D02*
X145832618Y-44264785D01*
X145832618Y-44264785D02*
X145870714Y-44340976D01*
X145870714Y-44340976D02*
X145870714Y-44455261D01*
X145870714Y-44455261D02*
X145832618Y-44531452D01*
X145832618Y-44531452D02*
X145794523Y-44569547D01*
X145794523Y-44569547D02*
X145718333Y-44607642D01*
X145718333Y-44607642D02*
X145413571Y-44607642D01*
X146632618Y-44988595D02*
X146175475Y-44988595D01*
X146404047Y-44988595D02*
X146404047Y-44188595D01*
X146404047Y-44188595D02*
X146327856Y-44302880D01*
X146327856Y-44302880D02*
X146251666Y-44379071D01*
X146251666Y-44379071D02*
X146175475Y-44417166D01*
X146937380Y-44264785D02*
X146975476Y-44226690D01*
X146975476Y-44226690D02*
X147051666Y-44188595D01*
X147051666Y-44188595D02*
X147242142Y-44188595D01*
X147242142Y-44188595D02*
X147318333Y-44226690D01*
X147318333Y-44226690D02*
X147356428Y-44264785D01*
X147356428Y-44264785D02*
X147394523Y-44340976D01*
X147394523Y-44340976D02*
X147394523Y-44417166D01*
X147394523Y-44417166D02*
X147356428Y-44531452D01*
X147356428Y-44531452D02*
X146899285Y-44988595D01*
X146899285Y-44988595D02*
X147394523Y-44988595D01*
X114991667Y-35863595D02*
X114725000Y-35482642D01*
X114534524Y-35863595D02*
X114534524Y-35063595D01*
X114534524Y-35063595D02*
X114839286Y-35063595D01*
X114839286Y-35063595D02*
X114915476Y-35101690D01*
X114915476Y-35101690D02*
X114953571Y-35139785D01*
X114953571Y-35139785D02*
X114991667Y-35215976D01*
X114991667Y-35215976D02*
X114991667Y-35330261D01*
X114991667Y-35330261D02*
X114953571Y-35406452D01*
X114953571Y-35406452D02*
X114915476Y-35444547D01*
X114915476Y-35444547D02*
X114839286Y-35482642D01*
X114839286Y-35482642D02*
X114534524Y-35482642D01*
X115677381Y-35063595D02*
X115525000Y-35063595D01*
X115525000Y-35063595D02*
X115448809Y-35101690D01*
X115448809Y-35101690D02*
X115410714Y-35139785D01*
X115410714Y-35139785D02*
X115334524Y-35254071D01*
X115334524Y-35254071D02*
X115296428Y-35406452D01*
X115296428Y-35406452D02*
X115296428Y-35711214D01*
X115296428Y-35711214D02*
X115334524Y-35787404D01*
X115334524Y-35787404D02*
X115372619Y-35825500D01*
X115372619Y-35825500D02*
X115448809Y-35863595D01*
X115448809Y-35863595D02*
X115601190Y-35863595D01*
X115601190Y-35863595D02*
X115677381Y-35825500D01*
X115677381Y-35825500D02*
X115715476Y-35787404D01*
X115715476Y-35787404D02*
X115753571Y-35711214D01*
X115753571Y-35711214D02*
X115753571Y-35520738D01*
X115753571Y-35520738D02*
X115715476Y-35444547D01*
X115715476Y-35444547D02*
X115677381Y-35406452D01*
X115677381Y-35406452D02*
X115601190Y-35368357D01*
X115601190Y-35368357D02*
X115448809Y-35368357D01*
X115448809Y-35368357D02*
X115372619Y-35406452D01*
X115372619Y-35406452D02*
X115334524Y-35444547D01*
X115334524Y-35444547D02*
X115296428Y-35520738D01*
X157568595Y-32504285D02*
X157187642Y-32770952D01*
X157568595Y-32961428D02*
X156768595Y-32961428D01*
X156768595Y-32961428D02*
X156768595Y-32656666D01*
X156768595Y-32656666D02*
X156806690Y-32580476D01*
X156806690Y-32580476D02*
X156844785Y-32542381D01*
X156844785Y-32542381D02*
X156920976Y-32504285D01*
X156920976Y-32504285D02*
X157035261Y-32504285D01*
X157035261Y-32504285D02*
X157111452Y-32542381D01*
X157111452Y-32542381D02*
X157149547Y-32580476D01*
X157149547Y-32580476D02*
X157187642Y-32656666D01*
X157187642Y-32656666D02*
X157187642Y-32961428D01*
X157568595Y-31742381D02*
X157568595Y-32199524D01*
X157568595Y-31970952D02*
X156768595Y-31970952D01*
X156768595Y-31970952D02*
X156882880Y-32047143D01*
X156882880Y-32047143D02*
X156959071Y-32123333D01*
X156959071Y-32123333D02*
X156997166Y-32199524D01*
X156768595Y-31056666D02*
X156768595Y-31209047D01*
X156768595Y-31209047D02*
X156806690Y-31285238D01*
X156806690Y-31285238D02*
X156844785Y-31323333D01*
X156844785Y-31323333D02*
X156959071Y-31399523D01*
X156959071Y-31399523D02*
X157111452Y-31437619D01*
X157111452Y-31437619D02*
X157416214Y-31437619D01*
X157416214Y-31437619D02*
X157492404Y-31399523D01*
X157492404Y-31399523D02*
X157530500Y-31361428D01*
X157530500Y-31361428D02*
X157568595Y-31285238D01*
X157568595Y-31285238D02*
X157568595Y-31132857D01*
X157568595Y-31132857D02*
X157530500Y-31056666D01*
X157530500Y-31056666D02*
X157492404Y-31018571D01*
X157492404Y-31018571D02*
X157416214Y-30980476D01*
X157416214Y-30980476D02*
X157225738Y-30980476D01*
X157225738Y-30980476D02*
X157149547Y-31018571D01*
X157149547Y-31018571D02*
X157111452Y-31056666D01*
X157111452Y-31056666D02*
X157073357Y-31132857D01*
X157073357Y-31132857D02*
X157073357Y-31285238D01*
X157073357Y-31285238D02*
X157111452Y-31361428D01*
X157111452Y-31361428D02*
X157149547Y-31399523D01*
X157149547Y-31399523D02*
X157225738Y-31437619D01*
X110447404Y-41608332D02*
X110485500Y-41646428D01*
X110485500Y-41646428D02*
X110523595Y-41760713D01*
X110523595Y-41760713D02*
X110523595Y-41836904D01*
X110523595Y-41836904D02*
X110485500Y-41951190D01*
X110485500Y-41951190D02*
X110409309Y-42027380D01*
X110409309Y-42027380D02*
X110333119Y-42065475D01*
X110333119Y-42065475D02*
X110180738Y-42103571D01*
X110180738Y-42103571D02*
X110066452Y-42103571D01*
X110066452Y-42103571D02*
X109914071Y-42065475D01*
X109914071Y-42065475D02*
X109837880Y-42027380D01*
X109837880Y-42027380D02*
X109761690Y-41951190D01*
X109761690Y-41951190D02*
X109723595Y-41836904D01*
X109723595Y-41836904D02*
X109723595Y-41760713D01*
X109723595Y-41760713D02*
X109761690Y-41646428D01*
X109761690Y-41646428D02*
X109799785Y-41608332D01*
X109990261Y-40922618D02*
X110523595Y-40922618D01*
X109685500Y-41113094D02*
X110256928Y-41303571D01*
X110256928Y-41303571D02*
X110256928Y-40808332D01*
X118015476Y-39863595D02*
X118015476Y-40511214D01*
X118015476Y-40511214D02*
X118053571Y-40587404D01*
X118053571Y-40587404D02*
X118091666Y-40625500D01*
X118091666Y-40625500D02*
X118167857Y-40663595D01*
X118167857Y-40663595D02*
X118320238Y-40663595D01*
X118320238Y-40663595D02*
X118396428Y-40625500D01*
X118396428Y-40625500D02*
X118434523Y-40587404D01*
X118434523Y-40587404D02*
X118472619Y-40511214D01*
X118472619Y-40511214D02*
X118472619Y-39863595D01*
X118815475Y-39939785D02*
X118853571Y-39901690D01*
X118853571Y-39901690D02*
X118929761Y-39863595D01*
X118929761Y-39863595D02*
X119120237Y-39863595D01*
X119120237Y-39863595D02*
X119196428Y-39901690D01*
X119196428Y-39901690D02*
X119234523Y-39939785D01*
X119234523Y-39939785D02*
X119272618Y-40015976D01*
X119272618Y-40015976D02*
X119272618Y-40092166D01*
X119272618Y-40092166D02*
X119234523Y-40206452D01*
X119234523Y-40206452D02*
X118777380Y-40663595D01*
X118777380Y-40663595D02*
X119272618Y-40663595D01*
X125363595Y-46633332D02*
X124982642Y-46899999D01*
X125363595Y-47090475D02*
X124563595Y-47090475D01*
X124563595Y-47090475D02*
X124563595Y-46785713D01*
X124563595Y-46785713D02*
X124601690Y-46709523D01*
X124601690Y-46709523D02*
X124639785Y-46671428D01*
X124639785Y-46671428D02*
X124715976Y-46633332D01*
X124715976Y-46633332D02*
X124830261Y-46633332D01*
X124830261Y-46633332D02*
X124906452Y-46671428D01*
X124906452Y-46671428D02*
X124944547Y-46709523D01*
X124944547Y-46709523D02*
X124982642Y-46785713D01*
X124982642Y-46785713D02*
X124982642Y-47090475D01*
X124830261Y-45947618D02*
X125363595Y-45947618D01*
X124525500Y-46138094D02*
X125096928Y-46328571D01*
X125096928Y-46328571D02*
X125096928Y-45833332D01*
X144485714Y-41787404D02*
X144447618Y-41825500D01*
X144447618Y-41825500D02*
X144333333Y-41863595D01*
X144333333Y-41863595D02*
X144257142Y-41863595D01*
X144257142Y-41863595D02*
X144142856Y-41825500D01*
X144142856Y-41825500D02*
X144066666Y-41749309D01*
X144066666Y-41749309D02*
X144028571Y-41673119D01*
X144028571Y-41673119D02*
X143990475Y-41520738D01*
X143990475Y-41520738D02*
X143990475Y-41406452D01*
X143990475Y-41406452D02*
X144028571Y-41254071D01*
X144028571Y-41254071D02*
X144066666Y-41177880D01*
X144066666Y-41177880D02*
X144142856Y-41101690D01*
X144142856Y-41101690D02*
X144257142Y-41063595D01*
X144257142Y-41063595D02*
X144333333Y-41063595D01*
X144333333Y-41063595D02*
X144447618Y-41101690D01*
X144447618Y-41101690D02*
X144485714Y-41139785D01*
X145247618Y-41863595D02*
X144790475Y-41863595D01*
X145019047Y-41863595D02*
X145019047Y-41063595D01*
X145019047Y-41063595D02*
X144942856Y-41177880D01*
X144942856Y-41177880D02*
X144866666Y-41254071D01*
X144866666Y-41254071D02*
X144790475Y-41292166D01*
X146009523Y-41863595D02*
X145552380Y-41863595D01*
X145780952Y-41863595D02*
X145780952Y-41063595D01*
X145780952Y-41063595D02*
X145704761Y-41177880D01*
X145704761Y-41177880D02*
X145628571Y-41254071D01*
X145628571Y-41254071D02*
X145552380Y-41292166D01*
X106287404Y-42323332D02*
X106325500Y-42361428D01*
X106325500Y-42361428D02*
X106363595Y-42475713D01*
X106363595Y-42475713D02*
X106363595Y-42551904D01*
X106363595Y-42551904D02*
X106325500Y-42666190D01*
X106325500Y-42666190D02*
X106249309Y-42742380D01*
X106249309Y-42742380D02*
X106173119Y-42780475D01*
X106173119Y-42780475D02*
X106020738Y-42818571D01*
X106020738Y-42818571D02*
X105906452Y-42818571D01*
X105906452Y-42818571D02*
X105754071Y-42780475D01*
X105754071Y-42780475D02*
X105677880Y-42742380D01*
X105677880Y-42742380D02*
X105601690Y-42666190D01*
X105601690Y-42666190D02*
X105563595Y-42551904D01*
X105563595Y-42551904D02*
X105563595Y-42475713D01*
X105563595Y-42475713D02*
X105601690Y-42361428D01*
X105601690Y-42361428D02*
X105639785Y-42323332D01*
X105563595Y-42056666D02*
X105563595Y-41561428D01*
X105563595Y-41561428D02*
X105868357Y-41828094D01*
X105868357Y-41828094D02*
X105868357Y-41713809D01*
X105868357Y-41713809D02*
X105906452Y-41637618D01*
X105906452Y-41637618D02*
X105944547Y-41599523D01*
X105944547Y-41599523D02*
X106020738Y-41561428D01*
X106020738Y-41561428D02*
X106211214Y-41561428D01*
X106211214Y-41561428D02*
X106287404Y-41599523D01*
X106287404Y-41599523D02*
X106325500Y-41637618D01*
X106325500Y-41637618D02*
X106363595Y-41713809D01*
X106363595Y-41713809D02*
X106363595Y-41942380D01*
X106363595Y-41942380D02*
X106325500Y-42018571D01*
X106325500Y-42018571D02*
X106287404Y-42056666D01*
X134366667Y-31287404D02*
X134328571Y-31325500D01*
X134328571Y-31325500D02*
X134214286Y-31363595D01*
X134214286Y-31363595D02*
X134138095Y-31363595D01*
X134138095Y-31363595D02*
X134023809Y-31325500D01*
X134023809Y-31325500D02*
X133947619Y-31249309D01*
X133947619Y-31249309D02*
X133909524Y-31173119D01*
X133909524Y-31173119D02*
X133871428Y-31020738D01*
X133871428Y-31020738D02*
X133871428Y-30906452D01*
X133871428Y-30906452D02*
X133909524Y-30754071D01*
X133909524Y-30754071D02*
X133947619Y-30677880D01*
X133947619Y-30677880D02*
X134023809Y-30601690D01*
X134023809Y-30601690D02*
X134138095Y-30563595D01*
X134138095Y-30563595D02*
X134214286Y-30563595D01*
X134214286Y-30563595D02*
X134328571Y-30601690D01*
X134328571Y-30601690D02*
X134366667Y-30639785D01*
X134747619Y-31363595D02*
X134900000Y-31363595D01*
X134900000Y-31363595D02*
X134976190Y-31325500D01*
X134976190Y-31325500D02*
X135014286Y-31287404D01*
X135014286Y-31287404D02*
X135090476Y-31173119D01*
X135090476Y-31173119D02*
X135128571Y-31020738D01*
X135128571Y-31020738D02*
X135128571Y-30715976D01*
X135128571Y-30715976D02*
X135090476Y-30639785D01*
X135090476Y-30639785D02*
X135052381Y-30601690D01*
X135052381Y-30601690D02*
X134976190Y-30563595D01*
X134976190Y-30563595D02*
X134823809Y-30563595D01*
X134823809Y-30563595D02*
X134747619Y-30601690D01*
X134747619Y-30601690D02*
X134709524Y-30639785D01*
X134709524Y-30639785D02*
X134671428Y-30715976D01*
X134671428Y-30715976D02*
X134671428Y-30906452D01*
X134671428Y-30906452D02*
X134709524Y-30982642D01*
X134709524Y-30982642D02*
X134747619Y-31020738D01*
X134747619Y-31020738D02*
X134823809Y-31058833D01*
X134823809Y-31058833D02*
X134976190Y-31058833D01*
X134976190Y-31058833D02*
X135052381Y-31020738D01*
X135052381Y-31020738D02*
X135090476Y-30982642D01*
X135090476Y-30982642D02*
X135128571Y-30906452D01*
X114991667Y-34863595D02*
X114725000Y-34482642D01*
X114534524Y-34863595D02*
X114534524Y-34063595D01*
X114534524Y-34063595D02*
X114839286Y-34063595D01*
X114839286Y-34063595D02*
X114915476Y-34101690D01*
X114915476Y-34101690D02*
X114953571Y-34139785D01*
X114953571Y-34139785D02*
X114991667Y-34215976D01*
X114991667Y-34215976D02*
X114991667Y-34330261D01*
X114991667Y-34330261D02*
X114953571Y-34406452D01*
X114953571Y-34406452D02*
X114915476Y-34444547D01*
X114915476Y-34444547D02*
X114839286Y-34482642D01*
X114839286Y-34482642D02*
X114534524Y-34482642D01*
X115715476Y-34063595D02*
X115334524Y-34063595D01*
X115334524Y-34063595D02*
X115296428Y-34444547D01*
X115296428Y-34444547D02*
X115334524Y-34406452D01*
X115334524Y-34406452D02*
X115410714Y-34368357D01*
X115410714Y-34368357D02*
X115601190Y-34368357D01*
X115601190Y-34368357D02*
X115677381Y-34406452D01*
X115677381Y-34406452D02*
X115715476Y-34444547D01*
X115715476Y-34444547D02*
X115753571Y-34520738D01*
X115753571Y-34520738D02*
X115753571Y-34711214D01*
X115753571Y-34711214D02*
X115715476Y-34787404D01*
X115715476Y-34787404D02*
X115677381Y-34825500D01*
X115677381Y-34825500D02*
X115601190Y-34863595D01*
X115601190Y-34863595D02*
X115410714Y-34863595D01*
X115410714Y-34863595D02*
X115334524Y-34825500D01*
X115334524Y-34825500D02*
X115296428Y-34787404D01*
X160738595Y-32514285D02*
X160357642Y-32780952D01*
X160738595Y-32971428D02*
X159938595Y-32971428D01*
X159938595Y-32971428D02*
X159938595Y-32666666D01*
X159938595Y-32666666D02*
X159976690Y-32590476D01*
X159976690Y-32590476D02*
X160014785Y-32552381D01*
X160014785Y-32552381D02*
X160090976Y-32514285D01*
X160090976Y-32514285D02*
X160205261Y-32514285D01*
X160205261Y-32514285D02*
X160281452Y-32552381D01*
X160281452Y-32552381D02*
X160319547Y-32590476D01*
X160319547Y-32590476D02*
X160357642Y-32666666D01*
X160357642Y-32666666D02*
X160357642Y-32971428D01*
X160738595Y-31752381D02*
X160738595Y-32209524D01*
X160738595Y-31980952D02*
X159938595Y-31980952D01*
X159938595Y-31980952D02*
X160052880Y-32057143D01*
X160052880Y-32057143D02*
X160129071Y-32133333D01*
X160129071Y-32133333D02*
X160167166Y-32209524D01*
X159938595Y-31485714D02*
X159938595Y-30952380D01*
X159938595Y-30952380D02*
X160738595Y-31295238D01*
X145870714Y-45988595D02*
X145604047Y-45607642D01*
X145413571Y-45988595D02*
X145413571Y-45188595D01*
X145413571Y-45188595D02*
X145718333Y-45188595D01*
X145718333Y-45188595D02*
X145794523Y-45226690D01*
X145794523Y-45226690D02*
X145832618Y-45264785D01*
X145832618Y-45264785D02*
X145870714Y-45340976D01*
X145870714Y-45340976D02*
X145870714Y-45455261D01*
X145870714Y-45455261D02*
X145832618Y-45531452D01*
X145832618Y-45531452D02*
X145794523Y-45569547D01*
X145794523Y-45569547D02*
X145718333Y-45607642D01*
X145718333Y-45607642D02*
X145413571Y-45607642D01*
X146632618Y-45988595D02*
X146175475Y-45988595D01*
X146404047Y-45988595D02*
X146404047Y-45188595D01*
X146404047Y-45188595D02*
X146327856Y-45302880D01*
X146327856Y-45302880D02*
X146251666Y-45379071D01*
X146251666Y-45379071D02*
X146175475Y-45417166D01*
X147394523Y-45988595D02*
X146937380Y-45988595D01*
X147165952Y-45988595D02*
X147165952Y-45188595D01*
X147165952Y-45188595D02*
X147089761Y-45302880D01*
X147089761Y-45302880D02*
X147013571Y-45379071D01*
X147013571Y-45379071D02*
X146937380Y-45417166D01*
X128866667Y-45363595D02*
X128600000Y-44982642D01*
X128409524Y-45363595D02*
X128409524Y-44563595D01*
X128409524Y-44563595D02*
X128714286Y-44563595D01*
X128714286Y-44563595D02*
X128790476Y-44601690D01*
X128790476Y-44601690D02*
X128828571Y-44639785D01*
X128828571Y-44639785D02*
X128866667Y-44715976D01*
X128866667Y-44715976D02*
X128866667Y-44830261D01*
X128866667Y-44830261D02*
X128828571Y-44906452D01*
X128828571Y-44906452D02*
X128790476Y-44944547D01*
X128790476Y-44944547D02*
X128714286Y-44982642D01*
X128714286Y-44982642D02*
X128409524Y-44982642D01*
X129171428Y-44639785D02*
X129209524Y-44601690D01*
X129209524Y-44601690D02*
X129285714Y-44563595D01*
X129285714Y-44563595D02*
X129476190Y-44563595D01*
X129476190Y-44563595D02*
X129552381Y-44601690D01*
X129552381Y-44601690D02*
X129590476Y-44639785D01*
X129590476Y-44639785D02*
X129628571Y-44715976D01*
X129628571Y-44715976D02*
X129628571Y-44792166D01*
X129628571Y-44792166D02*
X129590476Y-44906452D01*
X129590476Y-44906452D02*
X129133333Y-45363595D01*
X129133333Y-45363595D02*
X129628571Y-45363595D01*
X132412404Y-43514285D02*
X132450500Y-43552381D01*
X132450500Y-43552381D02*
X132488595Y-43666666D01*
X132488595Y-43666666D02*
X132488595Y-43742857D01*
X132488595Y-43742857D02*
X132450500Y-43857143D01*
X132450500Y-43857143D02*
X132374309Y-43933333D01*
X132374309Y-43933333D02*
X132298119Y-43971428D01*
X132298119Y-43971428D02*
X132145738Y-44009524D01*
X132145738Y-44009524D02*
X132031452Y-44009524D01*
X132031452Y-44009524D02*
X131879071Y-43971428D01*
X131879071Y-43971428D02*
X131802880Y-43933333D01*
X131802880Y-43933333D02*
X131726690Y-43857143D01*
X131726690Y-43857143D02*
X131688595Y-43742857D01*
X131688595Y-43742857D02*
X131688595Y-43666666D01*
X131688595Y-43666666D02*
X131726690Y-43552381D01*
X131726690Y-43552381D02*
X131764785Y-43514285D01*
X132488595Y-42752381D02*
X132488595Y-43209524D01*
X132488595Y-42980952D02*
X131688595Y-42980952D01*
X131688595Y-42980952D02*
X131802880Y-43057143D01*
X131802880Y-43057143D02*
X131879071Y-43133333D01*
X131879071Y-43133333D02*
X131917166Y-43209524D01*
X131688595Y-42028571D02*
X131688595Y-42409523D01*
X131688595Y-42409523D02*
X132069547Y-42447619D01*
X132069547Y-42447619D02*
X132031452Y-42409523D01*
X132031452Y-42409523D02*
X131993357Y-42333333D01*
X131993357Y-42333333D02*
X131993357Y-42142857D01*
X131993357Y-42142857D02*
X132031452Y-42066666D01*
X132031452Y-42066666D02*
X132069547Y-42028571D01*
X132069547Y-42028571D02*
X132145738Y-41990476D01*
X132145738Y-41990476D02*
X132336214Y-41990476D01*
X132336214Y-41990476D02*
X132412404Y-42028571D01*
X132412404Y-42028571D02*
X132450500Y-42066666D01*
X132450500Y-42066666D02*
X132488595Y-42142857D01*
X132488595Y-42142857D02*
X132488595Y-42333333D01*
X132488595Y-42333333D02*
X132450500Y-42409523D01*
X132450500Y-42409523D02*
X132412404Y-42447619D01*
X145870714Y-43988595D02*
X145604047Y-43607642D01*
X145413571Y-43988595D02*
X145413571Y-43188595D01*
X145413571Y-43188595D02*
X145718333Y-43188595D01*
X145718333Y-43188595D02*
X145794523Y-43226690D01*
X145794523Y-43226690D02*
X145832618Y-43264785D01*
X145832618Y-43264785D02*
X145870714Y-43340976D01*
X145870714Y-43340976D02*
X145870714Y-43455261D01*
X145870714Y-43455261D02*
X145832618Y-43531452D01*
X145832618Y-43531452D02*
X145794523Y-43569547D01*
X145794523Y-43569547D02*
X145718333Y-43607642D01*
X145718333Y-43607642D02*
X145413571Y-43607642D01*
X146632618Y-43988595D02*
X146175475Y-43988595D01*
X146404047Y-43988595D02*
X146404047Y-43188595D01*
X146404047Y-43188595D02*
X146327856Y-43302880D01*
X146327856Y-43302880D02*
X146251666Y-43379071D01*
X146251666Y-43379071D02*
X146175475Y-43417166D01*
X146899285Y-43188595D02*
X147394523Y-43188595D01*
X147394523Y-43188595D02*
X147127857Y-43493357D01*
X147127857Y-43493357D02*
X147242142Y-43493357D01*
X147242142Y-43493357D02*
X147318333Y-43531452D01*
X147318333Y-43531452D02*
X147356428Y-43569547D01*
X147356428Y-43569547D02*
X147394523Y-43645738D01*
X147394523Y-43645738D02*
X147394523Y-43836214D01*
X147394523Y-43836214D02*
X147356428Y-43912404D01*
X147356428Y-43912404D02*
X147318333Y-43950500D01*
X147318333Y-43950500D02*
X147242142Y-43988595D01*
X147242142Y-43988595D02*
X147013571Y-43988595D01*
X147013571Y-43988595D02*
X146937380Y-43950500D01*
X146937380Y-43950500D02*
X146899285Y-43912404D01*
X127366667Y-25907404D02*
X127328571Y-25945500D01*
X127328571Y-25945500D02*
X127214286Y-25983595D01*
X127214286Y-25983595D02*
X127138095Y-25983595D01*
X127138095Y-25983595D02*
X127023809Y-25945500D01*
X127023809Y-25945500D02*
X126947619Y-25869309D01*
X126947619Y-25869309D02*
X126909524Y-25793119D01*
X126909524Y-25793119D02*
X126871428Y-25640738D01*
X126871428Y-25640738D02*
X126871428Y-25526452D01*
X126871428Y-25526452D02*
X126909524Y-25374071D01*
X126909524Y-25374071D02*
X126947619Y-25297880D01*
X126947619Y-25297880D02*
X127023809Y-25221690D01*
X127023809Y-25221690D02*
X127138095Y-25183595D01*
X127138095Y-25183595D02*
X127214286Y-25183595D01*
X127214286Y-25183595D02*
X127328571Y-25221690D01*
X127328571Y-25221690D02*
X127366667Y-25259785D01*
X128090476Y-25183595D02*
X127709524Y-25183595D01*
X127709524Y-25183595D02*
X127671428Y-25564547D01*
X127671428Y-25564547D02*
X127709524Y-25526452D01*
X127709524Y-25526452D02*
X127785714Y-25488357D01*
X127785714Y-25488357D02*
X127976190Y-25488357D01*
X127976190Y-25488357D02*
X128052381Y-25526452D01*
X128052381Y-25526452D02*
X128090476Y-25564547D01*
X128090476Y-25564547D02*
X128128571Y-25640738D01*
X128128571Y-25640738D02*
X128128571Y-25831214D01*
X128128571Y-25831214D02*
X128090476Y-25907404D01*
X128090476Y-25907404D02*
X128052381Y-25945500D01*
X128052381Y-25945500D02*
X127976190Y-25983595D01*
X127976190Y-25983595D02*
X127785714Y-25983595D01*
X127785714Y-25983595D02*
X127709524Y-25945500D01*
X127709524Y-25945500D02*
X127671428Y-25907404D01*
X122363595Y-45633332D02*
X121982642Y-45899999D01*
X122363595Y-46090475D02*
X121563595Y-46090475D01*
X121563595Y-46090475D02*
X121563595Y-45785713D01*
X121563595Y-45785713D02*
X121601690Y-45709523D01*
X121601690Y-45709523D02*
X121639785Y-45671428D01*
X121639785Y-45671428D02*
X121715976Y-45633332D01*
X121715976Y-45633332D02*
X121830261Y-45633332D01*
X121830261Y-45633332D02*
X121906452Y-45671428D01*
X121906452Y-45671428D02*
X121944547Y-45709523D01*
X121944547Y-45709523D02*
X121982642Y-45785713D01*
X121982642Y-45785713D02*
X121982642Y-46090475D01*
X121906452Y-45176190D02*
X121868357Y-45252380D01*
X121868357Y-45252380D02*
X121830261Y-45290475D01*
X121830261Y-45290475D02*
X121754071Y-45328571D01*
X121754071Y-45328571D02*
X121715976Y-45328571D01*
X121715976Y-45328571D02*
X121639785Y-45290475D01*
X121639785Y-45290475D02*
X121601690Y-45252380D01*
X121601690Y-45252380D02*
X121563595Y-45176190D01*
X121563595Y-45176190D02*
X121563595Y-45023809D01*
X121563595Y-45023809D02*
X121601690Y-44947618D01*
X121601690Y-44947618D02*
X121639785Y-44909523D01*
X121639785Y-44909523D02*
X121715976Y-44871428D01*
X121715976Y-44871428D02*
X121754071Y-44871428D01*
X121754071Y-44871428D02*
X121830261Y-44909523D01*
X121830261Y-44909523D02*
X121868357Y-44947618D01*
X121868357Y-44947618D02*
X121906452Y-45023809D01*
X121906452Y-45023809D02*
X121906452Y-45176190D01*
X121906452Y-45176190D02*
X121944547Y-45252380D01*
X121944547Y-45252380D02*
X121982642Y-45290475D01*
X121982642Y-45290475D02*
X122058833Y-45328571D01*
X122058833Y-45328571D02*
X122211214Y-45328571D01*
X122211214Y-45328571D02*
X122287404Y-45290475D01*
X122287404Y-45290475D02*
X122325500Y-45252380D01*
X122325500Y-45252380D02*
X122363595Y-45176190D01*
X122363595Y-45176190D02*
X122363595Y-45023809D01*
X122363595Y-45023809D02*
X122325500Y-44947618D01*
X122325500Y-44947618D02*
X122287404Y-44909523D01*
X122287404Y-44909523D02*
X122211214Y-44871428D01*
X122211214Y-44871428D02*
X122058833Y-44871428D01*
X122058833Y-44871428D02*
X121982642Y-44909523D01*
X121982642Y-44909523D02*
X121944547Y-44947618D01*
X121944547Y-44947618D02*
X121906452Y-45023809D01*
X120863595Y-43633332D02*
X120482642Y-43899999D01*
X120863595Y-44090475D02*
X120063595Y-44090475D01*
X120063595Y-44090475D02*
X120063595Y-43785713D01*
X120063595Y-43785713D02*
X120101690Y-43709523D01*
X120101690Y-43709523D02*
X120139785Y-43671428D01*
X120139785Y-43671428D02*
X120215976Y-43633332D01*
X120215976Y-43633332D02*
X120330261Y-43633332D01*
X120330261Y-43633332D02*
X120406452Y-43671428D01*
X120406452Y-43671428D02*
X120444547Y-43709523D01*
X120444547Y-43709523D02*
X120482642Y-43785713D01*
X120482642Y-43785713D02*
X120482642Y-44090475D01*
X120063595Y-43366666D02*
X120063595Y-42833332D01*
X120063595Y-42833332D02*
X120863595Y-43176190D01*
X150233333Y-32563595D02*
X150233333Y-33135023D01*
X150233333Y-33135023D02*
X150195238Y-33249309D01*
X150195238Y-33249309D02*
X150119047Y-33325500D01*
X150119047Y-33325500D02*
X150004762Y-33363595D01*
X150004762Y-33363595D02*
X149928571Y-33363595D01*
X150957143Y-32830261D02*
X150957143Y-33363595D01*
X150766667Y-32525500D02*
X150576190Y-33096928D01*
X150576190Y-33096928D02*
X151071429Y-33096928D01*
D11*
%TO.C,C14*%
X134037164Y-36660000D02*
X134252836Y-36660000D01*
X134037164Y-35940000D02*
X134252836Y-35940000D01*
%TO.C,Y1*%
X136290000Y-38260000D02*
X139710000Y-38260000D01*
X136290000Y-35340000D02*
X136290000Y-38260000D01*
%TO.C,C13*%
X134037164Y-37660000D02*
X134252836Y-37660000D01*
X134037164Y-36940000D02*
X134252836Y-36940000D01*
%TO.C,R14*%
X99846359Y-34440000D02*
X100153641Y-34440000D01*
X99846359Y-35200000D02*
X100153641Y-35200000D01*
%TO.C,U3*%
X98690000Y-37690000D02*
X98210000Y-37690000D01*
X98450000Y-37360000D01*
X98690000Y-37690000D01*
G36*
X98690000Y-37690000D02*
G01*
X98210000Y-37690000D01*
X98450000Y-37360000D01*
X98690000Y-37690000D01*
G37*
X96090000Y-34290000D02*
X97910000Y-34290000D01*
X96090000Y-34340000D02*
X96090000Y-34290000D01*
X96090000Y-37410000D02*
X96090000Y-37360000D01*
X97910000Y-34290000D02*
X97910000Y-34340000D01*
X97910000Y-37360000D02*
X97910000Y-37410000D01*
X97910000Y-37410000D02*
X96090000Y-37410000D01*
%TO.C,R15*%
X99846359Y-37260000D02*
X100153641Y-37260000D01*
X99846359Y-36500000D02*
X100153641Y-36500000D01*
%TO.C,F1*%
X94488748Y-30360000D02*
X97261252Y-30360000D01*
X94488748Y-33780000D02*
X97261252Y-33780000D01*
%TO.C,R10*%
X148731359Y-37505000D02*
X149038641Y-37505000D01*
X148731359Y-36745000D02*
X149038641Y-36745000D01*
%TO.C,R9*%
X148721359Y-38505000D02*
X149028641Y-38505000D01*
X148721359Y-37745000D02*
X149028641Y-37745000D01*
%TO.C,R1*%
X134278641Y-33620000D02*
X133971359Y-33620000D01*
X134278641Y-34380000D02*
X133971359Y-34380000D01*
%TO.C,C1*%
X104765000Y-29966252D02*
X104765000Y-29443748D01*
X106235000Y-29966252D02*
X106235000Y-29443748D01*
%TO.C,C10*%
X122265000Y-27427836D02*
X122265000Y-27212164D01*
X122985000Y-27427836D02*
X122985000Y-27212164D01*
%TO.C,J2*%
X129720000Y-49505000D02*
X129720000Y-48125000D01*
X131100000Y-49505000D02*
X129720000Y-49505000D01*
X132370000Y-49505000D02*
X135020000Y-49505000D01*
X132370000Y-49505000D02*
X132370000Y-46745000D01*
X135020000Y-49505000D02*
X135020000Y-46745000D01*
X132370000Y-46745000D02*
X135020000Y-46745000D01*
%TO.C,R19*%
X147711359Y-25245000D02*
X148018641Y-25245000D01*
X147711359Y-26005000D02*
X148018641Y-26005000D01*
%TO.C,R18*%
X152038641Y-27005000D02*
X151731359Y-27005000D01*
X152038641Y-26245000D02*
X151731359Y-26245000D01*
%TO.C,C8*%
X130485000Y-41192164D02*
X130485000Y-41407836D01*
X129765000Y-41192164D02*
X129765000Y-41407836D01*
%TO.C,C2*%
X106640000Y-30602836D02*
X106640000Y-30387164D01*
X107360000Y-30602836D02*
X107360000Y-30387164D01*
D12*
%TO.C,D1*%
X148845000Y-26625000D02*
G75*
G02*
X148745000Y-26625000I-50000J0D01*
G01*
X148745000Y-26625000D02*
G75*
G02*
X148845000Y-26625000I50000J0D01*
G01*
D11*
%TO.C,R20*%
X126245000Y-43463641D02*
X126245000Y-43156359D01*
X127005000Y-43463641D02*
X127005000Y-43156359D01*
%TO.C,C7*%
X117752836Y-39160000D02*
X117537164Y-39160000D01*
X117752836Y-38440000D02*
X117537164Y-38440000D01*
%TO.C,SW1*%
X143605000Y-29355000D02*
X137145000Y-29355000D01*
X143605000Y-29325000D02*
X143605000Y-29355000D01*
X143605000Y-27425000D02*
X143605000Y-24825000D01*
X143605000Y-22895000D02*
X143605000Y-22925000D01*
X143605000Y-22895000D02*
X137145000Y-22895000D01*
X137145000Y-29355000D02*
X137145000Y-29325000D01*
X137145000Y-27425000D02*
X137145000Y-24825000D01*
X137145000Y-22895000D02*
X137145000Y-22925000D01*
%TO.C,U1*%
X111410000Y-34125000D02*
X111410000Y-37885000D01*
X104590000Y-34125000D02*
X104590000Y-37885000D01*
X111410000Y-37885000D02*
X110150000Y-37885000D01*
X104590000Y-37885000D02*
X105850000Y-37885000D01*
X111640000Y-33085000D02*
X111310000Y-32845000D01*
X111640000Y-32605000D01*
X111640000Y-33085000D01*
G36*
X111640000Y-33085000D02*
G01*
X111310000Y-32845000D01*
X111640000Y-32605000D01*
X111640000Y-33085000D01*
G37*
%TO.C,C12*%
X148962836Y-42910000D02*
X148747164Y-42910000D01*
X148962836Y-42190000D02*
X148747164Y-42190000D01*
%TO.C,J3*%
X153985000Y-23525000D02*
X159735000Y-23525000D01*
X153985000Y-29525000D02*
X153985000Y-23525000D01*
X155335000Y-28415000D02*
X160415000Y-28415000D01*
X155335000Y-29425000D02*
X155335000Y-28415000D01*
X160415000Y-28415000D02*
X160415000Y-29425000D01*
X161085000Y-23575000D02*
X164285000Y-23575000D01*
X164285000Y-23575000D02*
X164285000Y-29525000D01*
X164285000Y-29525000D02*
X153985000Y-29525000D01*
%TO.C,R3*%
X123620000Y-43443641D02*
X123620000Y-43136359D01*
X124380000Y-43443641D02*
X124380000Y-43136359D01*
%TO.C,J1*%
X91800000Y-32440000D02*
X91800000Y-32860000D01*
X89820000Y-32440000D02*
X91800000Y-32440000D01*
X87450000Y-32440000D02*
X87850000Y-32440000D01*
X92030000Y-34440000D02*
X92480000Y-34440000D01*
X92480000Y-34890000D02*
X92480000Y-34440000D01*
X91800000Y-39960000D02*
X91800000Y-39540000D01*
X89820000Y-39960000D02*
X91800000Y-39960000D01*
X87850000Y-39960000D02*
X87450000Y-39960000D01*
D12*
%TO.C,D2*%
X151030000Y-25625000D02*
G75*
G02*
X150930000Y-25625000I-50000J0D01*
G01*
X150930000Y-25625000D02*
G75*
G02*
X151030000Y-25625000I50000J0D01*
G01*
D11*
%TO.C,C6*%
X121265000Y-27427836D02*
X121265000Y-27212164D01*
X121985000Y-27427836D02*
X121985000Y-27212164D01*
%TO.C,R12*%
X148731359Y-44245000D02*
X149038641Y-44245000D01*
X148731359Y-45005000D02*
X149038641Y-45005000D01*
%TO.C,R6*%
X116971359Y-35120000D02*
X117278641Y-35120000D01*
X116971359Y-35880000D02*
X117278641Y-35880000D01*
%TO.C,R16*%
X157995000Y-32143641D02*
X157995000Y-31836359D01*
X158755000Y-32143641D02*
X158755000Y-31836359D01*
%TO.C,C4*%
X109360000Y-41367164D02*
X109360000Y-41582836D01*
X108640000Y-41367164D02*
X108640000Y-41582836D01*
%TO.C,U2*%
X130485000Y-40235000D02*
X129535000Y-40235000D01*
X130485000Y-39285000D02*
X130485000Y-40235000D01*
X130485000Y-30015000D02*
X130485000Y-30965000D01*
X129535000Y-30015000D02*
X130485000Y-30015000D01*
X121215000Y-40235000D02*
X120265000Y-40235000D01*
X120265000Y-40235000D02*
X120265000Y-39285000D01*
X120265000Y-30965000D02*
X120265000Y-30015000D01*
X120265000Y-30015000D02*
X121215000Y-30015000D01*
X131465000Y-39755000D02*
X130785000Y-39755000D01*
X131125000Y-39285000D01*
X131465000Y-39755000D01*
G36*
X131465000Y-39755000D02*
G01*
X130785000Y-39755000D01*
X131125000Y-39285000D01*
X131465000Y-39755000D01*
G37*
%TO.C,R4*%
X125380000Y-43136359D02*
X125380000Y-43443641D01*
X124620000Y-43136359D02*
X124620000Y-43443641D01*
%TO.C,C11*%
X148326252Y-41760000D02*
X147803748Y-41760000D01*
X148326252Y-40290000D02*
X147803748Y-40290000D01*
%TO.C,C3*%
X108200000Y-42003748D02*
X108200000Y-42526252D01*
X106730000Y-42003748D02*
X106730000Y-42526252D01*
%TO.C,C9*%
X133017164Y-32440000D02*
X133232836Y-32440000D01*
X133017164Y-33160000D02*
X133232836Y-33160000D01*
%TO.C,R5*%
X116961359Y-34120000D02*
X117268641Y-34120000D01*
X116961359Y-34880000D02*
X117268641Y-34880000D01*
%TO.C,R17*%
X158995000Y-32143641D02*
X158995000Y-31836359D01*
X159755000Y-32143641D02*
X159755000Y-31836359D01*
%TO.C,R11*%
X148731359Y-45245000D02*
X149038641Y-45245000D01*
X148731359Y-46005000D02*
X149038641Y-46005000D01*
%TO.C,R2*%
X128005000Y-43146359D02*
X128005000Y-43453641D01*
X127245000Y-43146359D02*
X127245000Y-43453641D01*
%TO.C,C15*%
X132485000Y-40192164D02*
X132485000Y-40407836D01*
X131765000Y-40192164D02*
X131765000Y-40407836D01*
%TO.C,R13*%
X148731359Y-43245000D02*
X149038641Y-43245000D01*
X148731359Y-44005000D02*
X149038641Y-44005000D01*
%TO.C,C5*%
X127765000Y-27427836D02*
X127765000Y-27212164D01*
X128485000Y-27427836D02*
X128485000Y-27212164D01*
%TO.C,R8*%
X122620000Y-43443641D02*
X122620000Y-43136359D01*
X123380000Y-43443641D02*
X123380000Y-43136359D01*
%TO.C,R7*%
X121620000Y-43443641D02*
X121620000Y-43136359D01*
X122380000Y-43443641D02*
X122380000Y-43136359D01*
%TO.C,J4*%
X162235000Y-34715000D02*
X164735000Y-34715000D01*
X153935000Y-34715000D02*
X159715000Y-34715000D01*
X150015000Y-34715000D02*
X151415000Y-34715000D01*
X164735000Y-48535000D02*
X164735000Y-34715000D01*
X162235000Y-48535000D02*
X164735000Y-48535000D01*
X159715000Y-48535000D02*
X153935000Y-48535000D01*
X150015000Y-48535000D02*
X150015000Y-34715000D01*
X150015000Y-48535000D02*
X151415000Y-48535000D01*
%TD*%
M02*
