%TF.GenerationSoftware,KiCad,Pcbnew,9.0.8*%
%TF.CreationDate,2026-07-09T03:31:01+03:00*%
%TF.ProjectId,STM32-SDMMC-Logger-Board,53544d33-322d-4534-944d-4d432d4c6f67,rev?*%
%TF.SameCoordinates,Original*%
%TF.FileFunction,Copper,L2,Bot*%
%TF.FilePolarity,Positive*%
%FSLAX46Y46*%
G04 Gerber Fmt 4.6, Leading zero omitted, Abs format (unit mm)*
G04 Created by KiCad (PCBNEW 9.0.8) date 2026-07-09 03:31:01*
%MOMM*%
%LPD*%
G01*
G04 APERTURE LIST*
%TA.AperFunction,ComponentPad*%
%ADD10R,1.700000X1.700000*%
%TD*%
%TA.AperFunction,ComponentPad*%
%ADD11C,1.700000*%
%TD*%
%TA.AperFunction,ComponentPad*%
%ADD12R,1.730000X2.030000*%
%TD*%
%TA.AperFunction,ComponentPad*%
%ADD13O,1.730000X2.030000*%
%TD*%
%TA.AperFunction,HeatsinkPad*%
%ADD14O,1.550000X0.890000*%
%TD*%
%TA.AperFunction,HeatsinkPad*%
%ADD15O,0.950000X1.250000*%
%TD*%
%TA.AperFunction,ViaPad*%
%ADD16C,0.600000*%
%TD*%
%TA.AperFunction,Conductor*%
%ADD17C,0.250000*%
%TD*%
%TA.AperFunction,Conductor*%
%ADD18C,0.500000*%
%TD*%
G04 APERTURE END LIST*
D10*
%TO.P,J2,1,Pin_1*%
%TO.N,BOOT0*%
X131100000Y-48125000D03*
D11*
%TO.P,J2,2,Pin_2*%
%TO.N,GND*%
X133640000Y-48125000D03*
%TD*%
D12*
%TO.P,J3,1,Pin_1*%
%TO.N,+3.3V*%
X155335000Y-26125000D03*
D13*
%TO.P,J3,2,Pin_2*%
%TO.N,SCL*%
X157875000Y-26125000D03*
%TO.P,J3,3,Pin_3*%
%TO.N,SDA*%
X160415000Y-26125000D03*
%TO.P,J3,4,Pin_4*%
%TO.N,GND*%
X162955000Y-26125000D03*
%TD*%
D14*
%TO.P,J1,6,Shield*%
%TO.N,GND*%
X88840000Y-32700000D03*
D15*
X91540000Y-33700000D03*
X91540000Y-38700000D03*
D14*
X88840000Y-39700000D03*
%TD*%
D16*
%TO.N,GND*%
X133500000Y-44000000D03*
X153500000Y-39500000D03*
X146000000Y-23500000D03*
X148500000Y-27500000D03*
%TO.N,+3.3V*%
X131145279Y-29375001D03*
%TO.N,GND*%
X132500000Y-34000000D03*
X140500000Y-37500000D03*
X145500000Y-40000000D03*
X135500000Y-37000000D03*
X133000000Y-41000000D03*
X128500000Y-44000000D03*
%TO.N,+3.3V*%
X116500000Y-39560000D03*
%TO.N,GND*%
X109000000Y-43500000D03*
X116000000Y-37500000D03*
X112500000Y-33500000D03*
X99500000Y-36000000D03*
%TO.N,+3.3V*%
X134000000Y-32000000D03*
X129000000Y-42500000D03*
X127500000Y-45000000D03*
X103500000Y-39500000D03*
%TO.N,GND*%
X129496305Y-26211036D03*
X132625000Y-23875000D03*
%TO.N,+3.3V*%
X158000000Y-34000000D03*
X157000000Y-41500000D03*
%TO.N,DET_SD*%
X125785993Y-43452672D03*
X147500000Y-49500000D03*
%TO.N,SDA*%
X159375000Y-30500000D03*
%TO.N,SCL*%
X158375000Y-30500000D03*
%TO.N,+3.3V*%
X126000000Y-27000000D03*
X120800000Y-27800000D03*
X134648251Y-35003220D03*
X136000000Y-36000000D03*
%TO.N,DAT0*%
X118000000Y-32000000D03*
%TO.N,DAT1*%
X116615000Y-36500000D03*
%TO.N,DAT0*%
X139000000Y-31500000D03*
%TO.N,DAT1*%
X140500000Y-33500000D03*
%TO.N,CLK*%
X158000000Y-42000000D03*
X128500000Y-46625000D03*
%TO.N,CMD*%
X130000000Y-46000000D03*
X144000000Y-48875000D03*
X153500000Y-46625000D03*
X135000000Y-46000000D03*
%TO.N,DAT3*%
X146000000Y-48000000D03*
X154500000Y-46000000D03*
%TO.N,+3.3V*%
X94500000Y-35850000D03*
%TD*%
D17*
%TO.N,CMD*%
X135000000Y-46000000D02*
X130000000Y-46000000D01*
D18*
%TO.N,GND*%
X132625000Y-23875000D02*
X130305790Y-26194210D01*
X130305790Y-26194210D02*
X129513131Y-26194210D01*
X129513131Y-26194210D02*
X129496305Y-26211036D01*
%TO.N,+3.3V*%
X131145279Y-29375001D02*
X128770278Y-27000000D01*
X128770278Y-27000000D02*
X126000000Y-27000000D01*
D17*
%TO.N,DAT1*%
X140500000Y-33500000D02*
X136000000Y-38000000D01*
X136000000Y-38000000D02*
X118000000Y-38000000D01*
X118000000Y-38000000D02*
X116615000Y-36615000D01*
X116615000Y-36615000D02*
X116615000Y-36500000D01*
D18*
%TO.N,+3.3V*%
X129500000Y-45000000D02*
X131000000Y-45000000D01*
X129000000Y-42500000D02*
X129000000Y-43000000D01*
X129000000Y-43000000D02*
X131000000Y-45000000D01*
X123893982Y-40500000D02*
X117500000Y-40500000D01*
X126535993Y-43142011D02*
X123893982Y-40500000D01*
X126535993Y-44035993D02*
X126535993Y-43142011D01*
X127500000Y-45000000D02*
X126535993Y-44035993D01*
X117500000Y-40500000D02*
X116560000Y-39560000D01*
X155335000Y-26125000D02*
X155335000Y-31335000D01*
X155335000Y-31335000D02*
X158000000Y-34000000D01*
X134648251Y-35003220D02*
X134648251Y-32648251D01*
X134648251Y-32648251D02*
X134000000Y-32000000D01*
D17*
%TO.N,DAT0*%
X139000000Y-31500000D02*
X137500000Y-30000000D01*
X137500000Y-30000000D02*
X120000000Y-30000000D01*
X120000000Y-30000000D02*
X118000000Y-32000000D01*
D18*
%TO.N,+3.3V*%
X127500000Y-45000000D02*
X129500000Y-45000000D01*
X131000000Y-45000000D02*
X142500000Y-45000000D01*
X142500000Y-45000000D02*
X146000000Y-41500000D01*
X146000000Y-41500000D02*
X157000000Y-41500000D01*
X95500000Y-39500000D02*
X103500000Y-39500000D01*
X93500000Y-37500000D02*
X95500000Y-39500000D01*
X158000000Y-40500000D02*
X158000000Y-34000000D01*
X157000000Y-41500000D02*
X158000000Y-40500000D01*
D17*
%TO.N,CLK*%
X158000000Y-42000000D02*
X158000000Y-43500000D01*
X158000000Y-43500000D02*
X156500000Y-45000000D01*
X146500000Y-45000000D02*
X143000000Y-48500000D01*
X156500000Y-45000000D02*
X146500000Y-45000000D01*
X143000000Y-48500000D02*
X137000000Y-48500000D01*
X137000000Y-48500000D02*
X135125000Y-46625000D01*
X135125000Y-46625000D02*
X128500000Y-46625000D01*
%TO.N,DET_SD*%
X125785993Y-46554877D02*
X125785993Y-43452672D01*
X128731116Y-49500000D02*
X125785993Y-46554877D01*
X147500000Y-49500000D02*
X128731116Y-49500000D01*
%TO.N,SDA*%
X159375000Y-30500000D02*
X159375000Y-30125000D01*
X159375000Y-30125000D02*
X160415000Y-29085000D01*
X160415000Y-29085000D02*
X160415000Y-26125000D01*
%TO.N,SCL*%
X158375000Y-30500000D02*
X158375000Y-30375000D01*
X158375000Y-30375000D02*
X157875000Y-29875000D01*
X157875000Y-29875000D02*
X157875000Y-26125000D01*
D18*
%TO.N,+3.3V*%
X123500000Y-24500000D02*
X126000000Y-27000000D01*
X120000000Y-27000000D02*
X120000000Y-25500000D01*
X120800000Y-27800000D02*
X120000000Y-27000000D01*
X120000000Y-25500000D02*
X121000000Y-24500000D01*
X121000000Y-24500000D02*
X123500000Y-24500000D01*
X135645031Y-36000000D02*
X134648251Y-35003220D01*
X136000000Y-36000000D02*
X135645031Y-36000000D01*
X93500000Y-36500000D02*
X93500000Y-37500000D01*
X94150000Y-35850000D02*
X93500000Y-36500000D01*
X94500000Y-35850000D02*
X94150000Y-35850000D01*
D17*
%TO.N,CMD*%
X153500000Y-46625000D02*
X148375000Y-46625000D01*
X146125000Y-48875000D02*
X144000000Y-48875000D01*
X148375000Y-46625000D02*
X146125000Y-48875000D01*
%TO.N,DAT3*%
X146000000Y-48000000D02*
X148000000Y-46000000D01*
X148000000Y-46000000D02*
X154500000Y-46000000D01*
%TD*%
%TA.AperFunction,Conductor*%
%TO.N,GND*%
G36*
X134964429Y-47070185D02*
G01*
X134985071Y-47086819D01*
X136659515Y-48761263D01*
X136738737Y-48840485D01*
X136747141Y-48845337D01*
X136750833Y-48847838D01*
X136770343Y-48871486D01*
X136791504Y-48893679D01*
X136792373Y-48898189D01*
X136795297Y-48901733D01*
X136798924Y-48932178D01*
X136804728Y-48962286D01*
X136803020Y-48966551D01*
X136803564Y-48971112D01*
X136790156Y-48998684D01*
X136778760Y-49027151D01*
X136775017Y-49029815D01*
X136773009Y-49033947D01*
X136746821Y-49049894D01*
X136721846Y-49067680D01*
X136716003Y-49068662D01*
X136713334Y-49070288D01*
X136707217Y-49070139D01*
X136681289Y-49074500D01*
X132374500Y-49074500D01*
X132307461Y-49054815D01*
X132261706Y-49002011D01*
X132250500Y-48950500D01*
X132250499Y-47230143D01*
X132250499Y-47230137D01*
X132250499Y-47230136D01*
X132250497Y-47230117D01*
X132246511Y-47195742D01*
X132248371Y-47195526D01*
X132249536Y-47137197D01*
X132288477Y-47079184D01*
X132352599Y-47051434D01*
X132367792Y-47050500D01*
X134897390Y-47050500D01*
X134964429Y-47070185D01*
G37*
%TD.AperFunction*%
%TA.AperFunction,Conductor*%
G36*
X165317539Y-21645185D02*
G01*
X165363294Y-21697989D01*
X165374500Y-21749500D01*
X165374500Y-50500500D01*
X165354815Y-50567539D01*
X165302011Y-50613294D01*
X165250500Y-50624500D01*
X87999500Y-50624500D01*
X87932461Y-50604815D01*
X87886706Y-50552011D01*
X87875500Y-50500500D01*
X87875500Y-40644443D01*
X87895185Y-40577404D01*
X87947989Y-40531649D01*
X88017147Y-40521705D01*
X88057953Y-40535085D01*
X88062371Y-40537446D01*
X88234353Y-40608683D01*
X88234361Y-40608685D01*
X88416921Y-40644999D01*
X88416924Y-40645000D01*
X88590000Y-40645000D01*
X88590000Y-39950000D01*
X89090000Y-39950000D01*
X89090000Y-40645000D01*
X89263076Y-40645000D01*
X89263078Y-40644999D01*
X89445638Y-40608685D01*
X89445646Y-40608683D01*
X89617622Y-40537449D01*
X89617631Y-40537444D01*
X89772401Y-40434029D01*
X89772405Y-40434026D01*
X89904026Y-40302405D01*
X89904029Y-40302401D01*
X90007444Y-40147631D01*
X90007451Y-40147618D01*
X90078682Y-39975649D01*
X90078683Y-39975644D01*
X90083784Y-39950000D01*
X89214728Y-39950000D01*
X89306614Y-39911940D01*
X89376940Y-39841614D01*
X89415000Y-39749728D01*
X89415000Y-39650272D01*
X89376940Y-39558386D01*
X89306614Y-39488060D01*
X89214728Y-39450000D01*
X90083784Y-39450000D01*
X90078683Y-39424355D01*
X90078682Y-39424350D01*
X90007451Y-39252381D01*
X90007444Y-39252368D01*
X89904029Y-39097598D01*
X89904026Y-39097594D01*
X89772405Y-38965973D01*
X89772401Y-38965970D01*
X89617631Y-38862555D01*
X89617622Y-38862550D01*
X89445646Y-38791316D01*
X89445638Y-38791314D01*
X89263077Y-38755000D01*
X89090000Y-38755000D01*
X89090000Y-39450000D01*
X88590000Y-39450000D01*
X88590000Y-38755000D01*
X88416923Y-38755000D01*
X88234361Y-38791314D01*
X88234353Y-38791316D01*
X88062368Y-38862554D01*
X88057944Y-38864919D01*
X87989541Y-38879155D01*
X87924299Y-38854150D01*
X87882933Y-38797842D01*
X87875500Y-38755556D01*
X87875500Y-38449999D01*
X90565789Y-38449999D01*
X90565790Y-38450000D01*
X91283763Y-38450000D01*
X91265000Y-38495299D01*
X91265000Y-38904701D01*
X91283763Y-38950000D01*
X90565789Y-38950000D01*
X90602466Y-39134389D01*
X90602468Y-39134397D01*
X90675964Y-39311833D01*
X90675969Y-39311842D01*
X90782667Y-39471526D01*
X90782670Y-39471530D01*
X90918469Y-39607329D01*
X90918473Y-39607332D01*
X91078157Y-39714030D01*
X91078167Y-39714035D01*
X91255599Y-39787530D01*
X91255606Y-39787533D01*
X91290000Y-39794373D01*
X91290000Y-38965056D01*
X91306866Y-39005775D01*
X91384225Y-39083134D01*
X91485299Y-39125000D01*
X91594701Y-39125000D01*
X91695775Y-39083134D01*
X91773134Y-39005775D01*
X91790000Y-38965056D01*
X91790000Y-39794372D01*
X91824393Y-39787533D01*
X91824400Y-39787530D01*
X92001832Y-39714035D01*
X92001842Y-39714030D01*
X92161526Y-39607332D01*
X92161530Y-39607329D01*
X92297329Y-39471530D01*
X92297332Y-39471526D01*
X92404030Y-39311842D01*
X92404035Y-39311833D01*
X92477531Y-39134397D01*
X92477533Y-39134389D01*
X92514210Y-38950000D01*
X91796237Y-38950000D01*
X91815000Y-38904701D01*
X91815000Y-38495299D01*
X91796237Y-38450000D01*
X92514210Y-38450000D01*
X92514210Y-38449999D01*
X92477533Y-38265610D01*
X92477531Y-38265602D01*
X92404035Y-38088166D01*
X92404030Y-38088157D01*
X92297332Y-37928473D01*
X92297329Y-37928469D01*
X92161530Y-37792670D01*
X92161526Y-37792667D01*
X92001842Y-37685969D01*
X92001833Y-37685964D01*
X91824397Y-37612468D01*
X91824389Y-37612466D01*
X91790000Y-37605625D01*
X91790000Y-38434943D01*
X91773134Y-38394225D01*
X91695775Y-38316866D01*
X91594701Y-38275000D01*
X91485299Y-38275000D01*
X91384225Y-38316866D01*
X91306866Y-38394225D01*
X91290000Y-38434943D01*
X91290000Y-37605625D01*
X91255610Y-37612466D01*
X91255602Y-37612468D01*
X91078166Y-37685964D01*
X91078157Y-37685969D01*
X90918473Y-37792667D01*
X90918469Y-37792670D01*
X90782670Y-37928469D01*
X90782667Y-37928473D01*
X90675969Y-38088157D01*
X90675964Y-38088166D01*
X90602468Y-38265602D01*
X90602466Y-38265610D01*
X90565789Y-38449999D01*
X87875500Y-38449999D01*
X87875500Y-36427525D01*
X92949500Y-36427525D01*
X92949500Y-37572475D01*
X92972823Y-37659515D01*
X92987016Y-37712485D01*
X93059490Y-37838015D01*
X95161985Y-39940510D01*
X95242537Y-39987016D01*
X95287515Y-40012984D01*
X95427525Y-40050500D01*
X95427526Y-40050500D01*
X95572474Y-40050500D01*
X103221637Y-40050500D01*
X103260179Y-40058165D01*
X103260365Y-40057473D01*
X103268214Y-40059576D01*
X103268216Y-40059577D01*
X103420943Y-40100500D01*
X103420945Y-40100500D01*
X103579055Y-40100500D01*
X103579057Y-40100500D01*
X103731784Y-40059577D01*
X103868716Y-39980520D01*
X103980520Y-39868716D01*
X104059577Y-39731784D01*
X104100500Y-39579057D01*
X104100500Y-39480943D01*
X115899500Y-39480943D01*
X115899500Y-39639057D01*
X115919591Y-39714035D01*
X115940423Y-39791783D01*
X115940426Y-39791790D01*
X116019475Y-39928709D01*
X116019479Y-39928714D01*
X116019480Y-39928716D01*
X116131284Y-40040520D01*
X116131286Y-40040521D01*
X116131290Y-40040524D01*
X116268209Y-40119574D01*
X116268212Y-40119574D01*
X116268216Y-40119577D01*
X116335619Y-40137637D01*
X116391205Y-40169730D01*
X117161985Y-40940510D01*
X117242537Y-40987016D01*
X117287515Y-41012984D01*
X117427525Y-41050500D01*
X117427526Y-41050500D01*
X117572474Y-41050500D01*
X123614595Y-41050500D01*
X123681634Y-41070185D01*
X123702276Y-41086819D01*
X125414762Y-42799305D01*
X125448247Y-42860628D01*
X125443263Y-42930320D01*
X125414762Y-42974667D01*
X125305474Y-43083954D01*
X125305468Y-43083962D01*
X125226419Y-43220881D01*
X125226416Y-43220888D01*
X125185493Y-43373615D01*
X125185493Y-43531729D01*
X125220999Y-43664237D01*
X125226416Y-43684455D01*
X125226419Y-43684462D01*
X125305468Y-43821381D01*
X125305474Y-43821389D01*
X125324174Y-43840089D01*
X125357659Y-43901412D01*
X125360493Y-43927770D01*
X125360493Y-46498859D01*
X125360493Y-46610895D01*
X125389490Y-46719114D01*
X125445508Y-46816140D01*
X128390631Y-49761263D01*
X128469853Y-49840485D01*
X128566879Y-49896503D01*
X128675098Y-49925500D01*
X147024902Y-49925500D01*
X147091941Y-49945185D01*
X147112583Y-49961819D01*
X147131284Y-49980520D01*
X147131286Y-49980521D01*
X147131290Y-49980524D01*
X147268209Y-50059573D01*
X147268216Y-50059577D01*
X147420943Y-50100500D01*
X147420945Y-50100500D01*
X147579055Y-50100500D01*
X147579057Y-50100500D01*
X147731784Y-50059577D01*
X147868716Y-49980520D01*
X147980520Y-49868716D01*
X148059577Y-49731784D01*
X148100500Y-49579057D01*
X148100500Y-49420943D01*
X148059577Y-49268216D01*
X148059573Y-49268209D01*
X147980524Y-49131290D01*
X147980518Y-49131282D01*
X147868717Y-49019481D01*
X147868709Y-49019475D01*
X147731790Y-48940426D01*
X147731786Y-48940424D01*
X147731784Y-48940423D01*
X147579057Y-48899500D01*
X147420943Y-48899500D01*
X147268216Y-48940423D01*
X147268209Y-48940426D01*
X147131290Y-49019475D01*
X147131282Y-49019481D01*
X147112583Y-49038181D01*
X147085655Y-49052884D01*
X147059837Y-49069477D01*
X147053636Y-49070368D01*
X147051260Y-49071666D01*
X147024902Y-49074500D01*
X146826610Y-49074500D01*
X146759571Y-49054815D01*
X146713816Y-49002011D01*
X146703872Y-48932853D01*
X146732897Y-48869297D01*
X146738929Y-48862819D01*
X148514929Y-47086819D01*
X148576252Y-47053334D01*
X148602610Y-47050500D01*
X153024902Y-47050500D01*
X153091941Y-47070185D01*
X153112583Y-47086819D01*
X153131284Y-47105520D01*
X153131286Y-47105521D01*
X153131290Y-47105524D01*
X153268209Y-47184573D01*
X153268216Y-47184577D01*
X153420943Y-47225500D01*
X153420945Y-47225500D01*
X153579055Y-47225500D01*
X153579057Y-47225500D01*
X153731784Y-47184577D01*
X153868716Y-47105520D01*
X153980520Y-46993716D01*
X154059577Y-46856784D01*
X154100500Y-46704057D01*
X154100500Y-46675685D01*
X154120185Y-46608646D01*
X154172989Y-46562891D01*
X154242147Y-46552947D01*
X154260246Y-46557913D01*
X154260365Y-46557473D01*
X154268214Y-46559576D01*
X154268216Y-46559577D01*
X154420943Y-46600500D01*
X154420945Y-46600500D01*
X154579055Y-46600500D01*
X154579057Y-46600500D01*
X154731784Y-46559577D01*
X154868716Y-46480520D01*
X154980520Y-46368716D01*
X155059577Y-46231784D01*
X155100500Y-46079057D01*
X155100500Y-45920943D01*
X155059577Y-45768216D01*
X155041266Y-45736500D01*
X154980524Y-45631289D01*
X154975690Y-45624990D01*
X154950493Y-45559821D01*
X154964529Y-45491376D01*
X155013342Y-45441385D01*
X155074063Y-45425500D01*
X156556016Y-45425500D01*
X156556018Y-45425500D01*
X156664237Y-45396503D01*
X156761263Y-45340485D01*
X158251053Y-43850692D01*
X158251058Y-43850689D01*
X158261261Y-43840485D01*
X158261263Y-43840485D01*
X158340485Y-43761263D01*
X158396503Y-43664237D01*
X158399704Y-43652289D01*
X158406600Y-43626557D01*
X158413517Y-43600738D01*
X158425500Y-43556019D01*
X158425500Y-43443982D01*
X158425500Y-42475098D01*
X158445185Y-42408059D01*
X158461819Y-42387417D01*
X158480520Y-42368716D01*
X158559577Y-42231784D01*
X158600500Y-42079057D01*
X158600500Y-41920943D01*
X158559577Y-41768216D01*
X158559573Y-41768209D01*
X158480524Y-41631290D01*
X158480518Y-41631282D01*
X158368717Y-41519481D01*
X158368709Y-41519475D01*
X158231790Y-41440426D01*
X158231786Y-41440424D01*
X158231784Y-41440423D01*
X158128749Y-41412815D01*
X158069090Y-41376451D01*
X158038561Y-41313604D01*
X158046856Y-41244229D01*
X158073160Y-41205363D01*
X158440510Y-40838014D01*
X158512984Y-40712485D01*
X158550500Y-40572474D01*
X158550500Y-40427525D01*
X158550500Y-34278362D01*
X158558167Y-34239822D01*
X158557473Y-34239636D01*
X158564275Y-34214249D01*
X158600500Y-34079057D01*
X158600500Y-33920943D01*
X158559577Y-33768216D01*
X158488439Y-33645000D01*
X158480524Y-33631290D01*
X158480518Y-33631282D01*
X158368717Y-33519481D01*
X158368712Y-33519477D01*
X158224746Y-33436359D01*
X158225105Y-33435737D01*
X158192430Y-33413905D01*
X155921819Y-31143294D01*
X155888334Y-31081971D01*
X155885500Y-31055613D01*
X155885500Y-27564499D01*
X155905185Y-27497460D01*
X155957989Y-27451705D01*
X156009500Y-27440499D01*
X156244856Y-27440499D01*
X156244864Y-27440499D01*
X156244879Y-27440497D01*
X156244882Y-27440497D01*
X156269987Y-27437586D01*
X156269988Y-27437585D01*
X156269991Y-27437585D01*
X156372765Y-27392206D01*
X156452206Y-27312765D01*
X156497585Y-27209991D01*
X156500500Y-27184865D01*
X156500499Y-26599262D01*
X156520183Y-26532226D01*
X156572987Y-26486471D01*
X156642146Y-26476527D01*
X156705702Y-26505552D01*
X156742429Y-26560945D01*
X156754881Y-26599265D01*
X156794890Y-26722401D01*
X156878177Y-26885858D01*
X156986000Y-27034265D01*
X156986004Y-27034270D01*
X157115729Y-27163995D01*
X157115734Y-27163999D01*
X157264143Y-27271824D01*
X157264145Y-27271825D01*
X157357667Y-27319477D01*
X157381794Y-27331770D01*
X157432591Y-27379744D01*
X157449500Y-27442255D01*
X157449500Y-29818982D01*
X157449500Y-29931018D01*
X157473204Y-30019481D01*
X157478497Y-30039236D01*
X157478498Y-30039239D01*
X157481503Y-30044444D01*
X157534515Y-30136263D01*
X157534517Y-30136265D01*
X157738181Y-30339929D01*
X157771666Y-30401252D01*
X157774500Y-30427610D01*
X157774500Y-30579056D01*
X157815423Y-30731783D01*
X157815426Y-30731790D01*
X157894475Y-30868709D01*
X157894479Y-30868714D01*
X157894480Y-30868716D01*
X158006284Y-30980520D01*
X158006286Y-30980521D01*
X158006290Y-30980524D01*
X158073765Y-31019480D01*
X158143216Y-31059577D01*
X158295943Y-31100500D01*
X158295945Y-31100500D01*
X158454055Y-31100500D01*
X158454057Y-31100500D01*
X158606784Y-31059577D01*
X158743716Y-30980520D01*
X158787319Y-30936917D01*
X158848642Y-30903432D01*
X158918334Y-30908416D01*
X158962681Y-30936917D01*
X159006284Y-30980520D01*
X159006286Y-30980521D01*
X159006290Y-30980524D01*
X159073765Y-31019480D01*
X159143216Y-31059577D01*
X159295943Y-31100500D01*
X159295945Y-31100500D01*
X159454055Y-31100500D01*
X159454057Y-31100500D01*
X159606784Y-31059577D01*
X159743716Y-30980520D01*
X159855520Y-30868716D01*
X159934577Y-30731784D01*
X159975500Y-30579057D01*
X159975500Y-30420943D01*
X159934577Y-30268216D01*
X159934576Y-30268214D01*
X159932473Y-30260365D01*
X159935222Y-30259628D01*
X159929211Y-30203883D01*
X159960466Y-30141394D01*
X159963537Y-30138209D01*
X160755485Y-29346263D01*
X160811503Y-29249237D01*
X160840500Y-29141018D01*
X160840500Y-29028982D01*
X160840500Y-27442255D01*
X160860185Y-27375216D01*
X160908206Y-27331770D01*
X161025855Y-27271825D01*
X161174272Y-27163994D01*
X161303994Y-27034272D01*
X161411825Y-26885855D01*
X161463015Y-26785388D01*
X161510988Y-26734594D01*
X161578809Y-26717799D01*
X161644944Y-26740336D01*
X161687988Y-26794537D01*
X161688139Y-26794475D01*
X161688357Y-26795002D01*
X161688396Y-26795051D01*
X161688534Y-26795429D01*
X161690002Y-26798972D01*
X161787547Y-26990416D01*
X161913838Y-27164240D01*
X162065759Y-27316161D01*
X162239583Y-27442452D01*
X162431024Y-27539996D01*
X162635359Y-27606388D01*
X162704999Y-27617418D01*
X162705000Y-27617418D01*
X162705000Y-26569560D01*
X162758147Y-26600245D01*
X162887857Y-26635000D01*
X163022143Y-26635000D01*
X163151853Y-26600245D01*
X163205000Y-26569560D01*
X163205000Y-27617418D01*
X163274638Y-27606388D01*
X163274641Y-27606388D01*
X163478975Y-27539996D01*
X163670416Y-27442452D01*
X163844240Y-27316161D01*
X163996161Y-27164240D01*
X164122452Y-26990416D01*
X164219996Y-26798975D01*
X164286388Y-26594642D01*
X164286388Y-26594639D01*
X164320000Y-26382427D01*
X164320000Y-26375000D01*
X163399560Y-26375000D01*
X163430245Y-26321853D01*
X163465000Y-26192143D01*
X163465000Y-26057857D01*
X163430245Y-25928147D01*
X163399560Y-25875000D01*
X164320000Y-25875000D01*
X164320000Y-25867572D01*
X164286388Y-25655360D01*
X164286388Y-25655357D01*
X164219996Y-25451024D01*
X164122452Y-25259583D01*
X163996161Y-25085759D01*
X163844240Y-24933838D01*
X163670416Y-24807547D01*
X163478975Y-24710003D01*
X163274635Y-24643610D01*
X163274636Y-24643610D01*
X163205000Y-24632581D01*
X163205000Y-25680439D01*
X163151853Y-25649755D01*
X163022143Y-25615000D01*
X162887857Y-25615000D01*
X162758147Y-25649755D01*
X162705000Y-25680439D01*
X162705000Y-24632581D01*
X162635364Y-24643610D01*
X162431024Y-24710003D01*
X162239583Y-24807547D01*
X162065759Y-24933838D01*
X161913838Y-25085759D01*
X161787547Y-25259583D01*
X161690002Y-25451027D01*
X161688139Y-25455525D01*
X161686028Y-25454650D01*
X161651736Y-25504516D01*
X161587306Y-25531543D01*
X161518491Y-25519445D01*
X161467141Y-25472064D01*
X161463014Y-25464609D01*
X161457940Y-25454650D01*
X161411825Y-25364145D01*
X161356148Y-25287512D01*
X161303999Y-25215734D01*
X161303993Y-25215727D01*
X161174270Y-25086004D01*
X161174265Y-25086000D01*
X161025858Y-24978177D01*
X161025857Y-24978176D01*
X161025855Y-24978175D01*
X160938839Y-24933838D01*
X160862397Y-24894888D01*
X160837608Y-24886834D01*
X160779933Y-24847396D01*
X160752736Y-24783037D01*
X160764651Y-24714191D01*
X160807036Y-24665803D01*
X160925289Y-24586789D01*
X161036789Y-24475289D01*
X161124394Y-24344179D01*
X161184737Y-24198497D01*
X161215500Y-24043842D01*
X161215500Y-23886158D01*
X161215500Y-23886155D01*
X161215499Y-23886153D01*
X161184738Y-23731510D01*
X161184737Y-23731503D01*
X161184735Y-23731498D01*
X161124397Y-23585827D01*
X161124390Y-23585814D01*
X161036789Y-23454711D01*
X161036786Y-23454707D01*
X160925292Y-23343213D01*
X160925288Y-23343210D01*
X160794185Y-23255609D01*
X160794172Y-23255602D01*
X160648501Y-23195264D01*
X160648489Y-23195261D01*
X160493845Y-23164500D01*
X160493842Y-23164500D01*
X160336158Y-23164500D01*
X160336155Y-23164500D01*
X160181510Y-23195261D01*
X160181498Y-23195264D01*
X160035827Y-23255602D01*
X160035814Y-23255609D01*
X159904711Y-23343210D01*
X159904707Y-23343213D01*
X159793213Y-23454707D01*
X159793210Y-23454711D01*
X159705609Y-23585814D01*
X159705602Y-23585827D01*
X159645264Y-23731498D01*
X159645261Y-23731510D01*
X159614500Y-23886153D01*
X159614500Y-24043846D01*
X159645261Y-24198489D01*
X159645264Y-24198501D01*
X159705602Y-24344172D01*
X159705609Y-24344185D01*
X159793210Y-24475288D01*
X159793213Y-24475292D01*
X159904710Y-24586789D01*
X160022962Y-24665802D01*
X160067767Y-24719414D01*
X160076474Y-24788739D01*
X160046320Y-24851766D01*
X159992392Y-24886834D01*
X159967601Y-24894889D01*
X159804141Y-24978177D01*
X159655734Y-25086000D01*
X159655729Y-25086004D01*
X159526007Y-25215727D01*
X159526000Y-25215734D01*
X159418177Y-25364141D01*
X159334890Y-25527600D01*
X159278197Y-25702081D01*
X159267473Y-25769791D01*
X159237544Y-25832926D01*
X159178232Y-25869857D01*
X159108370Y-25868859D01*
X159050137Y-25830249D01*
X159022527Y-25769791D01*
X159011802Y-25702081D01*
X159011802Y-25702078D01*
X158955111Y-25527603D01*
X158871825Y-25364145D01*
X158816148Y-25287512D01*
X158763999Y-25215734D01*
X158763993Y-25215727D01*
X158634270Y-25086004D01*
X158634265Y-25086000D01*
X158485858Y-24978177D01*
X158485857Y-24978176D01*
X158485855Y-24978175D01*
X158322397Y-24894889D01*
X158147922Y-24838198D01*
X158147920Y-24838197D01*
X158147918Y-24838197D01*
X157966732Y-24809500D01*
X157966727Y-24809500D01*
X157783273Y-24809500D01*
X157783268Y-24809500D01*
X157602081Y-24838197D01*
X157602078Y-24838198D01*
X157452394Y-24886834D01*
X157427600Y-24894890D01*
X157264141Y-24978177D01*
X157115734Y-25086000D01*
X157115729Y-25086004D01*
X156986007Y-25215727D01*
X156986000Y-25215734D01*
X156878177Y-25364141D01*
X156794890Y-25527598D01*
X156742430Y-25689054D01*
X156702992Y-25746729D01*
X156638633Y-25773927D01*
X156569787Y-25762012D01*
X156518311Y-25714768D01*
X156500499Y-25650735D01*
X156500499Y-25065143D01*
X156500499Y-25065136D01*
X156500497Y-25065117D01*
X156497586Y-25040012D01*
X156497585Y-25040010D01*
X156497585Y-25040009D01*
X156452206Y-24937235D01*
X156372765Y-24857794D01*
X156349216Y-24847396D01*
X156269992Y-24812415D01*
X156244865Y-24809500D01*
X154425143Y-24809500D01*
X154425117Y-24809502D01*
X154400012Y-24812413D01*
X154400008Y-24812415D01*
X154297235Y-24857793D01*
X154217794Y-24937234D01*
X154172415Y-25040006D01*
X154172415Y-25040008D01*
X154169500Y-25065131D01*
X154169500Y-27184856D01*
X154169502Y-27184882D01*
X154172413Y-27209987D01*
X154172415Y-27209991D01*
X154217793Y-27312764D01*
X154217794Y-27312765D01*
X154297235Y-27392206D01*
X154400009Y-27437585D01*
X154425135Y-27440500D01*
X154660500Y-27440499D01*
X154727539Y-27460183D01*
X154773294Y-27512987D01*
X154784500Y-27564499D01*
X154784500Y-31407475D01*
X154794282Y-31443981D01*
X154822016Y-31547485D01*
X154894489Y-31673013D01*
X154894491Y-31673016D01*
X157413181Y-34191706D01*
X157446666Y-34253029D01*
X157449500Y-34279387D01*
X157449500Y-40220612D01*
X157429815Y-40287651D01*
X157413181Y-40308293D01*
X156808293Y-40913181D01*
X156746970Y-40946666D01*
X156720612Y-40949500D01*
X145927525Y-40949500D01*
X145822517Y-40977637D01*
X145787514Y-40987016D01*
X145661986Y-41059489D01*
X145661983Y-41059491D01*
X142308294Y-44413181D01*
X142246971Y-44446666D01*
X142220613Y-44449500D01*
X131279387Y-44449500D01*
X131212348Y-44429815D01*
X131191706Y-44413181D01*
X129599788Y-42821263D01*
X129566303Y-42759940D01*
X129567693Y-42701491D01*
X129600500Y-42579057D01*
X129600500Y-42420943D01*
X129559577Y-42268216D01*
X129538543Y-42231783D01*
X129480524Y-42131290D01*
X129480518Y-42131282D01*
X129368717Y-42019481D01*
X129368709Y-42019475D01*
X129231790Y-41940426D01*
X129231786Y-41940424D01*
X129231784Y-41940423D01*
X129079057Y-41899500D01*
X128920943Y-41899500D01*
X128768216Y-41940423D01*
X128768209Y-41940426D01*
X128631290Y-42019475D01*
X128631282Y-42019481D01*
X128519481Y-42131282D01*
X128519475Y-42131290D01*
X128440426Y-42268209D01*
X128440423Y-42268216D01*
X128399500Y-42420943D01*
X128399500Y-42579056D01*
X128442527Y-42739636D01*
X128441832Y-42739822D01*
X128449500Y-42778362D01*
X128449500Y-43072475D01*
X128460141Y-43112187D01*
X128487016Y-43212485D01*
X128559489Y-43338013D01*
X128559491Y-43338016D01*
X129459294Y-44237819D01*
X129492779Y-44299142D01*
X129487795Y-44368834D01*
X129445923Y-44424767D01*
X129380459Y-44449184D01*
X129371613Y-44449500D01*
X127779387Y-44449500D01*
X127712348Y-44429815D01*
X127691706Y-44413181D01*
X127122812Y-43844287D01*
X127089327Y-43782964D01*
X127086493Y-43756606D01*
X127086493Y-43069538D01*
X127086493Y-43069536D01*
X127048977Y-42929526D01*
X127043361Y-42919799D01*
X126976503Y-42803996D01*
X124231997Y-40059490D01*
X124106467Y-39987016D01*
X124106464Y-39987015D01*
X124079534Y-39979798D01*
X124079534Y-39979799D01*
X124022995Y-39964649D01*
X123966457Y-39949500D01*
X123966456Y-39949500D01*
X117779387Y-39949500D01*
X117712348Y-39929815D01*
X117691706Y-39913181D01*
X117006696Y-39228171D01*
X116986989Y-39202489D01*
X116980523Y-39191290D01*
X116980520Y-39191284D01*
X116868716Y-39079480D01*
X116868714Y-39079479D01*
X116868709Y-39079475D01*
X116731790Y-39000426D01*
X116731786Y-39000424D01*
X116731784Y-39000423D01*
X116579057Y-38959500D01*
X116420943Y-38959500D01*
X116268216Y-39000423D01*
X116268209Y-39000426D01*
X116131290Y-39079475D01*
X116131282Y-39079481D01*
X116019481Y-39191282D01*
X116019475Y-39191290D01*
X115940426Y-39328209D01*
X115940423Y-39328216D01*
X115899500Y-39480943D01*
X104100500Y-39480943D01*
X104100500Y-39420943D01*
X104059577Y-39268216D01*
X104015164Y-39191290D01*
X103980524Y-39131290D01*
X103980518Y-39131282D01*
X103868717Y-39019481D01*
X103868709Y-39019475D01*
X103731790Y-38940426D01*
X103731786Y-38940424D01*
X103731784Y-38940423D01*
X103579057Y-38899500D01*
X103420943Y-38899500D01*
X103268216Y-38940423D01*
X103268214Y-38940423D01*
X103260365Y-38942527D01*
X103260179Y-38941834D01*
X103221637Y-38949500D01*
X95779387Y-38949500D01*
X95712348Y-38929815D01*
X95691706Y-38913181D01*
X94086819Y-37308294D01*
X94053334Y-37246971D01*
X94050500Y-37220613D01*
X94050500Y-36779386D01*
X94070185Y-36712347D01*
X94086815Y-36691709D01*
X94297039Y-36481484D01*
X94358360Y-36448001D01*
X94416811Y-36449392D01*
X94420943Y-36450500D01*
X94420947Y-36450500D01*
X94579055Y-36450500D01*
X94579057Y-36450500D01*
X94689365Y-36420943D01*
X116014500Y-36420943D01*
X116014500Y-36579057D01*
X116020246Y-36600499D01*
X116055423Y-36731783D01*
X116055426Y-36731790D01*
X116134475Y-36868709D01*
X116134479Y-36868714D01*
X116134480Y-36868716D01*
X116246284Y-36980520D01*
X116246286Y-36980521D01*
X116246290Y-36980524D01*
X116383209Y-37059573D01*
X116383216Y-37059577D01*
X116453046Y-37078287D01*
X116508633Y-37110381D01*
X117738737Y-38340485D01*
X117835763Y-38396503D01*
X117943982Y-38425500D01*
X117943984Y-38425500D01*
X136056016Y-38425500D01*
X136056018Y-38425500D01*
X136164237Y-38396503D01*
X136261263Y-38340485D01*
X140464929Y-34136819D01*
X140526252Y-34103334D01*
X140552610Y-34100500D01*
X140579055Y-34100500D01*
X140579057Y-34100500D01*
X140731784Y-34059577D01*
X140868716Y-33980520D01*
X140980520Y-33868716D01*
X141059577Y-33731784D01*
X141100500Y-33579057D01*
X141100500Y-33420943D01*
X141059577Y-33268216D01*
X140989958Y-33147631D01*
X140980524Y-33131290D01*
X140980518Y-33131282D01*
X140868717Y-33019481D01*
X140868709Y-33019475D01*
X140731790Y-32940426D01*
X140731786Y-32940424D01*
X140731784Y-32940423D01*
X140579057Y-32899500D01*
X140420943Y-32899500D01*
X140268216Y-32940423D01*
X140268209Y-32940426D01*
X140131290Y-33019475D01*
X140131282Y-33019481D01*
X140019481Y-33131282D01*
X140019475Y-33131290D01*
X139940426Y-33268209D01*
X139940423Y-33268216D01*
X139899500Y-33420943D01*
X139899500Y-33447390D01*
X139879815Y-33514429D01*
X139863181Y-33535071D01*
X135860071Y-37538181D01*
X135798748Y-37571666D01*
X135772390Y-37574500D01*
X118227610Y-37574500D01*
X118160571Y-37554815D01*
X118139929Y-37538181D01*
X117251819Y-36650071D01*
X117218334Y-36588748D01*
X117215500Y-36562390D01*
X117215500Y-36420945D01*
X117215500Y-36420943D01*
X117174577Y-36268216D01*
X117145999Y-36218717D01*
X117095524Y-36131290D01*
X117095518Y-36131282D01*
X116983717Y-36019481D01*
X116983709Y-36019475D01*
X116846790Y-35940426D01*
X116846786Y-35940424D01*
X116846784Y-35940423D01*
X116694057Y-35899500D01*
X116535943Y-35899500D01*
X116383216Y-35940423D01*
X116383209Y-35940426D01*
X116246290Y-36019475D01*
X116246282Y-36019481D01*
X116134481Y-36131282D01*
X116134475Y-36131290D01*
X116055426Y-36268209D01*
X116055423Y-36268216D01*
X116014500Y-36420943D01*
X94689365Y-36420943D01*
X94731784Y-36409577D01*
X94868716Y-36330520D01*
X94980520Y-36218716D01*
X95059577Y-36081784D01*
X95100500Y-35929057D01*
X95100500Y-35770943D01*
X95059577Y-35618216D01*
X95042891Y-35589315D01*
X94980524Y-35481290D01*
X94980518Y-35481282D01*
X94868717Y-35369481D01*
X94868709Y-35369475D01*
X94731790Y-35290426D01*
X94731786Y-35290424D01*
X94731784Y-35290423D01*
X94579057Y-35249500D01*
X94420943Y-35249500D01*
X94268216Y-35290423D01*
X94268214Y-35290423D01*
X94260365Y-35292527D01*
X94260179Y-35291834D01*
X94221637Y-35299500D01*
X94077525Y-35299500D01*
X93972517Y-35327637D01*
X93937514Y-35337016D01*
X93811986Y-35409489D01*
X93811983Y-35409491D01*
X93059491Y-36161983D01*
X93059487Y-36161988D01*
X92993309Y-36276612D01*
X92993310Y-36276613D01*
X92987017Y-36287512D01*
X92987016Y-36287514D01*
X92987016Y-36287515D01*
X92949500Y-36427525D01*
X87875500Y-36427525D01*
X87875500Y-33644443D01*
X87895185Y-33577404D01*
X87947989Y-33531649D01*
X88017147Y-33521705D01*
X88057953Y-33535085D01*
X88062371Y-33537446D01*
X88234353Y-33608683D01*
X88234361Y-33608685D01*
X88416921Y-33644999D01*
X88416924Y-33645000D01*
X88590000Y-33645000D01*
X88590000Y-32950000D01*
X89090000Y-32950000D01*
X89090000Y-33645000D01*
X89263076Y-33645000D01*
X89263078Y-33644999D01*
X89445638Y-33608685D01*
X89445646Y-33608683D01*
X89617622Y-33537449D01*
X89617631Y-33537444D01*
X89748500Y-33449999D01*
X90565789Y-33449999D01*
X90565790Y-33450000D01*
X91283763Y-33450000D01*
X91265000Y-33495299D01*
X91265000Y-33904701D01*
X91283763Y-33950000D01*
X90565789Y-33950000D01*
X90602466Y-34134389D01*
X90602468Y-34134397D01*
X90675964Y-34311833D01*
X90675969Y-34311842D01*
X90782667Y-34471526D01*
X90782670Y-34471530D01*
X90918469Y-34607329D01*
X90918473Y-34607332D01*
X91078157Y-34714030D01*
X91078167Y-34714035D01*
X91255599Y-34787530D01*
X91255606Y-34787533D01*
X91290000Y-34794373D01*
X91290000Y-33965056D01*
X91306866Y-34005775D01*
X91384225Y-34083134D01*
X91485299Y-34125000D01*
X91594701Y-34125000D01*
X91695775Y-34083134D01*
X91773134Y-34005775D01*
X91790000Y-33965056D01*
X91790000Y-34794372D01*
X91824393Y-34787533D01*
X91824400Y-34787530D01*
X92001832Y-34714035D01*
X92001842Y-34714030D01*
X92161526Y-34607332D01*
X92161530Y-34607329D01*
X92297329Y-34471530D01*
X92297332Y-34471526D01*
X92404030Y-34311842D01*
X92404035Y-34311833D01*
X92477531Y-34134397D01*
X92477533Y-34134389D01*
X92514210Y-33950000D01*
X91796237Y-33950000D01*
X91815000Y-33904701D01*
X91815000Y-33495299D01*
X91796237Y-33450000D01*
X92514210Y-33450000D01*
X92514210Y-33449999D01*
X92477533Y-33265610D01*
X92477531Y-33265602D01*
X92404035Y-33088166D01*
X92404030Y-33088157D01*
X92297332Y-32928473D01*
X92297329Y-32928469D01*
X92161530Y-32792670D01*
X92161526Y-32792667D01*
X92001842Y-32685969D01*
X92001833Y-32685964D01*
X91824397Y-32612468D01*
X91824389Y-32612466D01*
X91790000Y-32605625D01*
X91790000Y-33434943D01*
X91773134Y-33394225D01*
X91695775Y-33316866D01*
X91594701Y-33275000D01*
X91485299Y-33275000D01*
X91384225Y-33316866D01*
X91306866Y-33394225D01*
X91290000Y-33434943D01*
X91290000Y-32605625D01*
X91255610Y-32612466D01*
X91255602Y-32612468D01*
X91078166Y-32685964D01*
X91078157Y-32685969D01*
X90918473Y-32792667D01*
X90918469Y-32792670D01*
X90782670Y-32928469D01*
X90782667Y-32928473D01*
X90675969Y-33088157D01*
X90675964Y-33088166D01*
X90602468Y-33265602D01*
X90602466Y-33265610D01*
X90565789Y-33449999D01*
X89748500Y-33449999D01*
X89772401Y-33434029D01*
X89772405Y-33434026D01*
X89810783Y-33395649D01*
X89904026Y-33302405D01*
X89904029Y-33302401D01*
X90007444Y-33147631D01*
X90007451Y-33147618D01*
X90078682Y-32975649D01*
X90078683Y-32975644D01*
X90083784Y-32950000D01*
X89214728Y-32950000D01*
X89306614Y-32911940D01*
X89376940Y-32841614D01*
X89415000Y-32749728D01*
X89415000Y-32650272D01*
X89376940Y-32558386D01*
X89306614Y-32488060D01*
X89214728Y-32450000D01*
X90083784Y-32450000D01*
X90078683Y-32424355D01*
X90078682Y-32424350D01*
X90007451Y-32252381D01*
X90007444Y-32252368D01*
X89904029Y-32097598D01*
X89904026Y-32097594D01*
X89772405Y-31965973D01*
X89772401Y-31965970D01*
X89705014Y-31920943D01*
X117399500Y-31920943D01*
X117399500Y-32079057D01*
X117405246Y-32100499D01*
X117440423Y-32231783D01*
X117440426Y-32231790D01*
X117519475Y-32368709D01*
X117519479Y-32368714D01*
X117519480Y-32368716D01*
X117631284Y-32480520D01*
X117631286Y-32480521D01*
X117631290Y-32480524D01*
X117766153Y-32558386D01*
X117768216Y-32559577D01*
X117920943Y-32600500D01*
X117920945Y-32600500D01*
X118079055Y-32600500D01*
X118079057Y-32600500D01*
X118231784Y-32559577D01*
X118368716Y-32480520D01*
X118480520Y-32368716D01*
X118559577Y-32231784D01*
X118600500Y-32079057D01*
X118600500Y-32052610D01*
X118609144Y-32023169D01*
X118615668Y-31993183D01*
X118619422Y-31988167D01*
X118620185Y-31985571D01*
X118636819Y-31964929D01*
X118680805Y-31920943D01*
X133399500Y-31920943D01*
X133399500Y-32079057D01*
X133405246Y-32100499D01*
X133440423Y-32231783D01*
X133440426Y-32231790D01*
X133519475Y-32368709D01*
X133519479Y-32368714D01*
X133519480Y-32368716D01*
X133631284Y-32480520D01*
X133631286Y-32480521D01*
X133631290Y-32480524D01*
X133775254Y-32563641D01*
X133774895Y-32564262D01*
X133807570Y-32586095D01*
X134061432Y-32839957D01*
X134094917Y-32901280D01*
X134097751Y-32927638D01*
X134097751Y-34724857D01*
X134090085Y-34763399D01*
X134090778Y-34763585D01*
X134088674Y-34771434D01*
X134088674Y-34771436D01*
X134082528Y-34794373D01*
X134047751Y-34924163D01*
X134047751Y-35082276D01*
X134088674Y-35235003D01*
X134088677Y-35235010D01*
X134167726Y-35371929D01*
X134167730Y-35371934D01*
X134167731Y-35371936D01*
X134279535Y-35483740D01*
X134279537Y-35483741D01*
X134279541Y-35483744D01*
X134423505Y-35566861D01*
X134423146Y-35567482D01*
X134455821Y-35589315D01*
X135307016Y-36440510D01*
X135432546Y-36512984D01*
X135572556Y-36550500D01*
X135572557Y-36550500D01*
X135717505Y-36550500D01*
X135721637Y-36550500D01*
X135760179Y-36558165D01*
X135760365Y-36557473D01*
X135768214Y-36559576D01*
X135768216Y-36559577D01*
X135920943Y-36600500D01*
X135920945Y-36600500D01*
X136079055Y-36600500D01*
X136079057Y-36600500D01*
X136231784Y-36559577D01*
X136368716Y-36480520D01*
X136480520Y-36368716D01*
X136559577Y-36231784D01*
X136600500Y-36079057D01*
X136600500Y-35920943D01*
X136559577Y-35768216D01*
X136559573Y-35768209D01*
X136480524Y-35631290D01*
X136480518Y-35631282D01*
X136368717Y-35519481D01*
X136368709Y-35519475D01*
X136231790Y-35440426D01*
X136231786Y-35440424D01*
X136231784Y-35440423D01*
X136079057Y-35399500D01*
X135920943Y-35399500D01*
X135920939Y-35399500D01*
X135912886Y-35401658D01*
X135843036Y-35399991D01*
X135793118Y-35369562D01*
X135235070Y-34811514D01*
X135201585Y-34750191D01*
X135198751Y-34723833D01*
X135198751Y-32575778D01*
X135198751Y-32575776D01*
X135161235Y-32435766D01*
X135155308Y-32425500D01*
X135088761Y-32310236D01*
X134586095Y-31807570D01*
X134564262Y-31774895D01*
X134563641Y-31775254D01*
X134480524Y-31631290D01*
X134480518Y-31631282D01*
X134368717Y-31519481D01*
X134368709Y-31519475D01*
X134231790Y-31440426D01*
X134231786Y-31440424D01*
X134231784Y-31440423D01*
X134079057Y-31399500D01*
X133920943Y-31399500D01*
X133768216Y-31440423D01*
X133768209Y-31440426D01*
X133631290Y-31519475D01*
X133631282Y-31519481D01*
X133519481Y-31631282D01*
X133519475Y-31631290D01*
X133440426Y-31768209D01*
X133440423Y-31768216D01*
X133399500Y-31920943D01*
X118680805Y-31920943D01*
X120139929Y-30461819D01*
X120201252Y-30428334D01*
X120227610Y-30425500D01*
X137272390Y-30425500D01*
X137339429Y-30445185D01*
X137360071Y-30461819D01*
X138363181Y-31464928D01*
X138396666Y-31526251D01*
X138399500Y-31552609D01*
X138399500Y-31579057D01*
X138424676Y-31673013D01*
X138440423Y-31731783D01*
X138440426Y-31731790D01*
X138519475Y-31868709D01*
X138519479Y-31868714D01*
X138519480Y-31868716D01*
X138631284Y-31980520D01*
X138631286Y-31980521D01*
X138631290Y-31980524D01*
X138756149Y-32052610D01*
X138768216Y-32059577D01*
X138920943Y-32100500D01*
X138920945Y-32100500D01*
X139079055Y-32100500D01*
X139079057Y-32100500D01*
X139231784Y-32059577D01*
X139368716Y-31980520D01*
X139480520Y-31868716D01*
X139559577Y-31731784D01*
X139600500Y-31579057D01*
X139600500Y-31420943D01*
X139559577Y-31268216D01*
X139487454Y-31143294D01*
X139480524Y-31131290D01*
X139480518Y-31131282D01*
X139368717Y-31019481D01*
X139368709Y-31019475D01*
X139231790Y-30940426D01*
X139231786Y-30940424D01*
X139231784Y-30940423D01*
X139079057Y-30899500D01*
X139079056Y-30899500D01*
X139052609Y-30899500D01*
X138985570Y-30879815D01*
X138964928Y-30863181D01*
X138369963Y-30268216D01*
X137761263Y-29659515D01*
X137664237Y-29603497D01*
X137556018Y-29574500D01*
X137556017Y-29574500D01*
X131869779Y-29574500D01*
X131802740Y-29554815D01*
X131756985Y-29502011D01*
X131745779Y-29450500D01*
X131745779Y-29295946D01*
X131745779Y-29295944D01*
X131704856Y-29143217D01*
X131638903Y-29028982D01*
X131625803Y-29006291D01*
X131625797Y-29006283D01*
X131513996Y-28894482D01*
X131513988Y-28894476D01*
X131370025Y-28811360D01*
X131370383Y-28810739D01*
X131337707Y-28788905D01*
X129108294Y-26559491D01*
X129108293Y-26559490D01*
X128982763Y-26487016D01*
X128982764Y-26487016D01*
X128943618Y-26476527D01*
X128842753Y-26449500D01*
X128842750Y-26449500D01*
X126279387Y-26449500D01*
X126212348Y-26429815D01*
X126191706Y-26413181D01*
X123838016Y-24059491D01*
X123838015Y-24059490D01*
X123712485Y-23987016D01*
X123712486Y-23987016D01*
X123677482Y-23977637D01*
X123572475Y-23949500D01*
X120927525Y-23949500D01*
X120843519Y-23972009D01*
X120787513Y-23987016D01*
X120787512Y-23987017D01*
X120661989Y-24059487D01*
X120661984Y-24059491D01*
X119559491Y-25161983D01*
X119559489Y-25161985D01*
X119528463Y-25215727D01*
X119528462Y-25215728D01*
X119487017Y-25287512D01*
X119487016Y-25287513D01*
X119468258Y-25357520D01*
X119449500Y-25427525D01*
X119449500Y-26927525D01*
X119449500Y-26927526D01*
X119449500Y-27072474D01*
X119487016Y-27212485D01*
X119555884Y-27331770D01*
X119559489Y-27338013D01*
X119559491Y-27338016D01*
X120213905Y-27992430D01*
X120235737Y-28025105D01*
X120236359Y-28024746D01*
X120319477Y-28168712D01*
X120319479Y-28168715D01*
X120319480Y-28168716D01*
X120431284Y-28280520D01*
X120431286Y-28280521D01*
X120431290Y-28280524D01*
X120568209Y-28359573D01*
X120568216Y-28359577D01*
X120720943Y-28400500D01*
X120720945Y-28400500D01*
X120879055Y-28400500D01*
X120879057Y-28400500D01*
X121031784Y-28359577D01*
X121168716Y-28280520D01*
X121280520Y-28168716D01*
X121359577Y-28031784D01*
X121400500Y-27879057D01*
X121400500Y-27720943D01*
X121359577Y-27568216D01*
X121327691Y-27512987D01*
X121280524Y-27431290D01*
X121280518Y-27431282D01*
X121168717Y-27319481D01*
X121168712Y-27319477D01*
X121024746Y-27236359D01*
X121025105Y-27235737D01*
X120992430Y-27213905D01*
X120586819Y-26808294D01*
X120553334Y-26746971D01*
X120550500Y-26720613D01*
X120550500Y-25779386D01*
X120570185Y-25712347D01*
X120586819Y-25691705D01*
X121191705Y-25086819D01*
X121253028Y-25053334D01*
X121279386Y-25050500D01*
X123220613Y-25050500D01*
X123287652Y-25070185D01*
X123308294Y-25086819D01*
X125413905Y-27192430D01*
X125435737Y-27225105D01*
X125436359Y-27224746D01*
X125519477Y-27368712D01*
X125519479Y-27368715D01*
X125519480Y-27368716D01*
X125631284Y-27480520D01*
X125631286Y-27480521D01*
X125631290Y-27480524D01*
X125734300Y-27539996D01*
X125768216Y-27559577D01*
X125920943Y-27600500D01*
X125920945Y-27600500D01*
X126079055Y-27600500D01*
X126079057Y-27600500D01*
X126231784Y-27559577D01*
X126231785Y-27559576D01*
X126239635Y-27557473D01*
X126239820Y-27558165D01*
X126278363Y-27550500D01*
X128490891Y-27550500D01*
X128557930Y-27570185D01*
X128578572Y-27586819D01*
X130354573Y-29362819D01*
X130388058Y-29424142D01*
X130383074Y-29493834D01*
X130341202Y-29549767D01*
X130275738Y-29574184D01*
X130266892Y-29574500D01*
X120056018Y-29574500D01*
X119943981Y-29574500D01*
X119835763Y-29603497D01*
X119835761Y-29603498D01*
X119835760Y-29603498D01*
X119738740Y-29659513D01*
X119738734Y-29659517D01*
X118035071Y-31363181D01*
X117973748Y-31396666D01*
X117947390Y-31399500D01*
X117920943Y-31399500D01*
X117768216Y-31440423D01*
X117768209Y-31440426D01*
X117631290Y-31519475D01*
X117631282Y-31519481D01*
X117519481Y-31631282D01*
X117519475Y-31631290D01*
X117440426Y-31768209D01*
X117440423Y-31768216D01*
X117399500Y-31920943D01*
X89705014Y-31920943D01*
X89617631Y-31862555D01*
X89617622Y-31862550D01*
X89445646Y-31791316D01*
X89445638Y-31791314D01*
X89263077Y-31755000D01*
X89090000Y-31755000D01*
X89090000Y-32450000D01*
X88590000Y-32450000D01*
X88590000Y-31755000D01*
X88416923Y-31755000D01*
X88234361Y-31791314D01*
X88234353Y-31791316D01*
X88062368Y-31862554D01*
X88057944Y-31864919D01*
X87989541Y-31879155D01*
X87924299Y-31854150D01*
X87882933Y-31797842D01*
X87875500Y-31755556D01*
X87875500Y-21749500D01*
X87895185Y-21682461D01*
X87947989Y-21636706D01*
X87999500Y-21625500D01*
X165250500Y-21625500D01*
X165317539Y-21645185D01*
G37*
%TD.AperFunction*%
%TD*%
M02*
