M48
; DRILL file {KiCad 9.0.8} date 2026-07-09T03:30:57+0300
; FORMAT={-:-/ absolute / metric / decimal}
; #@! TF.CreationDate,2026-07-09T03:30:57+03:00
; #@! TF.GenerationSoftware,Kicad,Pcbnew,9.0.8
; #@! TF.FileFunction,Plated,1,2,PTH
FMAT,2
METRIC
; #@! TA.AperFunction,Plated,PTH,ViaDrill
T1C0.300
; #@! TA.AperFunction,Plated,PTH,ComponentDrill
T2C0.500
; #@! TA.AperFunction,Plated,PTH,ComponentDrill
T3C0.550
; #@! TA.AperFunction,Plated,PTH,ComponentDrill
T4C1.000
; #@! TA.AperFunction,Plated,PTH,ComponentDrill
T5C1.020
%
G90
G05
T1
X94.5Y-35.85
X99.5Y-36.0
X103.5Y-39.5
X109.0Y-43.5
X112.5Y-33.5
X116.0Y-37.5
X116.5Y-39.56
X116.615Y-36.5
X118.0Y-32.0
X120.8Y-27.8
X125.786Y-43.453
X126.0Y-27.0
X127.5Y-45.0
X128.5Y-44.0
X128.5Y-46.625
X129.0Y-42.5
X129.496Y-26.211
X130.0Y-46.0
X131.145Y-29.375
X132.5Y-34.0
X132.625Y-23.875
X133.0Y-41.0
X133.5Y-44.0
X134.0Y-32.0
X134.648Y-35.003
X135.0Y-46.0
X135.5Y-37.0
X136.0Y-36.0
X139.0Y-31.5
X140.5Y-33.5
X140.5Y-37.5
X144.0Y-48.875
X145.5Y-40.0
X146.0Y-23.5
X146.0Y-48.0
X147.5Y-49.5
X148.5Y-27.5
X153.5Y-39.5
X153.5Y-46.625
X154.5Y-46.0
X157.0Y-41.5
X158.0Y-34.0
X158.0Y-42.0
X158.375Y-30.5
X159.375Y-30.5
T4
X131.1Y-48.125
X133.64Y-48.125
T5
X155.335Y-26.125
X157.875Y-26.125
X160.415Y-26.125
X162.955Y-26.125
T2
G00X89.165Y-32.7
M15
G01X88.515Y-32.7
M16
G05
G00X89.165Y-39.7
M15
G01X88.515Y-39.7
M16
G05
T3
G00X91.54Y-33.55
M15
G01X91.54Y-33.85
M16
G05
G00X91.54Y-38.55
M15
G01X91.54Y-38.85
M16
G05
M30
