%TF.GenerationSoftware,KiCad,Pcbnew,9.0.8*%
%TF.CreationDate,2026-07-09T03:31:01+03:00*%
%TF.ProjectId,STM32-SDMMC-Logger-Board,53544d33-322d-4534-944d-4d432d4c6f67,rev?*%
%TF.SameCoordinates,Original*%
%TF.FileFunction,Paste,Top*%
%TF.FilePolarity,Positive*%
%FSLAX46Y46*%
G04 Gerber Fmt 4.6, Leading zero omitted, Abs format (unit mm)*
G04 Created by KiCad (PCBNEW 9.0.8) date 2026-07-09 03:31:01*
%MOMM*%
%LPD*%
G01*
G04 APERTURE LIST*
G04 Aperture macros list*
%AMRoundRect*
0 Rectangle with rounded corners*
0 $1 Rounding radius*
0 $2 $3 $4 $5 $6 $7 $8 $9 X,Y pos of 4 corners*
0 Add a 4 corners polygon primitive as box body*
4,1,4,$2,$3,$4,$5,$6,$7,$8,$9,$2,$3,0*
0 Add four circle primitives for the rounded corners*
1,1,$1+$1,$2,$3*
1,1,$1+$1,$4,$5*
1,1,$1+$1,$6,$7*
1,1,$1+$1,$8,$9*
0 Add four rect primitives between the rounded corners*
20,1,$1+$1,$2,$3,$4,$5,0*
20,1,$1+$1,$4,$5,$6,$7,0*
20,1,$1+$1,$6,$7,$8,$9,0*
20,1,$1+$1,$8,$9,$2,$3,0*%
G04 Aperture macros list end*
%ADD10RoundRect,0.140000X-0.140000X-0.170000X0.140000X-0.170000X0.140000X0.170000X-0.140000X0.170000X0*%
%ADD11RoundRect,0.250000X-0.325000X-0.250000X0.325000X-0.250000X0.325000X0.250000X-0.325000X0.250000X0*%
%ADD12RoundRect,0.135000X-0.135000X-0.185000X0.135000X-0.185000X0.135000X0.185000X-0.135000X0.185000X0*%
%ADD13RoundRect,0.150000X0.512500X0.150000X-0.512500X0.150000X-0.512500X-0.150000X0.512500X-0.150000X0*%
%ADD14RoundRect,0.250000X-0.312500X-1.450000X0.312500X-1.450000X0.312500X1.450000X-0.312500X1.450000X0*%
%ADD15RoundRect,0.135000X0.135000X0.185000X-0.135000X0.185000X-0.135000X-0.185000X0.135000X-0.185000X0*%
%ADD16RoundRect,0.250000X0.475000X-0.250000X0.475000X0.250000X-0.475000X0.250000X-0.475000X-0.250000X0*%
%ADD17RoundRect,0.140000X0.170000X-0.140000X0.170000X0.140000X-0.170000X0.140000X-0.170000X-0.140000X0*%
%ADD18RoundRect,0.140000X-0.170000X0.140000X-0.170000X-0.140000X0.170000X-0.140000X0.170000X0.140000X0*%
%ADD19RoundRect,0.147500X-0.147500X-0.172500X0.147500X-0.172500X0.147500X0.172500X-0.147500X0.172500X0*%
%ADD20RoundRect,0.135000X0.185000X-0.135000X0.185000X0.135000X-0.185000X0.135000X-0.185000X-0.135000X0*%
%ADD21RoundRect,0.140000X0.140000X0.170000X-0.140000X0.170000X-0.140000X-0.170000X0.140000X-0.170000X0*%
%ADD22RoundRect,0.250000X0.525000X0.400000X-0.525000X0.400000X-0.525000X-0.400000X0.525000X-0.400000X0*%
%ADD23RoundRect,0.375000X-0.375000X0.625000X-0.375000X-0.625000X0.375000X-0.625000X0.375000X0.625000X0*%
%ADD24RoundRect,0.500000X-1.400000X0.500000X-1.400000X-0.500000X1.400000X-0.500000X1.400000X0.500000X0*%
%ADD25O,1.550000X0.890000*%
%ADD26O,0.950000X1.250000*%
%ADD27RoundRect,0.100000X-0.575000X0.100000X-0.575000X-0.100000X0.575000X-0.100000X0.575000X0.100000X0*%
%ADD28RoundRect,0.250000X-0.525000X0.475000X-0.525000X-0.475000X0.525000X-0.475000X0.525000X0.475000X0*%
%ADD29RoundRect,0.250000X-0.525000X0.500000X-0.525000X-0.500000X0.525000X-0.500000X0.525000X0.500000X0*%
%ADD30RoundRect,0.147500X0.147500X0.172500X-0.147500X0.172500X-0.147500X-0.172500X0.147500X-0.172500X0*%
%ADD31RoundRect,0.075000X0.700000X0.075000X-0.700000X0.075000X-0.700000X-0.075000X0.700000X-0.075000X0*%
%ADD32RoundRect,0.075000X0.075000X0.700000X-0.075000X0.700000X-0.075000X-0.700000X0.075000X-0.700000X0*%
%ADD33RoundRect,0.135000X-0.185000X0.135000X-0.185000X-0.135000X0.185000X-0.135000X0.185000X0.135000X0*%
%ADD34RoundRect,0.250000X0.250000X0.475000X-0.250000X0.475000X-0.250000X-0.475000X0.250000X-0.475000X0*%
%ADD35RoundRect,0.250000X-0.475000X0.250000X-0.475000X-0.250000X0.475000X-0.250000X0.475000X0.250000X0*%
%ADD36RoundRect,0.362500X0.637500X-0.362500X0.637500X0.362500X-0.637500X0.362500X-0.637500X-0.362500X0*%
%ADD37R,1.500000X0.800000*%
G04 APERTURE END LIST*
D10*
%TO.C,C14*%
X134625000Y-36300000D03*
X133665000Y-36300000D03*
%TD*%
D11*
%TO.C,Y1*%
X137125000Y-36100000D03*
X138875000Y-36100000D03*
X138875000Y-37500000D03*
X137125000Y-37500000D03*
%TD*%
D10*
%TO.C,C13*%
X134625000Y-37300000D03*
X133665000Y-37300000D03*
%TD*%
D12*
%TO.C,R14*%
X99490000Y-34820000D03*
X100510000Y-34820000D03*
%TD*%
D13*
%TO.C,U3*%
X95862500Y-36800000D03*
X95862500Y-35850000D03*
X95862500Y-34900000D03*
X98137500Y-34900000D03*
X98137500Y-35850000D03*
X98137500Y-36800000D03*
%TD*%
D12*
%TO.C,R15*%
X100510000Y-36880000D03*
X99490000Y-36880000D03*
%TD*%
D14*
%TO.C,F1*%
X93737500Y-32070000D03*
X98012500Y-32070000D03*
%TD*%
D12*
%TO.C,R10*%
X149395000Y-37125000D03*
X148375000Y-37125000D03*
%TD*%
%TO.C,R9*%
X149385000Y-38125000D03*
X148365000Y-38125000D03*
%TD*%
D15*
%TO.C,R1*%
X133615000Y-34000000D03*
X134635000Y-34000000D03*
%TD*%
D16*
%TO.C,C1*%
X105500000Y-30655000D03*
X105500000Y-28755000D03*
%TD*%
D17*
%TO.C,C10*%
X122625000Y-27800000D03*
X122625000Y-26840000D03*
%TD*%
D12*
%TO.C,R19*%
X147355000Y-25625000D03*
X148375000Y-25625000D03*
%TD*%
D15*
%TO.C,R18*%
X152395000Y-26625000D03*
X151375000Y-26625000D03*
%TD*%
D18*
%TO.C,C8*%
X130125000Y-40820000D03*
X130125000Y-41780000D03*
%TD*%
D17*
%TO.C,C2*%
X107000000Y-30975000D03*
X107000000Y-30015000D03*
%TD*%
D19*
%TO.C,D1*%
X149400000Y-26625000D03*
X150370000Y-26625000D03*
%TD*%
D20*
%TO.C,R20*%
X126625000Y-43820000D03*
X126625000Y-42800000D03*
%TD*%
D21*
%TO.C,C7*%
X118125000Y-38800000D03*
X117165000Y-38800000D03*
%TD*%
D22*
%TO.C,SW1*%
X144355000Y-28375000D03*
X136395000Y-28375000D03*
X144355000Y-23875000D03*
X136395000Y-23875000D03*
%TD*%
D23*
%TO.C,U1*%
X110300000Y-32825000D03*
X108000000Y-32825000D03*
D24*
X108000000Y-39125000D03*
D23*
X105700000Y-32825000D03*
%TD*%
D21*
%TO.C,C12*%
X149335000Y-42550000D03*
X148375000Y-42550000D03*
%TD*%
D20*
%TO.C,R3*%
X124000000Y-43800000D03*
X124000000Y-42780000D03*
%TD*%
D25*
%TO.C,J1*%
X88840000Y-32700000D03*
D26*
X91540000Y-33700000D03*
X91540000Y-38700000D03*
D25*
X88840000Y-39700000D03*
D27*
X91540000Y-34900000D03*
X91540000Y-35550000D03*
X91540000Y-36200000D03*
X91540000Y-36850000D03*
X91540000Y-37500000D03*
D28*
X88840000Y-33175000D03*
D29*
X88840000Y-35200000D03*
X88840000Y-37200000D03*
D28*
X88840000Y-39225000D03*
%TD*%
D30*
%TO.C,D2*%
X150375000Y-25625000D03*
X149405000Y-25625000D03*
%TD*%
D17*
%TO.C,C6*%
X121625000Y-27800000D03*
X121625000Y-26840000D03*
%TD*%
D12*
%TO.C,R12*%
X148375000Y-44625000D03*
X149395000Y-44625000D03*
%TD*%
%TO.C,R6*%
X116615000Y-35500000D03*
X117635000Y-35500000D03*
%TD*%
D20*
%TO.C,R16*%
X158375000Y-32500000D03*
X158375000Y-31480000D03*
%TD*%
D18*
%TO.C,C4*%
X109000000Y-40995000D03*
X109000000Y-41955000D03*
%TD*%
D31*
%TO.C,U2*%
X131050000Y-38875000D03*
X131050000Y-38375000D03*
X131050000Y-37875000D03*
X131050000Y-37375000D03*
X131050000Y-36875000D03*
X131050000Y-36375000D03*
X131050000Y-35875000D03*
X131050000Y-35375000D03*
X131050000Y-34875000D03*
X131050000Y-34375000D03*
X131050000Y-33875000D03*
X131050000Y-33375000D03*
X131050000Y-32875000D03*
X131050000Y-32375000D03*
X131050000Y-31875000D03*
X131050000Y-31375000D03*
D32*
X129125000Y-29450000D03*
X128625000Y-29450000D03*
X128125000Y-29450000D03*
X127625000Y-29450000D03*
X127125000Y-29450000D03*
X126625000Y-29450000D03*
X126125000Y-29450000D03*
X125625000Y-29450000D03*
X125125000Y-29450000D03*
X124625000Y-29450000D03*
X124125000Y-29450000D03*
X123625000Y-29450000D03*
X123125000Y-29450000D03*
X122625000Y-29450000D03*
X122125000Y-29450000D03*
X121625000Y-29450000D03*
D31*
X119700000Y-31375000D03*
X119700000Y-31875000D03*
X119700000Y-32375000D03*
X119700000Y-32875000D03*
X119700000Y-33375000D03*
X119700000Y-33875000D03*
X119700000Y-34375000D03*
X119700000Y-34875000D03*
X119700000Y-35375000D03*
X119700000Y-35875000D03*
X119700000Y-36375000D03*
X119700000Y-36875000D03*
X119700000Y-37375000D03*
X119700000Y-37875000D03*
X119700000Y-38375000D03*
X119700000Y-38875000D03*
D32*
X121625000Y-40800000D03*
X122125000Y-40800000D03*
X122625000Y-40800000D03*
X123125000Y-40800000D03*
X123625000Y-40800000D03*
X124125000Y-40800000D03*
X124625000Y-40800000D03*
X125125000Y-40800000D03*
X125625000Y-40800000D03*
X126125000Y-40800000D03*
X126625000Y-40800000D03*
X127125000Y-40800000D03*
X127625000Y-40800000D03*
X128125000Y-40800000D03*
X128625000Y-40800000D03*
X129125000Y-40800000D03*
%TD*%
D33*
%TO.C,R4*%
X125000000Y-42780000D03*
X125000000Y-43800000D03*
%TD*%
D34*
%TO.C,C11*%
X149015000Y-41025000D03*
X147115000Y-41025000D03*
%TD*%
D35*
%TO.C,C3*%
X107465000Y-41315000D03*
X107465000Y-43215000D03*
%TD*%
D10*
%TO.C,C9*%
X132645000Y-32800000D03*
X133605000Y-32800000D03*
%TD*%
D12*
%TO.C,R5*%
X116605000Y-34500000D03*
X117625000Y-34500000D03*
%TD*%
D20*
%TO.C,R17*%
X159375000Y-32500000D03*
X159375000Y-31480000D03*
%TD*%
D12*
%TO.C,R11*%
X148375000Y-45625000D03*
X149395000Y-45625000D03*
%TD*%
D33*
%TO.C,R2*%
X127625000Y-42790000D03*
X127625000Y-43810000D03*
%TD*%
D18*
%TO.C,C15*%
X132125000Y-39820000D03*
X132125000Y-40780000D03*
%TD*%
D12*
%TO.C,R13*%
X148375000Y-43625000D03*
X149395000Y-43625000D03*
%TD*%
D17*
%TO.C,C5*%
X128125000Y-27800000D03*
X128125000Y-26840000D03*
%TD*%
D20*
%TO.C,R8*%
X123000000Y-43800000D03*
X123000000Y-42780000D03*
%TD*%
%TO.C,R7*%
X122000000Y-43800000D03*
X122000000Y-42780000D03*
%TD*%
D36*
%TO.C,J4*%
X160975000Y-34750000D03*
X152675000Y-34750000D03*
X160975000Y-48500000D03*
X152675000Y-48500000D03*
D37*
X155275000Y-37130000D03*
X155275000Y-38230000D03*
X155275000Y-39330000D03*
X155275000Y-40430000D03*
X155275000Y-41530000D03*
X155275000Y-42630000D03*
X155275000Y-43730000D03*
X155275000Y-44830000D03*
%TD*%
M02*
