%TF.GenerationSoftware,KiCad,Pcbnew,9.0.8*%
%TF.CreationDate,2026-07-09T03:31:01+03:00*%
%TF.ProjectId,STM32-SDMMC-Logger-Board,53544d33-322d-4534-944d-4d432d4c6f67,rev?*%
%TF.SameCoordinates,Original*%
%TF.FileFunction,Copper,L1,Top*%
%TF.FilePolarity,Positive*%
%FSLAX46Y46*%
G04 Gerber Fmt 4.6, Leading zero omitted, Abs format (unit mm)*
G04 Created by KiCad (PCBNEW 9.0.8) date 2026-07-09 03:31:01*
%MOMM*%
%LPD*%
G01*
G04 APERTURE LIST*
G04 Aperture macros list*
%AMRoundRect*
0 Rectangle with rounded corners*
0 $1 Rounding radius*
0 $2 $3 $4 $5 $6 $7 $8 $9 X,Y pos of 4 corners*
0 Add a 4 corners polygon primitive as box body*
4,1,4,$2,$3,$4,$5,$6,$7,$8,$9,$2,$3,0*
0 Add four circle primitives for the rounded corners*
1,1,$1+$1,$2,$3*
1,1,$1+$1,$4,$5*
1,1,$1+$1,$6,$7*
1,1,$1+$1,$8,$9*
0 Add four rect primitives between the rounded corners*
20,1,$1+$1,$2,$3,$4,$5,0*
20,1,$1+$1,$4,$5,$6,$7,0*
20,1,$1+$1,$6,$7,$8,$9,0*
20,1,$1+$1,$8,$9,$2,$3,0*%
G04 Aperture macros list end*
%TA.AperFunction,SMDPad,CuDef*%
%ADD10RoundRect,0.140000X-0.140000X-0.170000X0.140000X-0.170000X0.140000X0.170000X-0.140000X0.170000X0*%
%TD*%
%TA.AperFunction,SMDPad,CuDef*%
%ADD11RoundRect,0.250000X-0.325000X-0.250000X0.325000X-0.250000X0.325000X0.250000X-0.325000X0.250000X0*%
%TD*%
%TA.AperFunction,SMDPad,CuDef*%
%ADD12RoundRect,0.135000X-0.135000X-0.185000X0.135000X-0.185000X0.135000X0.185000X-0.135000X0.185000X0*%
%TD*%
%TA.AperFunction,SMDPad,CuDef*%
%ADD13RoundRect,0.150000X0.512500X0.150000X-0.512500X0.150000X-0.512500X-0.150000X0.512500X-0.150000X0*%
%TD*%
%TA.AperFunction,SMDPad,CuDef*%
%ADD14RoundRect,0.250000X-0.312500X-1.450000X0.312500X-1.450000X0.312500X1.450000X-0.312500X1.450000X0*%
%TD*%
%TA.AperFunction,SMDPad,CuDef*%
%ADD15RoundRect,0.135000X0.135000X0.185000X-0.135000X0.185000X-0.135000X-0.185000X0.135000X-0.185000X0*%
%TD*%
%TA.AperFunction,SMDPad,CuDef*%
%ADD16RoundRect,0.250000X0.475000X-0.250000X0.475000X0.250000X-0.475000X0.250000X-0.475000X-0.250000X0*%
%TD*%
%TA.AperFunction,SMDPad,CuDef*%
%ADD17RoundRect,0.140000X0.170000X-0.140000X0.170000X0.140000X-0.170000X0.140000X-0.170000X-0.140000X0*%
%TD*%
%TA.AperFunction,ComponentPad*%
%ADD18R,1.700000X1.700000*%
%TD*%
%TA.AperFunction,ComponentPad*%
%ADD19C,1.700000*%
%TD*%
%TA.AperFunction,SMDPad,CuDef*%
%ADD20RoundRect,0.140000X-0.170000X0.140000X-0.170000X-0.140000X0.170000X-0.140000X0.170000X0.140000X0*%
%TD*%
%TA.AperFunction,SMDPad,CuDef*%
%ADD21RoundRect,0.147500X-0.147500X-0.172500X0.147500X-0.172500X0.147500X0.172500X-0.147500X0.172500X0*%
%TD*%
%TA.AperFunction,SMDPad,CuDef*%
%ADD22RoundRect,0.135000X0.185000X-0.135000X0.185000X0.135000X-0.185000X0.135000X-0.185000X-0.135000X0*%
%TD*%
%TA.AperFunction,SMDPad,CuDef*%
%ADD23RoundRect,0.140000X0.140000X0.170000X-0.140000X0.170000X-0.140000X-0.170000X0.140000X-0.170000X0*%
%TD*%
%TA.AperFunction,SMDPad,CuDef*%
%ADD24RoundRect,0.250000X0.525000X0.400000X-0.525000X0.400000X-0.525000X-0.400000X0.525000X-0.400000X0*%
%TD*%
%TA.AperFunction,SMDPad,CuDef*%
%ADD25RoundRect,0.375000X-0.375000X0.625000X-0.375000X-0.625000X0.375000X-0.625000X0.375000X0.625000X0*%
%TD*%
%TA.AperFunction,SMDPad,CuDef*%
%ADD26RoundRect,0.500000X-1.400000X0.500000X-1.400000X-0.500000X1.400000X-0.500000X1.400000X0.500000X0*%
%TD*%
%TA.AperFunction,ComponentPad*%
%ADD27R,1.730000X2.030000*%
%TD*%
%TA.AperFunction,ComponentPad*%
%ADD28O,1.730000X2.030000*%
%TD*%
%TA.AperFunction,SMDPad,CuDef*%
%ADD29RoundRect,0.100000X-0.575000X0.100000X-0.575000X-0.100000X0.575000X-0.100000X0.575000X0.100000X0*%
%TD*%
%TA.AperFunction,HeatsinkPad*%
%ADD30O,1.550000X0.890000*%
%TD*%
%TA.AperFunction,SMDPad,CuDef*%
%ADD31RoundRect,0.250000X-0.525000X0.475000X-0.525000X-0.475000X0.525000X-0.475000X0.525000X0.475000X0*%
%TD*%
%TA.AperFunction,HeatsinkPad*%
%ADD32O,0.950000X1.250000*%
%TD*%
%TA.AperFunction,SMDPad,CuDef*%
%ADD33RoundRect,0.250000X-0.525000X0.500000X-0.525000X-0.500000X0.525000X-0.500000X0.525000X0.500000X0*%
%TD*%
%TA.AperFunction,SMDPad,CuDef*%
%ADD34RoundRect,0.147500X0.147500X0.172500X-0.147500X0.172500X-0.147500X-0.172500X0.147500X-0.172500X0*%
%TD*%
%TA.AperFunction,SMDPad,CuDef*%
%ADD35RoundRect,0.075000X0.700000X0.075000X-0.700000X0.075000X-0.700000X-0.075000X0.700000X-0.075000X0*%
%TD*%
%TA.AperFunction,SMDPad,CuDef*%
%ADD36RoundRect,0.075000X0.075000X0.700000X-0.075000X0.700000X-0.075000X-0.700000X0.075000X-0.700000X0*%
%TD*%
%TA.AperFunction,SMDPad,CuDef*%
%ADD37RoundRect,0.135000X-0.185000X0.135000X-0.185000X-0.135000X0.185000X-0.135000X0.185000X0.135000X0*%
%TD*%
%TA.AperFunction,SMDPad,CuDef*%
%ADD38RoundRect,0.250000X0.250000X0.475000X-0.250000X0.475000X-0.250000X-0.475000X0.250000X-0.475000X0*%
%TD*%
%TA.AperFunction,SMDPad,CuDef*%
%ADD39RoundRect,0.250000X-0.475000X0.250000X-0.475000X-0.250000X0.475000X-0.250000X0.475000X0.250000X0*%
%TD*%
%TA.AperFunction,SMDPad,CuDef*%
%ADD40RoundRect,0.362500X0.637500X-0.362500X0.637500X0.362500X-0.637500X0.362500X-0.637500X-0.362500X0*%
%TD*%
%TA.AperFunction,SMDPad,CuDef*%
%ADD41R,1.500000X0.800000*%
%TD*%
%TA.AperFunction,ViaPad*%
%ADD42C,0.600000*%
%TD*%
%TA.AperFunction,Conductor*%
%ADD43C,0.250000*%
%TD*%
%TA.AperFunction,Conductor*%
%ADD44C,0.500000*%
%TD*%
%TA.AperFunction,Conductor*%
%ADD45C,0.200000*%
%TD*%
G04 APERTURE END LIST*
D10*
%TO.P,C14,2*%
%TO.N,GND*%
X134625000Y-36300000D03*
%TO.P,C14,1*%
%TO.N,OSC_OUT*%
X133665000Y-36300000D03*
%TD*%
D11*
%TO.P,Y1,4,VCC*%
%TO.N,+3.3V*%
X137125000Y-36100000D03*
%TO.P,Y1,3,CLK*%
%TO.N,OSC_OUT*%
X138875000Y-36100000D03*
%TO.P,Y1,2,GND*%
%TO.N,GND*%
X138875000Y-37500000D03*
%TO.P,Y1,1,INH*%
%TO.N,OSC_IN*%
X137125000Y-37500000D03*
%TD*%
D10*
%TO.P,C13,2*%
%TO.N,GND*%
X134625000Y-37300000D03*
%TO.P,C13,1*%
%TO.N,OSC_IN*%
X133665000Y-37300000D03*
%TD*%
D12*
%TO.P,R14,1*%
%TO.N,D+*%
X99490000Y-34820000D03*
%TO.P,R14,2*%
%TO.N,USB_D+*%
X100510000Y-34820000D03*
%TD*%
D13*
%TO.P,U3,6,I/O1*%
%TO.N,D-*%
X95862500Y-36800000D03*
%TO.P,U3,5,VBUS*%
%TO.N,+3.3V*%
X95862500Y-35850000D03*
%TO.P,U3,4,I/O2*%
%TO.N,D+*%
X95862500Y-34900000D03*
%TO.P,U3,3,I/O2*%
X98137500Y-34900000D03*
%TO.P,U3,2,GND*%
%TO.N,GND*%
X98137500Y-35850000D03*
%TO.P,U3,1,I/O1*%
%TO.N,D-*%
X98137500Y-36800000D03*
%TD*%
D12*
%TO.P,R15,2*%
%TO.N,USB_D-*%
X100510000Y-36880000D03*
%TO.P,R15,1*%
%TO.N,D-*%
X99490000Y-36880000D03*
%TD*%
D14*
%TO.P,F1,1*%
%TO.N,Net-(J1-VBUS)*%
X93737500Y-32070000D03*
%TO.P,F1,2*%
%TO.N,+5V*%
X98012500Y-32070000D03*
%TD*%
D12*
%TO.P,R10,2*%
%TO.N,DAT1*%
X149395000Y-37125000D03*
%TO.P,R10,1*%
%TO.N,+3.3V*%
X148375000Y-37125000D03*
%TD*%
%TO.P,R9,2*%
%TO.N,DAT0*%
X149385000Y-38125000D03*
%TO.P,R9,1*%
%TO.N,+3.3V*%
X148365000Y-38125000D03*
%TD*%
D15*
%TO.P,R1,2*%
%TO.N,Net-(SW1-A)*%
X133615000Y-34000000D03*
%TO.P,R1,1*%
%TO.N,+3.3V*%
X134635000Y-34000000D03*
%TD*%
D16*
%TO.P,C1,1*%
%TO.N,+5V*%
X105500000Y-30655000D03*
%TO.P,C1,2*%
%TO.N,GND*%
X105500000Y-28755000D03*
%TD*%
D17*
%TO.P,C10,1*%
%TO.N,Net-(U2-VCAP1)*%
X122625000Y-27800000D03*
%TO.P,C10,2*%
%TO.N,GND*%
X122625000Y-26840000D03*
%TD*%
D18*
%TO.P,J2,1,Pin_1*%
%TO.N,BOOT0*%
X131100000Y-48125000D03*
D19*
%TO.P,J2,2,Pin_2*%
%TO.N,GND*%
X133640000Y-48125000D03*
%TD*%
D12*
%TO.P,R19,1*%
%TO.N,GPIO_PA5*%
X147355000Y-25625000D03*
%TO.P,R19,2*%
%TO.N,Net-(D2-A)*%
X148375000Y-25625000D03*
%TD*%
D15*
%TO.P,R18,1*%
%TO.N,+3.3V*%
X152395000Y-26625000D03*
%TO.P,R18,2*%
%TO.N,Net-(D1-A)*%
X151375000Y-26625000D03*
%TD*%
D20*
%TO.P,C8,1*%
%TO.N,+3.3V*%
X130125000Y-40820000D03*
%TO.P,C8,2*%
%TO.N,GND*%
X130125000Y-41780000D03*
%TD*%
D17*
%TO.P,C2,1*%
%TO.N,+5V*%
X107000000Y-30975000D03*
%TO.P,C2,2*%
%TO.N,GND*%
X107000000Y-30015000D03*
%TD*%
D21*
%TO.P,D1,1,K*%
%TO.N,GND*%
X149400000Y-26625000D03*
%TO.P,D1,2,A*%
%TO.N,Net-(D1-A)*%
X150370000Y-26625000D03*
%TD*%
D22*
%TO.P,R20,1*%
%TO.N,+3.3V*%
X126625000Y-43820000D03*
%TO.P,R20,2*%
%TO.N,DET_SD*%
X126625000Y-42800000D03*
%TD*%
D23*
%TO.P,C7,1*%
%TO.N,+3.3V*%
X118125000Y-38800000D03*
%TO.P,C7,2*%
%TO.N,GND*%
X117165000Y-38800000D03*
%TD*%
D24*
%TO.P,SW1,1,A*%
%TO.N,Net-(SW1-A)*%
X144355000Y-28375000D03*
X136395000Y-28375000D03*
%TO.P,SW1,2,B*%
%TO.N,GND*%
X144355000Y-23875000D03*
X136395000Y-23875000D03*
%TD*%
D25*
%TO.P,U1,1,GND*%
%TO.N,GND*%
X110300000Y-32825000D03*
%TO.P,U1,2,VO*%
%TO.N,+3.3V*%
X108000000Y-32825000D03*
D26*
X108000000Y-39125000D03*
D25*
%TO.P,U1,3,VI*%
%TO.N,+5V*%
X105700000Y-32825000D03*
%TD*%
D23*
%TO.P,C12,1*%
%TO.N,+3.3V*%
X149335000Y-42550000D03*
%TO.P,C12,2*%
%TO.N,GND*%
X148375000Y-42550000D03*
%TD*%
D27*
%TO.P,J3,1,Pin_1*%
%TO.N,+3.3V*%
X155335000Y-26125000D03*
D28*
%TO.P,J3,2,Pin_2*%
%TO.N,SCL*%
X157875000Y-26125000D03*
%TO.P,J3,3,Pin_3*%
%TO.N,SDA*%
X160415000Y-26125000D03*
%TO.P,J3,4,Pin_4*%
%TO.N,GND*%
X162955000Y-26125000D03*
%TD*%
D22*
%TO.P,R3,1*%
%TO.N,CLK*%
X124000000Y-43800000D03*
%TO.P,R3,2*%
%TO.N,Net-(U2-PC12)*%
X124000000Y-42780000D03*
%TD*%
D29*
%TO.P,J1,1,VBUS*%
%TO.N,Net-(J1-VBUS)*%
X91540000Y-34900000D03*
%TO.P,J1,2,D-*%
%TO.N,D+*%
X91540000Y-35550000D03*
%TO.P,J1,3,D+*%
%TO.N,D-*%
X91540000Y-36200000D03*
%TO.P,J1,4,ID*%
%TO.N,unconnected-(J1-ID-Pad4)*%
X91540000Y-36850000D03*
%TO.P,J1,5,GND*%
%TO.N,GND*%
X91540000Y-37500000D03*
D30*
%TO.P,J1,6,Shield*%
X88840000Y-32700000D03*
D31*
X88840000Y-33175000D03*
D32*
X91540000Y-33700000D03*
D33*
X88840000Y-35200000D03*
X88840000Y-37200000D03*
D32*
X91540000Y-38700000D03*
D31*
X88840000Y-39225000D03*
D30*
X88840000Y-39700000D03*
%TD*%
D34*
%TO.P,D2,1,K*%
%TO.N,GND*%
X150375000Y-25625000D03*
%TO.P,D2,2,A*%
%TO.N,Net-(D2-A)*%
X149405000Y-25625000D03*
%TD*%
D17*
%TO.P,C6,1*%
%TO.N,+3.3V*%
X121625000Y-27800000D03*
%TO.P,C6,2*%
%TO.N,GND*%
X121625000Y-26840000D03*
%TD*%
D12*
%TO.P,R12,1*%
%TO.N,+3.3V*%
X148375000Y-44625000D03*
%TO.P,R12,2*%
%TO.N,DAT3*%
X149395000Y-44625000D03*
%TD*%
%TO.P,R6,1*%
%TO.N,DAT1*%
X116615000Y-35500000D03*
%TO.P,R6,2*%
%TO.N,Net-(U2-PC9)*%
X117635000Y-35500000D03*
%TD*%
D22*
%TO.P,R16,1*%
%TO.N,+3.3V*%
X158375000Y-32500000D03*
%TO.P,R16,2*%
%TO.N,SCL*%
X158375000Y-31480000D03*
%TD*%
D20*
%TO.P,C4,1*%
%TO.N,+3.3V*%
X109000000Y-40995000D03*
%TO.P,C4,2*%
%TO.N,GND*%
X109000000Y-41955000D03*
%TD*%
D35*
%TO.P,U2,1,VBAT*%
%TO.N,Net-(U2-VBAT)*%
X131050000Y-38875000D03*
%TO.P,U2,2,PC13*%
%TO.N,unconnected-(U2-PC13-Pad2)*%
X131050000Y-38375000D03*
%TO.P,U2,3,PC14*%
%TO.N,unconnected-(U2-PC14-Pad3)*%
X131050000Y-37875000D03*
%TO.P,U2,4,PC15*%
%TO.N,SDA*%
X131050000Y-37375000D03*
%TO.P,U2,5,PH0*%
%TO.N,OSC_IN*%
X131050000Y-36875000D03*
%TO.P,U2,6,PH1*%
%TO.N,OSC_OUT*%
X131050000Y-36375000D03*
%TO.P,U2,7,NRST*%
%TO.N,Net-(SW1-A)*%
X131050000Y-35875000D03*
%TO.P,U2,8,PC0*%
%TO.N,unconnected-(U2-PC0-Pad8)*%
X131050000Y-35375000D03*
%TO.P,U2,9,PC1*%
%TO.N,unconnected-(U2-PC1-Pad9)*%
X131050000Y-34875000D03*
%TO.P,U2,10,PC2*%
%TO.N,unconnected-(U2-PC2-Pad10)*%
X131050000Y-34375000D03*
%TO.P,U2,11,PC3*%
%TO.N,unconnected-(U2-PC3-Pad11)*%
X131050000Y-33875000D03*
%TO.P,U2,12,VSSA*%
%TO.N,GND*%
X131050000Y-33375000D03*
%TO.P,U2,13,VDDA*%
%TO.N,+3.3V*%
X131050000Y-32875000D03*
%TO.P,U2,14,PA0*%
%TO.N,unconnected-(U2-PA0-Pad14)*%
X131050000Y-32375000D03*
%TO.P,U2,15,PA1*%
%TO.N,unconnected-(U2-PA1-Pad15)*%
X131050000Y-31875000D03*
%TO.P,U2,16,PA2*%
%TO.N,unconnected-(U2-PA2-Pad16)*%
X131050000Y-31375000D03*
D36*
%TO.P,U2,17,PA3*%
%TO.N,unconnected-(U2-PA3-Pad17)*%
X129125000Y-29450000D03*
%TO.P,U2,18,VSS*%
%TO.N,GND*%
X128625000Y-29450000D03*
%TO.P,U2,19,VDD*%
%TO.N,+3.3V*%
X128125000Y-29450000D03*
%TO.P,U2,20,PA4*%
%TO.N,unconnected-(U2-PA4-Pad20)*%
X127625000Y-29450000D03*
%TO.P,U2,21,PA5*%
%TO.N,GPIO_PA5*%
X127125000Y-29450000D03*
%TO.P,U2,22,PA6*%
%TO.N,unconnected-(U2-PA6-Pad22)*%
X126625000Y-29450000D03*
%TO.P,U2,23,PA7*%
%TO.N,unconnected-(U2-PA7-Pad23)*%
X126125000Y-29450000D03*
%TO.P,U2,24,PC4*%
%TO.N,unconnected-(U2-PC4-Pad24)*%
X125625000Y-29450000D03*
%TO.P,U2,25,PC5*%
%TO.N,unconnected-(U2-PC5-Pad25)*%
X125125000Y-29450000D03*
%TO.P,U2,26,PB0*%
%TO.N,unconnected-(U2-PB0-Pad26)*%
X124625000Y-29450000D03*
%TO.P,U2,27,PB1*%
%TO.N,unconnected-(U2-PB1-Pad27)*%
X124125000Y-29450000D03*
%TO.P,U2,28,PB2*%
%TO.N,unconnected-(U2-PB2-Pad28)*%
X123625000Y-29450000D03*
%TO.P,U2,29,PB10*%
%TO.N,unconnected-(U2-PB10-Pad29)*%
X123125000Y-29450000D03*
%TO.P,U2,30,VCAP1*%
%TO.N,Net-(U2-VCAP1)*%
X122625000Y-29450000D03*
%TO.P,U2,31,VSS*%
%TO.N,GND*%
X122125000Y-29450000D03*
%TO.P,U2,32,VDD*%
%TO.N,+3.3V*%
X121625000Y-29450000D03*
D35*
%TO.P,U2,33,PB12*%
%TO.N,unconnected-(U2-PB12-Pad33)*%
X119700000Y-31375000D03*
%TO.P,U2,34,PB13*%
%TO.N,unconnected-(U2-PB13-Pad34)*%
X119700000Y-31875000D03*
%TO.P,U2,35,PB14*%
%TO.N,unconnected-(U2-PB14-Pad35)*%
X119700000Y-32375000D03*
%TO.P,U2,36,PB15*%
%TO.N,unconnected-(U2-PB15-Pad36)*%
X119700000Y-32875000D03*
%TO.P,U2,37,PC6*%
%TO.N,SCL*%
X119700000Y-33375000D03*
%TO.P,U2,38,PC7*%
%TO.N,unconnected-(U2-PC7-Pad38)*%
X119700000Y-33875000D03*
%TO.P,U2,39,PC8*%
%TO.N,Net-(U2-PC8)*%
X119700000Y-34375000D03*
%TO.P,U2,40,PC9*%
%TO.N,Net-(U2-PC9)*%
X119700000Y-34875000D03*
%TO.P,U2,41,PA8*%
%TO.N,unconnected-(U2-PA8-Pad41)*%
X119700000Y-35375000D03*
%TO.P,U2,42,PA9*%
%TO.N,unconnected-(U2-PA9-Pad42)*%
X119700000Y-35875000D03*
%TO.P,U2,43,PA10*%
%TO.N,unconnected-(U2-PA10-Pad43)*%
X119700000Y-36375000D03*
%TO.P,U2,44,PA11*%
%TO.N,USB_D-*%
X119700000Y-36875000D03*
%TO.P,U2,45,PA12*%
%TO.N,USB_D+*%
X119700000Y-37375000D03*
%TO.P,U2,46,PA13*%
%TO.N,unconnected-(U2-PA13-Pad46)*%
X119700000Y-37875000D03*
%TO.P,U2,47,VSS*%
%TO.N,GND*%
X119700000Y-38375000D03*
%TO.P,U2,48,VDD*%
%TO.N,+3.3V*%
X119700000Y-38875000D03*
D36*
%TO.P,U2,49,PA14*%
%TO.N,unconnected-(U2-PA14-Pad49)*%
X121625000Y-40800000D03*
%TO.P,U2,50,PA15*%
%TO.N,unconnected-(U2-PA15-Pad50)*%
X122125000Y-40800000D03*
%TO.P,U2,51,PC10*%
%TO.N,Net-(U2-PC10)*%
X122625000Y-40800000D03*
%TO.P,U2,52,PC11*%
%TO.N,Net-(U2-PC11)*%
X123125000Y-40800000D03*
%TO.P,U2,53,PC12*%
%TO.N,Net-(U2-PC12)*%
X123625000Y-40800000D03*
%TO.P,U2,54,PD2*%
%TO.N,Net-(U2-PD2)*%
X124125000Y-40800000D03*
%TO.P,U2,55,PB3*%
%TO.N,unconnected-(U2-PB3-Pad55)*%
X124625000Y-40800000D03*
%TO.P,U2,56,PB4*%
%TO.N,unconnected-(U2-PB4-Pad56)*%
X125125000Y-40800000D03*
%TO.P,U2,57,PB5*%
%TO.N,unconnected-(U2-PB5-Pad57)*%
X125625000Y-40800000D03*
%TO.P,U2,58,PB6*%
%TO.N,unconnected-(U2-PB6-Pad58)*%
X126125000Y-40800000D03*
%TO.P,U2,59,PB7*%
%TO.N,DET_SD*%
X126625000Y-40800000D03*
%TO.P,U2,60,BOOT0*%
%TO.N,BOOT0*%
X127125000Y-40800000D03*
%TO.P,U2,61,PB8*%
%TO.N,unconnected-(U2-PB8-Pad61)*%
X127625000Y-40800000D03*
%TO.P,U2,62,PB9*%
%TO.N,unconnected-(U2-PB9-Pad62)*%
X128125000Y-40800000D03*
%TO.P,U2,63,VSS*%
%TO.N,GND*%
X128625000Y-40800000D03*
%TO.P,U2,64,VDD*%
%TO.N,+3.3V*%
X129125000Y-40800000D03*
%TD*%
D37*
%TO.P,R4,1*%
%TO.N,Net-(U2-PD2)*%
X125000000Y-42780000D03*
%TO.P,R4,2*%
%TO.N,CMD*%
X125000000Y-43800000D03*
%TD*%
D38*
%TO.P,C11,1*%
%TO.N,+3.3V*%
X149015000Y-41025000D03*
%TO.P,C11,2*%
%TO.N,GND*%
X147115000Y-41025000D03*
%TD*%
D39*
%TO.P,C3,1*%
%TO.N,+3.3V*%
X107465000Y-41315000D03*
%TO.P,C3,2*%
%TO.N,GND*%
X107465000Y-43215000D03*
%TD*%
D10*
%TO.P,C9,1*%
%TO.N,+3.3V*%
X132645000Y-32800000D03*
%TO.P,C9,2*%
%TO.N,GND*%
X133605000Y-32800000D03*
%TD*%
D12*
%TO.P,R5,1*%
%TO.N,DAT0*%
X116605000Y-34500000D03*
%TO.P,R5,2*%
%TO.N,Net-(U2-PC8)*%
X117625000Y-34500000D03*
%TD*%
D22*
%TO.P,R17,1*%
%TO.N,+3.3V*%
X159375000Y-32500000D03*
%TO.P,R17,2*%
%TO.N,SDA*%
X159375000Y-31480000D03*
%TD*%
D12*
%TO.P,R11,1*%
%TO.N,+3.3V*%
X148375000Y-45625000D03*
%TO.P,R11,2*%
%TO.N,DAT2*%
X149395000Y-45625000D03*
%TD*%
D37*
%TO.P,R2,1*%
%TO.N,BOOT0*%
X127625000Y-42790000D03*
%TO.P,R2,2*%
%TO.N,GND*%
X127625000Y-43810000D03*
%TD*%
D20*
%TO.P,C15,1*%
%TO.N,Net-(U2-VBAT)*%
X132125000Y-39820000D03*
%TO.P,C15,2*%
%TO.N,GND*%
X132125000Y-40780000D03*
%TD*%
D12*
%TO.P,R13,1*%
%TO.N,+3.3V*%
X148375000Y-43625000D03*
%TO.P,R13,2*%
%TO.N,CMD*%
X149395000Y-43625000D03*
%TD*%
D17*
%TO.P,C5,1*%
%TO.N,+3.3V*%
X128125000Y-27800000D03*
%TO.P,C5,2*%
%TO.N,GND*%
X128125000Y-26840000D03*
%TD*%
D22*
%TO.P,R8,1*%
%TO.N,DAT3*%
X123000000Y-43800000D03*
%TO.P,R8,2*%
%TO.N,Net-(U2-PC11)*%
X123000000Y-42780000D03*
%TD*%
%TO.P,R7,1*%
%TO.N,DAT2*%
X122000000Y-43800000D03*
%TO.P,R7,2*%
%TO.N,Net-(U2-PC10)*%
X122000000Y-42780000D03*
%TD*%
D40*
%TO.P,J4,9,DET*%
%TO.N,DET_SD*%
X160975000Y-34750000D03*
X152675000Y-34750000D03*
X160975000Y-48500000D03*
X152675000Y-48500000D03*
D41*
%TO.P,J4,8,DAT1*%
%TO.N,DAT1*%
X155275000Y-37130000D03*
%TO.P,J4,7,DAT0*%
%TO.N,DAT0*%
X155275000Y-38230000D03*
%TO.P,J4,6,VSS*%
%TO.N,GND*%
X155275000Y-39330000D03*
%TO.P,J4,5,CLK*%
%TO.N,CLK*%
X155275000Y-40430000D03*
%TO.P,J4,4,VDD*%
%TO.N,+3.3V*%
X155275000Y-41530000D03*
%TO.P,J4,3,CMD*%
%TO.N,CMD*%
X155275000Y-42630000D03*
%TO.P,J4,2,DAT3/CD*%
%TO.N,DAT3*%
X155275000Y-43730000D03*
%TO.P,J4,1,DAT2*%
%TO.N,DAT2*%
X155275000Y-44830000D03*
%TD*%
D42*
%TO.N,GND*%
X133500000Y-44000000D03*
X153500000Y-39500000D03*
X146000000Y-23500000D03*
X148500000Y-27500000D03*
%TO.N,+3.3V*%
X131145279Y-29375001D03*
%TO.N,GND*%
X132500000Y-34000000D03*
X140500000Y-37500000D03*
X145500000Y-40000000D03*
X135500000Y-37000000D03*
X133000000Y-41000000D03*
X128500000Y-44000000D03*
%TO.N,+3.3V*%
X116500000Y-39560000D03*
%TO.N,GND*%
X109000000Y-43500000D03*
X116000000Y-37500000D03*
X112500000Y-33500000D03*
X99500000Y-36000000D03*
%TO.N,+3.3V*%
X134000000Y-32000000D03*
X129000000Y-42500000D03*
X127500000Y-45000000D03*
X103500000Y-39500000D03*
%TO.N,GND*%
X129496305Y-26211036D03*
X132625000Y-23875000D03*
%TO.N,+3.3V*%
X158000000Y-34000000D03*
X157000000Y-41500000D03*
%TO.N,DET_SD*%
X125785993Y-43452672D03*
X147500000Y-49500000D03*
%TO.N,SDA*%
X159375000Y-30500000D03*
%TO.N,SCL*%
X158375000Y-30500000D03*
%TO.N,+3.3V*%
X126000000Y-27000000D03*
X120800000Y-27800000D03*
X134648251Y-35003220D03*
X136000000Y-36000000D03*
%TO.N,DAT0*%
X118000000Y-32000000D03*
%TO.N,DAT1*%
X116615000Y-36500000D03*
%TO.N,DAT0*%
X139000000Y-31500000D03*
%TO.N,DAT1*%
X140500000Y-33500000D03*
%TO.N,CLK*%
X158000000Y-42000000D03*
X128500000Y-46625000D03*
%TO.N,CMD*%
X130000000Y-46000000D03*
X144000000Y-48875000D03*
X153500000Y-46625000D03*
X135000000Y-46000000D03*
%TO.N,DAT3*%
X146000000Y-48000000D03*
X154500000Y-46000000D03*
%TO.N,+3.3V*%
X94500000Y-35850000D03*
%TD*%
D43*
%TO.N,DAT1*%
X140500000Y-33500000D02*
X145770000Y-33500000D01*
X145770000Y-33500000D02*
X149395000Y-37125000D01*
%TO.N,DAT2*%
X149395000Y-46605000D02*
X149395000Y-45625000D01*
%TO.N,DAT3*%
X155275000Y-43730000D02*
X155975000Y-43730000D01*
X155975000Y-43730000D02*
X156500000Y-44255000D01*
%TO.N,CMD*%
X156275000Y-42630000D02*
X155275000Y-42630000D01*
%TO.N,DAT0*%
X155275000Y-38230000D02*
X155975000Y-38230000D01*
X155975000Y-38230000D02*
X156350000Y-37855000D01*
%TO.N,DAT2*%
X149395000Y-45625000D02*
X150190000Y-44830000D01*
X150190000Y-44830000D02*
X150626125Y-44830000D01*
X150626125Y-44830000D02*
X151474390Y-44830000D01*
X152686197Y-44830000D02*
X152019703Y-44830000D01*
X155275000Y-44830000D02*
X152686197Y-44830000D01*
%TO.N,DAT1*%
X149400000Y-37130000D02*
X151868227Y-37130000D01*
X151868227Y-37130000D02*
X151898522Y-37130000D01*
%TO.N,DAT2*%
X151474390Y-44830000D02*
X152019703Y-44830000D01*
%TO.N,DAT3*%
X152201474Y-43730000D02*
X153352690Y-43730000D01*
X153352690Y-43730000D02*
X153988889Y-43730000D01*
X153988889Y-43730000D02*
X155275000Y-43730000D01*
X152201474Y-43730000D02*
X151747046Y-43730000D01*
X151747046Y-43730000D02*
X151232028Y-43730000D01*
X149395000Y-44625000D02*
X149874209Y-44145791D01*
X149874209Y-44145791D02*
X150290000Y-43730000D01*
X150290000Y-43730000D02*
X151232028Y-43730000D01*
%TO.N,DET_SD*%
X161975000Y-42206562D02*
G75*
G03*
X161735000Y-41966600I-240000J-38D01*
G01*
X161735000Y-42566562D02*
G75*
G03*
X161974962Y-42326562I0J239962D01*
G01*
X161975000Y-44606562D02*
G75*
G03*
X161735000Y-44366600I-240000J-38D01*
G01*
X160215000Y-43166562D02*
G75*
G02*
X159975038Y-42926562I0J239962D01*
G01*
X159975000Y-41606562D02*
G75*
G02*
X160215000Y-41366600I240000J-38D01*
G01*
X159975000Y-44006562D02*
G75*
G02*
X160215000Y-43766600I240000J-38D01*
G01*
X160215000Y-44366562D02*
G75*
G02*
X159975038Y-44126562I0J239962D01*
G01*
X161975000Y-43406562D02*
G75*
G03*
X161735000Y-43166600I-240000J-38D01*
G01*
X161735000Y-44966562D02*
G75*
G03*
X161974962Y-44726562I0J239962D01*
G01*
X159975000Y-42806562D02*
G75*
G02*
X160215000Y-42566600I240000J-38D01*
G01*
X161735000Y-43766562D02*
G75*
G03*
X161974962Y-43526562I0J239962D01*
G01*
X160735000Y-41366562D02*
G75*
G03*
X160974962Y-41126562I0J239962D01*
G01*
X160975000Y-45806562D02*
G75*
G03*
X160735000Y-45566600I-240000J-38D01*
G01*
X159975000Y-45206562D02*
G75*
G02*
X160215000Y-44966600I240000J-38D01*
G01*
X160215000Y-41966562D02*
G75*
G02*
X159975038Y-41726562I0J239962D01*
G01*
X160215000Y-45566562D02*
G75*
G02*
X159975038Y-45326562I0J239962D01*
G01*
X161735000Y-43166562D02*
X160975000Y-43166562D01*
X160975000Y-40716974D02*
X160975000Y-34750000D01*
X160735000Y-41966562D02*
X160215000Y-41966562D01*
X159975000Y-41726562D02*
X159975000Y-41606562D01*
X159975000Y-44126562D02*
X159975000Y-44006562D01*
X160975000Y-43766562D02*
X161735000Y-43766562D01*
X160975000Y-42566562D02*
X161735000Y-42566562D01*
X159975000Y-45326562D02*
X159975000Y-45206562D01*
X160975000Y-48500000D02*
X160975000Y-45806562D01*
X160735000Y-45566562D02*
X160215000Y-45566562D01*
X160975000Y-41006562D02*
X160975000Y-40716974D01*
X161735000Y-41966562D02*
X160975000Y-41966562D01*
X160215000Y-42566562D02*
X160975000Y-42566562D01*
X160975000Y-41966562D02*
X160735000Y-41966562D01*
X160735000Y-44966562D02*
X160975000Y-44966562D01*
X160215000Y-44966562D02*
X160735000Y-44966562D01*
X160215000Y-43766562D02*
X160975000Y-43766562D01*
X160975000Y-43166562D02*
X160215000Y-43166562D01*
X159975000Y-42926562D02*
X159975000Y-42806562D01*
X161975000Y-42326562D02*
X161975000Y-42206562D01*
X161975000Y-44726562D02*
X161975000Y-44606562D01*
X161975000Y-43526562D02*
X161975000Y-43406562D01*
X160975000Y-44966562D02*
X161735000Y-44966562D01*
X160215000Y-41366562D02*
X160735000Y-41366562D01*
X161735000Y-44366562D02*
X160975000Y-44366562D01*
X160975000Y-44366562D02*
X160215000Y-44366562D01*
X160975000Y-41126562D02*
X160975000Y-41006562D01*
D44*
%TO.N,+3.3V*%
X149015000Y-41025000D02*
X149335000Y-41345000D01*
X149335000Y-41345000D02*
X149335000Y-42550000D01*
%TO.N,GND*%
X147115000Y-41025000D02*
X147115000Y-41290000D01*
X147115000Y-41290000D02*
X148375000Y-42550000D01*
X133640000Y-48125000D02*
X133640000Y-44140000D01*
X133640000Y-44140000D02*
X133500000Y-44000000D01*
D43*
%TO.N,CMD*%
X137875000Y-48875000D02*
X144000000Y-48875000D01*
X135000000Y-46000000D02*
X137875000Y-48875000D01*
D44*
%TO.N,GND*%
X132625000Y-23875000D02*
X124125000Y-23875000D01*
X124125000Y-23875000D02*
X122625000Y-25375000D01*
X122625000Y-25375000D02*
X122625000Y-26840000D01*
X132625000Y-23875000D02*
X136395000Y-23875000D01*
X155275000Y-39330000D02*
X153670000Y-39330000D01*
X153670000Y-39330000D02*
X153500000Y-39500000D01*
X144355000Y-23875000D02*
X145625000Y-23875000D01*
X145625000Y-23875000D02*
X146000000Y-23500000D01*
D45*
X149400000Y-26625000D02*
X149375000Y-26625000D01*
X149375000Y-26625000D02*
X148500000Y-27500000D01*
D44*
%TO.N,+3.3V*%
X134000000Y-32000000D02*
X133770278Y-32000000D01*
X133770278Y-32000000D02*
X131145279Y-29375001D01*
D45*
%TO.N,GND*%
X133605000Y-32800000D02*
X133605000Y-32895000D01*
X133605000Y-32895000D02*
X132500000Y-34000000D01*
%TO.N,Net-(SW1-A)*%
X133615000Y-34000000D02*
X133615000Y-34385000D01*
X133615000Y-34385000D02*
X132125000Y-35875000D01*
X132125000Y-35875000D02*
X131050000Y-35875000D01*
D44*
%TO.N,GND*%
X138875000Y-37500000D02*
X140500000Y-37500000D01*
X147115000Y-41025000D02*
X146525000Y-41025000D01*
X146525000Y-41025000D02*
X145500000Y-40000000D01*
%TO.N,+3.3V*%
X149015000Y-41025000D02*
X146990000Y-39000000D01*
X146990000Y-39000000D02*
X144500000Y-39000000D01*
X144500000Y-39000000D02*
X143000000Y-40500000D01*
X143000000Y-40500000D02*
X143000000Y-44500000D01*
X143000000Y-44500000D02*
X145500000Y-47000000D01*
X145500000Y-47000000D02*
X147500000Y-47000000D01*
X147500000Y-47000000D02*
X148375000Y-46125000D01*
X148375000Y-46125000D02*
X148375000Y-45625000D01*
%TO.N,GND*%
X134625000Y-37300000D02*
X135200000Y-37300000D01*
X135200000Y-37300000D02*
X135500000Y-37000000D01*
X132125000Y-40780000D02*
X132780000Y-40780000D01*
X132780000Y-40780000D02*
X133000000Y-41000000D01*
X127625000Y-43810000D02*
X128310000Y-43810000D01*
X128310000Y-43810000D02*
X128500000Y-44000000D01*
%TO.N,+3.3V*%
X108435000Y-39560000D02*
X116560000Y-39560000D01*
%TO.N,GND*%
X116000000Y-37500000D02*
X116500000Y-37500000D01*
X116500000Y-37500000D02*
X117165000Y-38165000D01*
X117165000Y-38165000D02*
X117165000Y-38800000D01*
X109000000Y-43500000D02*
X107750000Y-43500000D01*
X107750000Y-43500000D02*
X107465000Y-43215000D01*
X112500000Y-33500000D02*
X110975000Y-33500000D01*
X110975000Y-33500000D02*
X110300000Y-32825000D01*
X98137500Y-35850000D02*
X99350000Y-35850000D01*
X99350000Y-35850000D02*
X99500000Y-36000000D01*
D45*
%TO.N,GPIO_PA5*%
X147355000Y-25625000D02*
X129625000Y-25625000D01*
X129625000Y-25625000D02*
X128500000Y-24500000D01*
X128500000Y-24500000D02*
X127000000Y-24500000D01*
X127000000Y-24500000D02*
X125400000Y-26100000D01*
X125400000Y-26100000D02*
X125400000Y-27400000D01*
X125400000Y-27400000D02*
X126375000Y-28375000D01*
X126375000Y-28375000D02*
X126857410Y-28375000D01*
X126857410Y-28375000D02*
X127125000Y-28642590D01*
X127125000Y-28642590D02*
X127125000Y-29450000D01*
D44*
%TO.N,GND*%
X129496305Y-26211036D02*
X129479479Y-26194210D01*
X129479479Y-26194210D02*
X128770790Y-26194210D01*
X128770790Y-26194210D02*
X128125000Y-26840000D01*
%TO.N,+3.3V*%
X134000000Y-32000000D02*
X133000000Y-32000000D01*
X133000000Y-32000000D02*
X132645000Y-32355000D01*
X132645000Y-32355000D02*
X132645000Y-32800000D01*
X148375000Y-37125000D02*
X148375000Y-36918172D01*
X148375000Y-36918172D02*
X145728414Y-34271586D01*
X145728414Y-34271586D02*
X139771586Y-34271586D01*
X139771586Y-34271586D02*
X138000000Y-32500000D01*
X138000000Y-32500000D02*
X136000000Y-32500000D01*
X136000000Y-32500000D02*
X134635000Y-33865000D01*
X134635000Y-33865000D02*
X134635000Y-34000000D01*
D43*
%TO.N,DAT0*%
X140000000Y-32500000D02*
X145500000Y-32500000D01*
X139000000Y-31500000D02*
X140000000Y-32500000D01*
X145500000Y-32500000D02*
X149000000Y-36000000D01*
X149000000Y-36000000D02*
X155945000Y-36000000D01*
X155945000Y-36000000D02*
X156350000Y-36405000D01*
X156350000Y-36405000D02*
X156350000Y-37855000D01*
X118000000Y-32000000D02*
X116605000Y-33395000D01*
X116605000Y-33395000D02*
X116605000Y-34500000D01*
D45*
%TO.N,Net-(SW1-A)*%
X133615000Y-34000000D02*
X136395000Y-31220000D01*
X136395000Y-31220000D02*
X136395000Y-28375000D01*
D43*
%TO.N,+3.3V*%
X129125000Y-40800000D02*
X129125000Y-42375000D01*
X129125000Y-42375000D02*
X129000000Y-42500000D01*
D44*
X126625000Y-43820000D02*
X126625000Y-44125000D01*
X126625000Y-44125000D02*
X127500000Y-45000000D01*
X107625000Y-39500000D02*
X108000000Y-39125000D01*
X103500000Y-39500000D02*
X107625000Y-39500000D01*
X108000000Y-39125000D02*
X108435000Y-39560000D01*
X116560000Y-39560000D02*
X117674999Y-39560000D01*
X117674999Y-39560000D02*
X118125000Y-39109999D01*
X118125000Y-39109999D02*
X118125000Y-38800000D01*
X158000000Y-34000000D02*
X158000000Y-32875000D01*
X158000000Y-32875000D02*
X158375000Y-32500000D01*
X155275000Y-41530000D02*
X156970000Y-41530000D01*
X156970000Y-41530000D02*
X157000000Y-41500000D01*
D43*
%TO.N,CLK*%
X158000000Y-42000000D02*
X158000000Y-41500000D01*
X158000000Y-41500000D02*
X156930000Y-40430000D01*
X156930000Y-40430000D02*
X155275000Y-40430000D01*
D44*
%TO.N,+3.3V*%
X148365000Y-38125000D02*
X148365000Y-40375000D01*
X148365000Y-40375000D02*
X149015000Y-41025000D01*
D43*
%TO.N,DET_SD*%
X125785993Y-43452672D02*
X125972328Y-43452672D01*
X125972328Y-43452672D02*
X126625000Y-42800000D01*
X148500000Y-48500000D02*
X147500000Y-49500000D01*
X152675000Y-48500000D02*
X148500000Y-48500000D01*
D44*
%TO.N,+3.3V*%
X159375000Y-32500000D02*
X158375000Y-32500000D01*
D45*
%TO.N,SDA*%
X159375000Y-30500000D02*
X159375000Y-31480000D01*
%TO.N,SCL*%
X158375000Y-30500000D02*
X158375000Y-31480000D01*
D44*
%TO.N,+3.3V*%
X152395000Y-26625000D02*
X154835000Y-26625000D01*
X154835000Y-26625000D02*
X155335000Y-26125000D01*
D45*
%TO.N,Net-(D1-A)*%
X150370000Y-26625000D02*
X151375000Y-26625000D01*
%TO.N,Net-(D2-A)*%
X148375000Y-25625000D02*
X149405000Y-25625000D01*
%TO.N,GND*%
X150375000Y-25625000D02*
X150375000Y-25650000D01*
X150375000Y-25650000D02*
X149400000Y-26625000D01*
D44*
%TO.N,+3.3V*%
X126000000Y-27000000D02*
X126800000Y-27800000D01*
X126800000Y-27800000D02*
X128125000Y-27800000D01*
X120800000Y-27800000D02*
X121625000Y-27800000D01*
D45*
%TO.N,GND*%
X121625000Y-26840000D02*
X120660000Y-26840000D01*
X120660000Y-26840000D02*
X120000000Y-27500000D01*
X120000000Y-27500000D02*
X120000000Y-29132410D01*
X120000000Y-29132410D02*
X121392590Y-30525000D01*
X121392590Y-30525000D02*
X121857410Y-30525000D01*
X122125000Y-30257410D02*
X122125000Y-29450000D01*
X121857410Y-30525000D02*
X122125000Y-30257410D01*
D43*
%TO.N,SCL*%
X145586396Y-26950000D02*
X147136396Y-28500000D01*
X132050000Y-26950000D02*
X145586396Y-26950000D01*
X130000000Y-29917764D02*
X130000000Y-29000000D01*
X130000000Y-29000000D02*
X132050000Y-26950000D01*
X126542764Y-33375000D02*
X130000000Y-29917764D01*
X157000000Y-28500000D02*
X157875000Y-27625000D01*
X147136396Y-28500000D02*
X157000000Y-28500000D01*
X119700000Y-33375000D02*
X126542764Y-33375000D01*
X157875000Y-27625000D02*
X157875000Y-26125000D01*
%TO.N,SDA*%
X130500000Y-30054160D02*
X130500000Y-29136396D01*
X132236396Y-27400000D02*
X145400000Y-27400000D01*
X145400000Y-27400000D02*
X147000000Y-29000000D01*
X130500000Y-29136396D02*
X132236396Y-27400000D01*
X129500000Y-31054160D02*
X130500000Y-30054160D01*
X129500000Y-36667764D02*
X129500000Y-31054160D01*
X130207236Y-37375000D02*
X129500000Y-36667764D01*
X131050000Y-37375000D02*
X130207236Y-37375000D01*
X147000000Y-29000000D02*
X157540000Y-29000000D01*
X157540000Y-29000000D02*
X160415000Y-26125000D01*
D44*
%TO.N,+3.3V*%
X134648251Y-34013251D02*
X134635000Y-34000000D01*
X134648251Y-35003220D02*
X134648251Y-34013251D01*
X137125000Y-36100000D02*
X136100000Y-36100000D01*
X136100000Y-36100000D02*
X136000000Y-36000000D01*
D45*
%TO.N,OSC_OUT*%
X133665000Y-36300000D02*
X133688866Y-36300000D01*
X133688866Y-36300000D02*
X134298866Y-35690000D01*
X134298866Y-35690000D02*
X134810000Y-35690000D01*
X134810000Y-35690000D02*
X135200000Y-35300000D01*
X135200000Y-35300000D02*
X138075000Y-35300000D01*
X138075000Y-35300000D02*
X138875000Y-36100000D01*
%TO.N,OSC_IN*%
X133665000Y-37300000D02*
X134275000Y-37910000D01*
X134275000Y-37910000D02*
X136715000Y-37910000D01*
X136715000Y-37910000D02*
X137125000Y-37500000D01*
%TO.N,Net-(SW1-A)*%
X144355000Y-28375000D02*
X136395000Y-28375000D01*
D44*
%TO.N,GND*%
X136395000Y-23875000D02*
X144355000Y-23875000D01*
X105500000Y-28755000D02*
X108755000Y-28755000D01*
X108755000Y-28755000D02*
X110300000Y-30300000D01*
X110300000Y-30300000D02*
X110300000Y-32825000D01*
%TO.N,+5V*%
X105700000Y-32825000D02*
X105700000Y-32275000D01*
X105700000Y-32275000D02*
X107000000Y-30975000D01*
%TO.N,+3.3V*%
X95862500Y-35850000D02*
X94500000Y-35850000D01*
X108000000Y-32825000D02*
X108000000Y-39125000D01*
D45*
%TO.N,USB_D-*%
X121725000Y-37906802D02*
X121725000Y-39093198D01*
X120718198Y-36900000D02*
X121725000Y-37906802D01*
X119700000Y-36875000D02*
X120325000Y-36875000D01*
X116093198Y-44725000D02*
X105906802Y-44725000D01*
X120325000Y-36875000D02*
X120350000Y-36900000D01*
X120350000Y-36900000D02*
X120718198Y-36900000D01*
X121725000Y-39093198D02*
X116093198Y-44725000D01*
X105906802Y-44725000D02*
X100510000Y-39328198D01*
X100510000Y-39328198D02*
X100510000Y-36880000D01*
D43*
%TO.N,DAT1*%
X116615000Y-36500000D02*
X116615000Y-35500000D01*
%TO.N,DAT2*%
X122000000Y-43800000D02*
X121000000Y-44800000D01*
X121000000Y-44800000D02*
X121000000Y-48000000D01*
X121000000Y-48000000D02*
X123000000Y-50000000D01*
X123000000Y-50000000D02*
X146000000Y-50000000D01*
X146000000Y-50000000D02*
X149395000Y-46605000D01*
%TO.N,CLK*%
X124000000Y-43800000D02*
X126825000Y-46625000D01*
X126825000Y-46625000D02*
X128500000Y-46625000D01*
%TO.N,CMD*%
X156950000Y-43305000D02*
X156950000Y-46050000D01*
X156275000Y-42630000D02*
X156950000Y-43305000D01*
X156950000Y-46050000D02*
X156375000Y-46625000D01*
X156375000Y-46625000D02*
X153500000Y-46625000D01*
X127200000Y-46000000D02*
X125000000Y-43800000D01*
X130000000Y-46000000D02*
X127200000Y-46000000D01*
%TO.N,DAT3*%
X156000000Y-46000000D02*
X156500000Y-45500000D01*
X154500000Y-46000000D02*
X156000000Y-46000000D01*
X156500000Y-45500000D02*
X156500000Y-44255000D01*
%TO.N,DET_SD*%
X160975000Y-48500000D02*
X152675000Y-48500000D01*
X160975000Y-34750000D02*
X152675000Y-34750000D01*
D44*
%TO.N,+3.3V*%
X149015000Y-41025000D02*
X149520000Y-41530000D01*
X149520000Y-41530000D02*
X155275000Y-41530000D01*
D45*
%TO.N,DAT2*%
X149395000Y-45563924D02*
X149395000Y-45625000D01*
D43*
%TO.N,CMD*%
X149395000Y-43625000D02*
X150390000Y-42630000D01*
X150390000Y-42630000D02*
X155275000Y-42630000D01*
D45*
%TO.N,DAT1*%
X149395000Y-37125000D02*
X149400000Y-37130000D01*
D44*
%TO.N,+3.3V*%
X148365000Y-38125000D02*
X148365000Y-37135000D01*
X148365000Y-37135000D02*
X148375000Y-37125000D01*
X148375000Y-45625000D02*
X148375000Y-43625000D01*
D45*
%TO.N,BOOT0*%
X127625000Y-42790000D02*
X128290000Y-42790000D01*
X131100000Y-45600000D02*
X131100000Y-48125000D01*
X128290000Y-42790000D02*
X131100000Y-45600000D01*
%TO.N,GND*%
X128625000Y-40800000D02*
X128625000Y-39992590D01*
X128625000Y-39992590D02*
X128892590Y-39725000D01*
X130225000Y-39725000D02*
X131280000Y-40780000D01*
X128892590Y-39725000D02*
X130225000Y-39725000D01*
X131280000Y-40780000D02*
X132125000Y-40780000D01*
%TO.N,Net-(U2-PD2)*%
X125000000Y-42780000D02*
X124125000Y-41905000D01*
X124125000Y-41905000D02*
X124125000Y-40800000D01*
%TO.N,Net-(U2-PC12)*%
X124000000Y-42780000D02*
X123625000Y-42405000D01*
X123625000Y-42405000D02*
X123625000Y-40800000D01*
%TO.N,Net-(U2-PC11)*%
X123000000Y-42780000D02*
X123125000Y-42655000D01*
X123125000Y-42655000D02*
X123125000Y-40800000D01*
%TO.N,Net-(U2-PC10)*%
X122000000Y-42780000D02*
X122625000Y-42155000D01*
X122625000Y-42155000D02*
X122625000Y-40800000D01*
%TO.N,BOOT0*%
X127625000Y-42790000D02*
X127125000Y-42290000D01*
X127125000Y-42290000D02*
X127125000Y-40800000D01*
%TO.N,DET_SD*%
X126625000Y-42800000D02*
X126625000Y-40800000D01*
%TO.N,Net-(U2-VBAT)*%
X131050000Y-38875000D02*
X131875000Y-38875000D01*
X132125000Y-39125000D02*
X132125000Y-39820000D01*
X131875000Y-38875000D02*
X132125000Y-39125000D01*
%TO.N,GND*%
X130030000Y-41875000D02*
X130125000Y-41780000D01*
D44*
%TO.N,+3.3V*%
X130125000Y-40820000D02*
X129245000Y-40820000D01*
X129245000Y-40820000D02*
X129225000Y-40800000D01*
%TO.N,GND*%
X132125000Y-40780000D02*
X131125000Y-41780000D01*
X131125000Y-41780000D02*
X130125000Y-41780000D01*
X134625000Y-36300000D02*
X134625000Y-37300000D01*
D45*
%TO.N,OSC_IN*%
X131050000Y-36875000D02*
X133240000Y-36875000D01*
X133240000Y-36875000D02*
X133665000Y-37300000D01*
%TO.N,OSC_OUT*%
X131050000Y-36375000D02*
X133590000Y-36375000D01*
X133590000Y-36375000D02*
X133665000Y-36300000D01*
%TO.N,GND*%
X133605000Y-32800000D02*
X132995000Y-33410000D01*
X131085000Y-33410000D02*
X131050000Y-33375000D01*
X132995000Y-33410000D02*
X131085000Y-33410000D01*
%TO.N,+3.3V*%
X132645000Y-32800000D02*
X132570000Y-32875000D01*
X132570000Y-32875000D02*
X131050000Y-32875000D01*
%TO.N,GND*%
X128125000Y-26840000D02*
X128735000Y-27450000D01*
X128735000Y-27450000D02*
X128735000Y-28126134D01*
X128625000Y-28236134D02*
X128625000Y-29450000D01*
X128735000Y-28126134D02*
X128625000Y-28236134D01*
X121625000Y-26840000D02*
X122625000Y-26840000D01*
%TO.N,+3.3V*%
X128125000Y-27800000D02*
X128125000Y-29450000D01*
%TO.N,Net-(U2-VCAP1)*%
X122625000Y-27800000D02*
X122625000Y-29450000D01*
%TO.N,+3.3V*%
X121625000Y-27800000D02*
X121625000Y-29450000D01*
%TO.N,Net-(U2-PC8)*%
X117625000Y-34500000D02*
X117750000Y-34375000D01*
X117750000Y-34375000D02*
X119700000Y-34375000D01*
%TO.N,Net-(U2-PC9)*%
X117635000Y-35500000D02*
X118260000Y-34875000D01*
X118260000Y-34875000D02*
X119700000Y-34875000D01*
%TO.N,GND*%
X117165000Y-38800000D02*
X117775000Y-38190000D01*
X117775000Y-38190000D02*
X118451134Y-38190000D01*
X118451134Y-38190000D02*
X118636134Y-38375000D01*
X118636134Y-38375000D02*
X119700000Y-38375000D01*
%TO.N,+3.3V*%
X118125000Y-38800000D02*
X118200000Y-38875000D01*
X118200000Y-38875000D02*
X119700000Y-38875000D01*
D44*
%TO.N,+5V*%
X98012500Y-32070000D02*
X98767500Y-32825000D01*
X98767500Y-32825000D02*
X105700000Y-32825000D01*
%TO.N,GND*%
X105500000Y-28755000D02*
X105740000Y-28755000D01*
X105740000Y-28755000D02*
X107000000Y-30015000D01*
X107465000Y-43215000D02*
X107740000Y-43215000D01*
X107740000Y-43215000D02*
X109000000Y-41955000D01*
%TO.N,+3.3V*%
X107465000Y-41315000D02*
X107465000Y-39660000D01*
X107465000Y-39660000D02*
X108000000Y-39125000D01*
X109000000Y-40995000D02*
X109000000Y-40125000D01*
X109000000Y-40125000D02*
X108000000Y-39125000D01*
%TO.N,+5V*%
X105500000Y-30655000D02*
X105500000Y-32625000D01*
X105500000Y-32625000D02*
X105700000Y-32825000D01*
%TO.N,GND*%
X91540000Y-38700000D02*
X91540000Y-37500000D01*
X88840000Y-33175000D02*
X91015000Y-33175000D01*
X91015000Y-33175000D02*
X91540000Y-33700000D01*
X88840000Y-39225000D02*
X91015000Y-39225000D01*
X91015000Y-39225000D02*
X91540000Y-38700000D01*
X88840000Y-33175000D02*
X88840000Y-39225000D01*
D45*
%TO.N,Net-(J1-VBUS)*%
X91540000Y-34900000D02*
X93100000Y-34900000D01*
X93100000Y-34900000D02*
X93737500Y-34262500D01*
X93737500Y-34262500D02*
X93737500Y-32070000D01*
%TO.N,D-*%
X98137500Y-36800000D02*
X99410000Y-36800000D01*
X99410000Y-36800000D02*
X99490000Y-36880000D01*
%TO.N,D+*%
X98137500Y-34900000D02*
X99410000Y-34900000D01*
X99410000Y-34900000D02*
X99490000Y-34820000D01*
%TO.N,D-*%
X95862500Y-36800000D02*
X98137500Y-36800000D01*
%TO.N,D+*%
X95862500Y-34900000D02*
X98137500Y-34900000D01*
%TO.N,D-*%
X92552501Y-36200000D02*
X91540000Y-36200000D01*
X93500000Y-36075000D02*
X93475000Y-36100000D01*
X93475000Y-36100000D02*
X92652501Y-36100000D01*
X92652501Y-36100000D02*
X92552501Y-36200000D01*
%TO.N,D+*%
X95862500Y-34900000D02*
X94868749Y-34900000D01*
X94868749Y-34900000D02*
X94518749Y-35250000D01*
X94518749Y-35250000D02*
X94251471Y-35250000D01*
X94251471Y-35250000D02*
X93900000Y-35601471D01*
X93900000Y-35625000D02*
X93327794Y-35625000D01*
X93327794Y-35625000D02*
X93302794Y-35650000D01*
X93900000Y-35601471D02*
X93900000Y-35625000D01*
X92552501Y-35550000D02*
X91540000Y-35550000D01*
X93302794Y-35650000D02*
X92652501Y-35650000D01*
X92652501Y-35650000D02*
X92552501Y-35550000D01*
%TO.N,D-*%
X95862500Y-36800000D02*
X94868749Y-36800000D01*
X94868749Y-36800000D02*
X94518749Y-36450000D01*
X94518749Y-36450000D02*
X94251471Y-36450000D01*
X94251471Y-36450000D02*
X93900000Y-36098529D01*
X93900000Y-36098529D02*
X93900000Y-36075000D01*
X93900000Y-36075000D02*
X93500000Y-36075000D01*
D43*
%TO.N,DAT3*%
X123000000Y-43800000D02*
X123000000Y-47500000D01*
X123000000Y-47500000D02*
X125000000Y-49500000D01*
X144500000Y-49500000D02*
X146000000Y-48000000D01*
X125000000Y-49500000D02*
X144500000Y-49500000D01*
D45*
%TO.N,USB_D+*%
X119700000Y-37375000D02*
X120325000Y-37375000D01*
X120325000Y-37375000D02*
X120350000Y-37350000D01*
X100960000Y-39141802D02*
X100960000Y-37368924D01*
X101080000Y-37248924D02*
X101080000Y-36511076D01*
X120350000Y-37350000D02*
X120531802Y-37350000D01*
X100960000Y-35270000D02*
X100510000Y-34820000D01*
X115906802Y-44275000D02*
X106093198Y-44275000D01*
X120531802Y-37350000D02*
X121275000Y-38093198D01*
X121275000Y-38906802D02*
X115906802Y-44275000D01*
X106093198Y-44275000D02*
X100960000Y-39141802D01*
X100960000Y-37368924D02*
X101080000Y-37248924D01*
X121275000Y-38093198D02*
X121275000Y-38906802D01*
X101080000Y-36511076D02*
X100960000Y-36391076D01*
X100960000Y-36391076D02*
X100960000Y-35270000D01*
%TO.N,DAT0*%
X149385000Y-38125000D02*
X149490000Y-38230000D01*
D43*
X151534980Y-38230000D02*
X151656161Y-38230000D01*
X150868486Y-38230000D02*
X150747306Y-38230000D01*
X150868486Y-38230000D02*
X151534980Y-38230000D01*
X150747306Y-38230000D02*
X149490000Y-38230000D01*
X153068227Y-38230000D02*
X154534202Y-38230000D01*
X154534202Y-38230000D02*
X155275000Y-38230000D01*
X152803249Y-38230000D02*
X153068227Y-38230000D01*
X152203249Y-38565022D02*
X152468227Y-38565022D01*
X151656161Y-38230000D02*
X151868227Y-38230000D01*
X152468227Y-38565022D02*
G75*
G03*
X152635722Y-38397511I-27J167522D01*
G01*
X151868227Y-38230000D02*
G75*
G02*
X152035700Y-38397511I-27J-167500D01*
G01*
X152035738Y-38397511D02*
G75*
G03*
X152203249Y-38564962I167462J11D01*
G01*
X152635738Y-38397511D02*
G75*
G02*
X152803249Y-38230038I167462J11D01*
G01*
%TO.N,DAT1*%
X151898522Y-37130000D02*
X152322655Y-37130000D01*
X152683547Y-37490892D02*
X152922655Y-37490892D01*
X153564756Y-37130000D02*
X155275000Y-37130000D01*
X153283547Y-37130000D02*
X153522655Y-37130000D01*
X153522655Y-37130000D02*
X153564756Y-37130000D01*
X152922655Y-37490892D02*
G75*
G03*
X153103192Y-37310446I45J180492D01*
G01*
X152503101Y-37310446D02*
G75*
G03*
X152683547Y-37490799I180399J46D01*
G01*
X153103101Y-37310446D02*
G75*
G02*
X153283547Y-37130001I180399J46D01*
G01*
X152322655Y-37130000D02*
G75*
G02*
X152503100Y-37310446I45J-180400D01*
G01*
%TD*%
M02*
