%TF.GenerationSoftware,KiCad,Pcbnew,9.0.8*%
%TF.CreationDate,2026-07-07T09:22:01+03:00*%
%TF.ProjectId,EMG-Acquisition-Board,454d472d-4163-4717-9569-736974696f6e,rev?*%
%TF.SameCoordinates,Original*%
%TF.FileFunction,Copper,L2,Bot*%
%TF.FilePolarity,Positive*%
%FSLAX46Y46*%
G04 Gerber Fmt 4.6, Leading zero omitted, Abs format (unit mm)*
G04 Created by KiCad (PCBNEW 9.0.8) date 2026-07-07 09:22:01*
%MOMM*%
%LPD*%
G01*
G04 APERTURE LIST*
%TA.AperFunction,ComponentPad*%
%ADD10R,1.700000X1.700000*%
%TD*%
%TA.AperFunction,ComponentPad*%
%ADD11C,1.700000*%
%TD*%
%TA.AperFunction,ViaPad*%
%ADD12C,0.600000*%
%TD*%
%TA.AperFunction,Conductor*%
%ADD13C,0.300000*%
%TD*%
%TA.AperFunction,Conductor*%
%ADD14C,0.500000*%
%TD*%
%TA.AperFunction,Conductor*%
%ADD15C,0.200000*%
%TD*%
G04 APERTURE END LIST*
D10*
%TO.P,J1,1,Pin_1*%
%TO.N,Net-(J1-Pin_1)*%
X102520000Y-48225000D03*
D11*
%TO.P,J1,2,Pin_2*%
%TO.N,Net-(J1-Pin_2)*%
X102520000Y-50765000D03*
%TD*%
D10*
%TO.P,J2,1,Pin_1*%
%TO.N,Net-(J2-Pin_1)*%
X102520000Y-58375000D03*
D11*
%TO.P,J2,2,Pin_2*%
%TO.N,Net-(J2-Pin_2)*%
X102520000Y-60915000D03*
%TD*%
D10*
%TO.P,J3,1,Pin_1*%
%TO.N,+3.3V*%
X143500000Y-53190000D03*
D11*
%TO.P,J3,2,Pin_2*%
%TO.N,GND*%
X143500000Y-55730000D03*
%TO.P,J3,3,Pin_3*%
%TO.N,SCL*%
X143500000Y-58270000D03*
%TO.P,J3,4,Pin_4*%
%TO.N,SDA*%
X143500000Y-60810000D03*
%TD*%
D12*
%TO.N,VMID_BUF*%
X124000000Y-58500000D03*
X129000000Y-60000000D03*
%TO.N,GND*%
X117500000Y-63000000D03*
X111000000Y-61000000D03*
X102000000Y-65500000D03*
X106500000Y-65500000D03*
X111000000Y-50500000D03*
X117500000Y-52500000D03*
X112500000Y-66000000D03*
X118000000Y-58000000D03*
%TO.N,+3.3V*%
X130000000Y-53000000D03*
X119000000Y-57000000D03*
%TO.N,GND*%
X132500000Y-63500000D03*
X130500000Y-67000000D03*
%TO.N,/CH1_OUT*%
X128000000Y-51000000D03*
X119000000Y-50500000D03*
%TO.N,/CH2_OUT*%
X134000000Y-56500000D03*
X119500000Y-61000000D03*
%TD*%
D13*
%TO.N,VMID_BUF*%
X125500000Y-60000000D02*
X124000000Y-58500000D01*
X129000000Y-60000000D02*
X125500000Y-60000000D01*
D14*
%TO.N,GND*%
X106500000Y-65500000D02*
X112000000Y-65500000D01*
X112000000Y-65500000D02*
X112500000Y-66000000D01*
X117500000Y-52500000D02*
X118000000Y-53000000D01*
X118000000Y-53000000D02*
X118000000Y-58000000D01*
X118000000Y-58000000D02*
X118500000Y-58500000D01*
X118500000Y-58500000D02*
X118500000Y-60000000D01*
X118500000Y-60000000D02*
X112500000Y-66000000D01*
%TO.N,+3.3V*%
X126000000Y-57000000D02*
X119000000Y-57000000D01*
X130000000Y-53000000D02*
X126000000Y-57000000D01*
%TO.N,GND*%
X131500000Y-63500000D02*
X132500000Y-63500000D01*
X130500000Y-67000000D02*
X130500000Y-64500000D01*
X130500000Y-64500000D02*
X131500000Y-63500000D01*
D15*
%TO.N,/CH1_OUT*%
X127500000Y-50500000D02*
X119000000Y-50500000D01*
X128000000Y-51000000D02*
X127500000Y-50500000D01*
%TO.N,/CH2_OUT*%
X134500000Y-57500000D02*
X131000000Y-61000000D01*
X134000000Y-56500000D02*
X134500000Y-57000000D01*
X134500000Y-57000000D02*
X134500000Y-57500000D01*
X131000000Y-61000000D02*
X119500000Y-61000000D01*
%TD*%
%TA.AperFunction,Conductor*%
%TO.N,GND*%
G36*
X145942539Y-44520185D02*
G01*
X145988294Y-44572989D01*
X145999500Y-44624500D01*
X145999500Y-71375500D01*
X145979815Y-71442539D01*
X145927011Y-71488294D01*
X145875500Y-71499500D01*
X99624500Y-71499500D01*
X99557461Y-71479815D01*
X99511706Y-71427011D01*
X99500500Y-71375500D01*
X99500500Y-57480131D01*
X101369500Y-57480131D01*
X101369500Y-59269856D01*
X101369502Y-59269882D01*
X101372413Y-59294987D01*
X101372415Y-59294991D01*
X101417793Y-59397764D01*
X101417794Y-59397765D01*
X101497235Y-59477206D01*
X101600009Y-59522585D01*
X101625135Y-59525500D01*
X102362873Y-59525499D01*
X102429910Y-59545183D01*
X102475665Y-59597987D01*
X102485609Y-59667146D01*
X102456584Y-59730702D01*
X102397806Y-59768476D01*
X102382270Y-59771972D01*
X102250589Y-59792829D01*
X102078363Y-59848787D01*
X102078360Y-59848788D01*
X101917002Y-59931006D01*
X101770505Y-60037441D01*
X101770500Y-60037445D01*
X101642445Y-60165500D01*
X101642441Y-60165505D01*
X101536006Y-60312002D01*
X101453788Y-60473360D01*
X101453787Y-60473363D01*
X101397829Y-60645589D01*
X101369500Y-60824448D01*
X101369500Y-61005551D01*
X101397829Y-61184410D01*
X101453787Y-61356636D01*
X101453788Y-61356639D01*
X101536006Y-61517997D01*
X101642441Y-61664494D01*
X101642445Y-61664499D01*
X101770500Y-61792554D01*
X101770505Y-61792558D01*
X101885645Y-61876211D01*
X101917006Y-61898996D01*
X102022484Y-61952740D01*
X102078360Y-61981211D01*
X102078363Y-61981212D01*
X102164476Y-62009191D01*
X102250591Y-62037171D01*
X102333429Y-62050291D01*
X102429449Y-62065500D01*
X102429454Y-62065500D01*
X102610551Y-62065500D01*
X102697259Y-62051765D01*
X102789409Y-62037171D01*
X102961639Y-61981211D01*
X103122994Y-61898996D01*
X103269501Y-61792553D01*
X103397553Y-61664501D01*
X103503996Y-61517994D01*
X103586211Y-61356639D01*
X103642171Y-61184409D01*
X103658857Y-61079056D01*
X103670500Y-61005551D01*
X103670500Y-60920943D01*
X118899500Y-60920943D01*
X118899500Y-61079057D01*
X118899595Y-61079409D01*
X118940423Y-61231783D01*
X118940426Y-61231790D01*
X119019475Y-61368709D01*
X119019479Y-61368714D01*
X119019480Y-61368716D01*
X119131284Y-61480520D01*
X119131286Y-61480521D01*
X119131290Y-61480524D01*
X119268072Y-61559494D01*
X119268216Y-61559577D01*
X119420943Y-61600500D01*
X119420945Y-61600500D01*
X119579055Y-61600500D01*
X119579057Y-61600500D01*
X119731784Y-61559577D01*
X119868716Y-61480520D01*
X119912417Y-61436819D01*
X119973740Y-61403334D01*
X120000098Y-61400500D01*
X131052725Y-61400500D01*
X131052727Y-61400500D01*
X131154588Y-61373207D01*
X131245913Y-61320480D01*
X134386945Y-58179448D01*
X142349500Y-58179448D01*
X142349500Y-58360551D01*
X142377829Y-58539410D01*
X142433787Y-58711636D01*
X142433788Y-58711639D01*
X142489664Y-58821300D01*
X142513824Y-58868716D01*
X142516006Y-58872997D01*
X142622441Y-59019494D01*
X142622445Y-59019499D01*
X142750500Y-59147554D01*
X142750505Y-59147558D01*
X142878287Y-59240396D01*
X142897006Y-59253996D01*
X142977455Y-59294987D01*
X143058360Y-59336211D01*
X143058363Y-59336212D01*
X143144476Y-59364191D01*
X143230591Y-59392171D01*
X143303639Y-59403740D01*
X143390678Y-59417527D01*
X143453813Y-59447456D01*
X143490744Y-59506768D01*
X143489746Y-59576631D01*
X143451136Y-59634863D01*
X143390678Y-59662473D01*
X143230589Y-59687829D01*
X143058363Y-59743787D01*
X143058360Y-59743788D01*
X142897002Y-59826006D01*
X142750505Y-59932441D01*
X142750500Y-59932445D01*
X142622445Y-60060500D01*
X142622441Y-60060505D01*
X142516006Y-60207002D01*
X142433788Y-60368360D01*
X142433787Y-60368363D01*
X142377829Y-60540589D01*
X142349500Y-60719448D01*
X142349500Y-60900551D01*
X142377829Y-61079410D01*
X142433787Y-61251636D01*
X142433788Y-61251639D01*
X142489664Y-61361300D01*
X142509637Y-61400499D01*
X142516006Y-61412997D01*
X142622441Y-61559494D01*
X142622445Y-61559499D01*
X142750500Y-61687554D01*
X142750505Y-61687558D01*
X142878287Y-61780396D01*
X142897006Y-61793996D01*
X143002484Y-61847740D01*
X143058360Y-61876211D01*
X143058363Y-61876212D01*
X143128478Y-61898993D01*
X143230591Y-61932171D01*
X143313429Y-61945291D01*
X143409449Y-61960500D01*
X143409454Y-61960500D01*
X143590551Y-61960500D01*
X143677259Y-61946765D01*
X143769409Y-61932171D01*
X143941639Y-61876211D01*
X144102994Y-61793996D01*
X144249501Y-61687553D01*
X144377553Y-61559501D01*
X144483996Y-61412994D01*
X144566211Y-61251639D01*
X144622171Y-61079409D01*
X144636765Y-60987259D01*
X144650500Y-60900551D01*
X144650500Y-60719448D01*
X144628383Y-60579815D01*
X144622171Y-60540591D01*
X144566327Y-60368717D01*
X144566212Y-60368363D01*
X144566211Y-60368360D01*
X144537494Y-60312002D01*
X144483996Y-60207006D01*
X144453840Y-60165499D01*
X144377558Y-60060505D01*
X144377554Y-60060500D01*
X144249499Y-59932445D01*
X144249494Y-59932441D01*
X144102997Y-59826006D01*
X144102996Y-59826005D01*
X144102994Y-59826004D01*
X144037885Y-59792829D01*
X143941639Y-59743788D01*
X143941636Y-59743787D01*
X143769410Y-59687829D01*
X143609321Y-59662473D01*
X143546186Y-59632544D01*
X143509255Y-59573232D01*
X143510253Y-59503370D01*
X143548863Y-59445137D01*
X143609321Y-59417527D01*
X143679425Y-59406422D01*
X143769409Y-59392171D01*
X143941639Y-59336211D01*
X144102994Y-59253996D01*
X144249501Y-59147553D01*
X144377553Y-59019501D01*
X144483996Y-58872994D01*
X144566211Y-58711639D01*
X144622171Y-58539409D01*
X144640934Y-58420943D01*
X144650500Y-58360551D01*
X144650500Y-58179448D01*
X144634019Y-58075397D01*
X144622171Y-58000591D01*
X144566211Y-57828361D01*
X144566211Y-57828360D01*
X144524199Y-57745909D01*
X144483996Y-57667006D01*
X144400968Y-57552727D01*
X144377558Y-57520505D01*
X144377554Y-57520500D01*
X144249499Y-57392445D01*
X144249494Y-57392441D01*
X144102997Y-57286006D01*
X144102996Y-57286005D01*
X144102994Y-57286004D01*
X144051300Y-57259664D01*
X143941639Y-57203788D01*
X143941636Y-57203787D01*
X143769410Y-57147829D01*
X143590551Y-57119500D01*
X143590546Y-57119500D01*
X143409454Y-57119500D01*
X143409449Y-57119500D01*
X143230589Y-57147829D01*
X143058363Y-57203787D01*
X143058360Y-57203788D01*
X142897002Y-57286006D01*
X142750505Y-57392441D01*
X142750500Y-57392445D01*
X142622445Y-57520500D01*
X142622441Y-57520505D01*
X142516006Y-57667002D01*
X142433788Y-57828360D01*
X142433787Y-57828363D01*
X142377829Y-58000589D01*
X142349500Y-58179448D01*
X134386945Y-58179448D01*
X134820480Y-57745913D01*
X134873206Y-57654588D01*
X134873207Y-57654587D01*
X134900500Y-57552727D01*
X134900500Y-56947273D01*
X134893445Y-56920943D01*
X134873207Y-56845412D01*
X134846843Y-56799750D01*
X134820480Y-56754087D01*
X134745913Y-56679520D01*
X134745910Y-56679518D01*
X134636818Y-56570425D01*
X134603334Y-56509102D01*
X134600500Y-56482744D01*
X134600500Y-56420945D01*
X134600500Y-56420943D01*
X134559577Y-56268216D01*
X134559573Y-56268209D01*
X134480524Y-56131290D01*
X134480518Y-56131282D01*
X134368717Y-56019481D01*
X134368709Y-56019475D01*
X134231790Y-55940426D01*
X134231786Y-55940424D01*
X134231784Y-55940423D01*
X134079057Y-55899500D01*
X133920943Y-55899500D01*
X133768216Y-55940423D01*
X133768209Y-55940426D01*
X133631290Y-56019475D01*
X133631282Y-56019481D01*
X133519481Y-56131282D01*
X133519475Y-56131290D01*
X133440426Y-56268209D01*
X133440423Y-56268216D01*
X133399500Y-56420943D01*
X133399500Y-56579057D01*
X133426419Y-56679518D01*
X133440423Y-56731783D01*
X133440426Y-56731790D01*
X133519475Y-56868709D01*
X133519479Y-56868714D01*
X133519480Y-56868716D01*
X133631284Y-56980520D01*
X133631286Y-56980521D01*
X133631290Y-56980524D01*
X133768209Y-57059573D01*
X133768216Y-57059577D01*
X133920943Y-57100500D01*
X133975500Y-57100500D01*
X133984185Y-57103050D01*
X133993147Y-57101762D01*
X134017187Y-57112740D01*
X134042539Y-57120185D01*
X134048466Y-57127025D01*
X134056703Y-57130787D01*
X134070992Y-57153021D01*
X134088294Y-57172989D01*
X134090581Y-57183503D01*
X134094477Y-57189565D01*
X134099500Y-57224500D01*
X134099500Y-57282745D01*
X134079815Y-57349784D01*
X134063181Y-57370426D01*
X130870426Y-60563181D01*
X130809103Y-60596666D01*
X130782745Y-60599500D01*
X129549098Y-60599500D01*
X129482059Y-60579815D01*
X129436304Y-60527011D01*
X129426360Y-60457853D01*
X129455385Y-60394297D01*
X129461417Y-60387819D01*
X129480520Y-60368716D01*
X129559577Y-60231784D01*
X129600500Y-60079057D01*
X129600500Y-59920943D01*
X129559577Y-59768216D01*
X129544466Y-59742042D01*
X129480524Y-59631290D01*
X129480518Y-59631282D01*
X129368717Y-59519481D01*
X129368709Y-59519475D01*
X129231790Y-59440426D01*
X129231786Y-59440424D01*
X129231784Y-59440423D01*
X129079057Y-59399500D01*
X128920943Y-59399500D01*
X128768216Y-59440423D01*
X128768209Y-59440426D01*
X128631290Y-59519475D01*
X128625557Y-59523875D01*
X128560388Y-59549070D01*
X128550069Y-59549500D01*
X125737965Y-59549500D01*
X125670926Y-59529815D01*
X125650284Y-59513181D01*
X124636700Y-58499597D01*
X124603215Y-58438274D01*
X124601442Y-58428099D01*
X124600500Y-58420945D01*
X124600500Y-58420943D01*
X124559577Y-58268216D01*
X124508331Y-58179454D01*
X124480524Y-58131290D01*
X124480518Y-58131282D01*
X124368717Y-58019481D01*
X124368709Y-58019475D01*
X124231790Y-57940426D01*
X124231786Y-57940424D01*
X124231784Y-57940423D01*
X124079057Y-57899500D01*
X123920943Y-57899500D01*
X123768216Y-57940423D01*
X123768209Y-57940426D01*
X123631290Y-58019475D01*
X123631282Y-58019481D01*
X123519481Y-58131282D01*
X123519475Y-58131290D01*
X123440426Y-58268209D01*
X123440423Y-58268216D01*
X123399500Y-58420943D01*
X123399500Y-58579057D01*
X123435025Y-58711636D01*
X123440423Y-58731783D01*
X123440426Y-58731790D01*
X123519475Y-58868709D01*
X123519479Y-58868714D01*
X123519480Y-58868716D01*
X123631284Y-58980520D01*
X123631286Y-58980521D01*
X123631290Y-58980524D01*
X123768209Y-59059573D01*
X123768216Y-59059577D01*
X123920943Y-59100500D01*
X123920945Y-59100500D01*
X123928099Y-59101442D01*
X123991996Y-59129707D01*
X123999597Y-59136700D01*
X125223386Y-60360489D01*
X125236590Y-60368112D01*
X125284806Y-60418679D01*
X125298030Y-60487286D01*
X125272062Y-60552151D01*
X125215149Y-60592680D01*
X125174591Y-60599500D01*
X120000098Y-60599500D01*
X119933059Y-60579815D01*
X119912417Y-60563181D01*
X119868717Y-60519481D01*
X119868709Y-60519475D01*
X119731790Y-60440426D01*
X119731786Y-60440424D01*
X119731784Y-60440423D01*
X119579057Y-60399500D01*
X119420943Y-60399500D01*
X119268216Y-60440423D01*
X119268209Y-60440426D01*
X119131290Y-60519475D01*
X119131282Y-60519481D01*
X119019481Y-60631282D01*
X119019475Y-60631290D01*
X118940426Y-60768209D01*
X118940423Y-60768216D01*
X118899500Y-60920943D01*
X103670500Y-60920943D01*
X103670500Y-60824448D01*
X103653869Y-60719448D01*
X103642171Y-60645591D01*
X103601194Y-60519475D01*
X103586212Y-60473363D01*
X103586211Y-60473360D01*
X103548577Y-60399500D01*
X103503996Y-60312006D01*
X103445711Y-60231783D01*
X103397558Y-60165505D01*
X103397554Y-60165500D01*
X103269499Y-60037445D01*
X103269494Y-60037441D01*
X103122997Y-59931006D01*
X103122996Y-59931005D01*
X103122994Y-59931004D01*
X103071300Y-59904664D01*
X102961639Y-59848788D01*
X102961636Y-59848787D01*
X102789410Y-59792829D01*
X102657728Y-59771972D01*
X102594594Y-59742042D01*
X102557663Y-59682731D01*
X102558661Y-59612868D01*
X102597271Y-59554636D01*
X102661235Y-59526522D01*
X102677120Y-59525499D01*
X103414864Y-59525499D01*
X103414879Y-59525497D01*
X103414882Y-59525497D01*
X103439987Y-59522586D01*
X103439988Y-59522585D01*
X103439991Y-59522585D01*
X103542765Y-59477206D01*
X103622206Y-59397765D01*
X103667585Y-59294991D01*
X103670500Y-59269865D01*
X103670499Y-57480136D01*
X103670497Y-57480117D01*
X103667586Y-57455012D01*
X103667585Y-57455010D01*
X103667585Y-57455009D01*
X103622206Y-57352235D01*
X103542765Y-57272794D01*
X103542763Y-57272793D01*
X103439992Y-57227415D01*
X103414865Y-57224500D01*
X101625143Y-57224500D01*
X101625117Y-57224502D01*
X101600012Y-57227413D01*
X101600008Y-57227415D01*
X101497235Y-57272793D01*
X101417794Y-57352234D01*
X101372415Y-57455006D01*
X101372415Y-57455008D01*
X101369500Y-57480131D01*
X99500500Y-57480131D01*
X99500500Y-56920943D01*
X118399500Y-56920943D01*
X118399500Y-57079057D01*
X118439253Y-57227415D01*
X118440423Y-57231783D01*
X118440426Y-57231790D01*
X118519475Y-57368709D01*
X118519479Y-57368714D01*
X118519480Y-57368716D01*
X118631284Y-57480520D01*
X118631286Y-57480521D01*
X118631290Y-57480524D01*
X118756351Y-57552727D01*
X118768216Y-57559577D01*
X118920943Y-57600500D01*
X118920945Y-57600500D01*
X119079055Y-57600500D01*
X119079057Y-57600500D01*
X119231784Y-57559577D01*
X119231785Y-57559576D01*
X119239635Y-57557473D01*
X119239820Y-57558165D01*
X119278363Y-57550500D01*
X126072472Y-57550500D01*
X126072474Y-57550500D01*
X126072475Y-57550500D01*
X126212485Y-57512984D01*
X126338015Y-57440510D01*
X130192431Y-53586092D01*
X130225104Y-53564262D01*
X130224745Y-53563640D01*
X130231780Y-53559577D01*
X130231784Y-53559577D01*
X130368716Y-53480520D01*
X130480520Y-53368716D01*
X130559577Y-53231784D01*
X130600500Y-53079057D01*
X130600500Y-52920943D01*
X130559577Y-52768216D01*
X130559573Y-52768209D01*
X130480524Y-52631290D01*
X130480521Y-52631286D01*
X130480520Y-52631284D01*
X130368716Y-52519480D01*
X130368714Y-52519479D01*
X130368709Y-52519475D01*
X130231790Y-52440426D01*
X130231786Y-52440424D01*
X130231784Y-52440423D01*
X130079057Y-52399500D01*
X129920943Y-52399500D01*
X129768216Y-52440423D01*
X129768209Y-52440426D01*
X129631290Y-52519475D01*
X129631282Y-52519481D01*
X129519481Y-52631282D01*
X129519479Y-52631285D01*
X129490182Y-52682028D01*
X129440423Y-52768216D01*
X129440422Y-52768218D01*
X129436361Y-52775253D01*
X129435740Y-52774894D01*
X129413906Y-52807567D01*
X125808294Y-56413181D01*
X125746971Y-56446666D01*
X125720613Y-56449500D01*
X119278363Y-56449500D01*
X119239820Y-56441834D01*
X119239635Y-56442527D01*
X119231785Y-56440423D01*
X119231784Y-56440423D01*
X119079057Y-56399500D01*
X118920943Y-56399500D01*
X118768216Y-56440423D01*
X118768209Y-56440426D01*
X118631290Y-56519475D01*
X118631282Y-56519481D01*
X118519481Y-56631282D01*
X118519475Y-56631290D01*
X118440426Y-56768209D01*
X118440423Y-56768216D01*
X118399500Y-56920943D01*
X99500500Y-56920943D01*
X99500500Y-52295131D01*
X142349500Y-52295131D01*
X142349500Y-54084856D01*
X142349502Y-54084882D01*
X142352413Y-54109987D01*
X142352415Y-54109991D01*
X142397793Y-54212764D01*
X142397794Y-54212765D01*
X142477235Y-54292206D01*
X142580009Y-54337585D01*
X142605135Y-54340500D01*
X144394864Y-54340499D01*
X144394879Y-54340497D01*
X144394882Y-54340497D01*
X144419987Y-54337586D01*
X144419988Y-54337585D01*
X144419991Y-54337585D01*
X144522765Y-54292206D01*
X144602206Y-54212765D01*
X144647585Y-54109991D01*
X144650500Y-54084865D01*
X144650499Y-52295136D01*
X144650497Y-52295117D01*
X144647586Y-52270012D01*
X144647585Y-52270010D01*
X144647585Y-52270009D01*
X144602206Y-52167235D01*
X144522765Y-52087794D01*
X144522763Y-52087793D01*
X144419992Y-52042415D01*
X144394865Y-52039500D01*
X142605143Y-52039500D01*
X142605117Y-52039502D01*
X142580012Y-52042413D01*
X142580008Y-52042415D01*
X142477235Y-52087793D01*
X142397794Y-52167234D01*
X142352415Y-52270006D01*
X142352415Y-52270008D01*
X142349500Y-52295131D01*
X99500500Y-52295131D01*
X99500500Y-47330131D01*
X101369500Y-47330131D01*
X101369500Y-49119856D01*
X101369502Y-49119882D01*
X101372413Y-49144987D01*
X101372415Y-49144991D01*
X101417793Y-49247764D01*
X101417794Y-49247765D01*
X101497235Y-49327206D01*
X101600009Y-49372585D01*
X101625135Y-49375500D01*
X102362873Y-49375499D01*
X102429910Y-49395183D01*
X102475665Y-49447987D01*
X102485609Y-49517146D01*
X102456584Y-49580702D01*
X102397806Y-49618476D01*
X102382270Y-49621972D01*
X102250589Y-49642829D01*
X102078363Y-49698787D01*
X102078360Y-49698788D01*
X101917002Y-49781006D01*
X101770505Y-49887441D01*
X101770500Y-49887445D01*
X101642445Y-50015500D01*
X101642441Y-50015505D01*
X101536006Y-50162002D01*
X101453788Y-50323360D01*
X101453787Y-50323363D01*
X101397829Y-50495589D01*
X101369500Y-50674448D01*
X101369500Y-50855551D01*
X101397829Y-51034410D01*
X101453787Y-51206636D01*
X101453788Y-51206639D01*
X101536006Y-51367997D01*
X101642441Y-51514494D01*
X101642445Y-51514499D01*
X101770500Y-51642554D01*
X101770505Y-51642558D01*
X101898287Y-51735396D01*
X101917006Y-51748996D01*
X102022484Y-51802740D01*
X102078360Y-51831211D01*
X102078363Y-51831212D01*
X102164476Y-51859191D01*
X102250591Y-51887171D01*
X102333429Y-51900291D01*
X102429449Y-51915500D01*
X102429454Y-51915500D01*
X102610551Y-51915500D01*
X102697259Y-51901765D01*
X102789409Y-51887171D01*
X102961639Y-51831211D01*
X103122994Y-51748996D01*
X103269501Y-51642553D01*
X103397553Y-51514501D01*
X103503996Y-51367994D01*
X103586211Y-51206639D01*
X103642171Y-51034409D01*
X103660262Y-50920185D01*
X103670500Y-50855551D01*
X103670500Y-50674448D01*
X103645955Y-50519481D01*
X103642171Y-50495591D01*
X103642170Y-50495587D01*
X103627727Y-50451133D01*
X103617918Y-50420943D01*
X118399500Y-50420943D01*
X118399500Y-50579056D01*
X118440423Y-50731783D01*
X118440426Y-50731790D01*
X118519475Y-50868709D01*
X118519479Y-50868714D01*
X118519480Y-50868716D01*
X118631284Y-50980520D01*
X118631286Y-50980521D01*
X118631290Y-50980524D01*
X118707460Y-51024500D01*
X118768216Y-51059577D01*
X118920943Y-51100500D01*
X118920945Y-51100500D01*
X119079055Y-51100500D01*
X119079057Y-51100500D01*
X119231784Y-51059577D01*
X119368716Y-50980520D01*
X119412417Y-50936819D01*
X119473740Y-50903334D01*
X119500098Y-50900500D01*
X127275500Y-50900500D01*
X127342539Y-50920185D01*
X127388294Y-50972989D01*
X127399500Y-51024500D01*
X127399500Y-51079057D01*
X127433686Y-51206639D01*
X127440423Y-51231783D01*
X127440426Y-51231790D01*
X127519475Y-51368709D01*
X127519479Y-51368714D01*
X127519480Y-51368716D01*
X127631284Y-51480520D01*
X127631286Y-51480521D01*
X127631290Y-51480524D01*
X127690141Y-51514501D01*
X127768216Y-51559577D01*
X127920943Y-51600500D01*
X127920945Y-51600500D01*
X128079055Y-51600500D01*
X128079057Y-51600500D01*
X128231784Y-51559577D01*
X128368716Y-51480520D01*
X128480520Y-51368716D01*
X128559577Y-51231784D01*
X128600500Y-51079057D01*
X128600500Y-50920943D01*
X128559577Y-50768216D01*
X128505441Y-50674448D01*
X128480524Y-50631290D01*
X128480518Y-50631282D01*
X128368717Y-50519481D01*
X128368709Y-50519475D01*
X128231790Y-50440426D01*
X128231786Y-50440424D01*
X128231784Y-50440423D01*
X128079057Y-50399500D01*
X128079056Y-50399500D01*
X128017255Y-50399500D01*
X127950216Y-50379815D01*
X127929574Y-50363181D01*
X127745915Y-50179522D01*
X127745913Y-50179520D01*
X127700250Y-50153156D01*
X127654589Y-50126793D01*
X127603657Y-50113146D01*
X127552727Y-50099500D01*
X127552726Y-50099500D01*
X119500098Y-50099500D01*
X119433059Y-50079815D01*
X119412417Y-50063181D01*
X119368717Y-50019481D01*
X119368709Y-50019475D01*
X119231790Y-49940426D01*
X119231786Y-49940424D01*
X119231784Y-49940423D01*
X119079057Y-49899500D01*
X118920943Y-49899500D01*
X118768216Y-49940423D01*
X118768209Y-49940426D01*
X118631290Y-50019475D01*
X118631282Y-50019481D01*
X118519481Y-50131282D01*
X118519475Y-50131290D01*
X118440426Y-50268209D01*
X118440423Y-50268216D01*
X118399500Y-50420943D01*
X103617918Y-50420943D01*
X103586212Y-50323363D01*
X103586211Y-50323360D01*
X103557740Y-50267484D01*
X103503996Y-50162006D01*
X103432196Y-50063181D01*
X103397558Y-50015505D01*
X103397554Y-50015500D01*
X103269499Y-49887445D01*
X103269494Y-49887441D01*
X103122997Y-49781006D01*
X103122996Y-49781005D01*
X103122994Y-49781004D01*
X103071300Y-49754664D01*
X102961639Y-49698788D01*
X102961636Y-49698787D01*
X102789410Y-49642829D01*
X102657728Y-49621972D01*
X102594594Y-49592042D01*
X102557663Y-49532731D01*
X102558661Y-49462868D01*
X102597271Y-49404636D01*
X102661235Y-49376522D01*
X102677120Y-49375499D01*
X103414864Y-49375499D01*
X103414879Y-49375497D01*
X103414882Y-49375497D01*
X103439987Y-49372586D01*
X103439988Y-49372585D01*
X103439991Y-49372585D01*
X103542765Y-49327206D01*
X103622206Y-49247765D01*
X103667585Y-49144991D01*
X103670500Y-49119865D01*
X103670499Y-47330136D01*
X103670497Y-47330117D01*
X103667586Y-47305012D01*
X103667585Y-47305010D01*
X103667585Y-47305009D01*
X103622206Y-47202235D01*
X103542765Y-47122794D01*
X103542763Y-47122793D01*
X103439992Y-47077415D01*
X103414865Y-47074500D01*
X101625143Y-47074500D01*
X101625117Y-47074502D01*
X101600012Y-47077413D01*
X101600008Y-47077415D01*
X101497235Y-47122793D01*
X101417794Y-47202234D01*
X101372415Y-47305006D01*
X101372415Y-47305008D01*
X101369500Y-47330131D01*
X99500500Y-47330131D01*
X99500500Y-44624500D01*
X99520185Y-44557461D01*
X99572989Y-44511706D01*
X99624500Y-44500500D01*
X145875500Y-44500500D01*
X145942539Y-44520185D01*
G37*
%TD.AperFunction*%
%TD*%
M02*
