M48
; DRILL file {KiCad 9.0.8} date 2026-07-07T09:21:57+0300
; FORMAT={-:-/ absolute / metric / decimal}
; #@! TF.CreationDate,2026-07-07T09:21:57+03:00
; #@! TF.GenerationSoftware,Kicad,Pcbnew,9.0.8
; #@! TF.FileFunction,Plated,1,2,PTH
FMAT,2
METRIC
; #@! TA.AperFunction,Plated,PTH,ViaDrill
T1C0.300
; #@! TA.AperFunction,Plated,PTH,ComponentDrill
T2C1.000
%
G90
G05
T1
X102.0Y-65.5
X106.5Y-65.5
X111.0Y-50.5
X111.0Y-61.0
X112.5Y-66.0
X117.5Y-52.5
X117.5Y-63.0
X118.0Y-58.0
X119.0Y-50.5
X119.0Y-57.0
X119.5Y-61.0
X124.0Y-58.5
X128.0Y-51.0
X129.0Y-60.0
X130.0Y-53.0
X130.5Y-67.0
X132.5Y-63.5
X134.0Y-56.5
T2
X102.52Y-48.225
X102.52Y-50.765
X102.52Y-58.375
X102.52Y-60.915
X143.5Y-53.19
X143.5Y-55.73
X143.5Y-58.27
X143.5Y-60.81
M30
