%TF.GenerationSoftware,KiCad,Pcbnew,9.0.8*%
%TF.CreationDate,2026-07-16T09:22:01+03:00*%
%TF.ProjectId,Integration-Capstone-Board,496e7465-6772-4617-9469-6f6e2d436170,rev?*%
%TF.SameCoordinates,Original*%
%TF.FileFunction,Legend,Top*%
%TF.FilePolarity,Positive*%
%FSLAX46Y46*%
G04 Gerber Fmt 4.6, Leading zero omitted, Abs format (unit mm)*
G04 Created by KiCad (PCBNEW 9.0.8) date 2026-07-16 09:22:01*
%MOMM*%
%LPD*%
G01*
G04 APERTURE LIST*
%ADD10C,0.125000*%
%ADD11C,0.120000*%
%ADD12C,0.100000*%
G04 APERTURE END LIST*
D10*
X122783333Y-53563595D02*
X122783333Y-54135023D01*
X122783333Y-54135023D02*
X122745238Y-54249309D01*
X122745238Y-54249309D02*
X122669047Y-54325500D01*
X122669047Y-54325500D02*
X122554762Y-54363595D01*
X122554762Y-54363595D02*
X122478571Y-54363595D01*
X123507143Y-53563595D02*
X123354762Y-53563595D01*
X123354762Y-53563595D02*
X123278571Y-53601690D01*
X123278571Y-53601690D02*
X123240476Y-53639785D01*
X123240476Y-53639785D02*
X123164286Y-53754071D01*
X123164286Y-53754071D02*
X123126190Y-53906452D01*
X123126190Y-53906452D02*
X123126190Y-54211214D01*
X123126190Y-54211214D02*
X123164286Y-54287404D01*
X123164286Y-54287404D02*
X123202381Y-54325500D01*
X123202381Y-54325500D02*
X123278571Y-54363595D01*
X123278571Y-54363595D02*
X123430952Y-54363595D01*
X123430952Y-54363595D02*
X123507143Y-54325500D01*
X123507143Y-54325500D02*
X123545238Y-54287404D01*
X123545238Y-54287404D02*
X123583333Y-54211214D01*
X123583333Y-54211214D02*
X123583333Y-54020738D01*
X123583333Y-54020738D02*
X123545238Y-53944547D01*
X123545238Y-53944547D02*
X123507143Y-53906452D01*
X123507143Y-53906452D02*
X123430952Y-53868357D01*
X123430952Y-53868357D02*
X123278571Y-53868357D01*
X123278571Y-53868357D02*
X123202381Y-53906452D01*
X123202381Y-53906452D02*
X123164286Y-53944547D01*
X123164286Y-53944547D02*
X123126190Y-54020738D01*
X121416667Y-66422404D02*
X121378571Y-66460500D01*
X121378571Y-66460500D02*
X121264286Y-66498595D01*
X121264286Y-66498595D02*
X121188095Y-66498595D01*
X121188095Y-66498595D02*
X121073809Y-66460500D01*
X121073809Y-66460500D02*
X120997619Y-66384309D01*
X120997619Y-66384309D02*
X120959524Y-66308119D01*
X120959524Y-66308119D02*
X120921428Y-66155738D01*
X120921428Y-66155738D02*
X120921428Y-66041452D01*
X120921428Y-66041452D02*
X120959524Y-65889071D01*
X120959524Y-65889071D02*
X120997619Y-65812880D01*
X120997619Y-65812880D02*
X121073809Y-65736690D01*
X121073809Y-65736690D02*
X121188095Y-65698595D01*
X121188095Y-65698595D02*
X121264286Y-65698595D01*
X121264286Y-65698595D02*
X121378571Y-65736690D01*
X121378571Y-65736690D02*
X121416667Y-65774785D01*
X121683333Y-65698595D02*
X122178571Y-65698595D01*
X122178571Y-65698595D02*
X121911905Y-66003357D01*
X121911905Y-66003357D02*
X122026190Y-66003357D01*
X122026190Y-66003357D02*
X122102381Y-66041452D01*
X122102381Y-66041452D02*
X122140476Y-66079547D01*
X122140476Y-66079547D02*
X122178571Y-66155738D01*
X122178571Y-66155738D02*
X122178571Y-66346214D01*
X122178571Y-66346214D02*
X122140476Y-66422404D01*
X122140476Y-66422404D02*
X122102381Y-66460500D01*
X122102381Y-66460500D02*
X122026190Y-66498595D01*
X122026190Y-66498595D02*
X121797619Y-66498595D01*
X121797619Y-66498595D02*
X121721428Y-66460500D01*
X121721428Y-66460500D02*
X121683333Y-66422404D01*
X143066667Y-70863595D02*
X142800000Y-70482642D01*
X142609524Y-70863595D02*
X142609524Y-70063595D01*
X142609524Y-70063595D02*
X142914286Y-70063595D01*
X142914286Y-70063595D02*
X142990476Y-70101690D01*
X142990476Y-70101690D02*
X143028571Y-70139785D01*
X143028571Y-70139785D02*
X143066667Y-70215976D01*
X143066667Y-70215976D02*
X143066667Y-70330261D01*
X143066667Y-70330261D02*
X143028571Y-70406452D01*
X143028571Y-70406452D02*
X142990476Y-70444547D01*
X142990476Y-70444547D02*
X142914286Y-70482642D01*
X142914286Y-70482642D02*
X142609524Y-70482642D01*
X143752381Y-70330261D02*
X143752381Y-70863595D01*
X143561905Y-70025500D02*
X143371428Y-70596928D01*
X143371428Y-70596928D02*
X143866667Y-70596928D01*
X142976667Y-69863595D02*
X142710000Y-69482642D01*
X142519524Y-69863595D02*
X142519524Y-69063595D01*
X142519524Y-69063595D02*
X142824286Y-69063595D01*
X142824286Y-69063595D02*
X142900476Y-69101690D01*
X142900476Y-69101690D02*
X142938571Y-69139785D01*
X142938571Y-69139785D02*
X142976667Y-69215976D01*
X142976667Y-69215976D02*
X142976667Y-69330261D01*
X142976667Y-69330261D02*
X142938571Y-69406452D01*
X142938571Y-69406452D02*
X142900476Y-69444547D01*
X142900476Y-69444547D02*
X142824286Y-69482642D01*
X142824286Y-69482642D02*
X142519524Y-69482642D01*
X143243333Y-69063595D02*
X143738571Y-69063595D01*
X143738571Y-69063595D02*
X143471905Y-69368357D01*
X143471905Y-69368357D02*
X143586190Y-69368357D01*
X143586190Y-69368357D02*
X143662381Y-69406452D01*
X143662381Y-69406452D02*
X143700476Y-69444547D01*
X143700476Y-69444547D02*
X143738571Y-69520738D01*
X143738571Y-69520738D02*
X143738571Y-69711214D01*
X143738571Y-69711214D02*
X143700476Y-69787404D01*
X143700476Y-69787404D02*
X143662381Y-69825500D01*
X143662381Y-69825500D02*
X143586190Y-69863595D01*
X143586190Y-69863595D02*
X143357619Y-69863595D01*
X143357619Y-69863595D02*
X143281428Y-69825500D01*
X143281428Y-69825500D02*
X143243333Y-69787404D01*
X105316667Y-67387404D02*
X105278571Y-67425500D01*
X105278571Y-67425500D02*
X105164286Y-67463595D01*
X105164286Y-67463595D02*
X105088095Y-67463595D01*
X105088095Y-67463595D02*
X104973809Y-67425500D01*
X104973809Y-67425500D02*
X104897619Y-67349309D01*
X104897619Y-67349309D02*
X104859524Y-67273119D01*
X104859524Y-67273119D02*
X104821428Y-67120738D01*
X104821428Y-67120738D02*
X104821428Y-67006452D01*
X104821428Y-67006452D02*
X104859524Y-66854071D01*
X104859524Y-66854071D02*
X104897619Y-66777880D01*
X104897619Y-66777880D02*
X104973809Y-66701690D01*
X104973809Y-66701690D02*
X105088095Y-66663595D01*
X105088095Y-66663595D02*
X105164286Y-66663595D01*
X105164286Y-66663595D02*
X105278571Y-66701690D01*
X105278571Y-66701690D02*
X105316667Y-66739785D01*
X106040476Y-66663595D02*
X105659524Y-66663595D01*
X105659524Y-66663595D02*
X105621428Y-67044547D01*
X105621428Y-67044547D02*
X105659524Y-67006452D01*
X105659524Y-67006452D02*
X105735714Y-66968357D01*
X105735714Y-66968357D02*
X105926190Y-66968357D01*
X105926190Y-66968357D02*
X106002381Y-67006452D01*
X106002381Y-67006452D02*
X106040476Y-67044547D01*
X106040476Y-67044547D02*
X106078571Y-67120738D01*
X106078571Y-67120738D02*
X106078571Y-67311214D01*
X106078571Y-67311214D02*
X106040476Y-67387404D01*
X106040476Y-67387404D02*
X106002381Y-67425500D01*
X106002381Y-67425500D02*
X105926190Y-67463595D01*
X105926190Y-67463595D02*
X105735714Y-67463595D01*
X105735714Y-67463595D02*
X105659524Y-67425500D01*
X105659524Y-67425500D02*
X105621428Y-67387404D01*
X100331964Y-84393595D02*
X100065297Y-84012642D01*
X99874821Y-84393595D02*
X99874821Y-83593595D01*
X99874821Y-83593595D02*
X100179583Y-83593595D01*
X100179583Y-83593595D02*
X100255773Y-83631690D01*
X100255773Y-83631690D02*
X100293868Y-83669785D01*
X100293868Y-83669785D02*
X100331964Y-83745976D01*
X100331964Y-83745976D02*
X100331964Y-83860261D01*
X100331964Y-83860261D02*
X100293868Y-83936452D01*
X100293868Y-83936452D02*
X100255773Y-83974547D01*
X100255773Y-83974547D02*
X100179583Y-84012642D01*
X100179583Y-84012642D02*
X99874821Y-84012642D01*
X101093868Y-84393595D02*
X100636725Y-84393595D01*
X100865297Y-84393595D02*
X100865297Y-83593595D01*
X100865297Y-83593595D02*
X100789106Y-83707880D01*
X100789106Y-83707880D02*
X100712916Y-83784071D01*
X100712916Y-83784071D02*
X100636725Y-83822166D01*
X101589107Y-83593595D02*
X101665297Y-83593595D01*
X101665297Y-83593595D02*
X101741488Y-83631690D01*
X101741488Y-83631690D02*
X101779583Y-83669785D01*
X101779583Y-83669785D02*
X101817678Y-83745976D01*
X101817678Y-83745976D02*
X101855773Y-83898357D01*
X101855773Y-83898357D02*
X101855773Y-84088833D01*
X101855773Y-84088833D02*
X101817678Y-84241214D01*
X101817678Y-84241214D02*
X101779583Y-84317404D01*
X101779583Y-84317404D02*
X101741488Y-84355500D01*
X101741488Y-84355500D02*
X101665297Y-84393595D01*
X101665297Y-84393595D02*
X101589107Y-84393595D01*
X101589107Y-84393595D02*
X101512916Y-84355500D01*
X101512916Y-84355500D02*
X101474821Y-84317404D01*
X101474821Y-84317404D02*
X101436726Y-84241214D01*
X101436726Y-84241214D02*
X101398630Y-84088833D01*
X101398630Y-84088833D02*
X101398630Y-83898357D01*
X101398630Y-83898357D02*
X101436726Y-83745976D01*
X101436726Y-83745976D02*
X101474821Y-83669785D01*
X101474821Y-83669785D02*
X101512916Y-83631690D01*
X101512916Y-83631690D02*
X101589107Y-83593595D01*
X102973274Y-84378595D02*
X102973274Y-83578595D01*
X102973274Y-83578595D02*
X103163750Y-83578595D01*
X103163750Y-83578595D02*
X103278036Y-83616690D01*
X103278036Y-83616690D02*
X103354226Y-83692880D01*
X103354226Y-83692880D02*
X103392321Y-83769071D01*
X103392321Y-83769071D02*
X103430417Y-83921452D01*
X103430417Y-83921452D02*
X103430417Y-84035738D01*
X103430417Y-84035738D02*
X103392321Y-84188119D01*
X103392321Y-84188119D02*
X103354226Y-84264309D01*
X103354226Y-84264309D02*
X103278036Y-84340500D01*
X103278036Y-84340500D02*
X103163750Y-84378595D01*
X103163750Y-84378595D02*
X102973274Y-84378595D01*
X103697083Y-83578595D02*
X104192321Y-83578595D01*
X104192321Y-83578595D02*
X103925655Y-83883357D01*
X103925655Y-83883357D02*
X104039940Y-83883357D01*
X104039940Y-83883357D02*
X104116131Y-83921452D01*
X104116131Y-83921452D02*
X104154226Y-83959547D01*
X104154226Y-83959547D02*
X104192321Y-84035738D01*
X104192321Y-84035738D02*
X104192321Y-84226214D01*
X104192321Y-84226214D02*
X104154226Y-84302404D01*
X104154226Y-84302404D02*
X104116131Y-84340500D01*
X104116131Y-84340500D02*
X104039940Y-84378595D01*
X104039940Y-84378595D02*
X103811369Y-84378595D01*
X103811369Y-84378595D02*
X103735178Y-84340500D01*
X103735178Y-84340500D02*
X103697083Y-84302404D01*
X113563595Y-78409523D02*
X114211214Y-78409523D01*
X114211214Y-78409523D02*
X114287404Y-78371428D01*
X114287404Y-78371428D02*
X114325500Y-78333333D01*
X114325500Y-78333333D02*
X114363595Y-78257142D01*
X114363595Y-78257142D02*
X114363595Y-78104761D01*
X114363595Y-78104761D02*
X114325500Y-78028571D01*
X114325500Y-78028571D02*
X114287404Y-77990476D01*
X114287404Y-77990476D02*
X114211214Y-77952380D01*
X114211214Y-77952380D02*
X113563595Y-77952380D01*
X113563595Y-77647619D02*
X113563595Y-77152381D01*
X113563595Y-77152381D02*
X113868357Y-77419047D01*
X113868357Y-77419047D02*
X113868357Y-77304762D01*
X113868357Y-77304762D02*
X113906452Y-77228571D01*
X113906452Y-77228571D02*
X113944547Y-77190476D01*
X113944547Y-77190476D02*
X114020738Y-77152381D01*
X114020738Y-77152381D02*
X114211214Y-77152381D01*
X114211214Y-77152381D02*
X114287404Y-77190476D01*
X114287404Y-77190476D02*
X114325500Y-77228571D01*
X114325500Y-77228571D02*
X114363595Y-77304762D01*
X114363595Y-77304762D02*
X114363595Y-77533333D01*
X114363595Y-77533333D02*
X114325500Y-77609524D01*
X114325500Y-77609524D02*
X114287404Y-77647619D01*
X123115714Y-67817404D02*
X123077618Y-67855500D01*
X123077618Y-67855500D02*
X122963333Y-67893595D01*
X122963333Y-67893595D02*
X122887142Y-67893595D01*
X122887142Y-67893595D02*
X122772856Y-67855500D01*
X122772856Y-67855500D02*
X122696666Y-67779309D01*
X122696666Y-67779309D02*
X122658571Y-67703119D01*
X122658571Y-67703119D02*
X122620475Y-67550738D01*
X122620475Y-67550738D02*
X122620475Y-67436452D01*
X122620475Y-67436452D02*
X122658571Y-67284071D01*
X122658571Y-67284071D02*
X122696666Y-67207880D01*
X122696666Y-67207880D02*
X122772856Y-67131690D01*
X122772856Y-67131690D02*
X122887142Y-67093595D01*
X122887142Y-67093595D02*
X122963333Y-67093595D01*
X122963333Y-67093595D02*
X123077618Y-67131690D01*
X123077618Y-67131690D02*
X123115714Y-67169785D01*
X123877618Y-67893595D02*
X123420475Y-67893595D01*
X123649047Y-67893595D02*
X123649047Y-67093595D01*
X123649047Y-67093595D02*
X123572856Y-67207880D01*
X123572856Y-67207880D02*
X123496666Y-67284071D01*
X123496666Y-67284071D02*
X123420475Y-67322166D01*
X124372857Y-67093595D02*
X124449047Y-67093595D01*
X124449047Y-67093595D02*
X124525238Y-67131690D01*
X124525238Y-67131690D02*
X124563333Y-67169785D01*
X124563333Y-67169785D02*
X124601428Y-67245976D01*
X124601428Y-67245976D02*
X124639523Y-67398357D01*
X124639523Y-67398357D02*
X124639523Y-67588833D01*
X124639523Y-67588833D02*
X124601428Y-67741214D01*
X124601428Y-67741214D02*
X124563333Y-67817404D01*
X124563333Y-67817404D02*
X124525238Y-67855500D01*
X124525238Y-67855500D02*
X124449047Y-67893595D01*
X124449047Y-67893595D02*
X124372857Y-67893595D01*
X124372857Y-67893595D02*
X124296666Y-67855500D01*
X124296666Y-67855500D02*
X124258571Y-67817404D01*
X124258571Y-67817404D02*
X124220476Y-67741214D01*
X124220476Y-67741214D02*
X124182380Y-67588833D01*
X124182380Y-67588833D02*
X124182380Y-67398357D01*
X124182380Y-67398357D02*
X124220476Y-67245976D01*
X124220476Y-67245976D02*
X124258571Y-67169785D01*
X124258571Y-67169785D02*
X124296666Y-67131690D01*
X124296666Y-67131690D02*
X124372857Y-67093595D01*
X132963595Y-61193332D02*
X132582642Y-61459999D01*
X132963595Y-61650475D02*
X132163595Y-61650475D01*
X132163595Y-61650475D02*
X132163595Y-61345713D01*
X132163595Y-61345713D02*
X132201690Y-61269523D01*
X132201690Y-61269523D02*
X132239785Y-61231428D01*
X132239785Y-61231428D02*
X132315976Y-61193332D01*
X132315976Y-61193332D02*
X132430261Y-61193332D01*
X132430261Y-61193332D02*
X132506452Y-61231428D01*
X132506452Y-61231428D02*
X132544547Y-61269523D01*
X132544547Y-61269523D02*
X132582642Y-61345713D01*
X132582642Y-61345713D02*
X132582642Y-61650475D01*
X132963595Y-60431428D02*
X132963595Y-60888571D01*
X132963595Y-60659999D02*
X132163595Y-60659999D01*
X132163595Y-60659999D02*
X132277880Y-60736190D01*
X132277880Y-60736190D02*
X132354071Y-60812380D01*
X132354071Y-60812380D02*
X132392166Y-60888571D01*
X131163595Y-78243332D02*
X130782642Y-78509999D01*
X131163595Y-78700475D02*
X130363595Y-78700475D01*
X130363595Y-78700475D02*
X130363595Y-78395713D01*
X130363595Y-78395713D02*
X130401690Y-78319523D01*
X130401690Y-78319523D02*
X130439785Y-78281428D01*
X130439785Y-78281428D02*
X130515976Y-78243332D01*
X130515976Y-78243332D02*
X130630261Y-78243332D01*
X130630261Y-78243332D02*
X130706452Y-78281428D01*
X130706452Y-78281428D02*
X130744547Y-78319523D01*
X130744547Y-78319523D02*
X130782642Y-78395713D01*
X130782642Y-78395713D02*
X130782642Y-78700475D01*
X130363595Y-77519523D02*
X130363595Y-77900475D01*
X130363595Y-77900475D02*
X130744547Y-77938571D01*
X130744547Y-77938571D02*
X130706452Y-77900475D01*
X130706452Y-77900475D02*
X130668357Y-77824285D01*
X130668357Y-77824285D02*
X130668357Y-77633809D01*
X130668357Y-77633809D02*
X130706452Y-77557618D01*
X130706452Y-77557618D02*
X130744547Y-77519523D01*
X130744547Y-77519523D02*
X130820738Y-77481428D01*
X130820738Y-77481428D02*
X131011214Y-77481428D01*
X131011214Y-77481428D02*
X131087404Y-77519523D01*
X131087404Y-77519523D02*
X131125500Y-77557618D01*
X131125500Y-77557618D02*
X131163595Y-77633809D01*
X131163595Y-77633809D02*
X131163595Y-77824285D01*
X131163595Y-77824285D02*
X131125500Y-77900475D01*
X131125500Y-77900475D02*
X131087404Y-77938571D01*
X137657404Y-80684285D02*
X137695500Y-80722381D01*
X137695500Y-80722381D02*
X137733595Y-80836666D01*
X137733595Y-80836666D02*
X137733595Y-80912857D01*
X137733595Y-80912857D02*
X137695500Y-81027143D01*
X137695500Y-81027143D02*
X137619309Y-81103333D01*
X137619309Y-81103333D02*
X137543119Y-81141428D01*
X137543119Y-81141428D02*
X137390738Y-81179524D01*
X137390738Y-81179524D02*
X137276452Y-81179524D01*
X137276452Y-81179524D02*
X137124071Y-81141428D01*
X137124071Y-81141428D02*
X137047880Y-81103333D01*
X137047880Y-81103333D02*
X136971690Y-81027143D01*
X136971690Y-81027143D02*
X136933595Y-80912857D01*
X136933595Y-80912857D02*
X136933595Y-80836666D01*
X136933595Y-80836666D02*
X136971690Y-80722381D01*
X136971690Y-80722381D02*
X137009785Y-80684285D01*
X137733595Y-79922381D02*
X137733595Y-80379524D01*
X137733595Y-80150952D02*
X136933595Y-80150952D01*
X136933595Y-80150952D02*
X137047880Y-80227143D01*
X137047880Y-80227143D02*
X137124071Y-80303333D01*
X137124071Y-80303333D02*
X137162166Y-80379524D01*
X137009785Y-79617619D02*
X136971690Y-79579523D01*
X136971690Y-79579523D02*
X136933595Y-79503333D01*
X136933595Y-79503333D02*
X136933595Y-79312857D01*
X136933595Y-79312857D02*
X136971690Y-79236666D01*
X136971690Y-79236666D02*
X137009785Y-79198571D01*
X137009785Y-79198571D02*
X137085976Y-79160476D01*
X137085976Y-79160476D02*
X137162166Y-79160476D01*
X137162166Y-79160476D02*
X137276452Y-79198571D01*
X137276452Y-79198571D02*
X137733595Y-79655714D01*
X137733595Y-79655714D02*
X137733595Y-79160476D01*
X123726667Y-72763595D02*
X123460000Y-72382642D01*
X123269524Y-72763595D02*
X123269524Y-71963595D01*
X123269524Y-71963595D02*
X123574286Y-71963595D01*
X123574286Y-71963595D02*
X123650476Y-72001690D01*
X123650476Y-72001690D02*
X123688571Y-72039785D01*
X123688571Y-72039785D02*
X123726667Y-72115976D01*
X123726667Y-72115976D02*
X123726667Y-72230261D01*
X123726667Y-72230261D02*
X123688571Y-72306452D01*
X123688571Y-72306452D02*
X123650476Y-72344547D01*
X123650476Y-72344547D02*
X123574286Y-72382642D01*
X123574286Y-72382642D02*
X123269524Y-72382642D01*
X124412381Y-71963595D02*
X124260000Y-71963595D01*
X124260000Y-71963595D02*
X124183809Y-72001690D01*
X124183809Y-72001690D02*
X124145714Y-72039785D01*
X124145714Y-72039785D02*
X124069524Y-72154071D01*
X124069524Y-72154071D02*
X124031428Y-72306452D01*
X124031428Y-72306452D02*
X124031428Y-72611214D01*
X124031428Y-72611214D02*
X124069524Y-72687404D01*
X124069524Y-72687404D02*
X124107619Y-72725500D01*
X124107619Y-72725500D02*
X124183809Y-72763595D01*
X124183809Y-72763595D02*
X124336190Y-72763595D01*
X124336190Y-72763595D02*
X124412381Y-72725500D01*
X124412381Y-72725500D02*
X124450476Y-72687404D01*
X124450476Y-72687404D02*
X124488571Y-72611214D01*
X124488571Y-72611214D02*
X124488571Y-72420738D01*
X124488571Y-72420738D02*
X124450476Y-72344547D01*
X124450476Y-72344547D02*
X124412381Y-72306452D01*
X124412381Y-72306452D02*
X124336190Y-72268357D01*
X124336190Y-72268357D02*
X124183809Y-72268357D01*
X124183809Y-72268357D02*
X124107619Y-72306452D01*
X124107619Y-72306452D02*
X124069524Y-72344547D01*
X124069524Y-72344547D02*
X124031428Y-72420738D01*
X135887404Y-58133332D02*
X135925500Y-58171428D01*
X135925500Y-58171428D02*
X135963595Y-58285713D01*
X135963595Y-58285713D02*
X135963595Y-58361904D01*
X135963595Y-58361904D02*
X135925500Y-58476190D01*
X135925500Y-58476190D02*
X135849309Y-58552380D01*
X135849309Y-58552380D02*
X135773119Y-58590475D01*
X135773119Y-58590475D02*
X135620738Y-58628571D01*
X135620738Y-58628571D02*
X135506452Y-58628571D01*
X135506452Y-58628571D02*
X135354071Y-58590475D01*
X135354071Y-58590475D02*
X135277880Y-58552380D01*
X135277880Y-58552380D02*
X135201690Y-58476190D01*
X135201690Y-58476190D02*
X135163595Y-58361904D01*
X135163595Y-58361904D02*
X135163595Y-58285713D01*
X135163595Y-58285713D02*
X135201690Y-58171428D01*
X135201690Y-58171428D02*
X135239785Y-58133332D01*
X135163595Y-57447618D02*
X135163595Y-57599999D01*
X135163595Y-57599999D02*
X135201690Y-57676190D01*
X135201690Y-57676190D02*
X135239785Y-57714285D01*
X135239785Y-57714285D02*
X135354071Y-57790475D01*
X135354071Y-57790475D02*
X135506452Y-57828571D01*
X135506452Y-57828571D02*
X135811214Y-57828571D01*
X135811214Y-57828571D02*
X135887404Y-57790475D01*
X135887404Y-57790475D02*
X135925500Y-57752380D01*
X135925500Y-57752380D02*
X135963595Y-57676190D01*
X135963595Y-57676190D02*
X135963595Y-57523809D01*
X135963595Y-57523809D02*
X135925500Y-57447618D01*
X135925500Y-57447618D02*
X135887404Y-57409523D01*
X135887404Y-57409523D02*
X135811214Y-57371428D01*
X135811214Y-57371428D02*
X135620738Y-57371428D01*
X135620738Y-57371428D02*
X135544547Y-57409523D01*
X135544547Y-57409523D02*
X135506452Y-57447618D01*
X135506452Y-57447618D02*
X135468357Y-57523809D01*
X135468357Y-57523809D02*
X135468357Y-57676190D01*
X135468357Y-57676190D02*
X135506452Y-57752380D01*
X135506452Y-57752380D02*
X135544547Y-57790475D01*
X135544547Y-57790475D02*
X135620738Y-57828571D01*
X123115714Y-73687404D02*
X123077618Y-73725500D01*
X123077618Y-73725500D02*
X122963333Y-73763595D01*
X122963333Y-73763595D02*
X122887142Y-73763595D01*
X122887142Y-73763595D02*
X122772856Y-73725500D01*
X122772856Y-73725500D02*
X122696666Y-73649309D01*
X122696666Y-73649309D02*
X122658571Y-73573119D01*
X122658571Y-73573119D02*
X122620475Y-73420738D01*
X122620475Y-73420738D02*
X122620475Y-73306452D01*
X122620475Y-73306452D02*
X122658571Y-73154071D01*
X122658571Y-73154071D02*
X122696666Y-73077880D01*
X122696666Y-73077880D02*
X122772856Y-73001690D01*
X122772856Y-73001690D02*
X122887142Y-72963595D01*
X122887142Y-72963595D02*
X122963333Y-72963595D01*
X122963333Y-72963595D02*
X123077618Y-73001690D01*
X123077618Y-73001690D02*
X123115714Y-73039785D01*
X123877618Y-73763595D02*
X123420475Y-73763595D01*
X123649047Y-73763595D02*
X123649047Y-72963595D01*
X123649047Y-72963595D02*
X123572856Y-73077880D01*
X123572856Y-73077880D02*
X123496666Y-73154071D01*
X123496666Y-73154071D02*
X123420475Y-73192166D01*
X124144285Y-72963595D02*
X124639523Y-72963595D01*
X124639523Y-72963595D02*
X124372857Y-73268357D01*
X124372857Y-73268357D02*
X124487142Y-73268357D01*
X124487142Y-73268357D02*
X124563333Y-73306452D01*
X124563333Y-73306452D02*
X124601428Y-73344547D01*
X124601428Y-73344547D02*
X124639523Y-73420738D01*
X124639523Y-73420738D02*
X124639523Y-73611214D01*
X124639523Y-73611214D02*
X124601428Y-73687404D01*
X124601428Y-73687404D02*
X124563333Y-73725500D01*
X124563333Y-73725500D02*
X124487142Y-73763595D01*
X124487142Y-73763595D02*
X124258571Y-73763595D01*
X124258571Y-73763595D02*
X124182380Y-73725500D01*
X124182380Y-73725500D02*
X124144285Y-73687404D01*
X142735714Y-66487404D02*
X142697618Y-66525500D01*
X142697618Y-66525500D02*
X142583333Y-66563595D01*
X142583333Y-66563595D02*
X142507142Y-66563595D01*
X142507142Y-66563595D02*
X142392856Y-66525500D01*
X142392856Y-66525500D02*
X142316666Y-66449309D01*
X142316666Y-66449309D02*
X142278571Y-66373119D01*
X142278571Y-66373119D02*
X142240475Y-66220738D01*
X142240475Y-66220738D02*
X142240475Y-66106452D01*
X142240475Y-66106452D02*
X142278571Y-65954071D01*
X142278571Y-65954071D02*
X142316666Y-65877880D01*
X142316666Y-65877880D02*
X142392856Y-65801690D01*
X142392856Y-65801690D02*
X142507142Y-65763595D01*
X142507142Y-65763595D02*
X142583333Y-65763595D01*
X142583333Y-65763595D02*
X142697618Y-65801690D01*
X142697618Y-65801690D02*
X142735714Y-65839785D01*
X143497618Y-66563595D02*
X143040475Y-66563595D01*
X143269047Y-66563595D02*
X143269047Y-65763595D01*
X143269047Y-65763595D02*
X143192856Y-65877880D01*
X143192856Y-65877880D02*
X143116666Y-65954071D01*
X143116666Y-65954071D02*
X143040475Y-65992166D01*
X144183333Y-66030261D02*
X144183333Y-66563595D01*
X143992857Y-65725500D02*
X143802380Y-66296928D01*
X143802380Y-66296928D02*
X144297619Y-66296928D01*
X139487404Y-62933332D02*
X139525500Y-62971428D01*
X139525500Y-62971428D02*
X139563595Y-63085713D01*
X139563595Y-63085713D02*
X139563595Y-63161904D01*
X139563595Y-63161904D02*
X139525500Y-63276190D01*
X139525500Y-63276190D02*
X139449309Y-63352380D01*
X139449309Y-63352380D02*
X139373119Y-63390475D01*
X139373119Y-63390475D02*
X139220738Y-63428571D01*
X139220738Y-63428571D02*
X139106452Y-63428571D01*
X139106452Y-63428571D02*
X138954071Y-63390475D01*
X138954071Y-63390475D02*
X138877880Y-63352380D01*
X138877880Y-63352380D02*
X138801690Y-63276190D01*
X138801690Y-63276190D02*
X138763595Y-63161904D01*
X138763595Y-63161904D02*
X138763595Y-63085713D01*
X138763595Y-63085713D02*
X138801690Y-62971428D01*
X138801690Y-62971428D02*
X138839785Y-62933332D01*
X139106452Y-62476190D02*
X139068357Y-62552380D01*
X139068357Y-62552380D02*
X139030261Y-62590475D01*
X139030261Y-62590475D02*
X138954071Y-62628571D01*
X138954071Y-62628571D02*
X138915976Y-62628571D01*
X138915976Y-62628571D02*
X138839785Y-62590475D01*
X138839785Y-62590475D02*
X138801690Y-62552380D01*
X138801690Y-62552380D02*
X138763595Y-62476190D01*
X138763595Y-62476190D02*
X138763595Y-62323809D01*
X138763595Y-62323809D02*
X138801690Y-62247618D01*
X138801690Y-62247618D02*
X138839785Y-62209523D01*
X138839785Y-62209523D02*
X138915976Y-62171428D01*
X138915976Y-62171428D02*
X138954071Y-62171428D01*
X138954071Y-62171428D02*
X139030261Y-62209523D01*
X139030261Y-62209523D02*
X139068357Y-62247618D01*
X139068357Y-62247618D02*
X139106452Y-62323809D01*
X139106452Y-62323809D02*
X139106452Y-62476190D01*
X139106452Y-62476190D02*
X139144547Y-62552380D01*
X139144547Y-62552380D02*
X139182642Y-62590475D01*
X139182642Y-62590475D02*
X139258833Y-62628571D01*
X139258833Y-62628571D02*
X139411214Y-62628571D01*
X139411214Y-62628571D02*
X139487404Y-62590475D01*
X139487404Y-62590475D02*
X139525500Y-62552380D01*
X139525500Y-62552380D02*
X139563595Y-62476190D01*
X139563595Y-62476190D02*
X139563595Y-62323809D01*
X139563595Y-62323809D02*
X139525500Y-62247618D01*
X139525500Y-62247618D02*
X139487404Y-62209523D01*
X139487404Y-62209523D02*
X139411214Y-62171428D01*
X139411214Y-62171428D02*
X139258833Y-62171428D01*
X139258833Y-62171428D02*
X139182642Y-62209523D01*
X139182642Y-62209523D02*
X139144547Y-62247618D01*
X139144547Y-62247618D02*
X139106452Y-62323809D01*
X125990476Y-62963595D02*
X125990476Y-63611214D01*
X125990476Y-63611214D02*
X126028571Y-63687404D01*
X126028571Y-63687404D02*
X126066666Y-63725500D01*
X126066666Y-63725500D02*
X126142857Y-63763595D01*
X126142857Y-63763595D02*
X126295238Y-63763595D01*
X126295238Y-63763595D02*
X126371428Y-63725500D01*
X126371428Y-63725500D02*
X126409523Y-63687404D01*
X126409523Y-63687404D02*
X126447619Y-63611214D01*
X126447619Y-63611214D02*
X126447619Y-62963595D01*
X126790475Y-63039785D02*
X126828571Y-63001690D01*
X126828571Y-63001690D02*
X126904761Y-62963595D01*
X126904761Y-62963595D02*
X127095237Y-62963595D01*
X127095237Y-62963595D02*
X127171428Y-63001690D01*
X127171428Y-63001690D02*
X127209523Y-63039785D01*
X127209523Y-63039785D02*
X127247618Y-63115976D01*
X127247618Y-63115976D02*
X127247618Y-63192166D01*
X127247618Y-63192166D02*
X127209523Y-63306452D01*
X127209523Y-63306452D02*
X126752380Y-63763595D01*
X126752380Y-63763595D02*
X127247618Y-63763595D01*
X118933595Y-74905832D02*
X118552642Y-75172499D01*
X118933595Y-75362975D02*
X118133595Y-75362975D01*
X118133595Y-75362975D02*
X118133595Y-75058213D01*
X118133595Y-75058213D02*
X118171690Y-74982023D01*
X118171690Y-74982023D02*
X118209785Y-74943928D01*
X118209785Y-74943928D02*
X118285976Y-74905832D01*
X118285976Y-74905832D02*
X118400261Y-74905832D01*
X118400261Y-74905832D02*
X118476452Y-74943928D01*
X118476452Y-74943928D02*
X118514547Y-74982023D01*
X118514547Y-74982023D02*
X118552642Y-75058213D01*
X118552642Y-75058213D02*
X118552642Y-75362975D01*
X118133595Y-74639166D02*
X118133595Y-74105832D01*
X118133595Y-74105832D02*
X118933595Y-74448690D01*
X108866667Y-68887404D02*
X108828571Y-68925500D01*
X108828571Y-68925500D02*
X108714286Y-68963595D01*
X108714286Y-68963595D02*
X108638095Y-68963595D01*
X108638095Y-68963595D02*
X108523809Y-68925500D01*
X108523809Y-68925500D02*
X108447619Y-68849309D01*
X108447619Y-68849309D02*
X108409524Y-68773119D01*
X108409524Y-68773119D02*
X108371428Y-68620738D01*
X108371428Y-68620738D02*
X108371428Y-68506452D01*
X108371428Y-68506452D02*
X108409524Y-68354071D01*
X108409524Y-68354071D02*
X108447619Y-68277880D01*
X108447619Y-68277880D02*
X108523809Y-68201690D01*
X108523809Y-68201690D02*
X108638095Y-68163595D01*
X108638095Y-68163595D02*
X108714286Y-68163595D01*
X108714286Y-68163595D02*
X108828571Y-68201690D01*
X108828571Y-68201690D02*
X108866667Y-68239785D01*
X109628571Y-68963595D02*
X109171428Y-68963595D01*
X109400000Y-68963595D02*
X109400000Y-68163595D01*
X109400000Y-68163595D02*
X109323809Y-68277880D01*
X109323809Y-68277880D02*
X109247619Y-68354071D01*
X109247619Y-68354071D02*
X109171428Y-68392166D01*
X99533595Y-70186666D02*
X100105023Y-70186666D01*
X100105023Y-70186666D02*
X100219309Y-70224761D01*
X100219309Y-70224761D02*
X100295500Y-70300952D01*
X100295500Y-70300952D02*
X100333595Y-70415237D01*
X100333595Y-70415237D02*
X100333595Y-70491428D01*
X99609785Y-69843809D02*
X99571690Y-69805713D01*
X99571690Y-69805713D02*
X99533595Y-69729523D01*
X99533595Y-69729523D02*
X99533595Y-69539047D01*
X99533595Y-69539047D02*
X99571690Y-69462856D01*
X99571690Y-69462856D02*
X99609785Y-69424761D01*
X99609785Y-69424761D02*
X99685976Y-69386666D01*
X99685976Y-69386666D02*
X99762166Y-69386666D01*
X99762166Y-69386666D02*
X99876452Y-69424761D01*
X99876452Y-69424761D02*
X100333595Y-69881904D01*
X100333595Y-69881904D02*
X100333595Y-69386666D01*
X140008333Y-83563595D02*
X140008333Y-84135023D01*
X140008333Y-84135023D02*
X139970238Y-84249309D01*
X139970238Y-84249309D02*
X139894047Y-84325500D01*
X139894047Y-84325500D02*
X139779762Y-84363595D01*
X139779762Y-84363595D02*
X139703571Y-84363595D01*
X140313095Y-83563595D02*
X140808333Y-83563595D01*
X140808333Y-83563595D02*
X140541667Y-83868357D01*
X140541667Y-83868357D02*
X140655952Y-83868357D01*
X140655952Y-83868357D02*
X140732143Y-83906452D01*
X140732143Y-83906452D02*
X140770238Y-83944547D01*
X140770238Y-83944547D02*
X140808333Y-84020738D01*
X140808333Y-84020738D02*
X140808333Y-84211214D01*
X140808333Y-84211214D02*
X140770238Y-84287404D01*
X140770238Y-84287404D02*
X140732143Y-84325500D01*
X140732143Y-84325500D02*
X140655952Y-84363595D01*
X140655952Y-84363595D02*
X140427381Y-84363595D01*
X140427381Y-84363595D02*
X140351190Y-84325500D01*
X140351190Y-84325500D02*
X140313095Y-84287404D01*
X98173274Y-84378595D02*
X98173274Y-83578595D01*
X98173274Y-83578595D02*
X98363750Y-83578595D01*
X98363750Y-83578595D02*
X98478036Y-83616690D01*
X98478036Y-83616690D02*
X98554226Y-83692880D01*
X98554226Y-83692880D02*
X98592321Y-83769071D01*
X98592321Y-83769071D02*
X98630417Y-83921452D01*
X98630417Y-83921452D02*
X98630417Y-84035738D01*
X98630417Y-84035738D02*
X98592321Y-84188119D01*
X98592321Y-84188119D02*
X98554226Y-84264309D01*
X98554226Y-84264309D02*
X98478036Y-84340500D01*
X98478036Y-84340500D02*
X98363750Y-84378595D01*
X98363750Y-84378595D02*
X98173274Y-84378595D01*
X98935178Y-83654785D02*
X98973274Y-83616690D01*
X98973274Y-83616690D02*
X99049464Y-83578595D01*
X99049464Y-83578595D02*
X99239940Y-83578595D01*
X99239940Y-83578595D02*
X99316131Y-83616690D01*
X99316131Y-83616690D02*
X99354226Y-83654785D01*
X99354226Y-83654785D02*
X99392321Y-83730976D01*
X99392321Y-83730976D02*
X99392321Y-83807166D01*
X99392321Y-83807166D02*
X99354226Y-83921452D01*
X99354226Y-83921452D02*
X98897083Y-84378595D01*
X98897083Y-84378595D02*
X99392321Y-84378595D01*
X142666667Y-68563595D02*
X142400000Y-68182642D01*
X142209524Y-68563595D02*
X142209524Y-67763595D01*
X142209524Y-67763595D02*
X142514286Y-67763595D01*
X142514286Y-67763595D02*
X142590476Y-67801690D01*
X142590476Y-67801690D02*
X142628571Y-67839785D01*
X142628571Y-67839785D02*
X142666667Y-67915976D01*
X142666667Y-67915976D02*
X142666667Y-68030261D01*
X142666667Y-68030261D02*
X142628571Y-68106452D01*
X142628571Y-68106452D02*
X142590476Y-68144547D01*
X142590476Y-68144547D02*
X142514286Y-68182642D01*
X142514286Y-68182642D02*
X142209524Y-68182642D01*
X142971428Y-67839785D02*
X143009524Y-67801690D01*
X143009524Y-67801690D02*
X143085714Y-67763595D01*
X143085714Y-67763595D02*
X143276190Y-67763595D01*
X143276190Y-67763595D02*
X143352381Y-67801690D01*
X143352381Y-67801690D02*
X143390476Y-67839785D01*
X143390476Y-67839785D02*
X143428571Y-67915976D01*
X143428571Y-67915976D02*
X143428571Y-67992166D01*
X143428571Y-67992166D02*
X143390476Y-68106452D01*
X143390476Y-68106452D02*
X142933333Y-68563595D01*
X142933333Y-68563595D02*
X143428571Y-68563595D01*
X93370774Y-84393595D02*
X93370774Y-83593595D01*
X93370774Y-83593595D02*
X93561250Y-83593595D01*
X93561250Y-83593595D02*
X93675536Y-83631690D01*
X93675536Y-83631690D02*
X93751726Y-83707880D01*
X93751726Y-83707880D02*
X93789821Y-83784071D01*
X93789821Y-83784071D02*
X93827917Y-83936452D01*
X93827917Y-83936452D02*
X93827917Y-84050738D01*
X93827917Y-84050738D02*
X93789821Y-84203119D01*
X93789821Y-84203119D02*
X93751726Y-84279309D01*
X93751726Y-84279309D02*
X93675536Y-84355500D01*
X93675536Y-84355500D02*
X93561250Y-84393595D01*
X93561250Y-84393595D02*
X93370774Y-84393595D01*
X94589821Y-84393595D02*
X94132678Y-84393595D01*
X94361250Y-84393595D02*
X94361250Y-83593595D01*
X94361250Y-83593595D02*
X94285059Y-83707880D01*
X94285059Y-83707880D02*
X94208869Y-83784071D01*
X94208869Y-83784071D02*
X94132678Y-83822166D01*
X123115714Y-74687404D02*
X123077618Y-74725500D01*
X123077618Y-74725500D02*
X122963333Y-74763595D01*
X122963333Y-74763595D02*
X122887142Y-74763595D01*
X122887142Y-74763595D02*
X122772856Y-74725500D01*
X122772856Y-74725500D02*
X122696666Y-74649309D01*
X122696666Y-74649309D02*
X122658571Y-74573119D01*
X122658571Y-74573119D02*
X122620475Y-74420738D01*
X122620475Y-74420738D02*
X122620475Y-74306452D01*
X122620475Y-74306452D02*
X122658571Y-74154071D01*
X122658571Y-74154071D02*
X122696666Y-74077880D01*
X122696666Y-74077880D02*
X122772856Y-74001690D01*
X122772856Y-74001690D02*
X122887142Y-73963595D01*
X122887142Y-73963595D02*
X122963333Y-73963595D01*
X122963333Y-73963595D02*
X123077618Y-74001690D01*
X123077618Y-74001690D02*
X123115714Y-74039785D01*
X123877618Y-74763595D02*
X123420475Y-74763595D01*
X123649047Y-74763595D02*
X123649047Y-73963595D01*
X123649047Y-73963595D02*
X123572856Y-74077880D01*
X123572856Y-74077880D02*
X123496666Y-74154071D01*
X123496666Y-74154071D02*
X123420475Y-74192166D01*
X124639523Y-74763595D02*
X124182380Y-74763595D01*
X124410952Y-74763595D02*
X124410952Y-73963595D01*
X124410952Y-73963595D02*
X124334761Y-74077880D01*
X124334761Y-74077880D02*
X124258571Y-74154071D01*
X124258571Y-74154071D02*
X124182380Y-74192166D01*
X114790476Y-58063595D02*
X114790476Y-58711214D01*
X114790476Y-58711214D02*
X114828571Y-58787404D01*
X114828571Y-58787404D02*
X114866666Y-58825500D01*
X114866666Y-58825500D02*
X114942857Y-58863595D01*
X114942857Y-58863595D02*
X115095238Y-58863595D01*
X115095238Y-58863595D02*
X115171428Y-58825500D01*
X115171428Y-58825500D02*
X115209523Y-58787404D01*
X115209523Y-58787404D02*
X115247619Y-58711214D01*
X115247619Y-58711214D02*
X115247619Y-58063595D01*
X116047618Y-58863595D02*
X115590475Y-58863595D01*
X115819047Y-58863595D02*
X115819047Y-58063595D01*
X115819047Y-58063595D02*
X115742856Y-58177880D01*
X115742856Y-58177880D02*
X115666666Y-58254071D01*
X115666666Y-58254071D02*
X115590475Y-58292166D01*
X120636667Y-62322404D02*
X120598571Y-62360500D01*
X120598571Y-62360500D02*
X120484286Y-62398595D01*
X120484286Y-62398595D02*
X120408095Y-62398595D01*
X120408095Y-62398595D02*
X120293809Y-62360500D01*
X120293809Y-62360500D02*
X120217619Y-62284309D01*
X120217619Y-62284309D02*
X120179524Y-62208119D01*
X120179524Y-62208119D02*
X120141428Y-62055738D01*
X120141428Y-62055738D02*
X120141428Y-61941452D01*
X120141428Y-61941452D02*
X120179524Y-61789071D01*
X120179524Y-61789071D02*
X120217619Y-61712880D01*
X120217619Y-61712880D02*
X120293809Y-61636690D01*
X120293809Y-61636690D02*
X120408095Y-61598595D01*
X120408095Y-61598595D02*
X120484286Y-61598595D01*
X120484286Y-61598595D02*
X120598571Y-61636690D01*
X120598571Y-61636690D02*
X120636667Y-61674785D01*
X121322381Y-61865261D02*
X121322381Y-62398595D01*
X121131905Y-61560500D02*
X120941428Y-62131928D01*
X120941428Y-62131928D02*
X121436667Y-62131928D01*
X150133333Y-54363595D02*
X150133333Y-54935023D01*
X150133333Y-54935023D02*
X150095238Y-55049309D01*
X150095238Y-55049309D02*
X150019047Y-55125500D01*
X150019047Y-55125500D02*
X149904762Y-55163595D01*
X149904762Y-55163595D02*
X149828571Y-55163595D01*
X150438095Y-54363595D02*
X150971429Y-54363595D01*
X150971429Y-54363595D02*
X150628571Y-55163595D01*
X114563595Y-74905832D02*
X114182642Y-75172499D01*
X114563595Y-75362975D02*
X113763595Y-75362975D01*
X113763595Y-75362975D02*
X113763595Y-75058213D01*
X113763595Y-75058213D02*
X113801690Y-74982023D01*
X113801690Y-74982023D02*
X113839785Y-74943928D01*
X113839785Y-74943928D02*
X113915976Y-74905832D01*
X113915976Y-74905832D02*
X114030261Y-74905832D01*
X114030261Y-74905832D02*
X114106452Y-74943928D01*
X114106452Y-74943928D02*
X114144547Y-74982023D01*
X114144547Y-74982023D02*
X114182642Y-75058213D01*
X114182642Y-75058213D02*
X114182642Y-75362975D01*
X114106452Y-74448690D02*
X114068357Y-74524880D01*
X114068357Y-74524880D02*
X114030261Y-74562975D01*
X114030261Y-74562975D02*
X113954071Y-74601071D01*
X113954071Y-74601071D02*
X113915976Y-74601071D01*
X113915976Y-74601071D02*
X113839785Y-74562975D01*
X113839785Y-74562975D02*
X113801690Y-74524880D01*
X113801690Y-74524880D02*
X113763595Y-74448690D01*
X113763595Y-74448690D02*
X113763595Y-74296309D01*
X113763595Y-74296309D02*
X113801690Y-74220118D01*
X113801690Y-74220118D02*
X113839785Y-74182023D01*
X113839785Y-74182023D02*
X113915976Y-74143928D01*
X113915976Y-74143928D02*
X113954071Y-74143928D01*
X113954071Y-74143928D02*
X114030261Y-74182023D01*
X114030261Y-74182023D02*
X114068357Y-74220118D01*
X114068357Y-74220118D02*
X114106452Y-74296309D01*
X114106452Y-74296309D02*
X114106452Y-74448690D01*
X114106452Y-74448690D02*
X114144547Y-74524880D01*
X114144547Y-74524880D02*
X114182642Y-74562975D01*
X114182642Y-74562975D02*
X114258833Y-74601071D01*
X114258833Y-74601071D02*
X114411214Y-74601071D01*
X114411214Y-74601071D02*
X114487404Y-74562975D01*
X114487404Y-74562975D02*
X114525500Y-74524880D01*
X114525500Y-74524880D02*
X114563595Y-74448690D01*
X114563595Y-74448690D02*
X114563595Y-74296309D01*
X114563595Y-74296309D02*
X114525500Y-74220118D01*
X114525500Y-74220118D02*
X114487404Y-74182023D01*
X114487404Y-74182023D02*
X114411214Y-74143928D01*
X114411214Y-74143928D02*
X114258833Y-74143928D01*
X114258833Y-74143928D02*
X114182642Y-74182023D01*
X114182642Y-74182023D02*
X114144547Y-74220118D01*
X114144547Y-74220118D02*
X114106452Y-74296309D01*
X99533595Y-61596666D02*
X100105023Y-61596666D01*
X100105023Y-61596666D02*
X100219309Y-61634761D01*
X100219309Y-61634761D02*
X100295500Y-61710952D01*
X100295500Y-61710952D02*
X100333595Y-61825237D01*
X100333595Y-61825237D02*
X100333595Y-61901428D01*
X100333595Y-60796666D02*
X100333595Y-61253809D01*
X100333595Y-61025237D02*
X99533595Y-61025237D01*
X99533595Y-61025237D02*
X99647880Y-61101428D01*
X99647880Y-61101428D02*
X99724071Y-61177618D01*
X99724071Y-61177618D02*
X99762166Y-61253809D01*
X137619048Y-59782642D02*
X137619048Y-60163595D01*
X137352381Y-59363595D02*
X137619048Y-59782642D01*
X137619048Y-59782642D02*
X137885714Y-59363595D01*
X138571428Y-60163595D02*
X138114285Y-60163595D01*
X138342857Y-60163595D02*
X138342857Y-59363595D01*
X138342857Y-59363595D02*
X138266666Y-59477880D01*
X138266666Y-59477880D02*
X138190476Y-59554071D01*
X138190476Y-59554071D02*
X138114285Y-59592166D01*
X151933333Y-59903595D02*
X151933333Y-60475023D01*
X151933333Y-60475023D02*
X151895238Y-60589309D01*
X151895238Y-60589309D02*
X151819047Y-60665500D01*
X151819047Y-60665500D02*
X151704762Y-60703595D01*
X151704762Y-60703595D02*
X151628571Y-60703595D01*
X152428571Y-60246452D02*
X152352381Y-60208357D01*
X152352381Y-60208357D02*
X152314286Y-60170261D01*
X152314286Y-60170261D02*
X152276190Y-60094071D01*
X152276190Y-60094071D02*
X152276190Y-60055976D01*
X152276190Y-60055976D02*
X152314286Y-59979785D01*
X152314286Y-59979785D02*
X152352381Y-59941690D01*
X152352381Y-59941690D02*
X152428571Y-59903595D01*
X152428571Y-59903595D02*
X152580952Y-59903595D01*
X152580952Y-59903595D02*
X152657143Y-59941690D01*
X152657143Y-59941690D02*
X152695238Y-59979785D01*
X152695238Y-59979785D02*
X152733333Y-60055976D01*
X152733333Y-60055976D02*
X152733333Y-60094071D01*
X152733333Y-60094071D02*
X152695238Y-60170261D01*
X152695238Y-60170261D02*
X152657143Y-60208357D01*
X152657143Y-60208357D02*
X152580952Y-60246452D01*
X152580952Y-60246452D02*
X152428571Y-60246452D01*
X152428571Y-60246452D02*
X152352381Y-60284547D01*
X152352381Y-60284547D02*
X152314286Y-60322642D01*
X152314286Y-60322642D02*
X152276190Y-60398833D01*
X152276190Y-60398833D02*
X152276190Y-60551214D01*
X152276190Y-60551214D02*
X152314286Y-60627404D01*
X152314286Y-60627404D02*
X152352381Y-60665500D01*
X152352381Y-60665500D02*
X152428571Y-60703595D01*
X152428571Y-60703595D02*
X152580952Y-60703595D01*
X152580952Y-60703595D02*
X152657143Y-60665500D01*
X152657143Y-60665500D02*
X152695238Y-60627404D01*
X152695238Y-60627404D02*
X152733333Y-60551214D01*
X152733333Y-60551214D02*
X152733333Y-60398833D01*
X152733333Y-60398833D02*
X152695238Y-60322642D01*
X152695238Y-60322642D02*
X152657143Y-60284547D01*
X152657143Y-60284547D02*
X152580952Y-60246452D01*
X105131964Y-84393595D02*
X104865297Y-84012642D01*
X104674821Y-84393595D02*
X104674821Y-83593595D01*
X104674821Y-83593595D02*
X104979583Y-83593595D01*
X104979583Y-83593595D02*
X105055773Y-83631690D01*
X105055773Y-83631690D02*
X105093868Y-83669785D01*
X105093868Y-83669785D02*
X105131964Y-83745976D01*
X105131964Y-83745976D02*
X105131964Y-83860261D01*
X105131964Y-83860261D02*
X105093868Y-83936452D01*
X105093868Y-83936452D02*
X105055773Y-83974547D01*
X105055773Y-83974547D02*
X104979583Y-84012642D01*
X104979583Y-84012642D02*
X104674821Y-84012642D01*
X105893868Y-84393595D02*
X105436725Y-84393595D01*
X105665297Y-84393595D02*
X105665297Y-83593595D01*
X105665297Y-83593595D02*
X105589106Y-83707880D01*
X105589106Y-83707880D02*
X105512916Y-83784071D01*
X105512916Y-83784071D02*
X105436725Y-83822166D01*
X106655773Y-84393595D02*
X106198630Y-84393595D01*
X106427202Y-84393595D02*
X106427202Y-83593595D01*
X106427202Y-83593595D02*
X106351011Y-83707880D01*
X106351011Y-83707880D02*
X106274821Y-83784071D01*
X106274821Y-83784071D02*
X106198630Y-83822166D01*
X153133333Y-83453595D02*
X153133333Y-84025023D01*
X153133333Y-84025023D02*
X153095238Y-84139309D01*
X153095238Y-84139309D02*
X153019047Y-84215500D01*
X153019047Y-84215500D02*
X152904762Y-84253595D01*
X152904762Y-84253595D02*
X152828571Y-84253595D01*
X153857143Y-83720261D02*
X153857143Y-84253595D01*
X153666667Y-83415500D02*
X153476190Y-83986928D01*
X153476190Y-83986928D02*
X153971429Y-83986928D01*
X111193595Y-84929166D02*
X111765023Y-84929166D01*
X111765023Y-84929166D02*
X111879309Y-84967261D01*
X111879309Y-84967261D02*
X111955500Y-85043452D01*
X111955500Y-85043452D02*
X111993595Y-85157737D01*
X111993595Y-85157737D02*
X111993595Y-85233928D01*
X111993595Y-84510118D02*
X111993595Y-84357737D01*
X111993595Y-84357737D02*
X111955500Y-84281547D01*
X111955500Y-84281547D02*
X111917404Y-84243451D01*
X111917404Y-84243451D02*
X111803119Y-84167261D01*
X111803119Y-84167261D02*
X111650738Y-84129166D01*
X111650738Y-84129166D02*
X111345976Y-84129166D01*
X111345976Y-84129166D02*
X111269785Y-84167261D01*
X111269785Y-84167261D02*
X111231690Y-84205356D01*
X111231690Y-84205356D02*
X111193595Y-84281547D01*
X111193595Y-84281547D02*
X111193595Y-84433928D01*
X111193595Y-84433928D02*
X111231690Y-84510118D01*
X111231690Y-84510118D02*
X111269785Y-84548213D01*
X111269785Y-84548213D02*
X111345976Y-84586309D01*
X111345976Y-84586309D02*
X111536452Y-84586309D01*
X111536452Y-84586309D02*
X111612642Y-84548213D01*
X111612642Y-84548213D02*
X111650738Y-84510118D01*
X111650738Y-84510118D02*
X111688833Y-84433928D01*
X111688833Y-84433928D02*
X111688833Y-84281547D01*
X111688833Y-84281547D02*
X111650738Y-84205356D01*
X111650738Y-84205356D02*
X111612642Y-84167261D01*
X111612642Y-84167261D02*
X111536452Y-84129166D01*
X95910417Y-84408595D02*
X95643750Y-84027642D01*
X95453274Y-84408595D02*
X95453274Y-83608595D01*
X95453274Y-83608595D02*
X95758036Y-83608595D01*
X95758036Y-83608595D02*
X95834226Y-83646690D01*
X95834226Y-83646690D02*
X95872321Y-83684785D01*
X95872321Y-83684785D02*
X95910417Y-83760976D01*
X95910417Y-83760976D02*
X95910417Y-83875261D01*
X95910417Y-83875261D02*
X95872321Y-83951452D01*
X95872321Y-83951452D02*
X95834226Y-83989547D01*
X95834226Y-83989547D02*
X95758036Y-84027642D01*
X95758036Y-84027642D02*
X95453274Y-84027642D01*
X96291369Y-84408595D02*
X96443750Y-84408595D01*
X96443750Y-84408595D02*
X96519940Y-84370500D01*
X96519940Y-84370500D02*
X96558036Y-84332404D01*
X96558036Y-84332404D02*
X96634226Y-84218119D01*
X96634226Y-84218119D02*
X96672321Y-84065738D01*
X96672321Y-84065738D02*
X96672321Y-83760976D01*
X96672321Y-83760976D02*
X96634226Y-83684785D01*
X96634226Y-83684785D02*
X96596131Y-83646690D01*
X96596131Y-83646690D02*
X96519940Y-83608595D01*
X96519940Y-83608595D02*
X96367559Y-83608595D01*
X96367559Y-83608595D02*
X96291369Y-83646690D01*
X96291369Y-83646690D02*
X96253274Y-83684785D01*
X96253274Y-83684785D02*
X96215178Y-83760976D01*
X96215178Y-83760976D02*
X96215178Y-83951452D01*
X96215178Y-83951452D02*
X96253274Y-84027642D01*
X96253274Y-84027642D02*
X96291369Y-84065738D01*
X96291369Y-84065738D02*
X96367559Y-84103833D01*
X96367559Y-84103833D02*
X96519940Y-84103833D01*
X96519940Y-84103833D02*
X96596131Y-84065738D01*
X96596131Y-84065738D02*
X96634226Y-84027642D01*
X96634226Y-84027642D02*
X96672321Y-83951452D01*
X131287404Y-61083332D02*
X131325500Y-61121428D01*
X131325500Y-61121428D02*
X131363595Y-61235713D01*
X131363595Y-61235713D02*
X131363595Y-61311904D01*
X131363595Y-61311904D02*
X131325500Y-61426190D01*
X131325500Y-61426190D02*
X131249309Y-61502380D01*
X131249309Y-61502380D02*
X131173119Y-61540475D01*
X131173119Y-61540475D02*
X131020738Y-61578571D01*
X131020738Y-61578571D02*
X130906452Y-61578571D01*
X130906452Y-61578571D02*
X130754071Y-61540475D01*
X130754071Y-61540475D02*
X130677880Y-61502380D01*
X130677880Y-61502380D02*
X130601690Y-61426190D01*
X130601690Y-61426190D02*
X130563595Y-61311904D01*
X130563595Y-61311904D02*
X130563595Y-61235713D01*
X130563595Y-61235713D02*
X130601690Y-61121428D01*
X130601690Y-61121428D02*
X130639785Y-61083332D01*
X131363595Y-60702380D02*
X131363595Y-60549999D01*
X131363595Y-60549999D02*
X131325500Y-60473809D01*
X131325500Y-60473809D02*
X131287404Y-60435713D01*
X131287404Y-60435713D02*
X131173119Y-60359523D01*
X131173119Y-60359523D02*
X131020738Y-60321428D01*
X131020738Y-60321428D02*
X130715976Y-60321428D01*
X130715976Y-60321428D02*
X130639785Y-60359523D01*
X130639785Y-60359523D02*
X130601690Y-60397618D01*
X130601690Y-60397618D02*
X130563595Y-60473809D01*
X130563595Y-60473809D02*
X130563595Y-60626190D01*
X130563595Y-60626190D02*
X130601690Y-60702380D01*
X130601690Y-60702380D02*
X130639785Y-60740475D01*
X130639785Y-60740475D02*
X130715976Y-60778571D01*
X130715976Y-60778571D02*
X130906452Y-60778571D01*
X130906452Y-60778571D02*
X130982642Y-60740475D01*
X130982642Y-60740475D02*
X131020738Y-60702380D01*
X131020738Y-60702380D02*
X131058833Y-60626190D01*
X131058833Y-60626190D02*
X131058833Y-60473809D01*
X131058833Y-60473809D02*
X131020738Y-60397618D01*
X131020738Y-60397618D02*
X130982642Y-60359523D01*
X130982642Y-60359523D02*
X130906452Y-60321428D01*
X134887404Y-58133332D02*
X134925500Y-58171428D01*
X134925500Y-58171428D02*
X134963595Y-58285713D01*
X134963595Y-58285713D02*
X134963595Y-58361904D01*
X134963595Y-58361904D02*
X134925500Y-58476190D01*
X134925500Y-58476190D02*
X134849309Y-58552380D01*
X134849309Y-58552380D02*
X134773119Y-58590475D01*
X134773119Y-58590475D02*
X134620738Y-58628571D01*
X134620738Y-58628571D02*
X134506452Y-58628571D01*
X134506452Y-58628571D02*
X134354071Y-58590475D01*
X134354071Y-58590475D02*
X134277880Y-58552380D01*
X134277880Y-58552380D02*
X134201690Y-58476190D01*
X134201690Y-58476190D02*
X134163595Y-58361904D01*
X134163595Y-58361904D02*
X134163595Y-58285713D01*
X134163595Y-58285713D02*
X134201690Y-58171428D01*
X134201690Y-58171428D02*
X134239785Y-58133332D01*
X134163595Y-57866666D02*
X134163595Y-57333332D01*
X134163595Y-57333332D02*
X134963595Y-57676190D01*
X109525500Y-54316667D02*
X109563595Y-54202381D01*
X109563595Y-54202381D02*
X109563595Y-54011905D01*
X109563595Y-54011905D02*
X109525500Y-53935714D01*
X109525500Y-53935714D02*
X109487404Y-53897619D01*
X109487404Y-53897619D02*
X109411214Y-53859524D01*
X109411214Y-53859524D02*
X109335023Y-53859524D01*
X109335023Y-53859524D02*
X109258833Y-53897619D01*
X109258833Y-53897619D02*
X109220738Y-53935714D01*
X109220738Y-53935714D02*
X109182642Y-54011905D01*
X109182642Y-54011905D02*
X109144547Y-54164286D01*
X109144547Y-54164286D02*
X109106452Y-54240476D01*
X109106452Y-54240476D02*
X109068357Y-54278571D01*
X109068357Y-54278571D02*
X108992166Y-54316667D01*
X108992166Y-54316667D02*
X108915976Y-54316667D01*
X108915976Y-54316667D02*
X108839785Y-54278571D01*
X108839785Y-54278571D02*
X108801690Y-54240476D01*
X108801690Y-54240476D02*
X108763595Y-54164286D01*
X108763595Y-54164286D02*
X108763595Y-53973809D01*
X108763595Y-53973809D02*
X108801690Y-53859524D01*
X108763595Y-53592857D02*
X109563595Y-53402381D01*
X109563595Y-53402381D02*
X108992166Y-53250000D01*
X108992166Y-53250000D02*
X109563595Y-53097619D01*
X109563595Y-53097619D02*
X108763595Y-52907143D01*
X109563595Y-52183333D02*
X109563595Y-52640476D01*
X109563595Y-52411904D02*
X108763595Y-52411904D01*
X108763595Y-52411904D02*
X108877880Y-52488095D01*
X108877880Y-52488095D02*
X108954071Y-52564285D01*
X108954071Y-52564285D02*
X108992166Y-52640476D01*
X152133333Y-51163595D02*
X152133333Y-51735023D01*
X152133333Y-51735023D02*
X152095238Y-51849309D01*
X152095238Y-51849309D02*
X152019047Y-51925500D01*
X152019047Y-51925500D02*
X151904762Y-51963595D01*
X151904762Y-51963595D02*
X151828571Y-51963595D01*
X152895238Y-51163595D02*
X152514286Y-51163595D01*
X152514286Y-51163595D02*
X152476190Y-51544547D01*
X152476190Y-51544547D02*
X152514286Y-51506452D01*
X152514286Y-51506452D02*
X152590476Y-51468357D01*
X152590476Y-51468357D02*
X152780952Y-51468357D01*
X152780952Y-51468357D02*
X152857143Y-51506452D01*
X152857143Y-51506452D02*
X152895238Y-51544547D01*
X152895238Y-51544547D02*
X152933333Y-51620738D01*
X152933333Y-51620738D02*
X152933333Y-51811214D01*
X152933333Y-51811214D02*
X152895238Y-51887404D01*
X152895238Y-51887404D02*
X152857143Y-51925500D01*
X152857143Y-51925500D02*
X152780952Y-51963595D01*
X152780952Y-51963595D02*
X152590476Y-51963595D01*
X152590476Y-51963595D02*
X152514286Y-51925500D01*
X152514286Y-51925500D02*
X152476190Y-51887404D01*
X108266667Y-65687404D02*
X108228571Y-65725500D01*
X108228571Y-65725500D02*
X108114286Y-65763595D01*
X108114286Y-65763595D02*
X108038095Y-65763595D01*
X108038095Y-65763595D02*
X107923809Y-65725500D01*
X107923809Y-65725500D02*
X107847619Y-65649309D01*
X107847619Y-65649309D02*
X107809524Y-65573119D01*
X107809524Y-65573119D02*
X107771428Y-65420738D01*
X107771428Y-65420738D02*
X107771428Y-65306452D01*
X107771428Y-65306452D02*
X107809524Y-65154071D01*
X107809524Y-65154071D02*
X107847619Y-65077880D01*
X107847619Y-65077880D02*
X107923809Y-65001690D01*
X107923809Y-65001690D02*
X108038095Y-64963595D01*
X108038095Y-64963595D02*
X108114286Y-64963595D01*
X108114286Y-64963595D02*
X108228571Y-65001690D01*
X108228571Y-65001690D02*
X108266667Y-65039785D01*
X108571428Y-65039785D02*
X108609524Y-65001690D01*
X108609524Y-65001690D02*
X108685714Y-64963595D01*
X108685714Y-64963595D02*
X108876190Y-64963595D01*
X108876190Y-64963595D02*
X108952381Y-65001690D01*
X108952381Y-65001690D02*
X108990476Y-65039785D01*
X108990476Y-65039785D02*
X109028571Y-65115976D01*
X109028571Y-65115976D02*
X109028571Y-65192166D01*
X109028571Y-65192166D02*
X108990476Y-65306452D01*
X108990476Y-65306452D02*
X108533333Y-65763595D01*
X108533333Y-65763595D02*
X109028571Y-65763595D01*
D11*
%TO.C,J6*%
X121730000Y-52980000D02*
X121730000Y-51600000D01*
X123110000Y-52980000D02*
X121730000Y-52980000D01*
X124380000Y-50220000D02*
X132110000Y-50220000D01*
X124380000Y-52980000D02*
X124380000Y-50220000D01*
X124380000Y-52980000D02*
X132110000Y-52980000D01*
X132110000Y-52980000D02*
X132110000Y-50220000D01*
%TO.C,C3*%
X121288748Y-63800000D02*
X121811252Y-63800000D01*
X121288748Y-65270000D02*
X121811252Y-65270000D01*
%TO.C,R4*%
X141553641Y-70120000D02*
X141246359Y-70120000D01*
X141553641Y-70880000D02*
X141246359Y-70880000D01*
%TO.C,R3*%
X141553641Y-69120000D02*
X141246359Y-69120000D01*
X141553641Y-69880000D02*
X141246359Y-69880000D01*
%TO.C,C5*%
X109370000Y-61600000D02*
G75*
G02*
X101130000Y-61600000I-4120000J0D01*
G01*
X101130000Y-61600000D02*
G75*
G02*
X109370000Y-61600000I4120000J0D01*
G01*
%TO.C,R10*%
X100999891Y-84820000D02*
X100692609Y-84820000D01*
X100999891Y-85580000D02*
X100692609Y-85580000D01*
D12*
%TO.C,D3*%
X102523750Y-85185000D02*
G75*
G02*
X102423750Y-85185000I-50000J0D01*
G01*
X102423750Y-85185000D02*
G75*
G02*
X102523750Y-85185000I50000J0D01*
G01*
D11*
%TO.C,U3*%
X114840000Y-76952500D02*
X114890000Y-76952500D01*
X114840000Y-78772500D02*
X114840000Y-76952500D01*
X114890000Y-78772500D02*
X114840000Y-78772500D01*
X117910000Y-76952500D02*
X117960000Y-76952500D01*
X117960000Y-76952500D02*
X117960000Y-78772500D01*
X117960000Y-78772500D02*
X117910000Y-78772500D01*
X114890000Y-79312500D02*
X114560000Y-79552500D01*
X114560000Y-79072500D01*
X114890000Y-79312500D01*
G36*
X114890000Y-79312500D02*
G01*
X114560000Y-79552500D01*
X114560000Y-79072500D01*
X114890000Y-79312500D01*
G37*
%TO.C,C10*%
X125857836Y-67140000D02*
X125642164Y-67140000D01*
X125857836Y-67860000D02*
X125642164Y-67860000D01*
%TO.C,R1*%
X132220000Y-62596359D02*
X132220000Y-62903641D01*
X132980000Y-62596359D02*
X132980000Y-62903641D01*
%TO.C,R5*%
X129220000Y-78263641D02*
X129220000Y-77956359D01*
X129980000Y-78263641D02*
X129980000Y-77956359D01*
%TO.C,C12*%
X137040000Y-77942164D02*
X137040000Y-78157836D01*
X137760000Y-77942164D02*
X137760000Y-78157836D01*
%TO.C,R6*%
X125596359Y-72020000D02*
X125903641Y-72020000D01*
X125596359Y-72780000D02*
X125903641Y-72780000D01*
%TO.C,C6*%
X135240000Y-62642164D02*
X135240000Y-62857836D01*
X135960000Y-62642164D02*
X135960000Y-62857836D01*
%TO.C,C13*%
X125857836Y-73040000D02*
X125642164Y-73040000D01*
X125857836Y-73760000D02*
X125642164Y-73760000D01*
%TO.C,C14*%
X140942164Y-65840000D02*
X141157836Y-65840000D01*
X140942164Y-66560000D02*
X141157836Y-66560000D01*
%TO.C,C8*%
X137740000Y-63307836D02*
X137740000Y-63092164D01*
X138460000Y-63307836D02*
X138460000Y-63092164D01*
%TO.C,U2*%
X128290000Y-65290000D02*
X129240000Y-65290000D01*
X128290000Y-66240000D02*
X128290000Y-65290000D01*
X128290000Y-75510000D02*
X128290000Y-74560000D01*
X129240000Y-75510000D02*
X128290000Y-75510000D01*
X137560000Y-65290000D02*
X138510000Y-65290000D01*
X138510000Y-65290000D02*
X138510000Y-66240000D01*
X138510000Y-74560000D02*
X138510000Y-75510000D01*
X138510000Y-75510000D02*
X137560000Y-75510000D01*
X138030000Y-64990000D02*
X137560000Y-64650000D01*
X138030000Y-64310000D01*
X138030000Y-64990000D01*
G36*
X138030000Y-64990000D02*
G01*
X137560000Y-64650000D01*
X138030000Y-64310000D01*
X138030000Y-64990000D01*
G37*
%TO.C,R7*%
X117020000Y-74618859D02*
X117020000Y-74926141D01*
X117780000Y-74618859D02*
X117780000Y-74926141D01*
%TO.C,C1*%
X109511252Y-66200000D02*
X108988748Y-66200000D01*
X109511252Y-67670000D02*
X108988748Y-67670000D01*
%TO.C,J2*%
X92230000Y-67030000D02*
X98970000Y-67030000D01*
X92230000Y-68350000D02*
X92230000Y-67030000D01*
X92230000Y-72810000D02*
X92230000Y-68950000D01*
X92750000Y-67030000D02*
X92750000Y-72810000D01*
X97850000Y-67030000D02*
X97850000Y-72810000D01*
X98970000Y-67030000D02*
X98970000Y-72810000D01*
X98970000Y-72810000D02*
X92230000Y-72810000D01*
X92230000Y-68650000D02*
X91620000Y-69090000D01*
X91620000Y-68210000D01*
X92230000Y-68650000D01*
G36*
X92230000Y-68650000D02*
G01*
X91620000Y-69090000D01*
X91620000Y-68210000D01*
X92230000Y-68650000D01*
G37*
%TO.C,J3*%
X133755000Y-82620000D02*
X133755000Y-85380000D01*
X136405000Y-82620000D02*
X133755000Y-82620000D01*
X136405000Y-82620000D02*
X136405000Y-85380000D01*
X136405000Y-85380000D02*
X133755000Y-85380000D01*
X137675000Y-82620000D02*
X139055000Y-82620000D01*
X139055000Y-82620000D02*
X139055000Y-84000000D01*
D12*
%TO.C,D2*%
X97723750Y-85185000D02*
G75*
G02*
X97623750Y-85185000I-50000J0D01*
G01*
X97623750Y-85185000D02*
G75*
G02*
X97723750Y-85185000I50000J0D01*
G01*
D11*
%TO.C,R2*%
X141263641Y-67820000D02*
X140956359Y-67820000D01*
X141263641Y-68580000D02*
X140956359Y-68580000D01*
D12*
%TO.C,D1*%
X92921250Y-85200000D02*
G75*
G02*
X92821250Y-85200000I-50000J0D01*
G01*
X92821250Y-85200000D02*
G75*
G02*
X92921250Y-85200000I50000J0D01*
G01*
D11*
%TO.C,C11*%
X125857836Y-74040000D02*
X125642164Y-74040000D01*
X125857836Y-74760000D02*
X125642164Y-74760000D01*
%TO.C,U1*%
X113550000Y-59590000D02*
X117310000Y-59590000D01*
X113550000Y-66410000D02*
X117310000Y-66410000D01*
X117310000Y-59590000D02*
X117310000Y-60850000D01*
X117310000Y-66410000D02*
X117310000Y-65150000D01*
X112270000Y-59690000D02*
X112030000Y-59360000D01*
X112510000Y-59360000D01*
X112270000Y-59690000D01*
G36*
X112270000Y-59690000D02*
G01*
X112030000Y-59360000D01*
X112510000Y-59360000D01*
X112270000Y-59690000D01*
G37*
%TO.C,C4*%
X120662164Y-62675000D02*
X120877836Y-62675000D01*
X120662164Y-63395000D02*
X120877836Y-63395000D01*
%TO.C,J7*%
X146220000Y-54680000D02*
X147600000Y-54680000D01*
X146220000Y-56060000D02*
X146220000Y-54680000D01*
X146220000Y-57330000D02*
X146220000Y-85380000D01*
X146220000Y-57330000D02*
X148980000Y-57330000D01*
X146220000Y-85380000D02*
X148980000Y-85380000D01*
X148980000Y-57330000D02*
X148980000Y-85380000D01*
%TO.C,R8*%
X115020000Y-74618859D02*
X115020000Y-74926141D01*
X115780000Y-74618859D02*
X115780000Y-74926141D01*
%TO.C,J1*%
X92230000Y-58440000D02*
X98970000Y-58440000D01*
X92230000Y-59760000D02*
X92230000Y-58440000D01*
X92230000Y-64220000D02*
X92230000Y-60360000D01*
X92750000Y-58440000D02*
X92750000Y-64220000D01*
X97850000Y-58440000D02*
X97850000Y-64220000D01*
X98970000Y-58440000D02*
X98970000Y-64220000D01*
X98970000Y-64220000D02*
X92230000Y-64220000D01*
X92230000Y-60060000D02*
X91620000Y-60500000D01*
X91620000Y-59620000D01*
X92230000Y-60060000D01*
G36*
X92230000Y-60060000D02*
G01*
X91620000Y-60500000D01*
X91620000Y-59620000D01*
X92230000Y-60060000D01*
G37*
%TO.C,Y1*%
X137010000Y-58840000D02*
X133590000Y-58840000D01*
X137010000Y-61760000D02*
X137010000Y-58840000D01*
%TO.C,J8*%
X152020000Y-61340000D02*
X153400000Y-61340000D01*
X152020000Y-62720000D02*
X152020000Y-61340000D01*
X152020000Y-63990000D02*
X152020000Y-71720000D01*
X152020000Y-63990000D02*
X154780000Y-63990000D01*
X152020000Y-71720000D02*
X154780000Y-71720000D01*
X154780000Y-63990000D02*
X154780000Y-71720000D01*
%TO.C,R11*%
X105799891Y-84820000D02*
X105492609Y-84820000D01*
X105799891Y-85580000D02*
X105492609Y-85580000D01*
%TO.C,J4*%
X152020000Y-80240000D02*
X152020000Y-72510000D01*
X154780000Y-72510000D02*
X152020000Y-72510000D01*
X154780000Y-80240000D02*
X152020000Y-80240000D01*
X154780000Y-80240000D02*
X154780000Y-72510000D01*
X154780000Y-81510000D02*
X154780000Y-82890000D01*
X154780000Y-82890000D02*
X153400000Y-82890000D01*
%TO.C,J9*%
X112970000Y-83002500D02*
X113390000Y-83002500D01*
X112970000Y-84982500D02*
X112970000Y-83002500D01*
X112970000Y-87352500D02*
X112970000Y-86952500D01*
X114970000Y-82772500D02*
X114970000Y-82322500D01*
X115420000Y-82322500D02*
X114970000Y-82322500D01*
X120490000Y-83002500D02*
X120070000Y-83002500D01*
X120490000Y-84982500D02*
X120490000Y-83002500D01*
X120490000Y-86952500D02*
X120490000Y-87352500D01*
%TO.C,R9*%
X96197391Y-84835000D02*
X95890109Y-84835000D01*
X96197391Y-85595000D02*
X95890109Y-85595000D01*
%TO.C,C9*%
X130640000Y-62857836D02*
X130640000Y-62642164D01*
X131360000Y-62857836D02*
X131360000Y-62642164D01*
%TO.C,C7*%
X134240000Y-62642164D02*
X134240000Y-62857836D01*
X134960000Y-62642164D02*
X134960000Y-62857836D01*
%TO.C,SW1*%
X111970000Y-50020000D02*
X111970000Y-50050000D01*
X111970000Y-54550000D02*
X111970000Y-51950000D01*
X111970000Y-56480000D02*
X111970000Y-56450000D01*
X118430000Y-50020000D02*
X111970000Y-50020000D01*
X118430000Y-50020000D02*
X118430000Y-50050000D01*
X118430000Y-54550000D02*
X118430000Y-51950000D01*
X118430000Y-56450000D02*
X118430000Y-56480000D01*
X118430000Y-56480000D02*
X111970000Y-56480000D01*
%TO.C,J5*%
X132940000Y-50220000D02*
X132940000Y-52980000D01*
X148290000Y-50220000D02*
X132940000Y-50220000D01*
X148290000Y-50220000D02*
X148290000Y-52980000D01*
X148290000Y-52980000D02*
X132940000Y-52980000D01*
X149560000Y-50220000D02*
X150940000Y-50220000D01*
X150940000Y-50220000D02*
X150940000Y-51600000D01*
%TO.C,C2*%
X110157836Y-65075000D02*
X109942164Y-65075000D01*
X110157836Y-65795000D02*
X109942164Y-65795000D01*
%TD*%
M02*
