%TF.GenerationSoftware,KiCad,Pcbnew,9.0.8*%
%TF.CreationDate,2026-07-16T09:22:01+03:00*%
%TF.ProjectId,Integration-Capstone-Board,496e7465-6772-4617-9469-6f6e2d436170,rev?*%
%TF.SameCoordinates,Original*%
%TF.FileFunction,Copper,L2,Bot*%
%TF.FilePolarity,Positive*%
%FSLAX46Y46*%
G04 Gerber Fmt 4.6, Leading zero omitted, Abs format (unit mm)*
G04 Created by KiCad (PCBNEW 9.0.8) date 2026-07-16 09:22:01*
%MOMM*%
%LPD*%
G01*
G04 APERTURE LIST*
G04 Aperture macros list*
%AMRoundRect*
0 Rectangle with rounded corners*
0 $1 Rounding radius*
0 $2 $3 $4 $5 $6 $7 $8 $9 X,Y pos of 4 corners*
0 Add a 4 corners polygon primitive as box body*
4,1,4,$2,$3,$4,$5,$6,$7,$8,$9,$2,$3,0*
0 Add four circle primitives for the rounded corners*
1,1,$1+$1,$2,$3*
1,1,$1+$1,$4,$5*
1,1,$1+$1,$6,$7*
1,1,$1+$1,$8,$9*
0 Add four rect primitives between the rounded corners*
20,1,$1+$1,$2,$3,$4,$5,0*
20,1,$1+$1,$4,$5,$6,$7,0*
20,1,$1+$1,$6,$7,$8,$9,0*
20,1,$1+$1,$8,$9,$2,$3,0*%
G04 Aperture macros list end*
%TA.AperFunction,ComponentPad*%
%ADD10R,1.700000X1.700000*%
%TD*%
%TA.AperFunction,ComponentPad*%
%ADD11C,1.700000*%
%TD*%
%TA.AperFunction,ComponentPad*%
%ADD12C,1.600000*%
%TD*%
%TA.AperFunction,ComponentPad*%
%ADD13RoundRect,0.250001X-0.799999X0.799999X-0.799999X-0.799999X0.799999X-0.799999X0.799999X0.799999X0*%
%TD*%
%TA.AperFunction,ComponentPad*%
%ADD14C,2.100000*%
%TD*%
%TA.AperFunction,HeatsinkPad*%
%ADD15O,0.890000X1.550000*%
%TD*%
%TA.AperFunction,HeatsinkPad*%
%ADD16O,1.250000X0.950000*%
%TD*%
%TA.AperFunction,ViaPad*%
%ADD17C,0.600000*%
%TD*%
%TA.AperFunction,Conductor*%
%ADD18C,0.500000*%
%TD*%
%TA.AperFunction,Conductor*%
%ADD19C,0.250000*%
%TD*%
G04 APERTURE END LIST*
D10*
%TO.P,J6,1,Pin_1*%
%TO.N,+3.3V*%
X123110000Y-51600000D03*
D11*
%TO.P,J6,2,Pin_2*%
%TO.N,GND*%
X125650000Y-51600000D03*
%TO.P,J6,3,Pin_3*%
%TO.N,I2C2_SCL*%
X128190000Y-51600000D03*
%TO.P,J6,4,Pin_4*%
%TO.N,I2C2_SDA*%
X130730000Y-51600000D03*
%TD*%
D12*
%TO.P,C5,1*%
%TO.N,VBAT*%
X105250000Y-59850000D03*
%TO.P,C5,2*%
%TO.N,GND*%
X105250000Y-63350000D03*
%TD*%
D13*
%TO.P,J2,1,Pin_1*%
%TO.N,VSERVO*%
X95600000Y-68650000D03*
D14*
%TO.P,J2,2,Pin_2*%
%TO.N,GND*%
X95600000Y-71190000D03*
%TD*%
D10*
%TO.P,J3,1,Pin_1*%
%TO.N,BOOT0*%
X137675000Y-84000000D03*
D11*
%TO.P,J3,2,Pin_2*%
%TO.N,GND*%
X135135000Y-84000000D03*
%TD*%
D10*
%TO.P,J7,1,Pin_1*%
%TO.N,+3.3V*%
X147600000Y-56060000D03*
D11*
%TO.P,J7,2,Pin_2*%
%TO.N,GND*%
X147600000Y-58600000D03*
%TO.P,J7,3,Pin_3*%
%TO.N,UART1_TX*%
X147600000Y-61140000D03*
%TO.P,J7,4,Pin_4*%
%TO.N,UART1_RX*%
X147600000Y-63680000D03*
%TO.P,J7,5,Pin_5*%
%TO.N,SPI1_MOSI*%
X147600000Y-66220000D03*
%TO.P,J7,6,Pin_6*%
%TO.N,SPI1_MISO*%
X147600000Y-68760000D03*
%TO.P,J7,7,Pin_7*%
%TO.N,SPI1_CLK*%
X147600000Y-71300000D03*
%TO.P,J7,8,Pin_8*%
%TO.N,I2C1_SDA*%
X147600000Y-73840000D03*
%TO.P,J7,9,Pin_9*%
%TO.N,I2C1_SCL*%
X147600000Y-76380000D03*
%TO.P,J7,10,Pin_10*%
%TO.N,SWDIO*%
X147600000Y-78920000D03*
%TO.P,J7,11,Pin_11*%
%TO.N,SWDCLK*%
X147600000Y-81460000D03*
%TO.P,J7,12,Pin_12*%
%TO.N,GND*%
X147600000Y-84000000D03*
%TD*%
D13*
%TO.P,J1,1,Pin_1*%
%TO.N,VBAT*%
X95600000Y-60060000D03*
D14*
%TO.P,J1,2,Pin_2*%
%TO.N,GND*%
X95600000Y-62600000D03*
%TD*%
D10*
%TO.P,J8,1,Pin_1*%
%TO.N,+3.3V*%
X153400000Y-62720000D03*
D11*
%TO.P,J8,2,Pin_2*%
%TO.N,GND*%
X153400000Y-65260000D03*
%TO.P,J8,3,Pin_3*%
%TO.N,I2C1_SCL*%
X153400000Y-67800000D03*
%TO.P,J8,4,Pin_4*%
%TO.N,I2C1_SDA*%
X153400000Y-70340000D03*
%TD*%
D10*
%TO.P,J4,1,Pin_1*%
%TO.N,+3.3V*%
X153400000Y-81510000D03*
D11*
%TO.P,J4,2,Pin_2*%
%TO.N,GND*%
X153400000Y-78970000D03*
%TO.P,J4,3,Pin_3*%
%TO.N,I2C1_SCL*%
X153400000Y-76430000D03*
%TO.P,J4,4,Pin_4*%
%TO.N,I2C1_SDA*%
X153400000Y-73890000D03*
%TD*%
D15*
%TO.P,J9,6,Shield*%
%TO.N,GND*%
X113230000Y-85962500D03*
D16*
X114230000Y-83262500D03*
X119230000Y-83262500D03*
D15*
X120230000Y-85962500D03*
%TD*%
D10*
%TO.P,J5,1,Pin_1*%
%TO.N,+3.3V*%
X149560000Y-51600000D03*
D11*
%TO.P,J5,2,Pin_2*%
%TO.N,GND*%
X147020000Y-51600000D03*
%TO.P,J5,3,Pin_3*%
%TO.N,SPI1_MOSI*%
X144480000Y-51600000D03*
%TO.P,J5,4,Pin_4*%
%TO.N,SPI1_MISO*%
X141940000Y-51600000D03*
%TO.P,J5,5,Pin_5*%
%TO.N,SPI1_CLK*%
X139400000Y-51600000D03*
%TO.P,J5,6,Pin_6*%
%TO.N,IMU_CS*%
X136860000Y-51600000D03*
%TO.P,J5,7,Pin_7*%
%TO.N,IMU_INT1*%
X134320000Y-51600000D03*
%TD*%
D17*
%TO.N,GND*%
X103078750Y-85185000D03*
X145200000Y-53420000D03*
X136175000Y-61000000D03*
X131200000Y-66200000D03*
X93476250Y-85200000D03*
X137141942Y-67941942D03*
X137400000Y-78530000D03*
X136600000Y-74400000D03*
X126000000Y-64400000D03*
X139000000Y-58200000D03*
X122500000Y-64535000D03*
X141620000Y-68200000D03*
X141200000Y-57000000D03*
X112250000Y-60700000D03*
X129400000Y-73600000D03*
X98278750Y-85185000D03*
X145200000Y-57000000D03*
X108300000Y-66935000D03*
X111220000Y-51000000D03*
X141530000Y-66200000D03*
X125270000Y-74400000D03*
X116400000Y-79000000D03*
X131000000Y-62270000D03*
%TO.N,+3.3V*%
X137400000Y-77570000D03*
X129630000Y-63230000D03*
X118575000Y-63025000D03*
X142400000Y-63200000D03*
X132600000Y-62240000D03*
X126230000Y-74400000D03*
X125240000Y-72400000D03*
X141910000Y-70400000D03*
X96553750Y-85246250D03*
X120600000Y-64535000D03*
X138200000Y-56600000D03*
X116400000Y-76725000D03*
%TO.N,BOOT0*%
X137200000Y-69800000D03*
%TO.N,I2C1_SDA*%
X140890000Y-69500000D03*
%TO.N,IMU_INT1*%
X137200000Y-68800000D03*
%TO.N,SPI1_MOSI*%
X135018531Y-65997585D03*
%TO.N,SPI1_MISO*%
X133366116Y-66766116D03*
%TO.N,IMU_CS*%
X131995209Y-66288675D03*
%TO.N,SPI1_CLK*%
X131651674Y-67596674D03*
%TO.N,I2C2_SDA*%
X130000000Y-74400000D03*
%TO.N,I2C2_SCL*%
X126260000Y-72400000D03*
%TO.N,LED_GESTURE*%
X111000000Y-80400000D03*
X131400000Y-74000000D03*
%TO.N,LED_BLE*%
X133400000Y-73000000D03*
X129200000Y-66400000D03*
X101356250Y-85200000D03*
X133400000Y-71575000D03*
%TD*%
D18*
%TO.N,GND*%
X131200000Y-66000000D02*
X131200000Y-66200000D01*
X122500000Y-64535000D02*
X122500000Y-54750000D01*
X126000000Y-64400000D02*
X129600000Y-64400000D01*
X122500000Y-54750000D02*
X125650000Y-51600000D01*
X145200000Y-53420000D02*
X141620000Y-57000000D01*
X120230000Y-84262500D02*
X119230000Y-83262500D01*
X113230000Y-84262500D02*
X114230000Y-83262500D01*
X129600000Y-64400000D02*
X131200000Y-66000000D01*
X113230000Y-85962500D02*
X113230000Y-84262500D01*
X136200000Y-61000000D02*
X139000000Y-58200000D01*
X145200000Y-53420000D02*
X145200000Y-57000000D01*
X120230000Y-85962500D02*
X120230000Y-84262500D01*
X136175000Y-61000000D02*
X136200000Y-61000000D01*
X141620000Y-57000000D02*
X141200000Y-57000000D01*
%TO.N,+3.3V*%
X118600000Y-53000000D02*
X118600000Y-63000000D01*
X125240000Y-72400000D02*
X125240000Y-72640000D01*
X131610000Y-63230000D02*
X132600000Y-62240000D01*
X117075000Y-76725000D02*
X116400000Y-76725000D01*
X118600000Y-63000000D02*
X118575000Y-63025000D01*
X132600000Y-62240000D02*
X132600000Y-62200000D01*
X100475000Y-76725000D02*
X96553750Y-80646250D01*
X116400000Y-76725000D02*
X100475000Y-76725000D01*
X144200000Y-60000000D02*
X144200000Y-61400000D01*
X118575000Y-75225000D02*
X117075000Y-76725000D01*
X153400000Y-81510000D02*
X149510000Y-85400000D01*
X147600000Y-56060000D02*
X147600000Y-56600000D01*
X137400000Y-74910000D02*
X141910000Y-70400000D01*
X137400000Y-77570000D02*
X137400000Y-74910000D01*
X118575000Y-63025000D02*
X118575000Y-75225000D01*
X149510000Y-85400000D02*
X145330661Y-85400000D01*
X147600000Y-56600000D02*
X144200000Y-60000000D01*
X125240000Y-72640000D02*
X126230000Y-73630000D01*
X144200000Y-61400000D02*
X142400000Y-63200000D01*
X126230000Y-73630000D02*
X126230000Y-74400000D01*
X145330661Y-85400000D02*
X137500661Y-77570000D01*
X132600000Y-62200000D02*
X138200000Y-56600000D01*
X120600000Y-64535000D02*
X120600000Y-67760000D01*
X96553750Y-80646250D02*
X96553750Y-85246250D01*
X123110000Y-51600000D02*
X120000000Y-51600000D01*
X120000000Y-51600000D02*
X118600000Y-53000000D01*
X129630000Y-63230000D02*
X131610000Y-63230000D01*
X137500661Y-77570000D02*
X137400000Y-77570000D01*
X120600000Y-67760000D02*
X125240000Y-72400000D01*
D19*
%TO.N,BOOT0*%
X137600000Y-79600000D02*
X137155000Y-79155000D01*
X135800000Y-71200000D02*
X137200000Y-69800000D01*
X135800000Y-77800000D02*
X135800000Y-71200000D01*
X137600000Y-83925000D02*
X137600000Y-79600000D01*
X136775000Y-78788884D02*
X136775000Y-78775000D01*
X137155000Y-79155000D02*
X137141116Y-79155000D01*
X137675000Y-84000000D02*
X137600000Y-83925000D01*
X136775000Y-78775000D02*
X135800000Y-77800000D01*
X137141116Y-79155000D02*
X136775000Y-78788884D01*
%TO.N,I2C1_SDA*%
X147600000Y-73840000D02*
X143260000Y-69500000D01*
X143260000Y-69500000D02*
X140890000Y-69500000D01*
%TO.N,I2C1_SCL*%
X152225000Y-68975000D02*
X152225000Y-75255000D01*
X153400000Y-67800000D02*
X152225000Y-68975000D01*
X152225000Y-75255000D02*
X153400000Y-76430000D01*
%TO.N,IMU_INT1*%
X133800000Y-72200000D02*
X137200000Y-68800000D01*
X129836396Y-72200000D02*
X133800000Y-72200000D01*
X124100000Y-61820000D02*
X124100000Y-66463604D01*
X124100000Y-66463604D02*
X129836396Y-72200000D01*
X134320000Y-51600000D02*
X124100000Y-61820000D01*
%TO.N,SPI1_MOSI*%
X147080000Y-54200000D02*
X148090000Y-54200000D01*
X144480000Y-51600000D02*
X147080000Y-54200000D01*
X135020946Y-66000000D02*
X135020946Y-65979054D01*
X136800000Y-64200000D02*
X145580000Y-64200000D01*
X135018531Y-65997585D02*
X135020946Y-66000000D01*
X149400000Y-64420000D02*
X147600000Y-66220000D01*
X149400000Y-55510000D02*
X149400000Y-64420000D01*
X135020946Y-65979054D02*
X136800000Y-64200000D01*
X148090000Y-54200000D02*
X149400000Y-55510000D01*
X145580000Y-64200000D02*
X147600000Y-66220000D01*
%TO.N,SPI1_MISO*%
X148385000Y-51185000D02*
X148385000Y-53785000D01*
X149850000Y-55250000D02*
X149850000Y-66510000D01*
X143115000Y-50425000D02*
X147625000Y-50425000D01*
X149850000Y-66510000D02*
X147600000Y-68760000D01*
X147600000Y-68100000D02*
X147600000Y-68760000D01*
X148385000Y-53785000D02*
X149850000Y-55250000D01*
X133400000Y-66800000D02*
X135100000Y-66800000D01*
X137100000Y-64800000D02*
X144300000Y-64800000D01*
X144300000Y-64800000D02*
X147600000Y-68100000D01*
X133366116Y-66766116D02*
X133400000Y-66800000D01*
X147625000Y-50425000D02*
X148385000Y-51185000D01*
X135100000Y-66800000D02*
X137100000Y-64800000D01*
X141940000Y-51600000D02*
X143115000Y-50425000D01*
%TO.N,IMU_CS*%
X139625000Y-58458884D02*
X139625000Y-58175000D01*
X136433884Y-61625000D02*
X136800000Y-61258884D01*
X136433884Y-61850000D02*
X136433884Y-61625000D01*
X140400000Y-57400000D02*
X140400000Y-55140000D01*
X136800000Y-61213172D02*
X139188172Y-58825000D01*
X139258884Y-58825000D02*
X139625000Y-58458884D01*
X131995209Y-66288675D02*
X136433884Y-61850000D01*
X136800000Y-61258884D02*
X136800000Y-61213172D01*
X139625000Y-58175000D02*
X140400000Y-57400000D01*
X140400000Y-55140000D02*
X136860000Y-51600000D01*
X139188172Y-58825000D02*
X139258884Y-58825000D01*
%TO.N,SPI1_CLK*%
X139400000Y-51600000D02*
X141200000Y-49800000D01*
X144100000Y-65400000D02*
X137200000Y-65400000D01*
X135200000Y-67400000D02*
X131848348Y-67400000D01*
X137200000Y-65400000D02*
X135200000Y-67400000D01*
X146200000Y-67500000D02*
X144100000Y-65400000D01*
X150110000Y-49800000D02*
X151000000Y-50690000D01*
X131848348Y-67400000D02*
X131651674Y-67596674D01*
X146200000Y-69900000D02*
X146200000Y-67500000D01*
X151000000Y-67900000D02*
X147600000Y-71300000D01*
X141200000Y-49800000D02*
X150110000Y-49800000D01*
X151000000Y-50690000D02*
X151000000Y-67900000D01*
X147600000Y-71300000D02*
X146200000Y-69900000D01*
%TO.N,I2C2_SDA*%
X130730000Y-51600000D02*
X123650000Y-58680000D01*
X123650000Y-66650000D02*
X130400000Y-73400000D01*
X130400000Y-74000000D02*
X130000000Y-74400000D01*
X130400000Y-73400000D02*
X130400000Y-74000000D01*
X123650000Y-58680000D02*
X123650000Y-66650000D01*
%TO.N,I2C2_SCL*%
X128190000Y-51600000D02*
X123200000Y-56590000D01*
X123200000Y-69340000D02*
X126260000Y-72400000D01*
X123200000Y-56590000D02*
X123200000Y-69340000D01*
%TO.N,LED_GESTURE*%
X111775000Y-79625000D02*
X125775000Y-79625000D01*
X125775000Y-79625000D02*
X131400000Y-74000000D01*
X111000000Y-80400000D02*
X111775000Y-79625000D01*
%TO.N,LED_BLE*%
X112600000Y-80800000D02*
X109400000Y-84000000D01*
X125600000Y-80800000D02*
X112600000Y-80800000D01*
X109400000Y-84000000D02*
X102556250Y-84000000D01*
X129200000Y-66400000D02*
X133400000Y-70600000D01*
X102556250Y-84000000D02*
X101356250Y-85200000D01*
X133400000Y-73000000D02*
X125600000Y-80800000D01*
X133400000Y-70600000D02*
X133400000Y-71575000D01*
%TD*%
%TA.AperFunction,Conductor*%
%TO.N,GND*%
G36*
X135626630Y-51610253D02*
G01*
X135684863Y-51648863D01*
X135712473Y-51709321D01*
X135737829Y-51869410D01*
X135793787Y-52041636D01*
X135793788Y-52041639D01*
X135849257Y-52150500D01*
X135876003Y-52202993D01*
X135876006Y-52202997D01*
X135982441Y-52349494D01*
X135982445Y-52349499D01*
X136110500Y-52477554D01*
X136110505Y-52477558D01*
X136214833Y-52553356D01*
X136257006Y-52583996D01*
X136333094Y-52622765D01*
X136418360Y-52666211D01*
X136418363Y-52666212D01*
X136467260Y-52682099D01*
X136590591Y-52722171D01*
X136673429Y-52735291D01*
X136769449Y-52750500D01*
X136769454Y-52750500D01*
X136950551Y-52750500D01*
X137085345Y-52729150D01*
X137129409Y-52722171D01*
X137246600Y-52684093D01*
X137316438Y-52682099D01*
X137372596Y-52714344D01*
X139938181Y-55279929D01*
X139971666Y-55341252D01*
X139974500Y-55367610D01*
X139974500Y-57172390D01*
X139954815Y-57239429D01*
X139938181Y-57260071D01*
X139284517Y-57913734D01*
X139284513Y-57913740D01*
X139228498Y-58010760D01*
X139228497Y-58010763D01*
X139199500Y-58118982D01*
X139199500Y-58231272D01*
X139190855Y-58260709D01*
X139184332Y-58290700D01*
X139180576Y-58295716D01*
X139179815Y-58298311D01*
X139163181Y-58318954D01*
X139088003Y-58394131D01*
X139032423Y-58426222D01*
X139023938Y-58428496D01*
X139023932Y-58428498D01*
X138926912Y-58484513D01*
X138926906Y-58484517D01*
X138847685Y-58563739D01*
X136521296Y-60890127D01*
X136521295Y-60890127D01*
X136521296Y-60890128D01*
X136459515Y-60951909D01*
X136405234Y-61045926D01*
X136385528Y-61071606D01*
X136155180Y-61301955D01*
X136155179Y-61301955D01*
X136155180Y-61301956D01*
X136093398Y-61363738D01*
X136093397Y-61363740D01*
X136037382Y-61460760D01*
X136037381Y-61460763D01*
X136008384Y-61568982D01*
X136008384Y-61622390D01*
X135988699Y-61689429D01*
X135972065Y-61710071D01*
X132030280Y-65651856D01*
X131968957Y-65685341D01*
X131942599Y-65688175D01*
X131916152Y-65688175D01*
X131763425Y-65729098D01*
X131763418Y-65729101D01*
X131626499Y-65808150D01*
X131626491Y-65808156D01*
X131514690Y-65919957D01*
X131514684Y-65919965D01*
X131435635Y-66056884D01*
X131435632Y-66056891D01*
X131394709Y-66209618D01*
X131394709Y-66367732D01*
X131427313Y-66489410D01*
X131435632Y-66520458D01*
X131435635Y-66520465D01*
X131514684Y-66657384D01*
X131514688Y-66657389D01*
X131514689Y-66657391D01*
X131626493Y-66769195D01*
X131626495Y-66769196D01*
X131632944Y-66774145D01*
X131630927Y-66776773D01*
X131668497Y-66816187D01*
X131681711Y-66884796D01*
X131655734Y-66949657D01*
X131598814Y-66990178D01*
X131574467Y-66995930D01*
X131572622Y-66996172D01*
X131419890Y-67037097D01*
X131419883Y-67037100D01*
X131282964Y-67116149D01*
X131282956Y-67116155D01*
X131171155Y-67227956D01*
X131171149Y-67227964D01*
X131092100Y-67364883D01*
X131092098Y-67364887D01*
X131092097Y-67364889D01*
X131092097Y-67364890D01*
X131078988Y-67413816D01*
X131078907Y-67414117D01*
X131042541Y-67473777D01*
X130979694Y-67504305D01*
X130910318Y-67496010D01*
X130871451Y-67469703D01*
X129836819Y-66435071D01*
X129803334Y-66373748D01*
X129800500Y-66347390D01*
X129800500Y-66320945D01*
X129800500Y-66320943D01*
X129759577Y-66168216D01*
X129737198Y-66129454D01*
X129680524Y-66031290D01*
X129680518Y-66031282D01*
X129568717Y-65919481D01*
X129568709Y-65919475D01*
X129431790Y-65840426D01*
X129431786Y-65840424D01*
X129431784Y-65840423D01*
X129279057Y-65799500D01*
X129120943Y-65799500D01*
X128968216Y-65840423D01*
X128968209Y-65840426D01*
X128831290Y-65919475D01*
X128831282Y-65919481D01*
X128719481Y-66031282D01*
X128719475Y-66031290D01*
X128640426Y-66168209D01*
X128640423Y-66168216D01*
X128599500Y-66320943D01*
X128599500Y-66479057D01*
X128623059Y-66566978D01*
X128640423Y-66631783D01*
X128640426Y-66631790D01*
X128719475Y-66768709D01*
X128719479Y-66768714D01*
X128719480Y-66768716D01*
X128831284Y-66880520D01*
X128831286Y-66880521D01*
X128831290Y-66880524D01*
X128903904Y-66922447D01*
X128968216Y-66959577D01*
X129120943Y-67000500D01*
X129147390Y-67000500D01*
X129214429Y-67020185D01*
X129235071Y-67036819D01*
X132938181Y-70739929D01*
X132971666Y-70801252D01*
X132974500Y-70827610D01*
X132974500Y-71099902D01*
X132954815Y-71166941D01*
X132938181Y-71187583D01*
X132919481Y-71206282D01*
X132919475Y-71206290D01*
X132840426Y-71343209D01*
X132840423Y-71343216D01*
X132799500Y-71495943D01*
X132799500Y-71650500D01*
X132779815Y-71717539D01*
X132727011Y-71763294D01*
X132675500Y-71774500D01*
X130064006Y-71774500D01*
X129996967Y-71754815D01*
X129976325Y-71738181D01*
X124561819Y-66323675D01*
X124528334Y-66262352D01*
X124525500Y-66235994D01*
X124525500Y-63150943D01*
X129029500Y-63150943D01*
X129029500Y-63309057D01*
X129067887Y-63452317D01*
X129070423Y-63461783D01*
X129070426Y-63461790D01*
X129149475Y-63598709D01*
X129149479Y-63598714D01*
X129149480Y-63598716D01*
X129261284Y-63710520D01*
X129261286Y-63710521D01*
X129261290Y-63710524D01*
X129382494Y-63780500D01*
X129398216Y-63789577D01*
X129550943Y-63830500D01*
X129550945Y-63830500D01*
X129709055Y-63830500D01*
X129709057Y-63830500D01*
X129861784Y-63789577D01*
X129861785Y-63789576D01*
X129869635Y-63787473D01*
X129869820Y-63788165D01*
X129908363Y-63780500D01*
X131682472Y-63780500D01*
X131682474Y-63780500D01*
X131682475Y-63780500D01*
X131822485Y-63742984D01*
X131822581Y-63742928D01*
X131822875Y-63742759D01*
X131822880Y-63742755D01*
X131948015Y-63670510D01*
X132792431Y-62826092D01*
X132825104Y-62804262D01*
X132824745Y-62803640D01*
X132831780Y-62799577D01*
X132831784Y-62799577D01*
X132968716Y-62720520D01*
X133080520Y-62608716D01*
X133159577Y-62471784D01*
X133170317Y-62431701D01*
X133202409Y-62376114D01*
X138392431Y-57186092D01*
X138425104Y-57164262D01*
X138424745Y-57163640D01*
X138431780Y-57159577D01*
X138431784Y-57159577D01*
X138568716Y-57080520D01*
X138680520Y-56968716D01*
X138759577Y-56831784D01*
X138800500Y-56679057D01*
X138800500Y-56520943D01*
X138759577Y-56368216D01*
X138691046Y-56249515D01*
X138680524Y-56231290D01*
X138680521Y-56231286D01*
X138680520Y-56231284D01*
X138568716Y-56119480D01*
X138568714Y-56119479D01*
X138568709Y-56119475D01*
X138431790Y-56040426D01*
X138431786Y-56040424D01*
X138431784Y-56040423D01*
X138279057Y-55999500D01*
X138120943Y-55999500D01*
X137968216Y-56040423D01*
X137968209Y-56040426D01*
X137831290Y-56119475D01*
X137831282Y-56119481D01*
X137719481Y-56231282D01*
X137719479Y-56231285D01*
X137708954Y-56249515D01*
X137640423Y-56368216D01*
X137640422Y-56368218D01*
X137636361Y-56375253D01*
X137635740Y-56374894D01*
X137613906Y-56407567D01*
X132315490Y-61705983D01*
X132289811Y-61725688D01*
X132231287Y-61759478D01*
X132231281Y-61759482D01*
X132119481Y-61871282D01*
X132119479Y-61871285D01*
X132099426Y-61906019D01*
X132040423Y-62008216D01*
X132040422Y-62008218D01*
X132036361Y-62015253D01*
X132035740Y-62014894D01*
X132013906Y-62047567D01*
X131418294Y-62643181D01*
X131356971Y-62676666D01*
X131330613Y-62679500D01*
X129908363Y-62679500D01*
X129869820Y-62671834D01*
X129869635Y-62672527D01*
X129861785Y-62670423D01*
X129861784Y-62670423D01*
X129709057Y-62629500D01*
X129550943Y-62629500D01*
X129398216Y-62670423D01*
X129398209Y-62670426D01*
X129261290Y-62749475D01*
X129261282Y-62749481D01*
X129149481Y-62861282D01*
X129149475Y-62861290D01*
X129070426Y-62998209D01*
X129070423Y-62998216D01*
X129029500Y-63150943D01*
X124525500Y-63150943D01*
X124525500Y-62047609D01*
X124545185Y-61980570D01*
X124561814Y-61959933D01*
X133807404Y-52714342D01*
X133868725Y-52680859D01*
X133933399Y-52684093D01*
X133988294Y-52701929D01*
X134050590Y-52722171D01*
X134229449Y-52750500D01*
X134229454Y-52750500D01*
X134410551Y-52750500D01*
X134497259Y-52736765D01*
X134589409Y-52722171D01*
X134761639Y-52666211D01*
X134922994Y-52583996D01*
X135069501Y-52477553D01*
X135197553Y-52349501D01*
X135303996Y-52202994D01*
X135386211Y-52041639D01*
X135442171Y-51869409D01*
X135456842Y-51776777D01*
X135467527Y-51709321D01*
X135497456Y-51646186D01*
X135556768Y-51609255D01*
X135626630Y-51610253D01*
G37*
%TD.AperFunction*%
%TA.AperFunction,Conductor*%
G36*
X143246630Y-51610253D02*
G01*
X143304863Y-51648863D01*
X143332473Y-51709321D01*
X143357829Y-51869410D01*
X143413787Y-52041636D01*
X143413788Y-52041639D01*
X143469257Y-52150500D01*
X143496003Y-52202993D01*
X143496006Y-52202997D01*
X143602441Y-52349494D01*
X143602445Y-52349499D01*
X143730500Y-52477554D01*
X143730505Y-52477558D01*
X143834833Y-52553356D01*
X143877006Y-52583996D01*
X143953094Y-52622765D01*
X144038360Y-52666211D01*
X144038363Y-52666212D01*
X144087260Y-52682099D01*
X144210591Y-52722171D01*
X144293429Y-52735291D01*
X144389449Y-52750500D01*
X144389454Y-52750500D01*
X144570551Y-52750500D01*
X144749409Y-52722171D01*
X144770648Y-52715270D01*
X144866600Y-52684093D01*
X144936439Y-52682099D01*
X144992597Y-52714344D01*
X146735174Y-54456921D01*
X146735184Y-54456932D01*
X146739514Y-54461262D01*
X146739515Y-54461263D01*
X146818737Y-54540485D01*
X146915763Y-54596503D01*
X147023981Y-54625500D01*
X147023982Y-54625500D01*
X147862390Y-54625500D01*
X147891830Y-54634144D01*
X147921817Y-54640668D01*
X147926832Y-54644422D01*
X147929429Y-54645185D01*
X147950071Y-54661819D01*
X147986071Y-54697819D01*
X148019556Y-54759142D01*
X148014572Y-54828834D01*
X147972700Y-54884767D01*
X147907236Y-54909184D01*
X147898390Y-54909500D01*
X146705143Y-54909500D01*
X146705117Y-54909502D01*
X146680012Y-54912413D01*
X146680008Y-54912415D01*
X146577235Y-54957793D01*
X146497794Y-55037234D01*
X146452415Y-55140006D01*
X146452415Y-55140008D01*
X146449500Y-55165131D01*
X146449500Y-56920611D01*
X146429815Y-56987650D01*
X146413181Y-57008292D01*
X143759491Y-59661983D01*
X143759489Y-59661985D01*
X143730217Y-59712687D01*
X143700945Y-59763389D01*
X143700944Y-59763391D01*
X143687018Y-59787510D01*
X143687016Y-59787513D01*
X143668258Y-59857520D01*
X143649500Y-59927525D01*
X143649500Y-59927527D01*
X143649500Y-61120612D01*
X143629815Y-61187651D01*
X143613181Y-61208293D01*
X142207567Y-62613906D01*
X142174894Y-62635740D01*
X142175253Y-62636361D01*
X142168218Y-62640422D01*
X142168216Y-62640423D01*
X142112610Y-62672527D01*
X142031285Y-62719479D01*
X142031282Y-62719481D01*
X141919481Y-62831282D01*
X141919475Y-62831290D01*
X141840426Y-62968209D01*
X141840423Y-62968216D01*
X141799500Y-63120943D01*
X141799500Y-63279057D01*
X141836591Y-63417480D01*
X141840423Y-63431783D01*
X141840426Y-63431790D01*
X141919475Y-63568710D01*
X141924310Y-63575010D01*
X141949507Y-63640179D01*
X141935471Y-63708624D01*
X141886658Y-63758615D01*
X141825937Y-63774500D01*
X136743979Y-63774500D01*
X136687711Y-63789577D01*
X136687710Y-63789576D01*
X136635763Y-63803496D01*
X136635759Y-63803498D01*
X136538740Y-63859512D01*
X136538734Y-63859517D01*
X135037486Y-65360766D01*
X134976163Y-65394251D01*
X134949805Y-65397085D01*
X134939474Y-65397085D01*
X134786747Y-65438008D01*
X134786740Y-65438011D01*
X134649821Y-65517060D01*
X134649813Y-65517066D01*
X134538012Y-65628867D01*
X134538006Y-65628875D01*
X134458957Y-65765794D01*
X134458954Y-65765801D01*
X134418031Y-65918528D01*
X134418031Y-66076642D01*
X134452837Y-66206539D01*
X134456017Y-66218407D01*
X134454354Y-66288256D01*
X134415191Y-66346119D01*
X134350963Y-66373623D01*
X134336242Y-66374500D01*
X133875098Y-66374500D01*
X133808059Y-66354815D01*
X133787417Y-66338181D01*
X133734833Y-66285597D01*
X133734825Y-66285591D01*
X133597906Y-66206542D01*
X133597902Y-66206540D01*
X133597900Y-66206539D01*
X133445173Y-66165616D01*
X133287059Y-66165616D01*
X133134332Y-66206539D01*
X133134325Y-66206542D01*
X132997406Y-66285591D01*
X132997398Y-66285597D01*
X132885597Y-66397398D01*
X132885591Y-66397406D01*
X132808758Y-66530487D01*
X132808757Y-66530489D01*
X132806539Y-66534332D01*
X132765616Y-66687059D01*
X132765616Y-66687277D01*
X132765616Y-66850500D01*
X132763065Y-66859185D01*
X132764354Y-66868147D01*
X132753375Y-66892187D01*
X132745931Y-66917539D01*
X132739090Y-66923466D01*
X132735329Y-66931703D01*
X132713094Y-66945992D01*
X132693127Y-66963294D01*
X132682612Y-66965581D01*
X132676551Y-66969477D01*
X132641616Y-66974500D01*
X132457982Y-66974500D01*
X132390943Y-66954815D01*
X132345188Y-66902011D01*
X132335244Y-66832853D01*
X132364269Y-66769297D01*
X132370301Y-66762819D01*
X132399331Y-66733789D01*
X132475729Y-66657391D01*
X132531998Y-66559929D01*
X132552748Y-66523989D01*
X132552748Y-66523988D01*
X132554786Y-66520459D01*
X132595709Y-66367732D01*
X132595709Y-66341283D01*
X132615394Y-66274244D01*
X132632023Y-66253607D01*
X136684937Y-62200692D01*
X136684942Y-62200689D01*
X136695145Y-62190485D01*
X136695147Y-62190485D01*
X136774369Y-62111263D01*
X136830387Y-62014237D01*
X136855772Y-61919500D01*
X136859384Y-61906019D01*
X136859384Y-61852609D01*
X136868028Y-61823168D01*
X136874552Y-61793182D01*
X136878306Y-61788166D01*
X136879069Y-61785570D01*
X136895697Y-61764933D01*
X137061261Y-61599370D01*
X137061263Y-61599369D01*
X137140485Y-61520147D01*
X137194770Y-61426121D01*
X137214470Y-61400448D01*
X139359049Y-59255868D01*
X139414637Y-59223775D01*
X139423121Y-59221503D01*
X139520147Y-59165485D01*
X139886261Y-58799370D01*
X139886263Y-58799369D01*
X139965485Y-58720147D01*
X140021503Y-58623121D01*
X140025766Y-58607208D01*
X140037416Y-58563736D01*
X140043957Y-58539320D01*
X140050500Y-58514903D01*
X140050500Y-58402866D01*
X140050500Y-58402610D01*
X140070185Y-58335571D01*
X140086819Y-58314929D01*
X140390988Y-58010760D01*
X140740485Y-57661263D01*
X140796503Y-57564237D01*
X140825500Y-57456018D01*
X140825500Y-57343981D01*
X140825500Y-55083982D01*
X140796503Y-54975763D01*
X140740485Y-54878737D01*
X140661263Y-54799515D01*
X138626580Y-52764832D01*
X138593095Y-52703509D01*
X138598079Y-52633817D01*
X138639951Y-52577884D01*
X138705415Y-52553467D01*
X138773688Y-52568319D01*
X138787146Y-52576833D01*
X138795793Y-52583114D01*
X138797006Y-52583996D01*
X138873094Y-52622765D01*
X138958360Y-52666211D01*
X138958363Y-52666212D01*
X139007260Y-52682099D01*
X139130591Y-52722171D01*
X139213429Y-52735291D01*
X139309449Y-52750500D01*
X139309454Y-52750500D01*
X139490551Y-52750500D01*
X139577259Y-52736765D01*
X139669409Y-52722171D01*
X139841639Y-52666211D01*
X140002994Y-52583996D01*
X140149501Y-52477553D01*
X140277553Y-52349501D01*
X140383996Y-52202994D01*
X140466211Y-52041639D01*
X140522171Y-51869409D01*
X140536842Y-51776777D01*
X140547527Y-51709321D01*
X140577456Y-51646186D01*
X140636768Y-51609255D01*
X140706630Y-51610253D01*
X140764863Y-51648863D01*
X140792473Y-51709321D01*
X140817829Y-51869410D01*
X140873787Y-52041636D01*
X140873788Y-52041639D01*
X140929257Y-52150500D01*
X140956003Y-52202993D01*
X140956006Y-52202997D01*
X141062441Y-52349494D01*
X141062445Y-52349499D01*
X141190500Y-52477554D01*
X141190505Y-52477558D01*
X141294833Y-52553356D01*
X141337006Y-52583996D01*
X141413094Y-52622765D01*
X141498360Y-52666211D01*
X141498363Y-52666212D01*
X141547260Y-52682099D01*
X141670591Y-52722171D01*
X141753429Y-52735291D01*
X141849449Y-52750500D01*
X141849454Y-52750500D01*
X142030551Y-52750500D01*
X142117259Y-52736765D01*
X142209409Y-52722171D01*
X142381639Y-52666211D01*
X142542994Y-52583996D01*
X142689501Y-52477553D01*
X142817553Y-52349501D01*
X142923996Y-52202994D01*
X143006211Y-52041639D01*
X143062171Y-51869409D01*
X143076842Y-51776777D01*
X143087527Y-51709321D01*
X143117456Y-51646186D01*
X143176768Y-51609255D01*
X143246630Y-51610253D01*
G37*
%TD.AperFunction*%
%TA.AperFunction,Conductor*%
G36*
X148916220Y-56948749D02*
G01*
X148962636Y-57000973D01*
X148974500Y-57053901D01*
X148974500Y-60888164D01*
X148954815Y-60955203D01*
X148902011Y-61000958D01*
X148832853Y-61010902D01*
X148769297Y-60981877D01*
X148731523Y-60923099D01*
X148728027Y-60907563D01*
X148724954Y-60888164D01*
X148722171Y-60870591D01*
X148666211Y-60698361D01*
X148666211Y-60698360D01*
X148637740Y-60642484D01*
X148583996Y-60537006D01*
X148570396Y-60518287D01*
X148477558Y-60390505D01*
X148477554Y-60390500D01*
X148349499Y-60262445D01*
X148349494Y-60262441D01*
X148202997Y-60156006D01*
X148202996Y-60156005D01*
X148202994Y-60156004D01*
X148108195Y-60107701D01*
X148041639Y-60073788D01*
X148041636Y-60073787D01*
X147869410Y-60017829D01*
X147690551Y-59989500D01*
X147690546Y-59989500D01*
X147509454Y-59989500D01*
X147509449Y-59989500D01*
X147330589Y-60017829D01*
X147158363Y-60073787D01*
X147158360Y-60073788D01*
X146997002Y-60156006D01*
X146850505Y-60262441D01*
X146850500Y-60262445D01*
X146722445Y-60390500D01*
X146722441Y-60390505D01*
X146616006Y-60537002D01*
X146533788Y-60698360D01*
X146533787Y-60698363D01*
X146477829Y-60870589D01*
X146449500Y-61049448D01*
X146449500Y-61230551D01*
X146477829Y-61409410D01*
X146533787Y-61581636D01*
X146533788Y-61581637D01*
X146533789Y-61581639D01*
X146613467Y-61738015D01*
X146616006Y-61742997D01*
X146722441Y-61889494D01*
X146722445Y-61889499D01*
X146850500Y-62017554D01*
X146850505Y-62017558D01*
X146978287Y-62110396D01*
X146997006Y-62123996D01*
X147102484Y-62177740D01*
X147158360Y-62206211D01*
X147158363Y-62206212D01*
X147244476Y-62234191D01*
X147330591Y-62262171D01*
X147403639Y-62273740D01*
X147490678Y-62287527D01*
X147553813Y-62317456D01*
X147590744Y-62376768D01*
X147589746Y-62446631D01*
X147551136Y-62504863D01*
X147490678Y-62532473D01*
X147330589Y-62557829D01*
X147158363Y-62613787D01*
X147158360Y-62613788D01*
X146997002Y-62696006D01*
X146850505Y-62802441D01*
X146850500Y-62802445D01*
X146722445Y-62930500D01*
X146722441Y-62930505D01*
X146616006Y-63077002D01*
X146533788Y-63238360D01*
X146533787Y-63238363D01*
X146477829Y-63410589D01*
X146449500Y-63589448D01*
X146449500Y-63770551D01*
X146477829Y-63949410D01*
X146533787Y-64121636D01*
X146533788Y-64121639D01*
X146616005Y-64282996D01*
X146623167Y-64292854D01*
X146646646Y-64358661D01*
X146630820Y-64426714D01*
X146580713Y-64475408D01*
X146512235Y-64489283D01*
X146447126Y-64463933D01*
X146435167Y-64453419D01*
X145841265Y-63859517D01*
X145841263Y-63859515D01*
X145744237Y-63803497D01*
X145636018Y-63774500D01*
X145636017Y-63774500D01*
X142974063Y-63774500D01*
X142967882Y-63772685D01*
X142961552Y-63773867D01*
X142934768Y-63762961D01*
X142907024Y-63754815D01*
X142902806Y-63749948D01*
X142896841Y-63747519D01*
X142880203Y-63723862D01*
X142861269Y-63702011D01*
X142860352Y-63695636D01*
X142856647Y-63690368D01*
X142855440Y-63661475D01*
X142851325Y-63632853D01*
X142853933Y-63625387D01*
X142853732Y-63620559D01*
X142860594Y-63606323D01*
X142867042Y-63587871D01*
X142875051Y-63574184D01*
X142880520Y-63568716D01*
X142959577Y-63431784D01*
X142960584Y-63428024D01*
X142966755Y-63417480D01*
X142973778Y-63410861D01*
X142986092Y-63392431D01*
X144640510Y-61738015D01*
X144712984Y-61612485D01*
X144721249Y-61581639D01*
X144723722Y-61572413D01*
X144734824Y-61530975D01*
X144750500Y-61472475D01*
X144750500Y-60279386D01*
X144770185Y-60212347D01*
X144786814Y-60191710D01*
X147731706Y-57246817D01*
X147793029Y-57213333D01*
X147819387Y-57210499D01*
X148494856Y-57210499D01*
X148494864Y-57210499D01*
X148494879Y-57210497D01*
X148494882Y-57210497D01*
X148519987Y-57207586D01*
X148519988Y-57207585D01*
X148519991Y-57207585D01*
X148622765Y-57162206D01*
X148702206Y-57082765D01*
X148737066Y-57003815D01*
X148782152Y-56950438D01*
X148848938Y-56929911D01*
X148916220Y-56948749D01*
G37*
%TD.AperFunction*%
%TA.AperFunction,Conductor*%
G36*
X155742539Y-49120185D02*
G01*
X155788294Y-49172989D01*
X155799500Y-49224500D01*
X155799500Y-86975500D01*
X155779815Y-87042539D01*
X155727011Y-87088294D01*
X155675500Y-87099500D01*
X121058296Y-87099500D01*
X120991257Y-87079815D01*
X120945502Y-87027011D01*
X120935558Y-86957853D01*
X120960967Y-86900182D01*
X120960645Y-86899967D01*
X120961872Y-86898130D01*
X120962443Y-86896835D01*
X120964029Y-86894902D01*
X121067444Y-86740131D01*
X121067449Y-86740122D01*
X121138683Y-86568146D01*
X121138685Y-86568138D01*
X121174999Y-86385578D01*
X121175000Y-86385576D01*
X121175000Y-86212500D01*
X120480000Y-86212500D01*
X120480000Y-85712500D01*
X121175000Y-85712500D01*
X121175000Y-85539423D01*
X121174999Y-85539421D01*
X121138685Y-85356861D01*
X121138683Y-85356853D01*
X121067449Y-85184877D01*
X121067444Y-85184868D01*
X121035394Y-85136902D01*
X120964029Y-85030098D01*
X120964026Y-85030094D01*
X120832405Y-84898473D01*
X120832401Y-84898470D01*
X120677631Y-84795055D01*
X120677622Y-84795050D01*
X120505648Y-84723817D01*
X120480000Y-84718714D01*
X120480000Y-85587772D01*
X120441940Y-85495886D01*
X120371614Y-85425560D01*
X120279728Y-85387500D01*
X120180272Y-85387500D01*
X120088386Y-85425560D01*
X120018060Y-85495886D01*
X119980000Y-85587772D01*
X119980000Y-84718714D01*
X119954351Y-84723817D01*
X119782377Y-84795050D01*
X119782368Y-84795055D01*
X119627598Y-84898470D01*
X119627594Y-84898473D01*
X119495973Y-85030094D01*
X119495970Y-85030098D01*
X119392555Y-85184868D01*
X119392550Y-85184877D01*
X119321316Y-85356853D01*
X119321314Y-85356861D01*
X119285000Y-85539421D01*
X119285000Y-85712500D01*
X119980000Y-85712500D01*
X119980000Y-86212500D01*
X119285000Y-86212500D01*
X119285000Y-86385578D01*
X119321314Y-86568138D01*
X119321316Y-86568146D01*
X119392550Y-86740122D01*
X119392555Y-86740131D01*
X119495970Y-86894902D01*
X119497557Y-86896835D01*
X119498071Y-86898045D01*
X119499355Y-86899967D01*
X119498990Y-86900210D01*
X119524870Y-86961145D01*
X119513079Y-87030012D01*
X119465927Y-87081573D01*
X119401704Y-87099500D01*
X114058296Y-87099500D01*
X113991257Y-87079815D01*
X113945502Y-87027011D01*
X113935558Y-86957853D01*
X113960967Y-86900182D01*
X113960645Y-86899967D01*
X113961872Y-86898130D01*
X113962443Y-86896835D01*
X113964029Y-86894902D01*
X114067444Y-86740131D01*
X114067449Y-86740122D01*
X114138683Y-86568146D01*
X114138685Y-86568138D01*
X114174999Y-86385578D01*
X114175000Y-86385576D01*
X114175000Y-86212500D01*
X113480000Y-86212500D01*
X113480000Y-85712500D01*
X114175000Y-85712500D01*
X114175000Y-85539423D01*
X114174999Y-85539421D01*
X114138685Y-85356861D01*
X114138683Y-85356853D01*
X114067449Y-85184877D01*
X114067444Y-85184868D01*
X113964029Y-85030098D01*
X113964026Y-85030094D01*
X113832405Y-84898473D01*
X113832401Y-84898470D01*
X113677631Y-84795055D01*
X113677622Y-84795050D01*
X113505648Y-84723817D01*
X113480000Y-84718714D01*
X113480000Y-85587772D01*
X113441940Y-85495886D01*
X113371614Y-85425560D01*
X113279728Y-85387500D01*
X113180272Y-85387500D01*
X113088386Y-85425560D01*
X113018060Y-85495886D01*
X112980000Y-85587772D01*
X112980000Y-84718714D01*
X112954351Y-84723817D01*
X112782377Y-84795050D01*
X112782368Y-84795055D01*
X112627598Y-84898470D01*
X112627594Y-84898473D01*
X112495973Y-85030094D01*
X112495970Y-85030098D01*
X112392555Y-85184868D01*
X112392550Y-85184877D01*
X112321316Y-85356853D01*
X112321314Y-85356861D01*
X112285000Y-85539421D01*
X112285000Y-85712500D01*
X112980000Y-85712500D01*
X112980000Y-86212500D01*
X112285000Y-86212500D01*
X112285000Y-86385578D01*
X112321314Y-86568138D01*
X112321316Y-86568146D01*
X112392550Y-86740122D01*
X112392555Y-86740131D01*
X112495970Y-86894902D01*
X112497557Y-86896835D01*
X112498071Y-86898045D01*
X112499355Y-86899967D01*
X112498990Y-86900210D01*
X112524870Y-86961145D01*
X112513079Y-87030012D01*
X112465927Y-87081573D01*
X112401704Y-87099500D01*
X91524500Y-87099500D01*
X91457461Y-87079815D01*
X91411706Y-87027011D01*
X91400500Y-86975500D01*
X91400500Y-85167193D01*
X95953250Y-85167193D01*
X95953250Y-85325307D01*
X95981781Y-85431784D01*
X95994173Y-85478033D01*
X95994176Y-85478040D01*
X96073225Y-85614959D01*
X96073229Y-85614964D01*
X96073230Y-85614966D01*
X96185034Y-85726770D01*
X96185036Y-85726771D01*
X96185040Y-85726774D01*
X96312739Y-85800500D01*
X96321966Y-85805827D01*
X96474693Y-85846750D01*
X96474695Y-85846750D01*
X96632805Y-85846750D01*
X96632807Y-85846750D01*
X96785534Y-85805827D01*
X96922466Y-85726770D01*
X97034270Y-85614966D01*
X97113327Y-85478034D01*
X97154250Y-85325307D01*
X97154250Y-85167193D01*
X97113327Y-85014466D01*
X97111656Y-85011573D01*
X97108678Y-85000727D01*
X97108848Y-84991008D01*
X97104250Y-84967887D01*
X97104250Y-80925637D01*
X97123935Y-80858598D01*
X97140569Y-80837956D01*
X100666706Y-77311819D01*
X100728029Y-77278334D01*
X100754387Y-77275500D01*
X116121637Y-77275500D01*
X116160179Y-77283165D01*
X116160365Y-77282473D01*
X116168214Y-77284576D01*
X116168216Y-77284577D01*
X116320943Y-77325500D01*
X116320945Y-77325500D01*
X116479055Y-77325500D01*
X116479057Y-77325500D01*
X116631784Y-77284577D01*
X116631785Y-77284576D01*
X116639635Y-77282473D01*
X116639820Y-77283165D01*
X116678363Y-77275500D01*
X117147472Y-77275500D01*
X117147474Y-77275500D01*
X117147475Y-77275500D01*
X117287485Y-77237984D01*
X117336802Y-77209511D01*
X117413015Y-77165510D01*
X119015510Y-75563015D01*
X119087984Y-75437485D01*
X119125500Y-75297475D01*
X119125500Y-63303362D01*
X119133167Y-63264822D01*
X119132473Y-63264636D01*
X119139513Y-63238361D01*
X119175500Y-63104057D01*
X119175500Y-62945943D01*
X119154725Y-62868409D01*
X119150500Y-62836316D01*
X119150500Y-53279387D01*
X119170185Y-53212348D01*
X119186819Y-53191706D01*
X120191706Y-52186819D01*
X120253029Y-52153334D01*
X120279387Y-52150500D01*
X121835501Y-52150500D01*
X121902540Y-52170185D01*
X121948295Y-52222989D01*
X121959501Y-52274500D01*
X121959501Y-52494856D01*
X121959502Y-52494882D01*
X121962413Y-52519987D01*
X121962415Y-52519991D01*
X122007793Y-52622764D01*
X122007794Y-52622765D01*
X122087235Y-52702206D01*
X122190009Y-52747585D01*
X122215135Y-52750500D01*
X124004864Y-52750499D01*
X124004879Y-52750497D01*
X124004882Y-52750497D01*
X124029987Y-52747586D01*
X124029988Y-52747585D01*
X124029991Y-52747585D01*
X124132765Y-52702206D01*
X124212206Y-52622765D01*
X124257585Y-52519991D01*
X124260500Y-52494865D01*
X124260499Y-52363076D01*
X124280183Y-52296040D01*
X124332987Y-52250285D01*
X124402145Y-52240341D01*
X124465701Y-52269365D01*
X124492495Y-52303600D01*
X124492829Y-52303396D01*
X124494607Y-52306297D01*
X124494977Y-52306770D01*
X124495373Y-52307547D01*
X124534728Y-52361716D01*
X125167037Y-51729408D01*
X125184075Y-51792993D01*
X125249901Y-51907007D01*
X125342993Y-52000099D01*
X125457007Y-52065925D01*
X125520590Y-52082962D01*
X124888282Y-52715269D01*
X124888282Y-52715270D01*
X124942449Y-52754624D01*
X125131782Y-52851095D01*
X125333870Y-52916757D01*
X125543754Y-52950000D01*
X125756246Y-52950000D01*
X125952027Y-52918991D01*
X126021320Y-52927945D01*
X126074772Y-52972942D01*
X126095412Y-53039693D01*
X126076687Y-53107007D01*
X126059106Y-53129145D01*
X122938737Y-56249515D01*
X122859517Y-56328734D01*
X122859513Y-56328740D01*
X122803498Y-56425760D01*
X122803497Y-56425763D01*
X122774500Y-56533982D01*
X122774500Y-68856613D01*
X122754815Y-68923652D01*
X122702011Y-68969407D01*
X122632853Y-68979351D01*
X122569297Y-68950326D01*
X122562819Y-68944294D01*
X121186819Y-67568294D01*
X121153334Y-67506971D01*
X121150500Y-67480613D01*
X121150500Y-64813362D01*
X121158167Y-64774822D01*
X121157473Y-64774636D01*
X121165089Y-64746212D01*
X121200500Y-64614057D01*
X121200500Y-64455943D01*
X121159577Y-64303216D01*
X121095592Y-64192389D01*
X121080524Y-64166290D01*
X121080518Y-64166282D01*
X120968717Y-64054481D01*
X120968709Y-64054475D01*
X120831790Y-63975426D01*
X120831786Y-63975424D01*
X120831784Y-63975423D01*
X120679057Y-63934500D01*
X120520943Y-63934500D01*
X120368216Y-63975423D01*
X120368209Y-63975426D01*
X120231290Y-64054475D01*
X120231282Y-64054481D01*
X120119481Y-64166282D01*
X120119475Y-64166290D01*
X120040426Y-64303209D01*
X120040423Y-64303216D01*
X119999500Y-64455943D01*
X119999500Y-64614057D01*
X120034911Y-64746212D01*
X120042527Y-64774636D01*
X120041832Y-64774822D01*
X120049500Y-64813362D01*
X120049500Y-67832474D01*
X120074425Y-67925499D01*
X120087013Y-67972478D01*
X120087016Y-67972485D01*
X120147471Y-68077198D01*
X120159489Y-68098013D01*
X120159491Y-68098016D01*
X124653181Y-72591706D01*
X124686666Y-72653029D01*
X124689500Y-72679387D01*
X124689500Y-72712475D01*
X124718258Y-72819799D01*
X124718257Y-72819799D01*
X124722915Y-72837181D01*
X124727016Y-72852485D01*
X124790498Y-72962441D01*
X124799489Y-72978013D01*
X124799491Y-72978016D01*
X125643181Y-73821706D01*
X125657884Y-73848633D01*
X125674477Y-73874452D01*
X125675368Y-73880652D01*
X125676666Y-73883029D01*
X125679500Y-73909387D01*
X125679500Y-74121637D01*
X125671834Y-74160179D01*
X125672527Y-74160365D01*
X125670423Y-74168214D01*
X125670423Y-74168216D01*
X125629500Y-74320943D01*
X125629500Y-74479057D01*
X125659094Y-74589501D01*
X125670423Y-74631783D01*
X125670426Y-74631790D01*
X125749475Y-74768709D01*
X125749479Y-74768714D01*
X125749480Y-74768716D01*
X125861284Y-74880520D01*
X125861286Y-74880521D01*
X125861290Y-74880524D01*
X125998209Y-74959573D01*
X125998216Y-74959577D01*
X126150943Y-75000500D01*
X126150945Y-75000500D01*
X126309055Y-75000500D01*
X126309057Y-75000500D01*
X126461784Y-74959577D01*
X126598716Y-74880520D01*
X126710520Y-74768716D01*
X126789577Y-74631784D01*
X126830500Y-74479057D01*
X126830500Y-74320943D01*
X126789577Y-74168216D01*
X126789576Y-74168214D01*
X126787473Y-74160365D01*
X126788165Y-74160179D01*
X126780500Y-74121637D01*
X126780500Y-73557527D01*
X126780500Y-73557525D01*
X126742984Y-73417515D01*
X126732583Y-73399500D01*
X126670510Y-73291985D01*
X126508622Y-73130097D01*
X126475137Y-73068774D01*
X126480121Y-72999082D01*
X126521993Y-72943149D01*
X126534304Y-72935029D01*
X126628709Y-72880524D01*
X126628708Y-72880524D01*
X126628716Y-72880520D01*
X126740520Y-72768716D01*
X126819577Y-72631784D01*
X126860500Y-72479057D01*
X126860500Y-72320943D01*
X126819577Y-72168216D01*
X126819573Y-72168209D01*
X126740524Y-72031290D01*
X126740518Y-72031282D01*
X126628717Y-71919481D01*
X126628709Y-71919475D01*
X126491790Y-71840426D01*
X126491786Y-71840424D01*
X126491784Y-71840423D01*
X126339057Y-71799500D01*
X126339056Y-71799500D01*
X126312610Y-71799500D01*
X126245571Y-71779815D01*
X126224929Y-71763181D01*
X123661819Y-69200071D01*
X123628334Y-69138748D01*
X123625500Y-69112390D01*
X123625500Y-67526610D01*
X123645185Y-67459571D01*
X123697989Y-67413816D01*
X123767147Y-67403872D01*
X123830703Y-67432897D01*
X123837181Y-67438929D01*
X129938181Y-73539929D01*
X129952884Y-73566856D01*
X129969477Y-73592675D01*
X129970368Y-73598875D01*
X129971666Y-73601252D01*
X129974500Y-73627610D01*
X129974500Y-73690001D01*
X129954815Y-73757040D01*
X129902011Y-73802795D01*
X129882598Y-73809774D01*
X129838069Y-73821706D01*
X129768214Y-73840423D01*
X129768209Y-73840426D01*
X129631290Y-73919475D01*
X129631282Y-73919481D01*
X129519481Y-74031282D01*
X129519475Y-74031290D01*
X129440426Y-74168209D01*
X129440423Y-74168216D01*
X129399500Y-74320943D01*
X129399500Y-74479057D01*
X129429094Y-74589501D01*
X129440423Y-74631783D01*
X129440426Y-74631790D01*
X129519475Y-74768709D01*
X129519479Y-74768714D01*
X129519480Y-74768716D01*
X129631284Y-74880520D01*
X129631285Y-74880521D01*
X129631287Y-74880522D01*
X129672934Y-74904567D01*
X129721150Y-74955134D01*
X129734373Y-75023741D01*
X129708405Y-75088606D01*
X129698615Y-75099635D01*
X125635071Y-79163181D01*
X125573748Y-79196666D01*
X125547390Y-79199500D01*
X111718982Y-79199500D01*
X111610763Y-79228497D01*
X111610760Y-79228498D01*
X111513740Y-79284513D01*
X111513734Y-79284517D01*
X111035071Y-79763181D01*
X110973748Y-79796666D01*
X110947390Y-79799500D01*
X110920943Y-79799500D01*
X110768216Y-79840423D01*
X110768209Y-79840426D01*
X110631290Y-79919475D01*
X110631282Y-79919481D01*
X110519481Y-80031282D01*
X110519475Y-80031290D01*
X110440426Y-80168209D01*
X110440423Y-80168216D01*
X110399500Y-80320943D01*
X110399500Y-80479057D01*
X110429231Y-80590012D01*
X110440423Y-80631783D01*
X110440426Y-80631790D01*
X110519475Y-80768709D01*
X110519479Y-80768714D01*
X110519480Y-80768716D01*
X110631284Y-80880520D01*
X110631286Y-80880521D01*
X110631290Y-80880524D01*
X110768209Y-80959573D01*
X110768216Y-80959577D01*
X110920943Y-81000500D01*
X110920945Y-81000500D01*
X111079055Y-81000500D01*
X111079057Y-81000500D01*
X111231784Y-80959577D01*
X111368716Y-80880520D01*
X111480520Y-80768716D01*
X111559577Y-80631784D01*
X111600500Y-80479057D01*
X111600500Y-80452610D01*
X111620185Y-80385571D01*
X111636819Y-80364929D01*
X111914929Y-80086819D01*
X111976252Y-80053334D01*
X112002610Y-80050500D01*
X125448390Y-80050500D01*
X125469635Y-80056738D01*
X125491724Y-80058318D01*
X125502507Y-80066390D01*
X125515429Y-80070185D01*
X125529928Y-80086918D01*
X125547657Y-80100190D01*
X125552364Y-80112810D01*
X125561184Y-80122989D01*
X125564335Y-80144906D01*
X125572074Y-80165654D01*
X125569211Y-80178814D01*
X125571128Y-80192147D01*
X125561928Y-80212290D01*
X125557222Y-80233927D01*
X125543953Y-80251652D01*
X125542103Y-80255703D01*
X125536071Y-80262181D01*
X125460071Y-80338181D01*
X125398748Y-80371666D01*
X125372390Y-80374500D01*
X112543981Y-80374500D01*
X112471993Y-80393789D01*
X112471992Y-80393788D01*
X112435767Y-80403495D01*
X112435760Y-80403498D01*
X112338740Y-80459513D01*
X112338734Y-80459517D01*
X109260071Y-83538181D01*
X109198748Y-83571666D01*
X109172390Y-83574500D01*
X102500229Y-83574500D01*
X102462854Y-83584514D01*
X102462855Y-83584515D01*
X102392011Y-83603497D01*
X102392010Y-83603498D01*
X102294990Y-83659513D01*
X102294984Y-83659517D01*
X101391321Y-84563181D01*
X101329998Y-84596666D01*
X101303640Y-84599500D01*
X101277193Y-84599500D01*
X101124466Y-84640423D01*
X101124459Y-84640426D01*
X100987540Y-84719475D01*
X100987532Y-84719481D01*
X100875731Y-84831282D01*
X100875725Y-84831290D01*
X100796676Y-84968209D01*
X100796673Y-84968216D01*
X100755750Y-85120943D01*
X100755750Y-85279057D01*
X100795006Y-85425560D01*
X100796673Y-85431783D01*
X100796676Y-85431790D01*
X100875725Y-85568709D01*
X100875729Y-85568714D01*
X100875730Y-85568716D01*
X100987534Y-85680520D01*
X100987536Y-85680521D01*
X100987540Y-85680524D01*
X101067642Y-85726770D01*
X101124466Y-85759577D01*
X101277193Y-85800500D01*
X101277195Y-85800500D01*
X101435305Y-85800500D01*
X101435307Y-85800500D01*
X101588034Y-85759577D01*
X101724966Y-85680520D01*
X101836770Y-85568716D01*
X101915827Y-85431784D01*
X101956750Y-85279057D01*
X101956750Y-85252609D01*
X101976435Y-85185570D01*
X101993069Y-85164928D01*
X102696178Y-84461819D01*
X102757501Y-84428334D01*
X102783859Y-84425500D01*
X109456016Y-84425500D01*
X109456018Y-84425500D01*
X109564237Y-84396503D01*
X109661263Y-84340485D01*
X110989248Y-83012500D01*
X113135626Y-83012500D01*
X113964943Y-83012500D01*
X113924225Y-83029366D01*
X113846866Y-83106725D01*
X113805000Y-83207799D01*
X113805000Y-83317201D01*
X113846866Y-83418275D01*
X113924225Y-83495634D01*
X113964943Y-83512500D01*
X113135626Y-83512500D01*
X113142466Y-83546889D01*
X113142468Y-83546897D01*
X113215964Y-83724333D01*
X113215969Y-83724342D01*
X113322667Y-83884026D01*
X113322670Y-83884030D01*
X113458469Y-84019829D01*
X113458473Y-84019832D01*
X113618157Y-84126530D01*
X113618166Y-84126535D01*
X113795602Y-84200031D01*
X113795610Y-84200033D01*
X113979999Y-84236710D01*
X113980000Y-84236710D01*
X113980000Y-83518736D01*
X114025299Y-83537500D01*
X114434701Y-83537500D01*
X114480000Y-83518736D01*
X114480000Y-84236710D01*
X114664389Y-84200033D01*
X114664397Y-84200031D01*
X114841833Y-84126535D01*
X114841842Y-84126530D01*
X115001526Y-84019832D01*
X115001530Y-84019829D01*
X115137329Y-83884030D01*
X115137332Y-83884026D01*
X115244030Y-83724342D01*
X115244035Y-83724333D01*
X115317531Y-83546897D01*
X115317533Y-83546889D01*
X115324374Y-83512500D01*
X114495057Y-83512500D01*
X114535775Y-83495634D01*
X114613134Y-83418275D01*
X114655000Y-83317201D01*
X114655000Y-83207799D01*
X114613134Y-83106725D01*
X114535775Y-83029366D01*
X114495057Y-83012500D01*
X115324374Y-83012500D01*
X118135626Y-83012500D01*
X118964943Y-83012500D01*
X118924225Y-83029366D01*
X118846866Y-83106725D01*
X118805000Y-83207799D01*
X118805000Y-83317201D01*
X118846866Y-83418275D01*
X118924225Y-83495634D01*
X118964943Y-83512500D01*
X118135626Y-83512500D01*
X118142466Y-83546889D01*
X118142468Y-83546897D01*
X118215964Y-83724333D01*
X118215969Y-83724342D01*
X118322667Y-83884026D01*
X118322670Y-83884030D01*
X118458469Y-84019829D01*
X118458473Y-84019832D01*
X118618157Y-84126530D01*
X118618166Y-84126535D01*
X118795602Y-84200031D01*
X118795610Y-84200033D01*
X118979999Y-84236710D01*
X118980000Y-84236710D01*
X118980000Y-83518736D01*
X119025299Y-83537500D01*
X119434701Y-83537500D01*
X119480000Y-83518736D01*
X119480000Y-84236710D01*
X119664389Y-84200033D01*
X119664397Y-84200031D01*
X119841833Y-84126535D01*
X119841842Y-84126530D01*
X120001526Y-84019832D01*
X120001530Y-84019829D01*
X120137329Y-83884030D01*
X120137332Y-83884026D01*
X120180121Y-83819990D01*
X120244030Y-83724342D01*
X120244035Y-83724333D01*
X120317531Y-83546897D01*
X120317533Y-83546889D01*
X120324374Y-83512500D01*
X119495057Y-83512500D01*
X119535775Y-83495634D01*
X119613134Y-83418275D01*
X119655000Y-83317201D01*
X119655000Y-83207799D01*
X119613134Y-83106725D01*
X119535775Y-83029366D01*
X119495057Y-83012500D01*
X120324374Y-83012500D01*
X120317533Y-82978110D01*
X120317530Y-82978098D01*
X120244035Y-82800667D01*
X120244030Y-82800657D01*
X120137332Y-82640973D01*
X120137329Y-82640969D01*
X120001530Y-82505170D01*
X120001526Y-82505167D01*
X119841842Y-82398469D01*
X119841833Y-82398464D01*
X119664397Y-82324968D01*
X119664389Y-82324966D01*
X119480000Y-82288288D01*
X119480000Y-83006263D01*
X119434701Y-82987500D01*
X119025299Y-82987500D01*
X118980000Y-83006263D01*
X118980000Y-82288289D01*
X118979999Y-82288288D01*
X118795610Y-82324966D01*
X118795602Y-82324968D01*
X118618166Y-82398464D01*
X118618157Y-82398469D01*
X118458473Y-82505167D01*
X118458469Y-82505170D01*
X118322670Y-82640969D01*
X118322667Y-82640973D01*
X118215969Y-82800657D01*
X118215964Y-82800666D01*
X118142468Y-82978102D01*
X118142466Y-82978110D01*
X118135626Y-83012500D01*
X115324374Y-83012500D01*
X115317533Y-82978110D01*
X115317531Y-82978102D01*
X115244035Y-82800666D01*
X115244030Y-82800657D01*
X115137332Y-82640973D01*
X115137329Y-82640969D01*
X115001530Y-82505170D01*
X115001526Y-82505167D01*
X114841842Y-82398469D01*
X114841833Y-82398464D01*
X114664397Y-82324968D01*
X114664389Y-82324966D01*
X114480000Y-82288288D01*
X114480000Y-83006263D01*
X114434701Y-82987500D01*
X114025299Y-82987500D01*
X113980000Y-83006263D01*
X113980000Y-82288289D01*
X113979999Y-82288288D01*
X113795610Y-82324966D01*
X113795602Y-82324968D01*
X113618166Y-82398464D01*
X113618157Y-82398469D01*
X113458473Y-82505167D01*
X113458469Y-82505170D01*
X113322670Y-82640969D01*
X113322667Y-82640973D01*
X113215969Y-82800657D01*
X113215964Y-82800666D01*
X113142468Y-82978102D01*
X113142466Y-82978110D01*
X113135626Y-83012500D01*
X110989248Y-83012500D01*
X112739929Y-81261819D01*
X112801252Y-81228334D01*
X112827610Y-81225500D01*
X125656016Y-81225500D01*
X125656018Y-81225500D01*
X125764237Y-81196503D01*
X125861263Y-81140485D01*
X133364929Y-73636819D01*
X133426252Y-73603334D01*
X133452610Y-73600500D01*
X133479055Y-73600500D01*
X133479057Y-73600500D01*
X133631784Y-73559577D01*
X133768716Y-73480520D01*
X133880520Y-73368716D01*
X133959577Y-73231784D01*
X134000500Y-73079057D01*
X134000500Y-72920943D01*
X133959577Y-72768216D01*
X133948387Y-72748835D01*
X133931915Y-72680936D01*
X133954768Y-72614909D01*
X133993775Y-72579449D01*
X134061263Y-72540485D01*
X135162819Y-71438929D01*
X135224142Y-71405444D01*
X135293834Y-71410428D01*
X135349767Y-71452300D01*
X135374184Y-71517764D01*
X135374500Y-71526610D01*
X135374500Y-77743982D01*
X135374500Y-77856018D01*
X135403497Y-77964237D01*
X135459515Y-78061263D01*
X135459516Y-78061264D01*
X135459517Y-78061265D01*
X136404002Y-79005749D01*
X136423707Y-79031428D01*
X136434512Y-79050143D01*
X136434517Y-79050149D01*
X136879853Y-79495485D01*
X136898565Y-79506288D01*
X136924247Y-79525995D01*
X137138181Y-79739929D01*
X137171666Y-79801252D01*
X137174500Y-79827610D01*
X137174500Y-82725500D01*
X137154815Y-82792539D01*
X137102011Y-82838294D01*
X137050500Y-82849500D01*
X136780143Y-82849500D01*
X136780117Y-82849502D01*
X136755012Y-82852413D01*
X136755008Y-82852415D01*
X136652235Y-82897793D01*
X136572794Y-82977234D01*
X136527415Y-83080006D01*
X136527415Y-83080008D01*
X136524500Y-83105131D01*
X136524500Y-83236920D01*
X136504815Y-83303959D01*
X136452011Y-83349714D01*
X136382853Y-83359658D01*
X136319297Y-83330633D01*
X136292505Y-83296398D01*
X136292171Y-83296604D01*
X136290382Y-83293685D01*
X136290018Y-83293220D01*
X136289627Y-83292454D01*
X136289626Y-83292452D01*
X136250270Y-83238282D01*
X136250269Y-83238282D01*
X135617962Y-83870590D01*
X135600925Y-83807007D01*
X135535099Y-83692993D01*
X135442007Y-83599901D01*
X135327993Y-83534075D01*
X135264409Y-83517037D01*
X135896716Y-82884728D01*
X135842550Y-82845375D01*
X135653217Y-82748904D01*
X135451129Y-82683242D01*
X135241246Y-82650000D01*
X135028754Y-82650000D01*
X134818872Y-82683242D01*
X134818869Y-82683242D01*
X134616782Y-82748904D01*
X134427439Y-82845380D01*
X134373282Y-82884727D01*
X134373282Y-82884728D01*
X135005591Y-83517037D01*
X134942007Y-83534075D01*
X134827993Y-83599901D01*
X134734901Y-83692993D01*
X134669075Y-83807007D01*
X134652037Y-83870591D01*
X134019728Y-83238282D01*
X134019727Y-83238282D01*
X133980380Y-83292439D01*
X133883904Y-83481782D01*
X133818242Y-83683869D01*
X133818242Y-83683872D01*
X133785000Y-83893753D01*
X133785000Y-84106246D01*
X133818242Y-84316127D01*
X133818242Y-84316130D01*
X133883904Y-84518217D01*
X133980375Y-84707550D01*
X134019728Y-84761716D01*
X134652037Y-84129408D01*
X134669075Y-84192993D01*
X134734901Y-84307007D01*
X134827993Y-84400099D01*
X134942007Y-84465925D01*
X135005590Y-84482962D01*
X134373282Y-85115269D01*
X134373282Y-85115270D01*
X134427449Y-85154624D01*
X134616782Y-85251095D01*
X134818870Y-85316757D01*
X135028754Y-85350000D01*
X135241246Y-85350000D01*
X135451127Y-85316757D01*
X135451130Y-85316757D01*
X135653217Y-85251095D01*
X135842554Y-85154622D01*
X135896716Y-85115270D01*
X135896717Y-85115270D01*
X135264408Y-84482962D01*
X135327993Y-84465925D01*
X135442007Y-84400099D01*
X135535099Y-84307007D01*
X135600925Y-84192993D01*
X135617962Y-84129408D01*
X136250270Y-84761717D01*
X136250270Y-84761716D01*
X136289621Y-84707555D01*
X136290005Y-84706803D01*
X136290229Y-84706564D01*
X136292168Y-84703402D01*
X136292831Y-84703808D01*
X136337970Y-84655998D01*
X136405787Y-84639190D01*
X136471927Y-84661715D01*
X136515388Y-84716422D01*
X136524500Y-84763076D01*
X136524500Y-84894855D01*
X136524502Y-84894882D01*
X136527413Y-84919987D01*
X136527415Y-84919991D01*
X136572793Y-85022764D01*
X136572794Y-85022765D01*
X136652235Y-85102206D01*
X136755009Y-85147585D01*
X136780135Y-85150500D01*
X138569864Y-85150499D01*
X138569879Y-85150497D01*
X138569882Y-85150497D01*
X138594987Y-85147586D01*
X138594988Y-85147585D01*
X138594991Y-85147585D01*
X138697765Y-85102206D01*
X138777206Y-85022765D01*
X138822585Y-84919991D01*
X138825500Y-84894865D01*
X138825499Y-83105136D01*
X138825497Y-83105117D01*
X138822586Y-83080012D01*
X138822585Y-83080010D01*
X138822585Y-83080009D01*
X138777206Y-82977235D01*
X138697765Y-82897794D01*
X138697763Y-82897793D01*
X138594992Y-82852415D01*
X138569868Y-82849500D01*
X138569865Y-82849500D01*
X138149500Y-82849500D01*
X138082461Y-82829815D01*
X138036706Y-82777011D01*
X138025500Y-82725500D01*
X138025500Y-79543984D01*
X138025500Y-79543982D01*
X137996503Y-79435763D01*
X137940485Y-79338737D01*
X137861263Y-79259515D01*
X137416263Y-78814515D01*
X137416262Y-78814514D01*
X137416259Y-78814512D01*
X137397547Y-78803709D01*
X137371866Y-78784003D01*
X137364870Y-78777007D01*
X137145977Y-78558113D01*
X137141116Y-78552966D01*
X137132653Y-78543473D01*
X137115485Y-78513737D01*
X137036263Y-78434515D01*
X137036260Y-78434513D01*
X136652265Y-78050518D01*
X136261819Y-77660071D01*
X136228334Y-77598748D01*
X136225500Y-77572390D01*
X136225500Y-71427610D01*
X136245185Y-71360571D01*
X136261819Y-71339929D01*
X137164929Y-70436819D01*
X137226252Y-70403334D01*
X137252610Y-70400500D01*
X137279055Y-70400500D01*
X137279057Y-70400500D01*
X137431784Y-70359577D01*
X137568716Y-70280520D01*
X137680520Y-70168716D01*
X137759577Y-70031784D01*
X137800500Y-69879057D01*
X137800500Y-69720943D01*
X137759577Y-69568216D01*
X137739486Y-69533417D01*
X137680524Y-69431290D01*
X137680518Y-69431282D01*
X137636917Y-69387681D01*
X137603432Y-69326358D01*
X137608416Y-69256666D01*
X137636917Y-69212319D01*
X137656763Y-69192473D01*
X137680520Y-69168716D01*
X137759577Y-69031784D01*
X137800500Y-68879057D01*
X137800500Y-68720943D01*
X137759577Y-68568216D01*
X137714760Y-68490590D01*
X137680524Y-68431290D01*
X137680518Y-68431282D01*
X137568717Y-68319481D01*
X137568709Y-68319475D01*
X137431790Y-68240426D01*
X137431786Y-68240424D01*
X137431784Y-68240423D01*
X137279057Y-68199500D01*
X137120943Y-68199500D01*
X136968216Y-68240423D01*
X136968209Y-68240426D01*
X136831290Y-68319475D01*
X136831282Y-68319481D01*
X136719481Y-68431282D01*
X136719475Y-68431290D01*
X136640426Y-68568209D01*
X136640423Y-68568216D01*
X136599500Y-68720943D01*
X136599500Y-68747389D01*
X136579815Y-68814428D01*
X136563181Y-68835070D01*
X134108785Y-71289465D01*
X134091542Y-71298879D01*
X134077241Y-71312349D01*
X134061507Y-71315280D01*
X134047462Y-71322950D01*
X134027866Y-71321548D01*
X134008554Y-71325147D01*
X133993735Y-71319107D01*
X133977770Y-71317966D01*
X133962041Y-71306191D01*
X133943851Y-71298778D01*
X133928816Y-71281319D01*
X133921837Y-71276094D01*
X133919653Y-71273085D01*
X133916483Y-71268575D01*
X133880520Y-71206284D01*
X133854221Y-71179985D01*
X133848049Y-71171203D01*
X133840135Y-71147873D01*
X133828334Y-71126260D01*
X133826259Y-71106961D01*
X133825606Y-71105036D01*
X133825917Y-71103785D01*
X133825500Y-71099902D01*
X133825500Y-70543984D01*
X133825500Y-70543982D01*
X133796503Y-70435763D01*
X133740485Y-70338737D01*
X133661263Y-70259515D01*
X131778644Y-68376896D01*
X131745159Y-68315573D01*
X131750143Y-68245881D01*
X131792015Y-68189948D01*
X131834229Y-68169441D01*
X131883458Y-68156251D01*
X132020390Y-68077194D01*
X132132194Y-67965390D01*
X132155225Y-67925499D01*
X132177164Y-67887500D01*
X132227731Y-67839285D01*
X132284551Y-67825500D01*
X135256016Y-67825500D01*
X135256018Y-67825500D01*
X135364237Y-67796503D01*
X135461263Y-67740485D01*
X137339929Y-65861819D01*
X137401252Y-65828334D01*
X137427610Y-65825500D01*
X143872390Y-65825500D01*
X143939429Y-65845185D01*
X143960071Y-65861819D01*
X145738181Y-67639929D01*
X145771666Y-67701252D01*
X145774500Y-67727610D01*
X145774500Y-69843982D01*
X145774500Y-69956018D01*
X145803497Y-70064237D01*
X145859515Y-70161263D01*
X145859517Y-70161265D01*
X146485655Y-70787403D01*
X146519140Y-70848726D01*
X146515905Y-70913402D01*
X146477829Y-71030589D01*
X146449500Y-71209448D01*
X146449500Y-71390551D01*
X146477829Y-71569410D01*
X146533787Y-71741636D01*
X146533788Y-71741639D01*
X146616005Y-71902996D01*
X146623167Y-71912854D01*
X146646646Y-71978661D01*
X146630820Y-72046714D01*
X146580713Y-72095408D01*
X146512235Y-72109283D01*
X146447126Y-72083933D01*
X146435167Y-72073419D01*
X143521265Y-69159517D01*
X143521263Y-69159515D01*
X143424237Y-69103497D01*
X143316018Y-69074500D01*
X143316017Y-69074500D01*
X141365098Y-69074500D01*
X141298059Y-69054815D01*
X141277417Y-69038181D01*
X141258717Y-69019481D01*
X141258709Y-69019475D01*
X141121790Y-68940426D01*
X141121786Y-68940424D01*
X141121784Y-68940423D01*
X140969057Y-68899500D01*
X140810943Y-68899500D01*
X140658216Y-68940423D01*
X140658209Y-68940426D01*
X140521290Y-69019475D01*
X140521282Y-69019481D01*
X140409481Y-69131282D01*
X140409475Y-69131290D01*
X140330426Y-69268209D01*
X140330423Y-69268216D01*
X140289500Y-69420943D01*
X140289500Y-69579057D01*
X140325486Y-69713356D01*
X140330423Y-69731783D01*
X140330426Y-69731790D01*
X140409475Y-69868709D01*
X140409479Y-69868714D01*
X140409480Y-69868716D01*
X140521284Y-69980520D01*
X140521286Y-69980521D01*
X140521290Y-69980524D01*
X140630543Y-70043600D01*
X140658216Y-70059577D01*
X140810943Y-70100500D01*
X140810945Y-70100500D01*
X140969055Y-70100500D01*
X140969057Y-70100500D01*
X141121784Y-70059577D01*
X141134473Y-70052250D01*
X141202372Y-70035777D01*
X141268399Y-70058628D01*
X141311591Y-70113549D01*
X141318234Y-70183102D01*
X141286219Y-70245205D01*
X141284155Y-70247318D01*
X136959491Y-74571983D01*
X136959490Y-74571985D01*
X136924966Y-74631784D01*
X136908828Y-74659736D01*
X136908827Y-74659737D01*
X136887017Y-74697512D01*
X136887016Y-74697513D01*
X136881645Y-74717558D01*
X136849500Y-74837525D01*
X136849500Y-74837527D01*
X136849500Y-77291637D01*
X136841834Y-77330179D01*
X136842527Y-77330365D01*
X136840423Y-77338214D01*
X136840423Y-77338216D01*
X136799500Y-77490943D01*
X136799500Y-77649057D01*
X136839364Y-77797829D01*
X136840423Y-77801783D01*
X136840426Y-77801790D01*
X136919475Y-77938709D01*
X136919479Y-77938714D01*
X136919480Y-77938716D01*
X137031284Y-78050520D01*
X137031286Y-78050521D01*
X137031290Y-78050524D01*
X137168209Y-78129573D01*
X137168216Y-78129577D01*
X137291164Y-78162520D01*
X137346749Y-78194613D01*
X144992646Y-85840510D01*
X145118176Y-85912984D01*
X145258186Y-85950500D01*
X145258189Y-85950500D01*
X149582472Y-85950500D01*
X149582474Y-85950500D01*
X149582475Y-85950500D01*
X149722485Y-85912984D01*
X149848015Y-85840510D01*
X152991706Y-82696817D01*
X153053029Y-82663333D01*
X153079387Y-82660499D01*
X154294856Y-82660499D01*
X154294864Y-82660499D01*
X154294879Y-82660497D01*
X154294882Y-82660497D01*
X154319987Y-82657586D01*
X154319988Y-82657585D01*
X154319991Y-82657585D01*
X154422765Y-82612206D01*
X154502206Y-82532765D01*
X154547585Y-82429991D01*
X154550500Y-82404865D01*
X154550499Y-80615136D01*
X154550497Y-80615117D01*
X154547586Y-80590012D01*
X154547585Y-80590010D01*
X154547585Y-80590009D01*
X154502206Y-80487235D01*
X154422765Y-80407794D01*
X154422763Y-80407793D01*
X154319992Y-80362415D01*
X154294868Y-80359500D01*
X154163079Y-80359500D01*
X154096040Y-80339815D01*
X154050285Y-80287011D01*
X154040341Y-80217853D01*
X154069366Y-80154297D01*
X154103606Y-80127502D01*
X154103402Y-80127168D01*
X154106317Y-80125381D01*
X154106787Y-80125014D01*
X154107552Y-80124623D01*
X154161716Y-80085270D01*
X154161717Y-80085270D01*
X153529408Y-79452962D01*
X153592993Y-79435925D01*
X153707007Y-79370099D01*
X153800099Y-79277007D01*
X153865925Y-79162993D01*
X153882962Y-79099408D01*
X154515270Y-79731717D01*
X154515270Y-79731716D01*
X154554622Y-79677554D01*
X154651095Y-79488217D01*
X154716757Y-79286130D01*
X154716757Y-79286127D01*
X154750000Y-79076246D01*
X154750000Y-78863753D01*
X154716757Y-78653872D01*
X154716757Y-78653869D01*
X154651095Y-78451782D01*
X154554624Y-78262449D01*
X154515270Y-78208282D01*
X154515269Y-78208282D01*
X153882962Y-78840590D01*
X153865925Y-78777007D01*
X153800099Y-78662993D01*
X153707007Y-78569901D01*
X153592993Y-78504075D01*
X153529409Y-78487037D01*
X154161716Y-77854728D01*
X154107550Y-77815375D01*
X153918217Y-77718904D01*
X153889292Y-77709506D01*
X153831616Y-77670068D01*
X153804418Y-77605710D01*
X153816333Y-77536863D01*
X153863577Y-77485388D01*
X153871315Y-77481090D01*
X154002994Y-77413996D01*
X154149501Y-77307553D01*
X154277553Y-77179501D01*
X154383996Y-77032994D01*
X154466211Y-76871639D01*
X154522171Y-76699409D01*
X154536765Y-76607259D01*
X154550500Y-76520551D01*
X154550500Y-76339448D01*
X154530316Y-76212016D01*
X154522171Y-76160591D01*
X154466211Y-75988361D01*
X154466211Y-75988360D01*
X154430056Y-75917403D01*
X154383996Y-75827006D01*
X154347666Y-75777002D01*
X154277558Y-75680505D01*
X154277554Y-75680500D01*
X154149499Y-75552445D01*
X154149494Y-75552441D01*
X154002997Y-75446006D01*
X154002996Y-75446005D01*
X154002994Y-75446004D01*
X153950459Y-75419236D01*
X153841639Y-75363788D01*
X153841636Y-75363787D01*
X153669410Y-75307829D01*
X153509321Y-75282473D01*
X153446186Y-75252544D01*
X153409255Y-75193232D01*
X153410253Y-75123370D01*
X153448863Y-75065137D01*
X153509321Y-75037527D01*
X153579425Y-75026422D01*
X153669409Y-75012171D01*
X153841639Y-74956211D01*
X154002994Y-74873996D01*
X154149501Y-74767553D01*
X154277553Y-74639501D01*
X154383996Y-74492994D01*
X154466211Y-74331639D01*
X154522171Y-74159409D01*
X154542464Y-74031284D01*
X154550500Y-73980551D01*
X154550500Y-73799448D01*
X154524741Y-73636819D01*
X154522171Y-73620591D01*
X154466211Y-73448361D01*
X154466211Y-73448360D01*
X154425630Y-73368717D01*
X154383996Y-73287006D01*
X154346764Y-73235760D01*
X154277558Y-73140505D01*
X154277554Y-73140500D01*
X154149499Y-73012445D01*
X154149494Y-73012441D01*
X154002997Y-72906006D01*
X154002996Y-72906005D01*
X154002994Y-72906004D01*
X153951300Y-72879664D01*
X153841639Y-72823788D01*
X153841636Y-72823787D01*
X153669410Y-72767829D01*
X153490551Y-72739500D01*
X153490546Y-72739500D01*
X153309454Y-72739500D01*
X153309449Y-72739500D01*
X153130589Y-72767829D01*
X152958363Y-72823787D01*
X152958360Y-72823788D01*
X152830795Y-72888787D01*
X152762126Y-72901683D01*
X152697385Y-72875407D01*
X152657128Y-72818300D01*
X152650500Y-72778302D01*
X152650500Y-71451697D01*
X152670185Y-71384658D01*
X152722989Y-71338903D01*
X152792147Y-71328959D01*
X152830796Y-71341213D01*
X152958355Y-71406209D01*
X152958363Y-71406212D01*
X152996189Y-71418502D01*
X153130591Y-71462171D01*
X153213429Y-71475291D01*
X153309449Y-71490500D01*
X153309454Y-71490500D01*
X153490551Y-71490500D01*
X153577259Y-71476765D01*
X153669409Y-71462171D01*
X153841639Y-71406211D01*
X154002994Y-71323996D01*
X154149501Y-71217553D01*
X154277553Y-71089501D01*
X154383996Y-70942994D01*
X154466211Y-70781639D01*
X154522171Y-70609409D01*
X154542817Y-70479055D01*
X154550500Y-70430551D01*
X154550500Y-70249448D01*
X154530767Y-70124863D01*
X154522171Y-70070591D01*
X154491948Y-69977573D01*
X154466212Y-69898363D01*
X154466211Y-69898360D01*
X154429449Y-69826212D01*
X154383996Y-69737006D01*
X154311740Y-69637553D01*
X154277558Y-69590505D01*
X154277554Y-69590500D01*
X154149499Y-69462445D01*
X154149494Y-69462441D01*
X154002997Y-69356006D01*
X154002996Y-69356005D01*
X154002994Y-69356004D01*
X153944811Y-69326358D01*
X153841639Y-69273788D01*
X153841636Y-69273787D01*
X153669410Y-69217829D01*
X153509321Y-69192473D01*
X153446186Y-69162544D01*
X153409255Y-69103232D01*
X153410253Y-69033370D01*
X153448863Y-68975137D01*
X153509321Y-68947527D01*
X153579425Y-68936422D01*
X153669409Y-68922171D01*
X153841639Y-68866211D01*
X154002994Y-68783996D01*
X154149501Y-68677553D01*
X154277553Y-68549501D01*
X154383996Y-68402994D01*
X154466211Y-68241639D01*
X154522171Y-68069409D01*
X154540130Y-67956018D01*
X154550500Y-67890551D01*
X154550500Y-67709448D01*
X154531819Y-67591507D01*
X154522171Y-67530591D01*
X154480998Y-67403872D01*
X154466212Y-67358363D01*
X154466211Y-67358360D01*
X154429449Y-67286212D01*
X154383996Y-67197006D01*
X154325254Y-67116154D01*
X154277558Y-67050505D01*
X154277554Y-67050500D01*
X154149499Y-66922445D01*
X154149494Y-66922441D01*
X154002995Y-66816004D01*
X153871314Y-66748908D01*
X153820519Y-66700934D01*
X153803724Y-66633113D01*
X153826262Y-66566978D01*
X153880977Y-66523527D01*
X153889295Y-66520492D01*
X153918217Y-66511095D01*
X154107554Y-66414622D01*
X154161716Y-66375270D01*
X154161717Y-66375270D01*
X153529408Y-65742962D01*
X153592993Y-65725925D01*
X153707007Y-65660099D01*
X153800099Y-65567007D01*
X153865925Y-65452993D01*
X153882962Y-65389408D01*
X154515270Y-66021717D01*
X154515270Y-66021716D01*
X154554622Y-65967554D01*
X154651095Y-65778217D01*
X154716757Y-65576130D01*
X154716757Y-65576127D01*
X154750000Y-65366246D01*
X154750000Y-65153753D01*
X154716757Y-64943872D01*
X154716757Y-64943869D01*
X154651095Y-64741782D01*
X154554624Y-64552449D01*
X154515270Y-64498282D01*
X154515269Y-64498282D01*
X153882962Y-65130590D01*
X153865925Y-65067007D01*
X153800099Y-64952993D01*
X153707007Y-64859901D01*
X153592993Y-64794075D01*
X153529409Y-64777037D01*
X154161716Y-64144728D01*
X154107550Y-64105375D01*
X154106786Y-64104986D01*
X154106546Y-64104759D01*
X154103396Y-64102829D01*
X154103801Y-64102167D01*
X154055988Y-64057013D01*
X154039191Y-63989192D01*
X154061726Y-63923057D01*
X154116440Y-63879604D01*
X154163076Y-63870499D01*
X154294864Y-63870499D01*
X154294879Y-63870497D01*
X154294882Y-63870497D01*
X154319987Y-63867586D01*
X154319988Y-63867585D01*
X154319991Y-63867585D01*
X154422765Y-63822206D01*
X154502206Y-63742765D01*
X154547585Y-63639991D01*
X154550500Y-63614865D01*
X154550499Y-61825136D01*
X154547729Y-61801247D01*
X154547586Y-61800012D01*
X154547585Y-61800010D01*
X154547585Y-61800009D01*
X154502206Y-61697235D01*
X154422765Y-61617794D01*
X154410739Y-61612484D01*
X154319992Y-61572415D01*
X154294865Y-61569500D01*
X152505143Y-61569500D01*
X152505117Y-61569502D01*
X152480012Y-61572413D01*
X152480008Y-61572415D01*
X152377235Y-61617793D01*
X152297794Y-61697234D01*
X152252415Y-61800006D01*
X152252415Y-61800008D01*
X152249500Y-61825131D01*
X152249500Y-63614856D01*
X152249502Y-63614882D01*
X152252413Y-63639987D01*
X152252415Y-63639991D01*
X152297793Y-63742764D01*
X152297794Y-63742765D01*
X152377235Y-63822206D01*
X152480009Y-63867585D01*
X152505135Y-63870500D01*
X152636923Y-63870499D01*
X152703960Y-63890183D01*
X152749715Y-63942987D01*
X152759659Y-64012145D01*
X152730635Y-64075701D01*
X152696387Y-64102507D01*
X152696590Y-64102838D01*
X152693715Y-64104599D01*
X152693239Y-64104972D01*
X152692451Y-64105373D01*
X152692440Y-64105380D01*
X152638282Y-64144727D01*
X152638282Y-64144728D01*
X153270591Y-64777037D01*
X153207007Y-64794075D01*
X153092993Y-64859901D01*
X152999901Y-64952993D01*
X152934075Y-65067007D01*
X152917037Y-65130591D01*
X152284728Y-64498282D01*
X152284727Y-64498282D01*
X152245380Y-64552439D01*
X152148904Y-64741782D01*
X152083242Y-64943869D01*
X152083242Y-64943872D01*
X152050000Y-65153753D01*
X152050000Y-65366246D01*
X152083242Y-65576127D01*
X152083242Y-65576130D01*
X152148904Y-65778217D01*
X152245375Y-65967550D01*
X152284728Y-66021716D01*
X152917036Y-65389407D01*
X152934075Y-65452993D01*
X152999901Y-65567007D01*
X153092993Y-65660099D01*
X153207007Y-65725925D01*
X153270590Y-65742962D01*
X152638282Y-66375269D01*
X152638282Y-66375270D01*
X152692449Y-66414624D01*
X152881780Y-66511094D01*
X152910705Y-66520492D01*
X152968381Y-66559929D01*
X152995580Y-66624287D01*
X152983667Y-66693134D01*
X152936424Y-66744610D01*
X152928685Y-66748908D01*
X152797004Y-66816004D01*
X152650505Y-66922441D01*
X152650500Y-66922445D01*
X152522445Y-67050500D01*
X152522441Y-67050505D01*
X152416006Y-67197002D01*
X152333788Y-67358360D01*
X152333787Y-67358363D01*
X152277829Y-67530589D01*
X152249500Y-67709448D01*
X152249500Y-67890551D01*
X152277828Y-68069409D01*
X152315905Y-68186596D01*
X152317900Y-68256437D01*
X152285655Y-68312595D01*
X151963737Y-68634515D01*
X151884517Y-68713734D01*
X151884513Y-68713740D01*
X151828498Y-68810760D01*
X151828497Y-68810763D01*
X151799500Y-68918982D01*
X151799500Y-75198982D01*
X151799500Y-75311018D01*
X151828497Y-75419237D01*
X151884515Y-75516263D01*
X151884517Y-75516265D01*
X152285655Y-75917403D01*
X152319140Y-75978726D01*
X152315905Y-76043402D01*
X152277829Y-76160589D01*
X152249500Y-76339448D01*
X152249500Y-76520551D01*
X152277829Y-76699410D01*
X152333787Y-76871636D01*
X152333788Y-76871639D01*
X152416006Y-77032997D01*
X152522441Y-77179494D01*
X152522445Y-77179499D01*
X152650500Y-77307554D01*
X152650505Y-77307558D01*
X152778287Y-77400396D01*
X152797006Y-77413996D01*
X152898780Y-77465853D01*
X152928684Y-77481090D01*
X152979480Y-77529065D01*
X152996275Y-77596886D01*
X152973737Y-77663021D01*
X152919022Y-77706472D01*
X152910708Y-77709506D01*
X152881781Y-77718905D01*
X152692439Y-77815380D01*
X152638282Y-77854727D01*
X152638282Y-77854728D01*
X153270591Y-78487037D01*
X153207007Y-78504075D01*
X153092993Y-78569901D01*
X152999901Y-78662993D01*
X152934075Y-78777007D01*
X152917037Y-78840591D01*
X152284728Y-78208282D01*
X152284727Y-78208282D01*
X152245380Y-78262439D01*
X152148904Y-78451782D01*
X152083242Y-78653869D01*
X152083242Y-78653872D01*
X152050000Y-78863753D01*
X152050000Y-79076246D01*
X152083242Y-79286127D01*
X152083242Y-79286130D01*
X152148904Y-79488217D01*
X152245375Y-79677550D01*
X152284728Y-79731716D01*
X152917037Y-79099408D01*
X152934075Y-79162993D01*
X152999901Y-79277007D01*
X153092993Y-79370099D01*
X153207007Y-79435925D01*
X153270590Y-79452962D01*
X152638282Y-80085269D01*
X152638282Y-80085270D01*
X152692447Y-80124623D01*
X152693205Y-80125009D01*
X152693443Y-80125233D01*
X152696604Y-80127171D01*
X152696197Y-80127834D01*
X152744006Y-80172978D01*
X152760809Y-80240797D01*
X152738278Y-80306935D01*
X152683568Y-80350392D01*
X152636923Y-80359500D01*
X152505144Y-80359500D01*
X152505117Y-80359502D01*
X152480012Y-80362413D01*
X152480008Y-80362415D01*
X152377235Y-80407793D01*
X152297794Y-80487234D01*
X152252415Y-80590006D01*
X152252415Y-80590008D01*
X152249500Y-80615131D01*
X152249500Y-81830612D01*
X152229815Y-81897651D01*
X152213181Y-81918293D01*
X149318294Y-84813181D01*
X149256971Y-84846666D01*
X149230613Y-84849500D01*
X145610048Y-84849500D01*
X145543009Y-84829815D01*
X145522367Y-84813181D01*
X137986819Y-77277633D01*
X137953334Y-77216310D01*
X137950500Y-77189952D01*
X137950500Y-75189386D01*
X137970185Y-75122347D01*
X137986814Y-75101710D01*
X142102431Y-70986092D01*
X142135104Y-70964262D01*
X142134745Y-70963640D01*
X142141780Y-70959577D01*
X142141784Y-70959577D01*
X142278716Y-70880520D01*
X142390520Y-70768716D01*
X142469577Y-70631784D01*
X142510500Y-70479057D01*
X142510500Y-70320943D01*
X142469577Y-70168216D01*
X142436831Y-70111499D01*
X142420359Y-70043600D01*
X142443212Y-69977573D01*
X142498133Y-69934382D01*
X142544219Y-69925500D01*
X143032390Y-69925500D01*
X143099429Y-69945185D01*
X143120071Y-69961819D01*
X146485655Y-73327403D01*
X146519140Y-73388726D01*
X146515905Y-73453402D01*
X146477829Y-73570589D01*
X146449500Y-73749448D01*
X146449500Y-73930551D01*
X146477829Y-74109410D01*
X146533787Y-74281636D01*
X146533788Y-74281639D01*
X146616006Y-74442997D01*
X146722441Y-74589494D01*
X146722445Y-74589499D01*
X146850500Y-74717554D01*
X146850505Y-74717558D01*
X146978287Y-74810396D01*
X146997006Y-74823996D01*
X147095130Y-74873993D01*
X147158360Y-74906211D01*
X147158363Y-74906212D01*
X147244476Y-74934191D01*
X147330591Y-74962171D01*
X147403639Y-74973740D01*
X147490678Y-74987527D01*
X147553813Y-75017456D01*
X147590744Y-75076768D01*
X147589746Y-75146631D01*
X147551136Y-75204863D01*
X147490678Y-75232473D01*
X147330589Y-75257829D01*
X147158363Y-75313787D01*
X147158360Y-75313788D01*
X146997002Y-75396006D01*
X146850505Y-75502441D01*
X146850500Y-75502445D01*
X146722445Y-75630500D01*
X146722441Y-75630505D01*
X146616006Y-75777002D01*
X146533788Y-75938360D01*
X146533787Y-75938363D01*
X146477829Y-76110589D01*
X146449500Y-76289448D01*
X146449500Y-76470551D01*
X146477829Y-76649410D01*
X146533787Y-76821636D01*
X146533788Y-76821639D01*
X146616006Y-76982997D01*
X146722441Y-77129494D01*
X146722445Y-77129499D01*
X146850500Y-77257554D01*
X146850505Y-77257558D01*
X146961523Y-77338216D01*
X146997006Y-77363996D01*
X147095130Y-77413993D01*
X147158360Y-77446211D01*
X147158363Y-77446212D01*
X147244476Y-77474191D01*
X147330591Y-77502171D01*
X147403639Y-77513740D01*
X147490678Y-77527527D01*
X147553813Y-77557456D01*
X147590744Y-77616768D01*
X147589746Y-77686631D01*
X147551136Y-77744863D01*
X147490678Y-77772473D01*
X147330589Y-77797829D01*
X147158363Y-77853787D01*
X147158360Y-77853788D01*
X146997002Y-77936006D01*
X146850505Y-78042441D01*
X146850500Y-78042445D01*
X146722445Y-78170500D01*
X146722441Y-78170505D01*
X146616006Y-78317002D01*
X146533788Y-78478360D01*
X146533787Y-78478363D01*
X146477829Y-78650589D01*
X146449500Y-78829448D01*
X146449500Y-79010551D01*
X146477829Y-79189410D01*
X146533787Y-79361636D01*
X146533788Y-79361639D01*
X146571557Y-79435763D01*
X146601987Y-79495485D01*
X146616006Y-79522997D01*
X146722441Y-79669494D01*
X146722445Y-79669499D01*
X146850500Y-79797554D01*
X146850505Y-79797558D01*
X146978287Y-79890396D01*
X146997006Y-79903996D01*
X147102484Y-79957740D01*
X147158360Y-79986211D01*
X147158363Y-79986212D01*
X147244476Y-80014191D01*
X147330591Y-80042171D01*
X147401072Y-80053334D01*
X147490678Y-80067527D01*
X147553813Y-80097456D01*
X147590744Y-80156768D01*
X147589746Y-80226631D01*
X147551136Y-80284863D01*
X147490678Y-80312473D01*
X147330589Y-80337829D01*
X147158363Y-80393787D01*
X147158360Y-80393788D01*
X146997002Y-80476006D01*
X146850505Y-80582441D01*
X146850500Y-80582445D01*
X146722445Y-80710500D01*
X146722441Y-80710505D01*
X146616006Y-80857002D01*
X146533788Y-81018360D01*
X146533787Y-81018363D01*
X146477829Y-81190589D01*
X146449500Y-81369448D01*
X146449500Y-81550551D01*
X146477829Y-81729410D01*
X146533787Y-81901636D01*
X146533788Y-81901639D01*
X146616006Y-82062997D01*
X146722441Y-82209494D01*
X146722445Y-82209499D01*
X146850500Y-82337554D01*
X146850505Y-82337558D01*
X146977730Y-82429991D01*
X146997006Y-82443996D01*
X147102484Y-82497740D01*
X147158360Y-82526211D01*
X147158363Y-82526212D01*
X147178532Y-82532765D01*
X147330591Y-82582171D01*
X147413429Y-82595291D01*
X147509449Y-82610500D01*
X147509454Y-82610500D01*
X147690551Y-82610500D01*
X147777259Y-82596765D01*
X147869409Y-82582171D01*
X148041639Y-82526211D01*
X148202994Y-82443996D01*
X148349501Y-82337553D01*
X148477553Y-82209501D01*
X148583996Y-82062994D01*
X148666211Y-81901639D01*
X148722171Y-81729409D01*
X148736765Y-81637259D01*
X148750500Y-81550551D01*
X148750500Y-81369448D01*
X148727700Y-81225500D01*
X148722171Y-81190591D01*
X148666211Y-81018361D01*
X148666211Y-81018360D01*
X148618965Y-80925637D01*
X148583996Y-80857006D01*
X148519845Y-80768709D01*
X148477558Y-80710505D01*
X148477554Y-80710500D01*
X148349499Y-80582445D01*
X148349494Y-80582441D01*
X148202997Y-80476006D01*
X148202996Y-80476005D01*
X148202994Y-80476004D01*
X148120090Y-80433762D01*
X148041639Y-80393788D01*
X148041636Y-80393787D01*
X147869410Y-80337829D01*
X147709321Y-80312473D01*
X147646186Y-80282544D01*
X147609255Y-80223232D01*
X147610253Y-80153370D01*
X147648863Y-80095137D01*
X147709321Y-80067527D01*
X147779425Y-80056422D01*
X147869409Y-80042171D01*
X148041639Y-79986211D01*
X148202994Y-79903996D01*
X148349501Y-79797553D01*
X148477553Y-79669501D01*
X148583996Y-79522994D01*
X148666211Y-79361639D01*
X148722171Y-79189409D01*
X148744228Y-79050147D01*
X148750500Y-79010551D01*
X148750500Y-78829448D01*
X148724135Y-78662993D01*
X148722171Y-78650591D01*
X148666211Y-78478361D01*
X148666211Y-78478360D01*
X148637740Y-78422484D01*
X148583996Y-78317006D01*
X148495073Y-78194613D01*
X148477558Y-78170505D01*
X148477554Y-78170500D01*
X148349499Y-78042445D01*
X148349494Y-78042441D01*
X148202997Y-77936006D01*
X148202996Y-77936005D01*
X148202994Y-77936004D01*
X148151300Y-77909664D01*
X148041639Y-77853788D01*
X148041636Y-77853787D01*
X147869410Y-77797829D01*
X147709321Y-77772473D01*
X147646186Y-77742544D01*
X147609255Y-77683232D01*
X147610253Y-77613370D01*
X147648863Y-77555137D01*
X147709321Y-77527527D01*
X147779425Y-77516422D01*
X147869409Y-77502171D01*
X148041639Y-77446211D01*
X148202994Y-77363996D01*
X148349501Y-77257553D01*
X148477553Y-77129501D01*
X148583996Y-76982994D01*
X148666211Y-76821639D01*
X148722171Y-76649409D01*
X148742581Y-76520546D01*
X148750500Y-76470551D01*
X148750500Y-76289448D01*
X148731639Y-76170368D01*
X148722171Y-76110591D01*
X148694191Y-76024476D01*
X148666212Y-75938363D01*
X148666211Y-75938360D01*
X148609470Y-75827002D01*
X148583996Y-75777006D01*
X148570396Y-75758287D01*
X148477558Y-75630505D01*
X148477554Y-75630500D01*
X148349499Y-75502445D01*
X148349494Y-75502441D01*
X148202997Y-75396006D01*
X148202996Y-75396005D01*
X148202994Y-75396004D01*
X148139765Y-75363787D01*
X148041639Y-75313788D01*
X148041636Y-75313787D01*
X147869410Y-75257829D01*
X147709321Y-75232473D01*
X147646186Y-75202544D01*
X147609255Y-75143232D01*
X147610253Y-75073370D01*
X147648863Y-75015137D01*
X147709321Y-74987527D01*
X147779425Y-74976422D01*
X147869409Y-74962171D01*
X148041639Y-74906211D01*
X148202994Y-74823996D01*
X148349501Y-74717553D01*
X148477553Y-74589501D01*
X148583996Y-74442994D01*
X148666211Y-74281639D01*
X148722171Y-74109409D01*
X148742581Y-73980546D01*
X148750500Y-73930551D01*
X148750500Y-73749448D01*
X148726908Y-73600499D01*
X148722171Y-73570591D01*
X148684095Y-73453402D01*
X148666212Y-73398363D01*
X148666211Y-73398360D01*
X148630056Y-73327403D01*
X148583996Y-73237006D01*
X148570396Y-73218287D01*
X148477558Y-73090505D01*
X148477554Y-73090500D01*
X148349499Y-72962445D01*
X148349494Y-72962441D01*
X148202997Y-72856006D01*
X148202996Y-72856005D01*
X148202994Y-72856004D01*
X148131938Y-72819799D01*
X148041639Y-72773788D01*
X148041636Y-72773787D01*
X147869410Y-72717829D01*
X147709321Y-72692473D01*
X147646186Y-72662544D01*
X147609255Y-72603232D01*
X147610253Y-72533370D01*
X147648863Y-72475137D01*
X147709321Y-72447527D01*
X147779425Y-72436422D01*
X147869409Y-72422171D01*
X148041639Y-72366211D01*
X148202994Y-72283996D01*
X148349501Y-72177553D01*
X148477553Y-72049501D01*
X148583996Y-71902994D01*
X148666211Y-71741639D01*
X148722171Y-71569409D01*
X148744630Y-71427610D01*
X148750500Y-71390551D01*
X148750500Y-71209448D01*
X148722171Y-71030590D01*
X148700418Y-70963640D01*
X148684093Y-70913400D01*
X148682099Y-70843560D01*
X148714342Y-70787404D01*
X151340485Y-68161263D01*
X151396503Y-68064237D01*
X151425500Y-67956018D01*
X151425500Y-67843982D01*
X151425500Y-50633982D01*
X151396503Y-50525763D01*
X151340485Y-50428737D01*
X151261263Y-50349515D01*
X150371263Y-49459515D01*
X150274237Y-49403497D01*
X150166018Y-49374500D01*
X141256018Y-49374500D01*
X141143981Y-49374500D01*
X141035763Y-49403497D01*
X141035761Y-49403498D01*
X141035760Y-49403498D01*
X140938740Y-49459513D01*
X140938734Y-49459517D01*
X139912595Y-50485655D01*
X139851272Y-50519140D01*
X139786596Y-50515905D01*
X139762337Y-50508022D01*
X139669409Y-50477828D01*
X139490551Y-50449500D01*
X139490546Y-50449500D01*
X139309454Y-50449500D01*
X139309449Y-50449500D01*
X139130589Y-50477829D01*
X138958363Y-50533787D01*
X138958360Y-50533788D01*
X138797002Y-50616006D01*
X138650505Y-50722441D01*
X138650500Y-50722445D01*
X138522445Y-50850500D01*
X138522441Y-50850505D01*
X138416006Y-50997002D01*
X138333788Y-51158360D01*
X138333787Y-51158363D01*
X138277829Y-51330589D01*
X138252473Y-51490678D01*
X138222544Y-51553813D01*
X138163232Y-51590744D01*
X138093369Y-51589746D01*
X138035137Y-51551136D01*
X138007527Y-51490678D01*
X137987026Y-51361247D01*
X137982171Y-51330591D01*
X137926211Y-51158361D01*
X137926211Y-51158360D01*
X137865033Y-51038294D01*
X137843996Y-50997006D01*
X137827052Y-50973685D01*
X137737558Y-50850505D01*
X137737554Y-50850500D01*
X137609499Y-50722445D01*
X137609494Y-50722441D01*
X137462997Y-50616006D01*
X137462996Y-50616005D01*
X137462994Y-50616004D01*
X137386906Y-50577235D01*
X137301639Y-50533788D01*
X137301636Y-50533787D01*
X137129410Y-50477829D01*
X136950551Y-50449500D01*
X136950546Y-50449500D01*
X136769454Y-50449500D01*
X136769449Y-50449500D01*
X136590589Y-50477829D01*
X136418363Y-50533787D01*
X136418360Y-50533788D01*
X136257002Y-50616006D01*
X136110505Y-50722441D01*
X136110500Y-50722445D01*
X135982445Y-50850500D01*
X135982441Y-50850505D01*
X135876006Y-50997002D01*
X135793788Y-51158360D01*
X135793787Y-51158363D01*
X135737829Y-51330589D01*
X135712473Y-51490678D01*
X135682544Y-51553813D01*
X135623232Y-51590744D01*
X135553369Y-51589746D01*
X135495137Y-51551136D01*
X135467527Y-51490678D01*
X135447026Y-51361247D01*
X135442171Y-51330591D01*
X135386211Y-51158361D01*
X135386211Y-51158360D01*
X135325033Y-51038294D01*
X135303996Y-50997006D01*
X135287052Y-50973685D01*
X135197558Y-50850505D01*
X135197554Y-50850500D01*
X135069499Y-50722445D01*
X135069494Y-50722441D01*
X134922997Y-50616006D01*
X134922996Y-50616005D01*
X134922994Y-50616004D01*
X134846906Y-50577235D01*
X134761639Y-50533788D01*
X134761636Y-50533787D01*
X134589410Y-50477829D01*
X134410551Y-50449500D01*
X134410546Y-50449500D01*
X134229454Y-50449500D01*
X134229449Y-50449500D01*
X134050589Y-50477829D01*
X133878363Y-50533787D01*
X133878360Y-50533788D01*
X133717002Y-50616006D01*
X133570505Y-50722441D01*
X133570500Y-50722445D01*
X133442445Y-50850500D01*
X133442441Y-50850505D01*
X133336006Y-50997002D01*
X133253788Y-51158360D01*
X133253787Y-51158363D01*
X133197829Y-51330589D01*
X133169500Y-51509448D01*
X133169500Y-51690551D01*
X133197828Y-51869409D01*
X133235905Y-51986596D01*
X133237900Y-52056437D01*
X133205655Y-52112595D01*
X124287181Y-61031070D01*
X124225858Y-61064555D01*
X124156166Y-61059571D01*
X124100233Y-61017699D01*
X124075816Y-60952235D01*
X124075500Y-60943389D01*
X124075500Y-58907609D01*
X124095185Y-58840570D01*
X124111814Y-58819933D01*
X130217404Y-52714342D01*
X130278725Y-52680859D01*
X130343399Y-52684093D01*
X130398294Y-52701929D01*
X130460590Y-52722171D01*
X130639449Y-52750500D01*
X130639454Y-52750500D01*
X130820551Y-52750500D01*
X130907259Y-52736765D01*
X130999409Y-52722171D01*
X131171639Y-52666211D01*
X131332994Y-52583996D01*
X131479501Y-52477553D01*
X131607553Y-52349501D01*
X131713996Y-52202994D01*
X131796211Y-52041639D01*
X131852171Y-51869409D01*
X131866842Y-51776777D01*
X131880500Y-51690551D01*
X131880500Y-51509448D01*
X131857026Y-51361247D01*
X131852171Y-51330591D01*
X131796211Y-51158361D01*
X131796211Y-51158360D01*
X131735033Y-51038294D01*
X131713996Y-50997006D01*
X131697052Y-50973685D01*
X131607558Y-50850505D01*
X131607554Y-50850500D01*
X131479499Y-50722445D01*
X131479494Y-50722441D01*
X131332997Y-50616006D01*
X131332996Y-50616005D01*
X131332994Y-50616004D01*
X131256906Y-50577235D01*
X131171639Y-50533788D01*
X131171636Y-50533787D01*
X130999410Y-50477829D01*
X130820551Y-50449500D01*
X130820546Y-50449500D01*
X130639454Y-50449500D01*
X130639449Y-50449500D01*
X130460589Y-50477829D01*
X130288363Y-50533787D01*
X130288360Y-50533788D01*
X130127002Y-50616006D01*
X129980505Y-50722441D01*
X129980500Y-50722445D01*
X129852445Y-50850500D01*
X129852441Y-50850505D01*
X129746006Y-50997002D01*
X129663788Y-51158360D01*
X129663787Y-51158363D01*
X129607829Y-51330589D01*
X129582473Y-51490678D01*
X129552544Y-51553813D01*
X129493232Y-51590744D01*
X129423369Y-51589746D01*
X129365137Y-51551136D01*
X129337527Y-51490678D01*
X129317026Y-51361247D01*
X129312171Y-51330591D01*
X129256211Y-51158361D01*
X129256211Y-51158360D01*
X129195033Y-51038294D01*
X129173996Y-50997006D01*
X129157052Y-50973685D01*
X129067558Y-50850505D01*
X129067554Y-50850500D01*
X128939499Y-50722445D01*
X128939494Y-50722441D01*
X128792997Y-50616006D01*
X128792996Y-50616005D01*
X128792994Y-50616004D01*
X128716906Y-50577235D01*
X128631639Y-50533788D01*
X128631636Y-50533787D01*
X128459410Y-50477829D01*
X128280551Y-50449500D01*
X128280546Y-50449500D01*
X128099454Y-50449500D01*
X128099449Y-50449500D01*
X127920589Y-50477829D01*
X127748363Y-50533787D01*
X127748360Y-50533788D01*
X127587002Y-50616006D01*
X127440505Y-50722441D01*
X127440500Y-50722445D01*
X127312445Y-50850500D01*
X127312441Y-50850505D01*
X127206004Y-50997004D01*
X127138908Y-51128685D01*
X127090933Y-51179480D01*
X127023112Y-51196275D01*
X126956977Y-51173737D01*
X126913527Y-51119021D01*
X126910492Y-51110705D01*
X126901094Y-51081780D01*
X126804624Y-50892449D01*
X126765270Y-50838282D01*
X126765269Y-50838282D01*
X126132962Y-51470590D01*
X126115925Y-51407007D01*
X126050099Y-51292993D01*
X125957007Y-51199901D01*
X125842993Y-51134075D01*
X125779409Y-51117037D01*
X126411716Y-50484728D01*
X126357550Y-50445375D01*
X126168217Y-50348904D01*
X125966129Y-50283242D01*
X125756246Y-50250000D01*
X125543754Y-50250000D01*
X125333872Y-50283242D01*
X125333869Y-50283242D01*
X125131782Y-50348904D01*
X124942439Y-50445380D01*
X124888282Y-50484727D01*
X124888282Y-50484728D01*
X125520591Y-51117037D01*
X125457007Y-51134075D01*
X125342993Y-51199901D01*
X125249901Y-51292993D01*
X125184075Y-51407007D01*
X125167037Y-51470591D01*
X124534728Y-50838282D01*
X124534727Y-50838282D01*
X124495380Y-50892440D01*
X124495377Y-50892445D01*
X124494981Y-50893223D01*
X124494752Y-50893464D01*
X124492838Y-50896590D01*
X124492180Y-50896187D01*
X124447004Y-50944017D01*
X124379183Y-50960809D01*
X124313049Y-50938268D01*
X124269600Y-50883551D01*
X124260499Y-50836923D01*
X124260499Y-50705143D01*
X124260499Y-50705136D01*
X124260497Y-50705117D01*
X124257586Y-50680012D01*
X124257585Y-50680011D01*
X124257585Y-50680009D01*
X124212206Y-50577235D01*
X124132765Y-50497794D01*
X124105273Y-50485655D01*
X124029992Y-50452415D01*
X124004865Y-50449500D01*
X122215143Y-50449500D01*
X122215117Y-50449502D01*
X122190012Y-50452413D01*
X122190008Y-50452415D01*
X122087235Y-50497793D01*
X122007794Y-50577234D01*
X121962415Y-50680006D01*
X121962415Y-50680008D01*
X121959500Y-50705131D01*
X121959500Y-50925500D01*
X121939815Y-50992539D01*
X121887011Y-51038294D01*
X121835500Y-51049500D01*
X119927525Y-51049500D01*
X119789429Y-51086503D01*
X119789427Y-51086503D01*
X119787519Y-51087014D01*
X119787518Y-51087014D01*
X119661986Y-51159489D01*
X119661983Y-51159491D01*
X118159491Y-52661983D01*
X118159489Y-52661986D01*
X118087016Y-52787514D01*
X118087016Y-52787515D01*
X118049500Y-52927525D01*
X118049500Y-52927527D01*
X118049500Y-62700966D01*
X118032888Y-62762964D01*
X118015425Y-62793211D01*
X118015423Y-62793216D01*
X117974500Y-62945943D01*
X117974500Y-63104057D01*
X118010486Y-63238360D01*
X118017527Y-63264636D01*
X118016832Y-63264822D01*
X118024500Y-63303362D01*
X118024500Y-74945613D01*
X118004815Y-75012652D01*
X117988181Y-75033294D01*
X116883294Y-76138181D01*
X116856366Y-76152884D01*
X116830548Y-76169477D01*
X116824347Y-76170368D01*
X116821971Y-76171666D01*
X116795613Y-76174500D01*
X116678363Y-76174500D01*
X116639820Y-76166834D01*
X116639635Y-76167527D01*
X116631785Y-76165423D01*
X116631784Y-76165423D01*
X116479057Y-76124500D01*
X116320943Y-76124500D01*
X116168216Y-76165423D01*
X116168214Y-76165423D01*
X116160365Y-76167527D01*
X116160179Y-76166834D01*
X116121637Y-76174500D01*
X100402525Y-76174500D01*
X100320409Y-76196503D01*
X100320408Y-76196502D01*
X100262519Y-76212014D01*
X100262514Y-76212016D01*
X100136986Y-76284489D01*
X100136983Y-76284491D01*
X96113241Y-80308233D01*
X96113239Y-80308236D01*
X96088901Y-80350392D01*
X96063848Y-80393787D01*
X96063847Y-80393788D01*
X96063846Y-80393789D01*
X96040767Y-80433762D01*
X96040766Y-80433763D01*
X96022008Y-80503770D01*
X96003250Y-80573775D01*
X96003250Y-80573777D01*
X96003250Y-84967887D01*
X96002145Y-84973440D01*
X95999215Y-84999262D01*
X95996121Y-85011091D01*
X95994173Y-85014466D01*
X95953250Y-85167193D01*
X91400500Y-85167193D01*
X91400500Y-71068006D01*
X94050000Y-71068006D01*
X94050000Y-71311993D01*
X94088165Y-71552959D01*
X94163560Y-71784998D01*
X94274323Y-72002380D01*
X94341543Y-72094901D01*
X94341544Y-72094902D01*
X95076212Y-71360234D01*
X95087482Y-71402292D01*
X95159890Y-71527708D01*
X95262292Y-71630110D01*
X95387708Y-71702518D01*
X95429765Y-71713787D01*
X94695096Y-72448454D01*
X94695097Y-72448456D01*
X94787619Y-72515676D01*
X95005001Y-72626439D01*
X95237040Y-72701834D01*
X95478007Y-72740000D01*
X95721993Y-72740000D01*
X95962959Y-72701834D01*
X96194998Y-72626439D01*
X96412377Y-72515678D01*
X96504901Y-72448454D01*
X96504902Y-72448454D01*
X95770234Y-71713787D01*
X95812292Y-71702518D01*
X95937708Y-71630110D01*
X96040110Y-71527708D01*
X96112518Y-71402292D01*
X96123787Y-71360235D01*
X96858454Y-72094902D01*
X96858454Y-72094901D01*
X96925678Y-72002377D01*
X97036439Y-71784998D01*
X97111834Y-71552959D01*
X97150000Y-71311993D01*
X97150000Y-71068006D01*
X97111834Y-70827040D01*
X97036439Y-70595001D01*
X96925676Y-70377619D01*
X96858456Y-70285097D01*
X96858454Y-70285096D01*
X96123787Y-71019764D01*
X96112518Y-70977708D01*
X96040110Y-70852292D01*
X95937708Y-70749890D01*
X95812292Y-70677482D01*
X95770232Y-70666211D01*
X96404649Y-70031796D01*
X96465972Y-69998311D01*
X96477525Y-69996364D01*
X96531564Y-69989876D01*
X96672342Y-69934361D01*
X96792922Y-69842922D01*
X96884361Y-69722342D01*
X96939876Y-69581564D01*
X96950500Y-69493099D01*
X96950499Y-67806902D01*
X96939876Y-67718436D01*
X96884361Y-67577658D01*
X96884359Y-67577655D01*
X96792922Y-67457077D01*
X96672344Y-67365640D01*
X96672342Y-67365639D01*
X96531564Y-67310124D01*
X96531561Y-67310123D01*
X96443099Y-67299500D01*
X94756908Y-67299500D01*
X94668437Y-67310123D01*
X94527657Y-67365639D01*
X94527655Y-67365640D01*
X94407077Y-67457077D01*
X94315640Y-67577655D01*
X94315639Y-67577658D01*
X94263669Y-67709448D01*
X94260124Y-67718437D01*
X94260123Y-67718438D01*
X94249500Y-67806900D01*
X94249500Y-69493091D01*
X94260123Y-69581562D01*
X94315639Y-69722342D01*
X94315640Y-69722344D01*
X94407077Y-69842922D01*
X94515973Y-69925500D01*
X94527658Y-69934361D01*
X94668436Y-69989876D01*
X94722455Y-69996363D01*
X94786669Y-70023900D01*
X94795351Y-70031797D01*
X95429766Y-70666212D01*
X95387708Y-70677482D01*
X95262292Y-70749890D01*
X95159890Y-70852292D01*
X95087482Y-70977708D01*
X95076212Y-71019765D01*
X94341544Y-70285097D01*
X94274319Y-70377626D01*
X94163560Y-70595001D01*
X94088165Y-70827040D01*
X94050000Y-71068006D01*
X91400500Y-71068006D01*
X91400500Y-62478006D01*
X94050000Y-62478006D01*
X94050000Y-62721993D01*
X94088165Y-62962959D01*
X94163560Y-63194998D01*
X94274323Y-63412380D01*
X94341543Y-63504901D01*
X94341544Y-63504902D01*
X95076212Y-62770234D01*
X95087482Y-62812292D01*
X95159890Y-62937708D01*
X95262292Y-63040110D01*
X95387708Y-63112518D01*
X95429765Y-63123787D01*
X94695096Y-63858454D01*
X94695097Y-63858456D01*
X94787619Y-63925676D01*
X95005001Y-64036439D01*
X95237040Y-64111834D01*
X95478007Y-64150000D01*
X95721993Y-64150000D01*
X95962959Y-64111834D01*
X96194998Y-64036439D01*
X96412377Y-63925678D01*
X96504901Y-63858454D01*
X96504902Y-63858454D01*
X95770234Y-63123787D01*
X95812292Y-63112518D01*
X95937708Y-63040110D01*
X96040110Y-62937708D01*
X96112518Y-62812292D01*
X96123787Y-62770235D01*
X96858454Y-63504902D01*
X96858454Y-63504901D01*
X96925678Y-63412377D01*
X97009595Y-63247682D01*
X103950000Y-63247682D01*
X103950000Y-63452317D01*
X103982009Y-63654417D01*
X104045244Y-63849031D01*
X104138141Y-64031350D01*
X104138147Y-64031359D01*
X104170523Y-64075921D01*
X104170524Y-64075922D01*
X104850000Y-63396446D01*
X104850000Y-63402661D01*
X104877259Y-63504394D01*
X104929920Y-63595606D01*
X105004394Y-63670080D01*
X105095606Y-63722741D01*
X105197339Y-63750000D01*
X105203553Y-63750000D01*
X104524076Y-64429474D01*
X104568650Y-64461859D01*
X104750968Y-64554755D01*
X104945582Y-64617990D01*
X105147683Y-64650000D01*
X105352317Y-64650000D01*
X105554417Y-64617990D01*
X105749031Y-64554755D01*
X105931349Y-64461859D01*
X105975921Y-64429474D01*
X105296447Y-63750000D01*
X105302661Y-63750000D01*
X105404394Y-63722741D01*
X105495606Y-63670080D01*
X105570080Y-63595606D01*
X105622741Y-63504394D01*
X105650000Y-63402661D01*
X105650000Y-63396447D01*
X106329474Y-64075921D01*
X106361859Y-64031349D01*
X106454755Y-63849031D01*
X106517990Y-63654417D01*
X106550000Y-63452317D01*
X106550000Y-63247682D01*
X106517990Y-63045582D01*
X106454755Y-62850968D01*
X106361859Y-62668650D01*
X106329474Y-62624077D01*
X106329474Y-62624076D01*
X105650000Y-63303551D01*
X105650000Y-63297339D01*
X105622741Y-63195606D01*
X105570080Y-63104394D01*
X105495606Y-63029920D01*
X105404394Y-62977259D01*
X105302661Y-62950000D01*
X105296446Y-62950000D01*
X105975922Y-62270524D01*
X105975921Y-62270523D01*
X105931359Y-62238147D01*
X105931350Y-62238141D01*
X105749031Y-62145244D01*
X105554417Y-62082009D01*
X105352317Y-62050000D01*
X105147683Y-62050000D01*
X104945582Y-62082009D01*
X104750968Y-62145244D01*
X104568644Y-62238143D01*
X104524077Y-62270523D01*
X104524077Y-62270524D01*
X105203554Y-62950000D01*
X105197339Y-62950000D01*
X105095606Y-62977259D01*
X105004394Y-63029920D01*
X104929920Y-63104394D01*
X104877259Y-63195606D01*
X104850000Y-63297339D01*
X104850000Y-63303553D01*
X104170524Y-62624077D01*
X104170523Y-62624077D01*
X104138143Y-62668644D01*
X104045244Y-62850968D01*
X103982009Y-63045582D01*
X103950000Y-63247682D01*
X97009595Y-63247682D01*
X97036439Y-63194998D01*
X97111834Y-62962959D01*
X97150000Y-62721993D01*
X97150000Y-62478006D01*
X97127695Y-62337181D01*
X97111834Y-62237040D01*
X97036439Y-62005001D01*
X96925676Y-61787619D01*
X96858456Y-61695097D01*
X96858454Y-61695096D01*
X96123787Y-62429764D01*
X96112518Y-62387708D01*
X96040110Y-62262292D01*
X95937708Y-62159890D01*
X95812292Y-62087482D01*
X95770232Y-62076211D01*
X96404649Y-61441796D01*
X96465972Y-61408311D01*
X96477525Y-61406364D01*
X96531564Y-61399876D01*
X96672342Y-61344361D01*
X96792922Y-61252922D01*
X96884361Y-61132342D01*
X96939876Y-60991564D01*
X96950500Y-60903099D01*
X96950499Y-59763389D01*
X104149500Y-59763389D01*
X104149500Y-59936610D01*
X104171226Y-60073788D01*
X104176598Y-60107701D01*
X104226878Y-60262447D01*
X104230128Y-60272447D01*
X104290281Y-60390505D01*
X104308768Y-60426788D01*
X104410586Y-60566928D01*
X104533072Y-60689414D01*
X104673212Y-60791232D01*
X104827555Y-60869873D01*
X104992299Y-60923402D01*
X105163389Y-60950500D01*
X105163390Y-60950500D01*
X105336610Y-60950500D01*
X105336611Y-60950500D01*
X105507701Y-60923402D01*
X105672445Y-60869873D01*
X105826788Y-60791232D01*
X105966928Y-60689414D01*
X106089414Y-60566928D01*
X106191232Y-60426788D01*
X106269873Y-60272445D01*
X106323402Y-60107701D01*
X106350500Y-59936611D01*
X106350500Y-59763389D01*
X106323402Y-59592299D01*
X106269873Y-59427555D01*
X106191232Y-59273212D01*
X106089414Y-59133072D01*
X105966928Y-59010586D01*
X105826788Y-58908768D01*
X105672445Y-58830127D01*
X105507701Y-58776598D01*
X105507699Y-58776597D01*
X105507698Y-58776597D01*
X105376271Y-58755781D01*
X105336611Y-58749500D01*
X105163389Y-58749500D01*
X105123728Y-58755781D01*
X104992302Y-58776597D01*
X104827552Y-58830128D01*
X104673211Y-58908768D01*
X104593256Y-58966859D01*
X104533072Y-59010586D01*
X104533070Y-59010588D01*
X104533069Y-59010588D01*
X104410588Y-59133069D01*
X104410588Y-59133070D01*
X104410586Y-59133072D01*
X104387039Y-59165482D01*
X104308768Y-59273211D01*
X104230128Y-59427552D01*
X104176597Y-59592302D01*
X104149500Y-59763389D01*
X96950499Y-59763389D01*
X96950499Y-59216902D01*
X96939876Y-59128436D01*
X96884361Y-58987658D01*
X96823658Y-58907609D01*
X96792922Y-58867077D01*
X96672344Y-58775640D01*
X96672342Y-58775639D01*
X96531564Y-58720124D01*
X96531561Y-58720123D01*
X96443099Y-58709500D01*
X94756908Y-58709500D01*
X94668437Y-58720123D01*
X94527657Y-58775639D01*
X94527655Y-58775640D01*
X94407077Y-58867077D01*
X94315640Y-58987655D01*
X94260124Y-59128437D01*
X94260123Y-59128438D01*
X94249500Y-59216900D01*
X94249500Y-60903091D01*
X94260123Y-60991562D01*
X94315639Y-61132342D01*
X94315640Y-61132344D01*
X94407077Y-61252922D01*
X94527655Y-61344359D01*
X94527658Y-61344361D01*
X94668436Y-61399876D01*
X94722455Y-61406363D01*
X94786669Y-61433900D01*
X94795351Y-61441797D01*
X95429766Y-62076212D01*
X95387708Y-62087482D01*
X95262292Y-62159890D01*
X95159890Y-62262292D01*
X95087482Y-62387708D01*
X95076212Y-62429765D01*
X94341544Y-61695097D01*
X94274319Y-61787626D01*
X94163560Y-62005001D01*
X94088165Y-62237040D01*
X94050000Y-62478006D01*
X91400500Y-62478006D01*
X91400500Y-49224500D01*
X91420185Y-49157461D01*
X91472989Y-49111706D01*
X91524500Y-49100500D01*
X155675500Y-49100500D01*
X155742539Y-49120185D01*
G37*
%TD.AperFunction*%
%TD*%
M02*
