M48
; DRILL file {KiCad 9.0.8} date 2026-07-16T09:21:57+0300
; FORMAT={-:-/ absolute / metric / decimal}
; #@! TF.CreationDate,2026-07-16T09:21:57+03:00
; #@! TF.GenerationSoftware,Kicad,Pcbnew,9.0.8
; #@! TF.FileFunction,Plated,1,2,PTH
FMAT,2
METRIC
; #@! TA.AperFunction,Plated,PTH,ViaDrill
T1C0.300
; #@! TA.AperFunction,Plated,PTH,ComponentDrill
T2C0.500
; #@! TA.AperFunction,Plated,PTH,ComponentDrill
T3C0.550
; #@! TA.AperFunction,Plated,PTH,ComponentDrill
T4C0.800
; #@! TA.AperFunction,Plated,PTH,ComponentDrill
T5C1.000
; #@! TA.AperFunction,Plated,PTH,ComponentDrill
T6C1.100
%
G90
G05
T1
X93.476Y-85.2
X96.554Y-85.246
X98.279Y-85.185
X101.356Y-85.2
X103.079Y-85.185
X108.3Y-66.935
X111.0Y-80.4
X111.22Y-51.0
X112.25Y-60.7
X116.4Y-76.725
X116.4Y-79.0
X118.575Y-63.025
X120.6Y-64.535
X122.5Y-64.535
X125.24Y-72.4
X125.27Y-74.4
X126.0Y-64.4
X126.23Y-74.4
X126.26Y-72.4
X129.2Y-66.4
X129.4Y-73.6
X129.63Y-63.23
X130.0Y-74.4
X131.0Y-62.27
X131.2Y-66.2
X131.4Y-74.0
X131.652Y-67.597
X131.995Y-66.289
X132.6Y-62.24
X133.366Y-66.766
X133.4Y-71.575
X133.4Y-73.0
X135.019Y-65.998
X136.175Y-61.0
X136.6Y-74.4
X137.142Y-67.942
X137.2Y-68.8
X137.2Y-69.8
X137.4Y-77.57
X137.4Y-78.53
X138.2Y-56.6
X139.0Y-58.2
X140.89Y-69.5
X141.2Y-57.0
X141.53Y-66.2
X141.62Y-68.2
X141.91Y-70.4
X142.4Y-63.2
X145.2Y-53.42
X145.2Y-57.0
T4
X105.25Y-59.85
X105.25Y-63.35
T5
X123.11Y-51.6
X125.65Y-51.6
X128.19Y-51.6
X130.73Y-51.6
X134.32Y-51.6
X135.135Y-84.0
X136.86Y-51.6
X137.675Y-84.0
X139.4Y-51.6
X141.94Y-51.6
X144.48Y-51.6
X147.02Y-51.6
X147.6Y-56.06
X147.6Y-58.6
X147.6Y-61.14
X147.6Y-63.68
X147.6Y-66.22
X147.6Y-68.76
X147.6Y-71.3
X147.6Y-73.84
X147.6Y-76.38
X147.6Y-78.92
X147.6Y-81.46
X147.6Y-84.0
X149.56Y-51.6
X153.4Y-62.72
X153.4Y-65.26
X153.4Y-67.8
X153.4Y-70.34
X153.4Y-73.89
X153.4Y-76.43
X153.4Y-78.97
X153.4Y-81.51
T6
X95.6Y-60.06
X95.6Y-62.6
X95.6Y-68.65
X95.6Y-71.19
T2
G00X113.23Y-85.638
M15
G01X113.23Y-86.287
M16
G05
G00X120.23Y-85.638
M15
G01X120.23Y-86.287
M16
G05
T3
G00X114.08Y-83.263
M15
G01X114.38Y-83.263
M16
G05
G00X119.08Y-83.263
M15
G01X119.38Y-83.263
M16
G05
M30
