%TF.GenerationSoftware,KiCad,Pcbnew,9.0.8*%
%TF.CreationDate,2026-07-16T13:11:04+03:00*%
%TF.ProjectId,Integration-Capstone-Board,496e7465-6772-4617-9469-6f6e2d436170,rev?*%
%TF.SameCoordinates,Original*%
%TF.FileFunction,Copper,L1,Top*%
%TF.FilePolarity,Positive*%
%FSLAX46Y46*%
G04 Gerber Fmt 4.6, Leading zero omitted, Abs format (unit mm)*
G04 Created by KiCad (PCBNEW 9.0.8) date 2026-07-16 13:11:04*
%MOMM*%
%LPD*%
G01*
G04 APERTURE LIST*
G04 Aperture macros list*
%AMRoundRect*
0 Rectangle with rounded corners*
0 $1 Rounding radius*
0 $2 $3 $4 $5 $6 $7 $8 $9 X,Y pos of 4 corners*
0 Add a 4 corners polygon primitive as box body*
4,1,4,$2,$3,$4,$5,$6,$7,$8,$9,$2,$3,0*
0 Add four circle primitives for the rounded corners*
1,1,$1+$1,$2,$3*
1,1,$1+$1,$4,$5*
1,1,$1+$1,$6,$7*
1,1,$1+$1,$8,$9*
0 Add four rect primitives between the rounded corners*
20,1,$1+$1,$2,$3,$4,$5,0*
20,1,$1+$1,$4,$5,$6,$7,0*
20,1,$1+$1,$6,$7,$8,$9,0*
20,1,$1+$1,$8,$9,$2,$3,0*%
G04 Aperture macros list end*
%TA.AperFunction,ComponentPad*%
%ADD10R,1.700000X1.700000*%
%TD*%
%TA.AperFunction,ComponentPad*%
%ADD11C,1.700000*%
%TD*%
%TA.AperFunction,SMDPad,CuDef*%
%ADD12RoundRect,0.250000X-0.250000X-0.475000X0.250000X-0.475000X0.250000X0.475000X-0.250000X0.475000X0*%
%TD*%
%TA.AperFunction,SMDPad,CuDef*%
%ADD13RoundRect,0.135000X0.135000X0.185000X-0.135000X0.185000X-0.135000X-0.185000X0.135000X-0.185000X0*%
%TD*%
%TA.AperFunction,ComponentPad*%
%ADD14C,1.600000*%
%TD*%
%TA.AperFunction,SMDPad,CuDef*%
%ADD15RoundRect,0.147500X-0.147500X-0.172500X0.147500X-0.172500X0.147500X0.172500X-0.147500X0.172500X0*%
%TD*%
%TA.AperFunction,SMDPad,CuDef*%
%ADD16RoundRect,0.150000X0.150000X-0.512500X0.150000X0.512500X-0.150000X0.512500X-0.150000X-0.512500X0*%
%TD*%
%TA.AperFunction,SMDPad,CuDef*%
%ADD17RoundRect,0.140000X0.140000X0.170000X-0.140000X0.170000X-0.140000X-0.170000X0.140000X-0.170000X0*%
%TD*%
%TA.AperFunction,SMDPad,CuDef*%
%ADD18RoundRect,0.135000X-0.185000X0.135000X-0.185000X-0.135000X0.185000X-0.135000X0.185000X0.135000X0*%
%TD*%
%TA.AperFunction,SMDPad,CuDef*%
%ADD19RoundRect,0.135000X0.185000X-0.135000X0.185000X0.135000X-0.185000X0.135000X-0.185000X-0.135000X0*%
%TD*%
%TA.AperFunction,SMDPad,CuDef*%
%ADD20RoundRect,0.140000X-0.170000X0.140000X-0.170000X-0.140000X0.170000X-0.140000X0.170000X0.140000X0*%
%TD*%
%TA.AperFunction,SMDPad,CuDef*%
%ADD21RoundRect,0.135000X-0.135000X-0.185000X0.135000X-0.185000X0.135000X0.185000X-0.135000X0.185000X0*%
%TD*%
%TA.AperFunction,SMDPad,CuDef*%
%ADD22RoundRect,0.140000X-0.140000X-0.170000X0.140000X-0.170000X0.140000X0.170000X-0.140000X0.170000X0*%
%TD*%
%TA.AperFunction,SMDPad,CuDef*%
%ADD23RoundRect,0.140000X0.170000X-0.140000X0.170000X0.140000X-0.170000X0.140000X-0.170000X-0.140000X0*%
%TD*%
%TA.AperFunction,SMDPad,CuDef*%
%ADD24RoundRect,0.075000X-0.075000X0.700000X-0.075000X-0.700000X0.075000X-0.700000X0.075000X0.700000X0*%
%TD*%
%TA.AperFunction,SMDPad,CuDef*%
%ADD25RoundRect,0.075000X-0.700000X0.075000X-0.700000X-0.075000X0.700000X-0.075000X0.700000X0.075000X0*%
%TD*%
%TA.AperFunction,SMDPad,CuDef*%
%ADD26RoundRect,0.250000X0.250000X0.475000X-0.250000X0.475000X-0.250000X-0.475000X0.250000X-0.475000X0*%
%TD*%
%TA.AperFunction,ComponentPad*%
%ADD27RoundRect,0.250001X-0.799999X0.799999X-0.799999X-0.799999X0.799999X-0.799999X0.799999X0.799999X0*%
%TD*%
%TA.AperFunction,ComponentPad*%
%ADD28C,2.100000*%
%TD*%
%TA.AperFunction,SMDPad,CuDef*%
%ADD29RoundRect,0.375000X-0.625000X-0.375000X0.625000X-0.375000X0.625000X0.375000X-0.625000X0.375000X0*%
%TD*%
%TA.AperFunction,SMDPad,CuDef*%
%ADD30RoundRect,0.500000X-0.500000X-1.400000X0.500000X-1.400000X0.500000X1.400000X-0.500000X1.400000X0*%
%TD*%
%TA.AperFunction,SMDPad,CuDef*%
%ADD31RoundRect,0.250000X0.325000X0.250000X-0.325000X0.250000X-0.325000X-0.250000X0.325000X-0.250000X0*%
%TD*%
%TA.AperFunction,SMDPad,CuDef*%
%ADD32RoundRect,0.100000X-0.100000X-0.575000X0.100000X-0.575000X0.100000X0.575000X-0.100000X0.575000X0*%
%TD*%
%TA.AperFunction,HeatsinkPad*%
%ADD33O,0.890000X1.550000*%
%TD*%
%TA.AperFunction,SMDPad,CuDef*%
%ADD34RoundRect,0.250000X-0.475000X-0.525000X0.475000X-0.525000X0.475000X0.525000X-0.475000X0.525000X0*%
%TD*%
%TA.AperFunction,HeatsinkPad*%
%ADD35O,1.250000X0.950000*%
%TD*%
%TA.AperFunction,SMDPad,CuDef*%
%ADD36RoundRect,0.250000X-0.500000X-0.525000X0.500000X-0.525000X0.500000X0.525000X-0.500000X0.525000X0*%
%TD*%
%TA.AperFunction,SMDPad,CuDef*%
%ADD37RoundRect,0.250000X0.525000X0.400000X-0.525000X0.400000X-0.525000X-0.400000X0.525000X-0.400000X0*%
%TD*%
%TA.AperFunction,ViaPad*%
%ADD38C,0.600000*%
%TD*%
%TA.AperFunction,Conductor*%
%ADD39C,0.250000*%
%TD*%
%TA.AperFunction,Conductor*%
%ADD40C,0.500000*%
%TD*%
%TA.AperFunction,Conductor*%
%ADD41C,0.800000*%
%TD*%
%TA.AperFunction,Conductor*%
%ADD42C,0.200000*%
%TD*%
G04 APERTURE END LIST*
D10*
%TO.P,J6,1,Pin_1*%
%TO.N,+3.3V*%
X123110000Y-51600000D03*
D11*
%TO.P,J6,2,Pin_2*%
%TO.N,GND*%
X125650000Y-51600000D03*
%TO.P,J6,3,Pin_3*%
%TO.N,I2C2_SCL*%
X128190000Y-51600000D03*
%TO.P,J6,4,Pin_4*%
%TO.N,I2C2_SDA*%
X130730000Y-51600000D03*
%TD*%
D12*
%TO.P,C3,1*%
%TO.N,+3.3V*%
X120600000Y-64535000D03*
%TO.P,C3,2*%
%TO.N,GND*%
X122500000Y-64535000D03*
%TD*%
D13*
%TO.P,R4,1*%
%TO.N,+3.3V*%
X141910000Y-70500000D03*
%TO.P,R4,2*%
%TO.N,I2C1_SCL*%
X140890000Y-70500000D03*
%TD*%
%TO.P,R3,1*%
%TO.N,+3.3V*%
X141910000Y-69500000D03*
%TO.P,R3,2*%
%TO.N,I2C1_SDA*%
X140890000Y-69500000D03*
%TD*%
D14*
%TO.P,C5,1*%
%TO.N,VBAT*%
X105250000Y-59850000D03*
%TO.P,C5,2*%
%TO.N,GND*%
X105250000Y-63350000D03*
%TD*%
D13*
%TO.P,R10,1*%
%TO.N,LED_BLE*%
X101356250Y-85200000D03*
%TO.P,R10,2*%
%TO.N,Net-(D2-A)*%
X100336250Y-85200000D03*
%TD*%
D15*
%TO.P,D3,1,K*%
%TO.N,GND*%
X103078750Y-85185000D03*
%TO.P,D3,2,A*%
%TO.N,Net-(D3-A)*%
X104048750Y-85185000D03*
%TD*%
D16*
%TO.P,U3,1,I/O1*%
%TO.N,D-*%
X115450000Y-79000000D03*
%TO.P,U3,2,GND*%
%TO.N,GND*%
X116400000Y-79000000D03*
%TO.P,U3,3,I/O2*%
%TO.N,D+*%
X117350000Y-79000000D03*
%TO.P,U3,4,I/O2*%
X117350000Y-76725000D03*
%TO.P,U3,5,VBUS*%
%TO.N,+3.3V*%
X116400000Y-76725000D03*
%TO.P,U3,6,I/O1*%
%TO.N,D-*%
X115450000Y-76725000D03*
%TD*%
D17*
%TO.P,C10,1*%
%TO.N,+3.3V*%
X126230000Y-67500000D03*
%TO.P,C10,2*%
%TO.N,GND*%
X125270000Y-67500000D03*
%TD*%
D18*
%TO.P,R1,1*%
%TO.N,+3.3V*%
X132600000Y-62240000D03*
%TO.P,R1,2*%
%TO.N,Net-(SW1-A)*%
X132600000Y-63260000D03*
%TD*%
D19*
%TO.P,R5,1*%
%TO.N,+3.3V*%
X129600000Y-78620000D03*
%TO.P,R5,2*%
%TO.N,I2C2_SDA*%
X129600000Y-77600000D03*
%TD*%
D20*
%TO.P,C12,1*%
%TO.N,+3.3V*%
X137400000Y-77570000D03*
%TO.P,C12,2*%
%TO.N,GND*%
X137400000Y-78530000D03*
%TD*%
D21*
%TO.P,R6,1*%
%TO.N,+3.3V*%
X125240000Y-72400000D03*
%TO.P,R6,2*%
%TO.N,I2C2_SCL*%
X126260000Y-72400000D03*
%TD*%
D20*
%TO.P,C6,1*%
%TO.N,GND*%
X135600000Y-62270000D03*
%TO.P,C6,2*%
%TO.N,Net-(U2-PH0)*%
X135600000Y-63230000D03*
%TD*%
D17*
%TO.P,C13,1*%
%TO.N,Net-(U2-VCAP1)*%
X126230000Y-73400000D03*
%TO.P,C13,2*%
%TO.N,GND*%
X125270000Y-73400000D03*
%TD*%
D22*
%TO.P,C14,1*%
%TO.N,+3.3V*%
X140570000Y-66200000D03*
%TO.P,C14,2*%
%TO.N,GND*%
X141530000Y-66200000D03*
%TD*%
D23*
%TO.P,C8,1*%
%TO.N,+3.3V*%
X138100000Y-63680000D03*
%TO.P,C8,2*%
%TO.N,GND*%
X138100000Y-62720000D03*
%TD*%
D24*
%TO.P,U2,1,VBAT*%
%TO.N,+3.3V*%
X137150000Y-64725000D03*
%TO.P,U2,2,PC13*%
%TO.N,unconnected-(U2-PC13-Pad2)*%
X136650000Y-64725000D03*
%TO.P,U2,3,PC14*%
%TO.N,unconnected-(U2-PC14-Pad3)*%
X136150000Y-64725000D03*
%TO.P,U2,4,PC15*%
%TO.N,unconnected-(U2-PC15-Pad4)*%
X135650000Y-64725000D03*
%TO.P,U2,5,PH0*%
%TO.N,Net-(U2-PH0)*%
X135150000Y-64725000D03*
%TO.P,U2,6,PH1*%
%TO.N,Net-(U2-PH1)*%
X134650000Y-64725000D03*
%TO.P,U2,7,NRST*%
%TO.N,Net-(SW1-A)*%
X134150000Y-64725000D03*
%TO.P,U2,8,PC0*%
%TO.N,unconnected-(U2-PC0-Pad8)*%
X133650000Y-64725000D03*
%TO.P,U2,9,PC1*%
%TO.N,unconnected-(U2-PC1-Pad9)*%
X133150000Y-64725000D03*
%TO.P,U2,10,PC2*%
%TO.N,unconnected-(U2-PC2-Pad10)*%
X132650000Y-64725000D03*
%TO.P,U2,11,PC3*%
%TO.N,unconnected-(U2-PC3-Pad11)*%
X132150000Y-64725000D03*
%TO.P,U2,12,VSSA*%
%TO.N,GND*%
X131650000Y-64725000D03*
%TO.P,U2,13,VDDA*%
%TO.N,+3.3V*%
X131150000Y-64725000D03*
%TO.P,U2,14,PA0*%
%TO.N,unconnected-(U2-PA0-Pad14)*%
X130650000Y-64725000D03*
%TO.P,U2,15,PA1*%
%TO.N,unconnected-(U2-PA1-Pad15)*%
X130150000Y-64725000D03*
%TO.P,U2,16,PA2*%
%TO.N,unconnected-(U2-PA2-Pad16)*%
X129650000Y-64725000D03*
D25*
%TO.P,U2,17,PA3*%
%TO.N,LED_BLE*%
X127725000Y-66650000D03*
%TO.P,U2,18,VSS*%
%TO.N,GND*%
X127725000Y-67150000D03*
%TO.P,U2,19,VDD*%
%TO.N,+3.3V*%
X127725000Y-67650000D03*
%TO.P,U2,20,PA4*%
%TO.N,IMU_CS*%
X127725000Y-68150000D03*
%TO.P,U2,21,PA5*%
%TO.N,SPI1_CLK*%
X127725000Y-68650000D03*
%TO.P,U2,22,PA6*%
%TO.N,SPI1_MISO*%
X127725000Y-69150000D03*
%TO.P,U2,23,PA7*%
%TO.N,SPI1_MOSI*%
X127725000Y-69650000D03*
%TO.P,U2,24,PC4*%
%TO.N,unconnected-(U2-PC4-Pad24)*%
X127725000Y-70150000D03*
%TO.P,U2,25,PC5*%
%TO.N,unconnected-(U2-PC5-Pad25)*%
X127725000Y-70650000D03*
%TO.P,U2,26,PB0*%
%TO.N,LED_GESTURE*%
X127725000Y-71150000D03*
%TO.P,U2,27,PB1*%
%TO.N,unconnected-(U2-PB1-Pad27)*%
X127725000Y-71650000D03*
%TO.P,U2,28,PB2*%
%TO.N,unconnected-(U2-PB2-Pad28)*%
X127725000Y-72150000D03*
%TO.P,U2,29,PB10*%
%TO.N,I2C2_SCL*%
X127725000Y-72650000D03*
%TO.P,U2,30,VCAP1*%
%TO.N,Net-(U2-VCAP1)*%
X127725000Y-73150000D03*
%TO.P,U2,31,VSS*%
%TO.N,GND*%
X127725000Y-73650000D03*
%TO.P,U2,32,VDD*%
%TO.N,+3.3V*%
X127725000Y-74150000D03*
D24*
%TO.P,U2,33,PB12*%
%TO.N,unconnected-(U2-PB12-Pad33)*%
X129650000Y-76075000D03*
%TO.P,U2,34,PB13*%
%TO.N,unconnected-(U2-PB13-Pad34)*%
X130150000Y-76075000D03*
%TO.P,U2,35,PB14*%
%TO.N,unconnected-(U2-PB14-Pad35)*%
X130650000Y-76075000D03*
%TO.P,U2,36,PB15*%
%TO.N,unconnected-(U2-PB15-Pad36)*%
X131150000Y-76075000D03*
%TO.P,U2,37,PC6*%
%TO.N,unconnected-(U2-PC6-Pad37)*%
X131650000Y-76075000D03*
%TO.P,U2,38,PC7*%
%TO.N,unconnected-(U2-PC7-Pad38)*%
X132150000Y-76075000D03*
%TO.P,U2,39,PC8*%
%TO.N,unconnected-(U2-PC8-Pad39)*%
X132650000Y-76075000D03*
%TO.P,U2,40,PC9*%
%TO.N,unconnected-(U2-PC9-Pad40)*%
X133150000Y-76075000D03*
%TO.P,U2,41,PA8*%
%TO.N,unconnected-(U2-PA8-Pad41)*%
X133650000Y-76075000D03*
%TO.P,U2,42,PA9*%
%TO.N,UART1_TX*%
X134150000Y-76075000D03*
%TO.P,U2,43,PA10*%
%TO.N,UART1_RX*%
X134650000Y-76075000D03*
%TO.P,U2,44,PA11*%
%TO.N,USB_D-*%
X135150000Y-76075000D03*
%TO.P,U2,45,PA12*%
%TO.N,USB_D+*%
X135650000Y-76075000D03*
%TO.P,U2,46,PA13*%
%TO.N,unconnected-(U2-PA13-Pad46)*%
X136150000Y-76075000D03*
%TO.P,U2,47,VSS*%
%TO.N,GND*%
X136650000Y-76075000D03*
%TO.P,U2,48,VDD*%
%TO.N,+3.3V*%
X137150000Y-76075000D03*
D25*
%TO.P,U2,49,PA14*%
%TO.N,unconnected-(U2-PA14-Pad49)*%
X139075000Y-74150000D03*
%TO.P,U2,50,PA15*%
%TO.N,unconnected-(U2-PA15-Pad50)*%
X139075000Y-73650000D03*
%TO.P,U2,51,PC10*%
%TO.N,unconnected-(U2-PC10-Pad51)*%
X139075000Y-73150000D03*
%TO.P,U2,52,PC11*%
%TO.N,unconnected-(U2-PC11-Pad52)*%
X139075000Y-72650000D03*
%TO.P,U2,53,PC12*%
%TO.N,unconnected-(U2-PC12-Pad53)*%
X139075000Y-72150000D03*
%TO.P,U2,54,PD2*%
%TO.N,unconnected-(U2-PD2-Pad54)*%
X139075000Y-71650000D03*
%TO.P,U2,55,PB3*%
%TO.N,unconnected-(U2-PB3-Pad55)*%
X139075000Y-71150000D03*
%TO.P,U2,56,PB4*%
%TO.N,unconnected-(U2-PB4-Pad56)*%
X139075000Y-70650000D03*
%TO.P,U2,57,PB5*%
%TO.N,unconnected-(U2-PB5-Pad57)*%
X139075000Y-70150000D03*
%TO.P,U2,58,PB6*%
%TO.N,I2C1_SCL*%
X139075000Y-69650000D03*
%TO.P,U2,59,PB7*%
%TO.N,I2C1_SDA*%
X139075000Y-69150000D03*
%TO.P,U2,60,BOOT0*%
%TO.N,BOOT0*%
X139075000Y-68650000D03*
%TO.P,U2,61,PB8*%
%TO.N,IMU_INT1*%
X139075000Y-68150000D03*
%TO.P,U2,62,PB9*%
%TO.N,I2C2_SDA*%
X139075000Y-67650000D03*
%TO.P,U2,63,VSS*%
%TO.N,GND*%
X139075000Y-67150000D03*
%TO.P,U2,64,VDD*%
%TO.N,+3.3V*%
X139075000Y-66650000D03*
%TD*%
D18*
%TO.P,R7,1*%
%TO.N,USB_D+*%
X117400000Y-74262500D03*
%TO.P,R7,2*%
%TO.N,D+*%
X117400000Y-75282500D03*
%TD*%
D26*
%TO.P,C1,1*%
%TO.N,VBAT*%
X110200000Y-66935000D03*
%TO.P,C1,2*%
%TO.N,GND*%
X108300000Y-66935000D03*
%TD*%
D27*
%TO.P,J2,1,Pin_1*%
%TO.N,VSERVO*%
X95600000Y-68650000D03*
D28*
%TO.P,J2,2,Pin_2*%
%TO.N,GND*%
X95600000Y-71190000D03*
%TD*%
D10*
%TO.P,J3,1,Pin_1*%
%TO.N,BOOT0*%
X137675000Y-84000000D03*
D11*
%TO.P,J3,2,Pin_2*%
%TO.N,GND*%
X135135000Y-84000000D03*
%TD*%
D15*
%TO.P,D2,1,K*%
%TO.N,GND*%
X98278750Y-85185000D03*
%TO.P,D2,2,A*%
%TO.N,Net-(D2-A)*%
X99248750Y-85185000D03*
%TD*%
D13*
%TO.P,R2,1*%
%TO.N,GND*%
X141620000Y-68200000D03*
%TO.P,R2,2*%
%TO.N,BOOT0*%
X140600000Y-68200000D03*
%TD*%
D15*
%TO.P,D1,1,K*%
%TO.N,GND*%
X93476250Y-85200000D03*
%TO.P,D1,2,A*%
%TO.N,Net-(D1-A)*%
X94446250Y-85200000D03*
%TD*%
D17*
%TO.P,C11,1*%
%TO.N,+3.3V*%
X126230000Y-74400000D03*
%TO.P,C11,2*%
%TO.N,GND*%
X125270000Y-74400000D03*
%TD*%
D29*
%TO.P,U1,1,GND*%
%TO.N,GND*%
X112250000Y-60700000D03*
%TO.P,U1,2,VO*%
%TO.N,+3.3V*%
X112250000Y-63000000D03*
D30*
X118550000Y-63000000D03*
D29*
%TO.P,U1,3,VI*%
%TO.N,VBAT*%
X112250000Y-65300000D03*
%TD*%
D22*
%TO.P,C4,1*%
%TO.N,+3.3V*%
X120290000Y-63035000D03*
%TO.P,C4,2*%
%TO.N,GND*%
X121250000Y-63035000D03*
%TD*%
D10*
%TO.P,J7,1,Pin_1*%
%TO.N,+3.3V*%
X147600000Y-56060000D03*
D11*
%TO.P,J7,2,Pin_2*%
%TO.N,GND*%
X147600000Y-58600000D03*
%TO.P,J7,3,Pin_3*%
%TO.N,UART1_TX*%
X147600000Y-61140000D03*
%TO.P,J7,4,Pin_4*%
%TO.N,UART1_RX*%
X147600000Y-63680000D03*
%TO.P,J7,5,Pin_5*%
%TO.N,SPI1_MOSI*%
X147600000Y-66220000D03*
%TO.P,J7,6,Pin_6*%
%TO.N,SPI1_MISO*%
X147600000Y-68760000D03*
%TO.P,J7,7,Pin_7*%
%TO.N,SPI1_CLK*%
X147600000Y-71300000D03*
%TO.P,J7,8,Pin_8*%
%TO.N,I2C1_SDA*%
X147600000Y-73840000D03*
%TO.P,J7,9,Pin_9*%
%TO.N,I2C1_SCL*%
X147600000Y-76380000D03*
%TO.P,J7,10,Pin_10*%
%TO.N,SWDIO*%
X147600000Y-78920000D03*
%TO.P,J7,11,Pin_11*%
%TO.N,SWDCLK*%
X147600000Y-81460000D03*
%TO.P,J7,12,Pin_12*%
%TO.N,GND*%
X147600000Y-84000000D03*
%TD*%
D18*
%TO.P,R8,1*%
%TO.N,USB_D-*%
X115400000Y-74262500D03*
%TO.P,R8,2*%
%TO.N,D-*%
X115400000Y-75282500D03*
%TD*%
D27*
%TO.P,J1,1,Pin_1*%
%TO.N,VBAT*%
X95600000Y-60060000D03*
D28*
%TO.P,J1,2,Pin_2*%
%TO.N,GND*%
X95600000Y-62600000D03*
%TD*%
D31*
%TO.P,Y1,1,1*%
%TO.N,Net-(U2-PH0)*%
X136175000Y-59600000D03*
%TO.P,Y1,2,2*%
%TO.N,Net-(U2-PH1)*%
X134425000Y-59600000D03*
%TO.P,Y1,3*%
%TO.N,GND*%
X134425000Y-61000000D03*
%TO.P,Y1,4*%
X136175000Y-61000000D03*
%TD*%
D10*
%TO.P,J8,1,Pin_1*%
%TO.N,+3.3V*%
X153400000Y-62720000D03*
D11*
%TO.P,J8,2,Pin_2*%
%TO.N,GND*%
X153400000Y-65260000D03*
%TO.P,J8,3,Pin_3*%
%TO.N,I2C1_SCL*%
X153400000Y-67800000D03*
%TO.P,J8,4,Pin_4*%
%TO.N,I2C1_SDA*%
X153400000Y-70340000D03*
%TD*%
D13*
%TO.P,R11,1*%
%TO.N,LED_GESTURE*%
X106156250Y-85200000D03*
%TO.P,R11,2*%
%TO.N,Net-(D3-A)*%
X105136250Y-85200000D03*
%TD*%
D10*
%TO.P,J4,1,Pin_1*%
%TO.N,+3.3V*%
X153400000Y-81510000D03*
D11*
%TO.P,J4,2,Pin_2*%
%TO.N,GND*%
X153400000Y-78970000D03*
%TO.P,J4,3,Pin_3*%
%TO.N,I2C1_SCL*%
X153400000Y-76430000D03*
%TO.P,J4,4,Pin_4*%
%TO.N,I2C1_SDA*%
X153400000Y-73890000D03*
%TD*%
D32*
%TO.P,J9,1,VBUS*%
%TO.N,VBAT*%
X115430000Y-83262500D03*
%TO.P,J9,2,D-*%
%TO.N,D-*%
X116080000Y-83262500D03*
%TO.P,J9,3,D+*%
%TO.N,D+*%
X116730000Y-83262500D03*
%TO.P,J9,4,ID*%
%TO.N,unconnected-(J9-ID-Pad4)*%
X117380000Y-83262500D03*
%TO.P,J9,5,GND*%
%TO.N,GND*%
X118030000Y-83262500D03*
D33*
%TO.P,J9,6,Shield*%
X113230000Y-85962500D03*
D34*
X113705000Y-85962500D03*
D35*
X114230000Y-83262500D03*
D36*
X115730000Y-85962500D03*
X117730000Y-85962500D03*
D35*
X119230000Y-83262500D03*
D34*
X119755000Y-85962500D03*
D33*
X120230000Y-85962500D03*
%TD*%
D13*
%TO.P,R9,1*%
%TO.N,+3.3V*%
X96553750Y-85215000D03*
%TO.P,R9,2*%
%TO.N,Net-(D1-A)*%
X95533750Y-85215000D03*
%TD*%
D23*
%TO.P,C9,1*%
%TO.N,+3.3V*%
X131000000Y-63230000D03*
%TO.P,C9,2*%
%TO.N,GND*%
X131000000Y-62270000D03*
%TD*%
D20*
%TO.P,C7,1*%
%TO.N,GND*%
X134600000Y-62270000D03*
%TO.P,C7,2*%
%TO.N,Net-(U2-PH1)*%
X134600000Y-63230000D03*
%TD*%
D37*
%TO.P,SW1,1,A*%
%TO.N,Net-(SW1-A)*%
X119180000Y-55500000D03*
X111220000Y-55500000D03*
%TO.P,SW1,2,B*%
%TO.N,GND*%
X119180000Y-51000000D03*
X111220000Y-51000000D03*
%TD*%
D10*
%TO.P,J5,1,Pin_1*%
%TO.N,+3.3V*%
X149560000Y-51600000D03*
D11*
%TO.P,J5,2,Pin_2*%
%TO.N,GND*%
X147020000Y-51600000D03*
%TO.P,J5,3,Pin_3*%
%TO.N,SPI1_MOSI*%
X144480000Y-51600000D03*
%TO.P,J5,4,Pin_4*%
%TO.N,SPI1_MISO*%
X141940000Y-51600000D03*
%TO.P,J5,5,Pin_5*%
%TO.N,SPI1_CLK*%
X139400000Y-51600000D03*
%TO.P,J5,6,Pin_6*%
%TO.N,IMU_CS*%
X136860000Y-51600000D03*
%TO.P,J5,7,Pin_7*%
%TO.N,IMU_INT1*%
X134320000Y-51600000D03*
%TD*%
D17*
%TO.P,C2,1*%
%TO.N,VBAT*%
X110530000Y-65435000D03*
%TO.P,C2,2*%
%TO.N,GND*%
X109570000Y-65435000D03*
%TD*%
D38*
%TO.N,GND*%
X103078750Y-85185000D03*
X145200000Y-53420000D03*
X136175000Y-61000000D03*
X131200000Y-66200000D03*
X93476250Y-85200000D03*
X137141942Y-67941942D03*
X137400000Y-78530000D03*
X136600000Y-74400000D03*
X126000000Y-64400000D03*
X139000000Y-58200000D03*
X122500000Y-64535000D03*
X141620000Y-68200000D03*
X141200000Y-57000000D03*
X112250000Y-60700000D03*
X129400000Y-73600000D03*
X98278750Y-85185000D03*
X145200000Y-57000000D03*
X108300000Y-66935000D03*
X111220000Y-51000000D03*
X141530000Y-66200000D03*
X125270000Y-74400000D03*
X116400000Y-79000000D03*
X131000000Y-62270000D03*
%TO.N,+3.3V*%
X137400000Y-77570000D03*
X129630000Y-63230000D03*
X118575000Y-63025000D03*
X142400000Y-63200000D03*
X132600000Y-62240000D03*
X126230000Y-74400000D03*
X125240000Y-72400000D03*
X141910000Y-70400000D03*
X96553750Y-85246250D03*
X120600000Y-64535000D03*
X138200000Y-56600000D03*
X116400000Y-76725000D03*
%TO.N,BOOT0*%
X137200000Y-69800000D03*
%TO.N,I2C1_SDA*%
X140890000Y-69500000D03*
%TO.N,IMU_INT1*%
X137200000Y-68800000D03*
%TO.N,SPI1_MOSI*%
X135018531Y-65997585D03*
%TO.N,SPI1_MISO*%
X133366116Y-66766116D03*
%TO.N,IMU_CS*%
X131995209Y-66288675D03*
%TO.N,SPI1_CLK*%
X131651674Y-67596674D03*
%TO.N,I2C2_SDA*%
X135400000Y-78800000D03*
X129641942Y-77641942D03*
X139600000Y-77600000D03*
X144400000Y-72800000D03*
%TO.N,I2C2_SCL*%
X126260000Y-72400000D03*
%TO.N,LED_GESTURE*%
X111000000Y-80400000D03*
X131400000Y-74000000D03*
%TO.N,LED_BLE*%
X133400000Y-73000000D03*
X129200000Y-66400000D03*
X101356250Y-85200000D03*
X133400000Y-71575000D03*
%TD*%
D39*
%TO.N,GND*%
X138225000Y-67175000D02*
X138250000Y-67150000D01*
D40*
X119755000Y-85962500D02*
X113705000Y-85962500D01*
X145200000Y-57600000D02*
X146200000Y-58600000D01*
X119180000Y-51000000D02*
X111220000Y-51000000D01*
X135600000Y-62270000D02*
X134600000Y-62270000D01*
D39*
X137141942Y-67941942D02*
X137458058Y-67941942D01*
X137458058Y-67941942D02*
X137975000Y-67425000D01*
D40*
X138100000Y-62544612D02*
X142044612Y-58600000D01*
X126000000Y-64400000D02*
X125600000Y-64400000D01*
X122500000Y-64535000D02*
X123935000Y-64535000D01*
X145200000Y-57000000D02*
X145200000Y-57600000D01*
X145200000Y-53420000D02*
X147020000Y-51600000D01*
D39*
X136600000Y-74400000D02*
X136650000Y-74450000D01*
D40*
X122500000Y-64285000D02*
X121250000Y-63035000D01*
D39*
X131650000Y-65750000D02*
X131650000Y-64725000D01*
D40*
X118030000Y-83262500D02*
X119230000Y-83262500D01*
D39*
X129350000Y-73650000D02*
X129400000Y-73600000D01*
D40*
X109570000Y-65665000D02*
X108300000Y-66935000D01*
X125600000Y-64400000D02*
X125465000Y-64535000D01*
X146200000Y-58600000D02*
X147600000Y-58600000D01*
X140200000Y-57000000D02*
X141200000Y-57000000D01*
X123935000Y-64535000D02*
X125270000Y-65870000D01*
X109570000Y-65435000D02*
X109570000Y-65665000D01*
X142044612Y-58600000D02*
X147600000Y-58600000D01*
X139000000Y-58200000D02*
X140200000Y-57000000D01*
X136175000Y-61000000D02*
X136175000Y-61695000D01*
D39*
X130250000Y-67150000D02*
X127725000Y-67150000D01*
D40*
X136175000Y-61695000D02*
X135600000Y-62270000D01*
X125270000Y-73400000D02*
X125270000Y-74400000D01*
D39*
X131200000Y-66200000D02*
X130250000Y-67150000D01*
X138207236Y-67175000D02*
X138225000Y-67175000D01*
D40*
X134425000Y-61000000D02*
X136175000Y-61000000D01*
X125465000Y-64535000D02*
X122500000Y-64535000D01*
X125270000Y-65870000D02*
X125270000Y-67500000D01*
D39*
X138250000Y-67150000D02*
X139075000Y-67150000D01*
X127725000Y-73650000D02*
X129350000Y-73650000D01*
D40*
X138100000Y-62720000D02*
X138100000Y-62544612D01*
D39*
X131200000Y-66200000D02*
X131650000Y-65750000D01*
X137975000Y-67407236D02*
X138207236Y-67175000D01*
D40*
X122500000Y-64535000D02*
X122500000Y-64285000D01*
D39*
X137975000Y-67425000D02*
X137975000Y-67407236D01*
X136650000Y-74450000D02*
X136650000Y-76075000D01*
D41*
%TO.N,VBAT*%
X95810000Y-59850000D02*
X95600000Y-60060000D01*
X110200000Y-66935000D02*
X110615000Y-66935000D01*
X110530000Y-65435000D02*
X110530000Y-66605000D01*
X110200000Y-77562220D02*
X115280000Y-82642220D01*
X105250000Y-59850000D02*
X95810000Y-59850000D01*
X110200000Y-66935000D02*
X110200000Y-77562220D01*
X110530000Y-66605000D02*
X110200000Y-66935000D01*
X106381370Y-59850000D02*
X105250000Y-59850000D01*
X110615000Y-66935000D02*
X112250000Y-65300000D01*
X110530000Y-65435000D02*
X110530000Y-63998630D01*
X110530000Y-63998630D02*
X106381370Y-59850000D01*
D40*
%TO.N,+3.3V*%
X120085000Y-64535000D02*
X118575000Y-63025000D01*
X143594662Y-56060000D02*
X147600000Y-56060000D01*
X139425000Y-66200000D02*
X139425000Y-66175000D01*
X124410000Y-50300000D02*
X123110000Y-51600000D01*
D39*
X127725000Y-67650000D02*
X126380000Y-67650000D01*
D40*
X126230000Y-65370000D02*
X126230000Y-67500000D01*
X154700000Y-64020000D02*
X153400000Y-62720000D01*
X141910000Y-70400000D02*
X141910000Y-70500000D01*
X120290000Y-64225000D02*
X120600000Y-64535000D01*
X118575000Y-63025000D02*
X118550000Y-63000000D01*
X153400000Y-62720000D02*
X153400000Y-55440000D01*
X137400000Y-77570000D02*
X137400000Y-76225000D01*
D39*
X131150000Y-64725000D02*
X131150000Y-63380000D01*
D40*
X137400000Y-76225000D02*
X137250000Y-76075000D01*
X149600000Y-54060000D02*
X149600000Y-53400000D01*
X129600000Y-78620000D02*
X129280001Y-78620000D01*
X126230000Y-74400000D02*
X127575000Y-74400000D01*
X131000000Y-63230000D02*
X129630000Y-63230000D01*
X149560000Y-53360000D02*
X149560000Y-51600000D01*
X118550000Y-63000000D02*
X112250000Y-63000000D01*
X138200000Y-56600000D02*
X138740000Y-56060000D01*
X96553750Y-85215000D02*
X96553750Y-85246250D01*
X126230000Y-75569999D02*
X126230000Y-74400000D01*
X141910000Y-69500000D02*
X141910000Y-70400000D01*
X140570000Y-66200000D02*
X139425000Y-66200000D01*
X120290000Y-63035000D02*
X120290000Y-64225000D01*
X139425000Y-66175000D02*
X142400000Y-63200000D01*
X137250000Y-62404662D02*
X143594662Y-56060000D01*
X138100000Y-63680000D02*
X137250000Y-64530000D01*
X147600000Y-56060000D02*
X149600000Y-54060000D01*
X139425000Y-66200000D02*
X139075000Y-66550000D01*
X129280001Y-78620000D02*
X126230000Y-75569999D01*
D39*
X126380000Y-67650000D02*
X126230000Y-67500000D01*
D40*
X154700000Y-80210000D02*
X154700000Y-64020000D01*
X153400000Y-81510000D02*
X154700000Y-80210000D01*
X137250000Y-64530000D02*
X137250000Y-62404662D01*
X153400000Y-55440000D02*
X149560000Y-51600000D01*
D39*
X129650000Y-63250000D02*
X129630000Y-63230000D01*
D40*
X138740000Y-56060000D02*
X143594662Y-56060000D01*
X148260000Y-50300000D02*
X124410000Y-50300000D01*
X120600000Y-64535000D02*
X120085000Y-64535000D01*
X149600000Y-53400000D02*
X149560000Y-53360000D01*
X129630000Y-63230000D02*
X128370000Y-63230000D01*
X149560000Y-51600000D02*
X148260000Y-50300000D01*
X127575000Y-74400000D02*
X127725000Y-74250000D01*
D39*
X131150000Y-63380000D02*
X131000000Y-63230000D01*
D40*
X96553750Y-85246250D02*
X96553750Y-85260000D01*
X128370000Y-63230000D02*
X126230000Y-65370000D01*
D39*
%TO.N,Net-(U2-PH0)*%
X137075000Y-60500000D02*
X137075000Y-61766490D01*
X135611490Y-63230000D02*
X135600000Y-63230000D01*
X136175000Y-59600000D02*
X137075000Y-60500000D01*
X135150000Y-63680000D02*
X135150000Y-64725000D01*
X137075000Y-61766490D02*
X135611490Y-63230000D01*
X135600000Y-63230000D02*
X135150000Y-63680000D01*
%TO.N,Net-(U2-PH1)*%
X133525000Y-62166490D02*
X134588510Y-63230000D01*
D42*
X134650000Y-63380000D02*
X134800000Y-63230000D01*
D39*
X134425000Y-59600000D02*
X133525000Y-60500000D01*
X134600000Y-63230000D02*
X134650000Y-63280000D01*
X133525000Y-60500000D02*
X133525000Y-62166490D01*
X134650000Y-63280000D02*
X134650000Y-64725000D01*
X134588510Y-63230000D02*
X134600000Y-63230000D01*
%TO.N,Net-(U2-VCAP1)*%
X126480000Y-73150000D02*
X127725000Y-73150000D01*
X126230000Y-73400000D02*
X126480000Y-73150000D01*
%TO.N,Net-(D1-A)*%
X95533750Y-85215000D02*
X94461250Y-85215000D01*
X94461250Y-85215000D02*
X94446250Y-85200000D01*
%TO.N,Net-(D2-A)*%
X100336250Y-85200000D02*
X99263750Y-85200000D01*
X99263750Y-85200000D02*
X99248750Y-85185000D01*
%TO.N,Net-(D3-A)*%
X104063750Y-85200000D02*
X104048750Y-85185000D01*
X105136250Y-85200000D02*
X104063750Y-85200000D01*
%TO.N,BOOT0*%
X139075000Y-68650000D02*
X140150000Y-68650000D01*
X138232236Y-68650000D02*
X137825000Y-69057236D01*
X137457236Y-69425000D02*
X137200000Y-69682236D01*
X137825000Y-69057236D02*
X137825000Y-69058884D01*
X137200000Y-69682236D02*
X137200000Y-69800000D01*
X137825000Y-69058884D02*
X137458884Y-69425000D01*
X140150000Y-68650000D02*
X140600000Y-68200000D01*
X137458884Y-69425000D02*
X137457236Y-69425000D01*
X139075000Y-68650000D02*
X138232236Y-68650000D01*
%TO.N,I2C1_SDA*%
X153400000Y-73890000D02*
X147650000Y-73890000D01*
X147650000Y-73890000D02*
X147600000Y-73840000D01*
X139075000Y-69150000D02*
X140540000Y-69150000D01*
X153400000Y-70340000D02*
X153400000Y-73890000D01*
X140540000Y-69150000D02*
X140890000Y-69500000D01*
%TO.N,I2C1_SCL*%
X153400000Y-76430000D02*
X147650000Y-76430000D01*
X140040000Y-69650000D02*
X140890000Y-70500000D01*
X146770000Y-76380000D02*
X140890000Y-70500000D01*
X147600000Y-76380000D02*
X146770000Y-76380000D01*
X139075000Y-69650000D02*
X140040000Y-69650000D01*
X147650000Y-76430000D02*
X147600000Y-76380000D01*
%TO.N,IMU_INT1*%
X139075000Y-68150000D02*
X137886396Y-68150000D01*
X137886396Y-68150000D02*
X137236396Y-68800000D01*
X137236396Y-68800000D02*
X137200000Y-68800000D01*
%TO.N,SPI1_MOSI*%
X135018531Y-65997585D02*
X131366116Y-69650000D01*
X131366116Y-69650000D02*
X127725000Y-69650000D01*
%TO.N,SPI1_MISO*%
X133366116Y-66766116D02*
X130982232Y-69150000D01*
X130982232Y-69150000D02*
X127725000Y-69150000D01*
%TO.N,IMU_CS*%
X131995209Y-66288675D02*
X131995209Y-66346733D01*
X130133884Y-68150000D02*
X131995209Y-66288675D01*
X127725000Y-68150000D02*
X130133884Y-68150000D01*
%TO.N,SPI1_CLK*%
X131644442Y-67596674D02*
X130591116Y-68650000D01*
X131651674Y-67596674D02*
X131644442Y-67596674D01*
X130591116Y-68650000D02*
X127725000Y-68650000D01*
D42*
%TO.N,I2C2_SDA*%
X139950000Y-67650000D02*
X140400000Y-67200000D01*
X140400000Y-67200000D02*
X143400000Y-67200000D01*
X143400000Y-67200000D02*
X144600000Y-68400000D01*
X144600000Y-68400000D02*
X144600000Y-72600000D01*
X139600000Y-77600000D02*
X137800000Y-79400000D01*
X144600000Y-72600000D02*
X144400000Y-72800000D01*
X139075000Y-67650000D02*
X139950000Y-67650000D01*
X137800000Y-79400000D02*
X136000000Y-79400000D01*
X136000000Y-79400000D02*
X135400000Y-78800000D01*
D39*
%TO.N,I2C2_SCL*%
X126260000Y-72400000D02*
X126510000Y-72650000D01*
X126510000Y-72650000D02*
X127725000Y-72650000D01*
%TO.N,UART1_TX*%
X134150000Y-69258882D02*
X142268882Y-61140000D01*
X142268882Y-61140000D02*
X147600000Y-61140000D01*
X134150000Y-76075000D02*
X134150000Y-69258882D01*
%TO.N,UART1_RX*%
X145510000Y-61590000D02*
X147600000Y-63680000D01*
X134650000Y-69550000D02*
X142610000Y-61590000D01*
X134650000Y-76075000D02*
X134650000Y-69550000D01*
X142610000Y-61590000D02*
X145510000Y-61590000D01*
D42*
%TO.N,D-*%
X115450000Y-79993751D02*
X116175000Y-80718751D01*
X115450000Y-76725000D02*
X115450000Y-75332500D01*
X116180000Y-82239706D02*
X116180000Y-82687500D01*
X115450000Y-75332500D02*
X115400000Y-75282500D01*
X115450000Y-79000000D02*
X115450000Y-79993751D01*
X116180000Y-82687500D02*
X116080000Y-82787500D01*
X115450000Y-79000000D02*
X115450000Y-76725000D01*
X116175000Y-80718751D02*
X116175000Y-82234706D01*
X116080000Y-82787500D02*
X116080000Y-83262500D01*
X116175000Y-82234706D02*
X116180000Y-82239706D01*
%TO.N,D+*%
X117350000Y-75332500D02*
X117400000Y-75282500D01*
X116625000Y-82062500D02*
X116630000Y-82067500D01*
X116625000Y-80718751D02*
X116625000Y-82062500D01*
X117350000Y-79000000D02*
X117350000Y-79993751D01*
X117350000Y-79993751D02*
X116625000Y-80718751D01*
X116630000Y-82687500D02*
X116730000Y-82787500D01*
X116630000Y-82067500D02*
X116630000Y-82687500D01*
X117350000Y-76725000D02*
X117350000Y-75332500D01*
X116730000Y-82787500D02*
X116730000Y-83262500D01*
X117350000Y-79000000D02*
X117350000Y-76725000D01*
D39*
%TO.N,Net-(SW1-A)*%
X133527764Y-63260000D02*
X134150000Y-63882236D01*
X131800000Y-62460000D02*
X132600000Y-63260000D01*
X134150000Y-63882236D02*
X134150000Y-64725000D01*
X132600000Y-63260000D02*
X133527764Y-63260000D01*
X119180000Y-55500000D02*
X126700000Y-55500000D01*
X131800000Y-60600000D02*
X131800000Y-62460000D01*
X126700000Y-55500000D02*
X131800000Y-60600000D01*
X111220000Y-55500000D02*
X119180000Y-55500000D01*
D42*
%TO.N,USB_D+*%
X135650000Y-76075000D02*
X135650000Y-76700000D01*
X133068198Y-79850000D02*
X126531802Y-79850000D01*
X118957698Y-72275896D02*
X117442302Y-72275896D01*
X126531802Y-79850000D02*
X118957698Y-72275896D01*
X135625000Y-76725000D02*
X135625000Y-77293198D01*
X135625000Y-77293198D02*
X133068198Y-79850000D01*
X135650000Y-76700000D02*
X135625000Y-76725000D01*
X116625000Y-73093198D02*
X116625000Y-73437500D01*
X117442302Y-72275896D02*
X116625000Y-73093198D01*
X117400000Y-74212500D02*
X117400000Y-74262500D01*
X116625000Y-73437500D02*
X117400000Y-74212500D01*
%TO.N,USB_D-*%
X116175000Y-72906802D02*
X116175000Y-73437500D01*
X132881802Y-79400000D02*
X126718198Y-79400000D01*
X126718198Y-79400000D02*
X119144094Y-71825896D01*
X116175000Y-73437500D02*
X115400000Y-74212500D01*
X135175000Y-77106802D02*
X132881802Y-79400000D01*
X115400000Y-74212500D02*
X115400000Y-74262500D01*
X119144094Y-71825896D02*
X117255906Y-71825896D01*
X135150000Y-76700000D02*
X135175000Y-76725000D01*
X135175000Y-76725000D02*
X135175000Y-77106802D01*
X117255906Y-71825896D02*
X116175000Y-72906802D01*
X135150000Y-76075000D02*
X135150000Y-76700000D01*
D39*
%TO.N,LED_GESTURE*%
X106156250Y-85200000D02*
X110956250Y-80400000D01*
X131400000Y-74000000D02*
X131400000Y-72000000D01*
X130550000Y-71150000D02*
X127725000Y-71150000D01*
X110956250Y-80400000D02*
X111000000Y-80400000D01*
X131400000Y-72000000D02*
X130550000Y-71150000D01*
%TO.N,LED_BLE*%
X127975000Y-66400000D02*
X129200000Y-66400000D01*
X127725000Y-66650000D02*
X127975000Y-66400000D01*
X133400000Y-71575000D02*
X133400000Y-73000000D01*
%TD*%
M02*
