%TF.GenerationSoftware,KiCad,Pcbnew,9.0.8*%
%TF.CreationDate,2026-07-13T22:13:40+03:00*%
%TF.ProjectId,IMU-Sensor-Fusion-Board,494d552d-5365-46e7-936f-722d46757369,rev?*%
%TF.SameCoordinates,Original*%
%TF.FileFunction,Legend,Top*%
%TF.FilePolarity,Positive*%
%FSLAX46Y46*%
G04 Gerber Fmt 4.6, Leading zero omitted, Abs format (unit mm)*
G04 Created by KiCad (PCBNEW 9.0.8) date 2026-07-13 22:13:40*
%MOMM*%
%LPD*%
G01*
G04 APERTURE LIST*
%ADD10C,0.150000*%
%ADD11C,0.125000*%
%ADD12C,0.254000*%
%ADD13C,0.120000*%
%ADD14C,0.100000*%
G04 APERTURE END LIST*
D10*
X113454819Y-50766666D02*
X112978628Y-51099999D01*
X113454819Y-51338094D02*
X112454819Y-51338094D01*
X112454819Y-51338094D02*
X112454819Y-50957142D01*
X112454819Y-50957142D02*
X112502438Y-50861904D01*
X112502438Y-50861904D02*
X112550057Y-50814285D01*
X112550057Y-50814285D02*
X112645295Y-50766666D01*
X112645295Y-50766666D02*
X112788152Y-50766666D01*
X112788152Y-50766666D02*
X112883390Y-50814285D01*
X112883390Y-50814285D02*
X112931009Y-50861904D01*
X112931009Y-50861904D02*
X112978628Y-50957142D01*
X112978628Y-50957142D02*
X112978628Y-51338094D01*
X112550057Y-50385713D02*
X112502438Y-50338094D01*
X112502438Y-50338094D02*
X112454819Y-50242856D01*
X112454819Y-50242856D02*
X112454819Y-50004761D01*
X112454819Y-50004761D02*
X112502438Y-49909523D01*
X112502438Y-49909523D02*
X112550057Y-49861904D01*
X112550057Y-49861904D02*
X112645295Y-49814285D01*
X112645295Y-49814285D02*
X112740533Y-49814285D01*
X112740533Y-49814285D02*
X112883390Y-49861904D01*
X112883390Y-49861904D02*
X113454819Y-50433332D01*
X113454819Y-50433332D02*
X113454819Y-49814285D01*
D11*
X105929346Y-41771390D02*
X105967442Y-41809486D01*
X105967442Y-41809486D02*
X106005537Y-41923771D01*
X106005537Y-41923771D02*
X106005537Y-41999962D01*
X106005537Y-41999962D02*
X105967442Y-42114248D01*
X105967442Y-42114248D02*
X105891251Y-42190438D01*
X105891251Y-42190438D02*
X105815061Y-42228533D01*
X105815061Y-42228533D02*
X105662680Y-42266629D01*
X105662680Y-42266629D02*
X105548394Y-42266629D01*
X105548394Y-42266629D02*
X105396013Y-42228533D01*
X105396013Y-42228533D02*
X105319822Y-42190438D01*
X105319822Y-42190438D02*
X105243632Y-42114248D01*
X105243632Y-42114248D02*
X105205537Y-41999962D01*
X105205537Y-41999962D02*
X105205537Y-41923771D01*
X105205537Y-41923771D02*
X105243632Y-41809486D01*
X105243632Y-41809486D02*
X105281727Y-41771390D01*
X105205537Y-41504724D02*
X105205537Y-41009486D01*
X105205537Y-41009486D02*
X105510299Y-41276152D01*
X105510299Y-41276152D02*
X105510299Y-41161867D01*
X105510299Y-41161867D02*
X105548394Y-41085676D01*
X105548394Y-41085676D02*
X105586489Y-41047581D01*
X105586489Y-41047581D02*
X105662680Y-41009486D01*
X105662680Y-41009486D02*
X105853156Y-41009486D01*
X105853156Y-41009486D02*
X105929346Y-41047581D01*
X105929346Y-41047581D02*
X105967442Y-41085676D01*
X105967442Y-41085676D02*
X106005537Y-41161867D01*
X106005537Y-41161867D02*
X106005537Y-41390438D01*
X106005537Y-41390438D02*
X105967442Y-41466629D01*
X105967442Y-41466629D02*
X105929346Y-41504724D01*
X106959346Y-41771390D02*
X106997442Y-41809486D01*
X106997442Y-41809486D02*
X107035537Y-41923771D01*
X107035537Y-41923771D02*
X107035537Y-41999962D01*
X107035537Y-41999962D02*
X106997442Y-42114248D01*
X106997442Y-42114248D02*
X106921251Y-42190438D01*
X106921251Y-42190438D02*
X106845061Y-42228533D01*
X106845061Y-42228533D02*
X106692680Y-42266629D01*
X106692680Y-42266629D02*
X106578394Y-42266629D01*
X106578394Y-42266629D02*
X106426013Y-42228533D01*
X106426013Y-42228533D02*
X106349822Y-42190438D01*
X106349822Y-42190438D02*
X106273632Y-42114248D01*
X106273632Y-42114248D02*
X106235537Y-41999962D01*
X106235537Y-41999962D02*
X106235537Y-41923771D01*
X106235537Y-41923771D02*
X106273632Y-41809486D01*
X106273632Y-41809486D02*
X106311727Y-41771390D01*
X106311727Y-41466629D02*
X106273632Y-41428533D01*
X106273632Y-41428533D02*
X106235537Y-41352343D01*
X106235537Y-41352343D02*
X106235537Y-41161867D01*
X106235537Y-41161867D02*
X106273632Y-41085676D01*
X106273632Y-41085676D02*
X106311727Y-41047581D01*
X106311727Y-41047581D02*
X106387918Y-41009486D01*
X106387918Y-41009486D02*
X106464108Y-41009486D01*
X106464108Y-41009486D02*
X106578394Y-41047581D01*
X106578394Y-41047581D02*
X107035537Y-41504724D01*
X107035537Y-41504724D02*
X107035537Y-41009486D01*
X109388409Y-49427404D02*
X109350313Y-49465500D01*
X109350313Y-49465500D02*
X109236028Y-49503595D01*
X109236028Y-49503595D02*
X109159837Y-49503595D01*
X109159837Y-49503595D02*
X109045551Y-49465500D01*
X109045551Y-49465500D02*
X108969361Y-49389309D01*
X108969361Y-49389309D02*
X108931266Y-49313119D01*
X108931266Y-49313119D02*
X108893170Y-49160738D01*
X108893170Y-49160738D02*
X108893170Y-49046452D01*
X108893170Y-49046452D02*
X108931266Y-48894071D01*
X108931266Y-48894071D02*
X108969361Y-48817880D01*
X108969361Y-48817880D02*
X109045551Y-48741690D01*
X109045551Y-48741690D02*
X109159837Y-48703595D01*
X109159837Y-48703595D02*
X109236028Y-48703595D01*
X109236028Y-48703595D02*
X109350313Y-48741690D01*
X109350313Y-48741690D02*
X109388409Y-48779785D01*
X110074123Y-48970261D02*
X110074123Y-49503595D01*
X109883647Y-48665500D02*
X109693170Y-49236928D01*
X109693170Y-49236928D02*
X110188409Y-49236928D01*
D10*
X112974819Y-54133333D02*
X113689104Y-54133333D01*
X113689104Y-54133333D02*
X113831961Y-54180952D01*
X113831961Y-54180952D02*
X113927200Y-54276190D01*
X113927200Y-54276190D02*
X113974819Y-54419047D01*
X113974819Y-54419047D02*
X113974819Y-54514285D01*
X112974819Y-53752380D02*
X112974819Y-53133333D01*
X112974819Y-53133333D02*
X113355771Y-53466666D01*
X113355771Y-53466666D02*
X113355771Y-53323809D01*
X113355771Y-53323809D02*
X113403390Y-53228571D01*
X113403390Y-53228571D02*
X113451009Y-53180952D01*
X113451009Y-53180952D02*
X113546247Y-53133333D01*
X113546247Y-53133333D02*
X113784342Y-53133333D01*
X113784342Y-53133333D02*
X113879580Y-53180952D01*
X113879580Y-53180952D02*
X113927200Y-53228571D01*
X113927200Y-53228571D02*
X113974819Y-53323809D01*
X113974819Y-53323809D02*
X113974819Y-53609523D01*
X113974819Y-53609523D02*
X113927200Y-53704761D01*
X113927200Y-53704761D02*
X113879580Y-53752380D01*
D11*
X109388409Y-48367404D02*
X109350313Y-48405500D01*
X109350313Y-48405500D02*
X109236028Y-48443595D01*
X109236028Y-48443595D02*
X109159837Y-48443595D01*
X109159837Y-48443595D02*
X109045551Y-48405500D01*
X109045551Y-48405500D02*
X108969361Y-48329309D01*
X108969361Y-48329309D02*
X108931266Y-48253119D01*
X108931266Y-48253119D02*
X108893170Y-48100738D01*
X108893170Y-48100738D02*
X108893170Y-47986452D01*
X108893170Y-47986452D02*
X108931266Y-47834071D01*
X108931266Y-47834071D02*
X108969361Y-47757880D01*
X108969361Y-47757880D02*
X109045551Y-47681690D01*
X109045551Y-47681690D02*
X109159837Y-47643595D01*
X109159837Y-47643595D02*
X109236028Y-47643595D01*
X109236028Y-47643595D02*
X109350313Y-47681690D01*
X109350313Y-47681690D02*
X109388409Y-47719785D01*
X110074123Y-47643595D02*
X109921742Y-47643595D01*
X109921742Y-47643595D02*
X109845551Y-47681690D01*
X109845551Y-47681690D02*
X109807456Y-47719785D01*
X109807456Y-47719785D02*
X109731266Y-47834071D01*
X109731266Y-47834071D02*
X109693170Y-47986452D01*
X109693170Y-47986452D02*
X109693170Y-48291214D01*
X109693170Y-48291214D02*
X109731266Y-48367404D01*
X109731266Y-48367404D02*
X109769361Y-48405500D01*
X109769361Y-48405500D02*
X109845551Y-48443595D01*
X109845551Y-48443595D02*
X109997932Y-48443595D01*
X109997932Y-48443595D02*
X110074123Y-48405500D01*
X110074123Y-48405500D02*
X110112218Y-48367404D01*
X110112218Y-48367404D02*
X110150313Y-48291214D01*
X110150313Y-48291214D02*
X110150313Y-48100738D01*
X110150313Y-48100738D02*
X110112218Y-48024547D01*
X110112218Y-48024547D02*
X110074123Y-47986452D01*
X110074123Y-47986452D02*
X109997932Y-47948357D01*
X109997932Y-47948357D02*
X109845551Y-47948357D01*
X109845551Y-47948357D02*
X109769361Y-47986452D01*
X109769361Y-47986452D02*
X109731266Y-48024547D01*
X109731266Y-48024547D02*
X109693170Y-48100738D01*
X108619346Y-42561390D02*
X108657442Y-42599486D01*
X108657442Y-42599486D02*
X108695537Y-42713771D01*
X108695537Y-42713771D02*
X108695537Y-42789962D01*
X108695537Y-42789962D02*
X108657442Y-42904248D01*
X108657442Y-42904248D02*
X108581251Y-42980438D01*
X108581251Y-42980438D02*
X108505061Y-43018533D01*
X108505061Y-43018533D02*
X108352680Y-43056629D01*
X108352680Y-43056629D02*
X108238394Y-43056629D01*
X108238394Y-43056629D02*
X108086013Y-43018533D01*
X108086013Y-43018533D02*
X108009822Y-42980438D01*
X108009822Y-42980438D02*
X107933632Y-42904248D01*
X107933632Y-42904248D02*
X107895537Y-42789962D01*
X107895537Y-42789962D02*
X107895537Y-42713771D01*
X107895537Y-42713771D02*
X107933632Y-42599486D01*
X107933632Y-42599486D02*
X107971727Y-42561390D01*
X108695537Y-41799486D02*
X108695537Y-42256629D01*
X108695537Y-42028057D02*
X107895537Y-42028057D01*
X107895537Y-42028057D02*
X108009822Y-42104248D01*
X108009822Y-42104248D02*
X108086013Y-42180438D01*
X108086013Y-42180438D02*
X108124108Y-42256629D01*
X102763595Y-51133332D02*
X102382642Y-51399999D01*
X102763595Y-51590475D02*
X101963595Y-51590475D01*
X101963595Y-51590475D02*
X101963595Y-51285713D01*
X101963595Y-51285713D02*
X102001690Y-51209523D01*
X102001690Y-51209523D02*
X102039785Y-51171428D01*
X102039785Y-51171428D02*
X102115976Y-51133332D01*
X102115976Y-51133332D02*
X102230261Y-51133332D01*
X102230261Y-51133332D02*
X102306452Y-51171428D01*
X102306452Y-51171428D02*
X102344547Y-51209523D01*
X102344547Y-51209523D02*
X102382642Y-51285713D01*
X102382642Y-51285713D02*
X102382642Y-51590475D01*
X102230261Y-50447618D02*
X102763595Y-50447618D01*
X101925500Y-50638094D02*
X102496928Y-50828571D01*
X102496928Y-50828571D02*
X102496928Y-50333332D01*
D12*
X115432380Y-42904318D02*
X115432380Y-43932413D01*
X115432380Y-43932413D02*
X115492857Y-44053365D01*
X115492857Y-44053365D02*
X115553333Y-44113842D01*
X115553333Y-44113842D02*
X115674285Y-44174318D01*
X115674285Y-44174318D02*
X115916190Y-44174318D01*
X115916190Y-44174318D02*
X116037142Y-44113842D01*
X116037142Y-44113842D02*
X116097619Y-44053365D01*
X116097619Y-44053365D02*
X116158095Y-43932413D01*
X116158095Y-43932413D02*
X116158095Y-42904318D01*
X117428095Y-44174318D02*
X116702380Y-44174318D01*
X117065237Y-44174318D02*
X117065237Y-42904318D01*
X117065237Y-42904318D02*
X116944285Y-43085746D01*
X116944285Y-43085746D02*
X116823333Y-43206699D01*
X116823333Y-43206699D02*
X116702380Y-43267175D01*
D11*
X107453595Y-51133332D02*
X107072642Y-51399999D01*
X107453595Y-51590475D02*
X106653595Y-51590475D01*
X106653595Y-51590475D02*
X106653595Y-51285713D01*
X106653595Y-51285713D02*
X106691690Y-51209523D01*
X106691690Y-51209523D02*
X106729785Y-51171428D01*
X106729785Y-51171428D02*
X106805976Y-51133332D01*
X106805976Y-51133332D02*
X106920261Y-51133332D01*
X106920261Y-51133332D02*
X106996452Y-51171428D01*
X106996452Y-51171428D02*
X107034547Y-51209523D01*
X107034547Y-51209523D02*
X107072642Y-51285713D01*
X107072642Y-51285713D02*
X107072642Y-51590475D01*
X106653595Y-50866666D02*
X106653595Y-50371428D01*
X106653595Y-50371428D02*
X106958357Y-50638094D01*
X106958357Y-50638094D02*
X106958357Y-50523809D01*
X106958357Y-50523809D02*
X106996452Y-50447618D01*
X106996452Y-50447618D02*
X107034547Y-50409523D01*
X107034547Y-50409523D02*
X107110738Y-50371428D01*
X107110738Y-50371428D02*
X107301214Y-50371428D01*
X107301214Y-50371428D02*
X107377404Y-50409523D01*
X107377404Y-50409523D02*
X107415500Y-50447618D01*
X107415500Y-50447618D02*
X107453595Y-50523809D01*
X107453595Y-50523809D02*
X107453595Y-50752380D01*
X107453595Y-50752380D02*
X107415500Y-50828571D01*
X107415500Y-50828571D02*
X107377404Y-50866666D01*
X102975275Y-35741653D02*
X102975275Y-36313081D01*
X102975275Y-36313081D02*
X102937180Y-36427367D01*
X102937180Y-36427367D02*
X102860989Y-36503558D01*
X102860989Y-36503558D02*
X102746704Y-36541653D01*
X102746704Y-36541653D02*
X102670513Y-36541653D01*
X103775275Y-36541653D02*
X103318132Y-36541653D01*
X103546704Y-36541653D02*
X103546704Y-35741653D01*
X103546704Y-35741653D02*
X103470513Y-35855938D01*
X103470513Y-35855938D02*
X103394323Y-35932129D01*
X103394323Y-35932129D02*
X103318132Y-35970224D01*
X117508609Y-46721653D02*
X117241942Y-46340700D01*
X117051466Y-46721653D02*
X117051466Y-45921653D01*
X117051466Y-45921653D02*
X117356228Y-45921653D01*
X117356228Y-45921653D02*
X117432418Y-45959748D01*
X117432418Y-45959748D02*
X117470513Y-45997843D01*
X117470513Y-45997843D02*
X117508609Y-46074034D01*
X117508609Y-46074034D02*
X117508609Y-46188319D01*
X117508609Y-46188319D02*
X117470513Y-46264510D01*
X117470513Y-46264510D02*
X117432418Y-46302605D01*
X117432418Y-46302605D02*
X117356228Y-46340700D01*
X117356228Y-46340700D02*
X117051466Y-46340700D01*
X118270513Y-46721653D02*
X117813370Y-46721653D01*
X118041942Y-46721653D02*
X118041942Y-45921653D01*
X118041942Y-45921653D02*
X117965751Y-46035938D01*
X117965751Y-46035938D02*
X117889561Y-46112129D01*
X117889561Y-46112129D02*
X117813370Y-46150224D01*
X107766667Y-45151362D02*
X107728571Y-45189458D01*
X107728571Y-45189458D02*
X107614286Y-45227553D01*
X107614286Y-45227553D02*
X107538095Y-45227553D01*
X107538095Y-45227553D02*
X107423809Y-45189458D01*
X107423809Y-45189458D02*
X107347619Y-45113267D01*
X107347619Y-45113267D02*
X107309524Y-45037077D01*
X107309524Y-45037077D02*
X107271428Y-44884696D01*
X107271428Y-44884696D02*
X107271428Y-44770410D01*
X107271428Y-44770410D02*
X107309524Y-44618029D01*
X107309524Y-44618029D02*
X107347619Y-44541838D01*
X107347619Y-44541838D02*
X107423809Y-44465648D01*
X107423809Y-44465648D02*
X107538095Y-44427553D01*
X107538095Y-44427553D02*
X107614286Y-44427553D01*
X107614286Y-44427553D02*
X107728571Y-44465648D01*
X107728571Y-44465648D02*
X107766667Y-44503743D01*
X108490476Y-44427553D02*
X108109524Y-44427553D01*
X108109524Y-44427553D02*
X108071428Y-44808505D01*
X108071428Y-44808505D02*
X108109524Y-44770410D01*
X108109524Y-44770410D02*
X108185714Y-44732315D01*
X108185714Y-44732315D02*
X108376190Y-44732315D01*
X108376190Y-44732315D02*
X108452381Y-44770410D01*
X108452381Y-44770410D02*
X108490476Y-44808505D01*
X108490476Y-44808505D02*
X108528571Y-44884696D01*
X108528571Y-44884696D02*
X108528571Y-45075172D01*
X108528571Y-45075172D02*
X108490476Y-45151362D01*
X108490476Y-45151362D02*
X108452381Y-45189458D01*
X108452381Y-45189458D02*
X108376190Y-45227553D01*
X108376190Y-45227553D02*
X108185714Y-45227553D01*
X108185714Y-45227553D02*
X108109524Y-45189458D01*
X108109524Y-45189458D02*
X108071428Y-45151362D01*
D10*
X121266666Y-35734819D02*
X121266666Y-36449104D01*
X121266666Y-36449104D02*
X121219047Y-36591961D01*
X121219047Y-36591961D02*
X121123809Y-36687200D01*
X121123809Y-36687200D02*
X120980952Y-36734819D01*
X120980952Y-36734819D02*
X120885714Y-36734819D01*
X121695238Y-35830057D02*
X121742857Y-35782438D01*
X121742857Y-35782438D02*
X121838095Y-35734819D01*
X121838095Y-35734819D02*
X122076190Y-35734819D01*
X122076190Y-35734819D02*
X122171428Y-35782438D01*
X122171428Y-35782438D02*
X122219047Y-35830057D01*
X122219047Y-35830057D02*
X122266666Y-35925295D01*
X122266666Y-35925295D02*
X122266666Y-36020533D01*
X122266666Y-36020533D02*
X122219047Y-36163390D01*
X122219047Y-36163390D02*
X121647619Y-36734819D01*
X121647619Y-36734819D02*
X122266666Y-36734819D01*
D13*
%TO.C,R2*%
X112620000Y-48853641D02*
X112620000Y-48546359D01*
X113380000Y-48853641D02*
X113380000Y-48546359D01*
%TO.C,C3*%
X105281942Y-39650222D02*
X105281942Y-39865894D01*
X106001942Y-39650222D02*
X106001942Y-39865894D01*
%TO.C,C2*%
X106281942Y-39650222D02*
X106281942Y-39865894D01*
X107001942Y-39650222D02*
X107001942Y-39865894D01*
%TO.C,C4*%
X111629578Y-48840000D02*
X111413906Y-48840000D01*
X111629578Y-49560000D02*
X111413906Y-49560000D01*
%TO.C,J3*%
X102140000Y-52420000D02*
X102140000Y-55180000D01*
X109870000Y-52420000D02*
X102140000Y-52420000D01*
X109870000Y-52420000D02*
X109870000Y-55180000D01*
X109870000Y-55180000D02*
X102140000Y-55180000D01*
X111140000Y-52420000D02*
X112520000Y-52420000D01*
X112520000Y-52420000D02*
X112520000Y-53800000D01*
%TO.C,C6*%
X111629578Y-47840000D02*
X111413906Y-47840000D01*
X111629578Y-48560000D02*
X111413906Y-48560000D01*
%TO.C,C1*%
X107506942Y-39496806D02*
X107506942Y-40019310D01*
X108976942Y-39496806D02*
X108976942Y-40019310D01*
%TO.C,R4*%
X103140000Y-50846359D02*
X103140000Y-51153641D01*
X103900000Y-50846359D02*
X103900000Y-51153641D01*
D14*
%TO.C,U1*%
X111641942Y-43927758D02*
X111641942Y-44627758D01*
X111641942Y-46227758D02*
X111641942Y-46927758D01*
X111641942Y-46927758D02*
X111891942Y-46927758D01*
X111791942Y-43927758D02*
X111641942Y-43927758D01*
X113591942Y-43527758D02*
X113591942Y-43527758D01*
X113691942Y-43527758D02*
X113691942Y-43527758D01*
X113891942Y-43927758D02*
X114141942Y-43927758D01*
X114141942Y-43927758D02*
X114141942Y-44627758D01*
X114141942Y-46227758D02*
X114141942Y-46927758D01*
X114141942Y-46927758D02*
X113891942Y-46927758D01*
X113591942Y-43527758D02*
G75*
G02*
X113691942Y-43527758I50000J0D01*
G01*
X113691942Y-43527758D02*
G75*
G02*
X113591942Y-43527758I-50000J0D01*
G01*
D13*
%TO.C,R3*%
X105540000Y-50846359D02*
X105540000Y-51153641D01*
X106300000Y-50846359D02*
X106300000Y-51153641D01*
%TO.C,J1*%
X101861942Y-37178058D02*
X103241942Y-37178058D01*
X101861942Y-38558058D02*
X101861942Y-37178058D01*
X101861942Y-39828058D02*
X101861942Y-42478058D01*
X101861942Y-39828058D02*
X104621942Y-39828058D01*
X101861942Y-42478058D02*
X104621942Y-42478058D01*
X104621942Y-39828058D02*
X104621942Y-42478058D01*
%TO.C,R1*%
X115966783Y-45825758D02*
X115659501Y-45825758D01*
X115966783Y-46585758D02*
X115659501Y-46585758D01*
%TO.C,C5*%
X110007836Y-44593958D02*
X109792164Y-44593958D01*
X110007836Y-45313958D02*
X109792164Y-45313958D01*
%TO.C,J2*%
X120220000Y-37280000D02*
X121600000Y-37280000D01*
X120220000Y-38660000D02*
X120220000Y-37280000D01*
X120220000Y-39930000D02*
X120220000Y-55280000D01*
X120220000Y-39930000D02*
X122980000Y-39930000D01*
X120220000Y-55280000D02*
X122980000Y-55280000D01*
X122980000Y-39930000D02*
X122980000Y-55280000D01*
%TD*%
M02*
