%TF.GenerationSoftware,KiCad,Pcbnew,9.0.8*%
%TF.CreationDate,2026-07-12T21:30:58+03:00*%
%TF.ProjectId,BLE-Module-Board,424c452d-4d6f-4647-956c-652d426f6172,rev?*%
%TF.SameCoordinates,Original*%
%TF.FileFunction,Paste,Top*%
%TF.FilePolarity,Positive*%
%FSLAX46Y46*%
G04 Gerber Fmt 4.6, Leading zero omitted, Abs format (unit mm)*
G04 Created by KiCad (PCBNEW 9.0.8) date 2026-07-12 21:30:58*
%MOMM*%
%LPD*%
G01*
G04 APERTURE LIST*
G04 Aperture macros list*
%AMRoundRect*
0 Rectangle with rounded corners*
0 $1 Rounding radius*
0 $2 $3 $4 $5 $6 $7 $8 $9 X,Y pos of 4 corners*
0 Add a 4 corners polygon primitive as box body*
4,1,4,$2,$3,$4,$5,$6,$7,$8,$9,$2,$3,0*
0 Add four circle primitives for the rounded corners*
1,1,$1+$1,$2,$3*
1,1,$1+$1,$4,$5*
1,1,$1+$1,$6,$7*
1,1,$1+$1,$8,$9*
0 Add four rect primitives between the rounded corners*
20,1,$1+$1,$2,$3,$4,$5,0*
20,1,$1+$1,$4,$5,$6,$7,0*
20,1,$1+$1,$6,$7,$8,$9,0*
20,1,$1+$1,$8,$9,$2,$3,0*%
G04 Aperture macros list end*
%ADD10RoundRect,0.135000X-0.185000X0.135000X-0.185000X-0.135000X0.185000X-0.135000X0.185000X0.135000X0*%
%ADD11R,2.000000X2.000000*%
%ADD12C,0.250000*%
%ADD13RoundRect,0.140000X-0.170000X0.140000X-0.170000X-0.140000X0.170000X-0.140000X0.170000X0.140000X0*%
%ADD14RoundRect,0.250000X-0.475000X0.250000X-0.475000X-0.250000X0.475000X-0.250000X0.475000X0.250000X0*%
%ADD15RoundRect,0.140000X-0.140000X-0.170000X0.140000X-0.170000X0.140000X0.170000X-0.140000X0.170000X0*%
%ADD16RoundRect,0.150000X-0.512500X-0.150000X0.512500X-0.150000X0.512500X0.150000X-0.512500X0.150000X0*%
%ADD17RoundRect,0.140000X0.140000X0.170000X-0.140000X0.170000X-0.140000X-0.170000X0.140000X-0.170000X0*%
%ADD18RoundRect,0.250000X-0.250000X-0.475000X0.250000X-0.475000X0.250000X0.475000X-0.250000X0.475000X0*%
%ADD19R,1.800000X1.000000*%
%ADD20RoundRect,0.250000X1.450000X-0.312500X1.450000X0.312500X-1.450000X0.312500X-1.450000X-0.312500X0*%
%ADD21RoundRect,0.140000X0.170000X-0.140000X0.170000X0.140000X-0.170000X0.140000X-0.170000X-0.140000X0*%
%ADD22RoundRect,0.250000X0.400000X-0.525000X0.400000X0.525000X-0.400000X0.525000X-0.400000X-0.525000X0*%
%ADD23RoundRect,0.150000X0.587500X0.150000X-0.587500X0.150000X-0.587500X-0.150000X0.587500X-0.150000X0*%
%ADD24RoundRect,0.135000X0.185000X-0.135000X0.185000X0.135000X-0.185000X0.135000X-0.185000X-0.135000X0*%
%ADD25RoundRect,0.250000X-0.325000X-0.250000X0.325000X-0.250000X0.325000X0.250000X-0.325000X0.250000X0*%
%ADD26RoundRect,0.150000X0.150000X-0.512500X0.150000X0.512500X-0.150000X0.512500X-0.150000X-0.512500X0*%
%ADD27RoundRect,0.250000X0.475000X-0.250000X0.475000X0.250000X-0.475000X0.250000X-0.475000X-0.250000X0*%
%ADD28O,1.550000X0.890000*%
%ADD29O,0.950000X1.250000*%
%ADD30RoundRect,0.100000X-0.575000X0.100000X-0.575000X-0.100000X0.575000X-0.100000X0.575000X0.100000X0*%
%ADD31RoundRect,0.250000X-0.525000X0.475000X-0.525000X-0.475000X0.525000X-0.475000X0.525000X0.475000X0*%
%ADD32RoundRect,0.250000X-0.525000X0.500000X-0.525000X-0.500000X0.525000X-0.500000X0.525000X0.500000X0*%
%ADD33RoundRect,0.147500X-0.147500X-0.172500X0.147500X-0.172500X0.147500X0.172500X-0.147500X0.172500X0*%
%ADD34RoundRect,0.250000X0.250000X0.475000X-0.250000X0.475000X-0.250000X-0.475000X0.250000X-0.475000X0*%
G04 APERTURE END LIST*
D10*
%TO.C,R2*%
X203300000Y-60290000D03*
X203300000Y-61310000D03*
%TD*%
D11*
%TO.C,U2*%
X200837500Y-54087500D03*
X200837500Y-56512500D03*
X203262500Y-54087500D03*
X203262500Y-56512500D03*
D12*
X200800000Y-52050000D03*
X201300000Y-52050000D03*
X201800000Y-52050000D03*
X202300000Y-52050000D03*
X202800000Y-52050000D03*
X203300000Y-52050000D03*
X203800000Y-52050000D03*
X204300000Y-52050000D03*
X204800000Y-52050000D03*
X205300000Y-57550000D03*
X199300000Y-57800000D03*
X200050000Y-58050000D03*
X201050000Y-58050000D03*
X201550000Y-58050000D03*
X202050000Y-58050000D03*
X202550000Y-58050000D03*
X203050000Y-58050000D03*
X203550000Y-58050000D03*
X204050000Y-58050000D03*
X205300000Y-58050000D03*
X199300000Y-58550000D03*
X199800000Y-58550000D03*
X200300000Y-58550000D03*
X200800000Y-58550000D03*
X201300000Y-58550000D03*
X201800000Y-58550000D03*
X202300000Y-58550000D03*
X202800000Y-58550000D03*
X203300000Y-58550000D03*
X203800000Y-58550000D03*
X204300000Y-58550000D03*
X204800000Y-58550000D03*
X198800000Y-52550000D03*
X199550000Y-52550000D03*
X200050000Y-52550000D03*
X200550000Y-52550000D03*
X201050000Y-52550000D03*
X201550000Y-52550000D03*
X202050000Y-52550000D03*
X202550000Y-52550000D03*
X203050000Y-52550000D03*
X203550000Y-52550000D03*
X205300000Y-52550000D03*
X198800000Y-53050000D03*
X199300000Y-53300000D03*
X204800000Y-53300000D03*
X205300000Y-53550000D03*
X199300000Y-53800000D03*
X204800000Y-53800000D03*
X198800000Y-54050000D03*
X199300000Y-54300000D03*
X204800000Y-54300000D03*
X198800000Y-54550000D03*
X205300000Y-54550000D03*
X199300000Y-54800000D03*
X198800000Y-55050000D03*
X205300000Y-55050000D03*
X199300000Y-55300000D03*
X198800000Y-55550000D03*
X205300000Y-55550000D03*
X199300000Y-55800000D03*
X204800000Y-55800000D03*
X198800000Y-56050000D03*
X205300000Y-56050000D03*
X199300000Y-56300000D03*
X204800000Y-56300000D03*
X198800000Y-56550000D03*
X205300000Y-56550000D03*
X204800000Y-56800000D03*
X198800000Y-57050000D03*
X205300000Y-57050000D03*
X199300000Y-57300000D03*
X204800000Y-57300000D03*
%TD*%
D13*
%TO.C,C18*%
X212480000Y-54000000D03*
X212480000Y-54960000D03*
%TD*%
D14*
%TO.C,C17*%
X198800000Y-60600000D03*
X198800000Y-62500000D03*
%TD*%
D15*
%TO.C,C2*%
X187400000Y-53700000D03*
X188360000Y-53700000D03*
%TD*%
D16*
%TO.C,U1*%
X187935000Y-48450000D03*
X187935000Y-49400000D03*
X187935000Y-50350000D03*
X190210000Y-50350000D03*
X190210000Y-48450000D03*
%TD*%
D17*
%TO.C,C8*%
X197030000Y-60300000D03*
X196070000Y-60300000D03*
%TD*%
D15*
%TO.C,C14*%
X207070000Y-54300000D03*
X208030000Y-54300000D03*
%TD*%
D18*
%TO.C,C1*%
X187710000Y-52200000D03*
X189610000Y-52200000D03*
%TD*%
%TO.C,C3*%
X191960000Y-46950000D03*
X193860000Y-46950000D03*
%TD*%
D19*
%TO.C,Y2*%
X195300000Y-54150000D03*
X195300000Y-56650000D03*
%TD*%
D20*
%TO.C,F1*%
X187000000Y-62737500D03*
X187000000Y-58462500D03*
%TD*%
D17*
%TO.C,C7*%
X197030000Y-59300000D03*
X196070000Y-59300000D03*
%TD*%
D21*
%TO.C,C11*%
X203300000Y-50280000D03*
X203300000Y-49320000D03*
%TD*%
D13*
%TO.C,C19*%
X215480000Y-54000000D03*
X215480000Y-54960000D03*
%TD*%
D22*
%TO.C,SW1*%
X218750000Y-71580000D03*
X218750000Y-63620000D03*
X223250000Y-71580000D03*
X223250000Y-63620000D03*
%TD*%
D21*
%TO.C,C20*%
X204800000Y-50280000D03*
X204800000Y-49320000D03*
%TD*%
D15*
%TO.C,C12*%
X207070000Y-53300000D03*
X208030000Y-53300000D03*
%TD*%
D10*
%TO.C,R3*%
X202300000Y-60290000D03*
X202300000Y-61310000D03*
%TD*%
D17*
%TO.C,C10*%
X197030000Y-52300000D03*
X196070000Y-52300000D03*
%TD*%
%TO.C,C5*%
X197030000Y-50300000D03*
X196070000Y-50300000D03*
%TD*%
D23*
%TO.C,D1*%
X186887500Y-56700000D03*
X186887500Y-54800000D03*
X185012500Y-55750000D03*
%TD*%
D21*
%TO.C,C22*%
X197000000Y-54160000D03*
X197000000Y-53200000D03*
%TD*%
D24*
%TO.C,R4*%
X187020000Y-68550000D03*
X187020000Y-67530000D03*
%TD*%
D14*
%TO.C,C15*%
X200800000Y-60600000D03*
X200800000Y-62500000D03*
%TD*%
D24*
%TO.C,R5*%
X187970000Y-68560000D03*
X187970000Y-67540000D03*
%TD*%
D25*
%TO.C,Y1*%
X206175000Y-50000000D03*
X207925000Y-50000000D03*
X207925000Y-48600000D03*
X206175000Y-48600000D03*
%TD*%
D26*
%TO.C,U3*%
X203250000Y-66537500D03*
X204200000Y-66537500D03*
X205150000Y-66537500D03*
X205150000Y-64262500D03*
X204200000Y-64262500D03*
X203250000Y-64262500D03*
%TD*%
D15*
%TO.C,C21*%
X207070000Y-51300000D03*
X208030000Y-51300000D03*
%TD*%
D27*
%TO.C,C16*%
X198550000Y-50000000D03*
X198550000Y-48100000D03*
%TD*%
D28*
%TO.C,J1*%
X181100000Y-61000000D03*
D29*
X183800000Y-62000000D03*
X183800000Y-67000000D03*
D28*
X181100000Y-68000000D03*
D30*
X183800000Y-63200000D03*
X183800000Y-63850000D03*
X183800000Y-64500000D03*
X183800000Y-65150000D03*
X183800000Y-65800000D03*
D31*
X181100000Y-61475000D03*
D32*
X181100000Y-63500000D03*
X181100000Y-65500000D03*
D31*
X181100000Y-67525000D03*
%TD*%
D33*
%TO.C,L1*%
X213495000Y-53980000D03*
X214465000Y-53980000D03*
%TD*%
D24*
%TO.C,R1*%
X207100000Y-60020000D03*
X207100000Y-59000000D03*
%TD*%
D13*
%TO.C,C23*%
X197000000Y-56600000D03*
X197000000Y-57560000D03*
%TD*%
D17*
%TO.C,C6*%
X197030000Y-51300000D03*
X196070000Y-51300000D03*
%TD*%
D21*
%TO.C,C13*%
X200050000Y-50280000D03*
X200050000Y-49320000D03*
%TD*%
D34*
%TO.C,C9*%
X196750000Y-61800000D03*
X194850000Y-61800000D03*
%TD*%
D15*
%TO.C,C4*%
X191650000Y-48450000D03*
X192610000Y-48450000D03*
%TD*%
M02*
