M48
; DRILL file {KiCad 9.0.8} date 2026-07-12T21:30:43+0300
; FORMAT={-:-/ absolute / metric / decimal}
; #@! TF.CreationDate,2026-07-12T21:30:43+03:00
; #@! TF.GenerationSoftware,Kicad,Pcbnew,9.0.8
; #@! TF.FileFunction,Plated,1,2,PTH
FMAT,2
METRIC
; #@! TA.AperFunction,Plated,PTH,ViaDrill
T1C0.100
; #@! TA.AperFunction,Plated,PTH,ViaDrill
T2C0.300
; #@! TA.AperFunction,Plated,PTH,ComponentDrill
T3C0.500
; #@! TA.AperFunction,Plated,PTH,ComponentDrill
T4C0.550
; #@! TA.AperFunction,Plated,PTH,ComponentDrill
T5C1.000
%
G90
G05
T1
X197.03Y-60.3
X197.8Y-54.2
X197.8Y-56.6
X198.8Y-52.55
X198.8Y-57.05
X199.275Y-53.3
X199.275Y-53.8
X199.3Y-59.15
X200.05Y-52.525
X200.05Y-58.075
X200.8Y-60.6
X200.825Y-58.525
X201.325Y-58.525
X201.825Y-58.525
X202.077Y-58.093
X202.324Y-58.563
X202.575Y-58.131
X202.825Y-58.565
X203.325Y-58.565
X203.825Y-58.565
X204.329Y-51.991
X204.831Y-54.972
X205.3Y-53.575
X206.0Y-55.2
X207.2Y-59.0
X218.75Y-63.62
T2
X187.935Y-49.4
X189.61Y-52.2
X191.0Y-66.4
X191.8Y-57.8
X191.96Y-46.95
X193.12Y-61.0
X193.324Y-59.324
X194.4Y-67.8
X196.2Y-67.8
X196.75Y-61.8
X197.0Y-53.2
X197.0Y-57.56
X197.03Y-50.3
X197.03Y-51.3
X197.03Y-59.3
X200.6Y-55.6
X200.6Y-57.0
X201.275Y-54.525
X201.4Y-67.8
X201.6Y-56.4
X201.824Y-65.024
X202.05Y-55.3
X202.875Y-54.475
X203.0Y-56.0
X203.8Y-55.2
X203.8Y-56.8
X204.2Y-66.537
X204.228Y-64.272
X205.2Y-62.6
X206.175Y-48.6
X207.925Y-48.6
X208.03Y-51.3
X208.03Y-54.3
X212.48Y-54.96
X223.2Y-61.8
T5
X182.2Y-55.725
X182.2Y-58.265
X187.44Y-70.8
X189.98Y-70.8
X192.52Y-70.8
X195.06Y-70.8
X197.6Y-70.8
X200.14Y-70.8
X202.68Y-70.8
X205.22Y-70.8
X207.76Y-70.8
X210.3Y-70.8
X212.84Y-70.8
X215.38Y-70.8
X218.28Y-54.08
T3
G00X181.425Y-61.0
M15
G01X180.775Y-61.0
M16
G05
G00X181.425Y-68.0
M15
G01X180.775Y-68.0
M16
G05
T4
G00X183.8Y-61.85
M15
G01X183.8Y-62.15
M16
G05
G00X183.8Y-66.85
M15
G01X183.8Y-67.15
M16
G05
M30
