%TF.GenerationSoftware,KiCad,Pcbnew,9.0.8*%
%TF.CreationDate,2026-07-12T21:30:58+03:00*%
%TF.ProjectId,BLE-Module-Board,424c452d-4d6f-4647-956c-652d426f6172,rev?*%
%TF.SameCoordinates,Original*%
%TF.FileFunction,Legend,Top*%
%TF.FilePolarity,Positive*%
%FSLAX46Y46*%
G04 Gerber Fmt 4.6, Leading zero omitted, Abs format (unit mm)*
G04 Created by KiCad (PCBNEW 9.0.8) date 2026-07-12 21:30:58*
%MOMM*%
%LPD*%
G01*
G04 APERTURE LIST*
%ADD10C,0.125000*%
%ADD11C,0.120000*%
G04 APERTURE END LIST*
D10*
X204913595Y-60933332D02*
X204532642Y-61199999D01*
X204913595Y-61390475D02*
X204113595Y-61390475D01*
X204113595Y-61390475D02*
X204113595Y-61085713D01*
X204113595Y-61085713D02*
X204151690Y-61009523D01*
X204151690Y-61009523D02*
X204189785Y-60971428D01*
X204189785Y-60971428D02*
X204265976Y-60933332D01*
X204265976Y-60933332D02*
X204380261Y-60933332D01*
X204380261Y-60933332D02*
X204456452Y-60971428D01*
X204456452Y-60971428D02*
X204494547Y-61009523D01*
X204494547Y-61009523D02*
X204532642Y-61085713D01*
X204532642Y-61085713D02*
X204532642Y-61390475D01*
X204189785Y-60628571D02*
X204151690Y-60590475D01*
X204151690Y-60590475D02*
X204113595Y-60514285D01*
X204113595Y-60514285D02*
X204113595Y-60323809D01*
X204113595Y-60323809D02*
X204151690Y-60247618D01*
X204151690Y-60247618D02*
X204189785Y-60209523D01*
X204189785Y-60209523D02*
X204265976Y-60171428D01*
X204265976Y-60171428D02*
X204342166Y-60171428D01*
X204342166Y-60171428D02*
X204456452Y-60209523D01*
X204456452Y-60209523D02*
X204913595Y-60666666D01*
X204913595Y-60666666D02*
X204913595Y-60171428D01*
X201440476Y-50363595D02*
X201440476Y-51011214D01*
X201440476Y-51011214D02*
X201478571Y-51087404D01*
X201478571Y-51087404D02*
X201516666Y-51125500D01*
X201516666Y-51125500D02*
X201592857Y-51163595D01*
X201592857Y-51163595D02*
X201745238Y-51163595D01*
X201745238Y-51163595D02*
X201821428Y-51125500D01*
X201821428Y-51125500D02*
X201859523Y-51087404D01*
X201859523Y-51087404D02*
X201897619Y-51011214D01*
X201897619Y-51011214D02*
X201897619Y-50363595D01*
X202240475Y-50439785D02*
X202278571Y-50401690D01*
X202278571Y-50401690D02*
X202354761Y-50363595D01*
X202354761Y-50363595D02*
X202545237Y-50363595D01*
X202545237Y-50363595D02*
X202621428Y-50401690D01*
X202621428Y-50401690D02*
X202659523Y-50439785D01*
X202659523Y-50439785D02*
X202697618Y-50515976D01*
X202697618Y-50515976D02*
X202697618Y-50592166D01*
X202697618Y-50592166D02*
X202659523Y-50706452D01*
X202659523Y-50706452D02*
X202202380Y-51163595D01*
X202202380Y-51163595D02*
X202697618Y-51163595D01*
X212652404Y-52554285D02*
X212690500Y-52592381D01*
X212690500Y-52592381D02*
X212728595Y-52706666D01*
X212728595Y-52706666D02*
X212728595Y-52782857D01*
X212728595Y-52782857D02*
X212690500Y-52897143D01*
X212690500Y-52897143D02*
X212614309Y-52973333D01*
X212614309Y-52973333D02*
X212538119Y-53011428D01*
X212538119Y-53011428D02*
X212385738Y-53049524D01*
X212385738Y-53049524D02*
X212271452Y-53049524D01*
X212271452Y-53049524D02*
X212119071Y-53011428D01*
X212119071Y-53011428D02*
X212042880Y-52973333D01*
X212042880Y-52973333D02*
X211966690Y-52897143D01*
X211966690Y-52897143D02*
X211928595Y-52782857D01*
X211928595Y-52782857D02*
X211928595Y-52706666D01*
X211928595Y-52706666D02*
X211966690Y-52592381D01*
X211966690Y-52592381D02*
X212004785Y-52554285D01*
X212728595Y-51792381D02*
X212728595Y-52249524D01*
X212728595Y-52020952D02*
X211928595Y-52020952D01*
X211928595Y-52020952D02*
X212042880Y-52097143D01*
X212042880Y-52097143D02*
X212119071Y-52173333D01*
X212119071Y-52173333D02*
X212157166Y-52249524D01*
X212271452Y-51335238D02*
X212233357Y-51411428D01*
X212233357Y-51411428D02*
X212195261Y-51449523D01*
X212195261Y-51449523D02*
X212119071Y-51487619D01*
X212119071Y-51487619D02*
X212080976Y-51487619D01*
X212080976Y-51487619D02*
X212004785Y-51449523D01*
X212004785Y-51449523D02*
X211966690Y-51411428D01*
X211966690Y-51411428D02*
X211928595Y-51335238D01*
X211928595Y-51335238D02*
X211928595Y-51182857D01*
X211928595Y-51182857D02*
X211966690Y-51106666D01*
X211966690Y-51106666D02*
X212004785Y-51068571D01*
X212004785Y-51068571D02*
X212080976Y-51030476D01*
X212080976Y-51030476D02*
X212119071Y-51030476D01*
X212119071Y-51030476D02*
X212195261Y-51068571D01*
X212195261Y-51068571D02*
X212233357Y-51106666D01*
X212233357Y-51106666D02*
X212271452Y-51182857D01*
X212271452Y-51182857D02*
X212271452Y-51335238D01*
X212271452Y-51335238D02*
X212309547Y-51411428D01*
X212309547Y-51411428D02*
X212347642Y-51449523D01*
X212347642Y-51449523D02*
X212423833Y-51487619D01*
X212423833Y-51487619D02*
X212576214Y-51487619D01*
X212576214Y-51487619D02*
X212652404Y-51449523D01*
X212652404Y-51449523D02*
X212690500Y-51411428D01*
X212690500Y-51411428D02*
X212728595Y-51335238D01*
X212728595Y-51335238D02*
X212728595Y-51182857D01*
X212728595Y-51182857D02*
X212690500Y-51106666D01*
X212690500Y-51106666D02*
X212652404Y-51068571D01*
X212652404Y-51068571D02*
X212576214Y-51030476D01*
X212576214Y-51030476D02*
X212423833Y-51030476D01*
X212423833Y-51030476D02*
X212347642Y-51068571D01*
X212347642Y-51068571D02*
X212309547Y-51106666D01*
X212309547Y-51106666D02*
X212271452Y-51182857D01*
X199087404Y-65034285D02*
X199125500Y-65072381D01*
X199125500Y-65072381D02*
X199163595Y-65186666D01*
X199163595Y-65186666D02*
X199163595Y-65262857D01*
X199163595Y-65262857D02*
X199125500Y-65377143D01*
X199125500Y-65377143D02*
X199049309Y-65453333D01*
X199049309Y-65453333D02*
X198973119Y-65491428D01*
X198973119Y-65491428D02*
X198820738Y-65529524D01*
X198820738Y-65529524D02*
X198706452Y-65529524D01*
X198706452Y-65529524D02*
X198554071Y-65491428D01*
X198554071Y-65491428D02*
X198477880Y-65453333D01*
X198477880Y-65453333D02*
X198401690Y-65377143D01*
X198401690Y-65377143D02*
X198363595Y-65262857D01*
X198363595Y-65262857D02*
X198363595Y-65186666D01*
X198363595Y-65186666D02*
X198401690Y-65072381D01*
X198401690Y-65072381D02*
X198439785Y-65034285D01*
X199163595Y-64272381D02*
X199163595Y-64729524D01*
X199163595Y-64500952D02*
X198363595Y-64500952D01*
X198363595Y-64500952D02*
X198477880Y-64577143D01*
X198477880Y-64577143D02*
X198554071Y-64653333D01*
X198554071Y-64653333D02*
X198592166Y-64729524D01*
X198363595Y-64005714D02*
X198363595Y-63472380D01*
X198363595Y-63472380D02*
X199163595Y-63815238D01*
X189516667Y-54097404D02*
X189478571Y-54135500D01*
X189478571Y-54135500D02*
X189364286Y-54173595D01*
X189364286Y-54173595D02*
X189288095Y-54173595D01*
X189288095Y-54173595D02*
X189173809Y-54135500D01*
X189173809Y-54135500D02*
X189097619Y-54059309D01*
X189097619Y-54059309D02*
X189059524Y-53983119D01*
X189059524Y-53983119D02*
X189021428Y-53830738D01*
X189021428Y-53830738D02*
X189021428Y-53716452D01*
X189021428Y-53716452D02*
X189059524Y-53564071D01*
X189059524Y-53564071D02*
X189097619Y-53487880D01*
X189097619Y-53487880D02*
X189173809Y-53411690D01*
X189173809Y-53411690D02*
X189288095Y-53373595D01*
X189288095Y-53373595D02*
X189364286Y-53373595D01*
X189364286Y-53373595D02*
X189478571Y-53411690D01*
X189478571Y-53411690D02*
X189516667Y-53449785D01*
X189821428Y-53449785D02*
X189859524Y-53411690D01*
X189859524Y-53411690D02*
X189935714Y-53373595D01*
X189935714Y-53373595D02*
X190126190Y-53373595D01*
X190126190Y-53373595D02*
X190202381Y-53411690D01*
X190202381Y-53411690D02*
X190240476Y-53449785D01*
X190240476Y-53449785D02*
X190278571Y-53525976D01*
X190278571Y-53525976D02*
X190278571Y-53602166D01*
X190278571Y-53602166D02*
X190240476Y-53716452D01*
X190240476Y-53716452D02*
X189783333Y-54173595D01*
X189783333Y-54173595D02*
X190278571Y-54173595D01*
X188462976Y-46563595D02*
X188462976Y-47211214D01*
X188462976Y-47211214D02*
X188501071Y-47287404D01*
X188501071Y-47287404D02*
X188539166Y-47325500D01*
X188539166Y-47325500D02*
X188615357Y-47363595D01*
X188615357Y-47363595D02*
X188767738Y-47363595D01*
X188767738Y-47363595D02*
X188843928Y-47325500D01*
X188843928Y-47325500D02*
X188882023Y-47287404D01*
X188882023Y-47287404D02*
X188920119Y-47211214D01*
X188920119Y-47211214D02*
X188920119Y-46563595D01*
X189720118Y-47363595D02*
X189262975Y-47363595D01*
X189491547Y-47363595D02*
X189491547Y-46563595D01*
X189491547Y-46563595D02*
X189415356Y-46677880D01*
X189415356Y-46677880D02*
X189339166Y-46754071D01*
X189339166Y-46754071D02*
X189262975Y-46792166D01*
X194716667Y-60647404D02*
X194678571Y-60685500D01*
X194678571Y-60685500D02*
X194564286Y-60723595D01*
X194564286Y-60723595D02*
X194488095Y-60723595D01*
X194488095Y-60723595D02*
X194373809Y-60685500D01*
X194373809Y-60685500D02*
X194297619Y-60609309D01*
X194297619Y-60609309D02*
X194259524Y-60533119D01*
X194259524Y-60533119D02*
X194221428Y-60380738D01*
X194221428Y-60380738D02*
X194221428Y-60266452D01*
X194221428Y-60266452D02*
X194259524Y-60114071D01*
X194259524Y-60114071D02*
X194297619Y-60037880D01*
X194297619Y-60037880D02*
X194373809Y-59961690D01*
X194373809Y-59961690D02*
X194488095Y-59923595D01*
X194488095Y-59923595D02*
X194564286Y-59923595D01*
X194564286Y-59923595D02*
X194678571Y-59961690D01*
X194678571Y-59961690D02*
X194716667Y-59999785D01*
X195173809Y-60266452D02*
X195097619Y-60228357D01*
X195097619Y-60228357D02*
X195059524Y-60190261D01*
X195059524Y-60190261D02*
X195021428Y-60114071D01*
X195021428Y-60114071D02*
X195021428Y-60075976D01*
X195021428Y-60075976D02*
X195059524Y-59999785D01*
X195059524Y-59999785D02*
X195097619Y-59961690D01*
X195097619Y-59961690D02*
X195173809Y-59923595D01*
X195173809Y-59923595D02*
X195326190Y-59923595D01*
X195326190Y-59923595D02*
X195402381Y-59961690D01*
X195402381Y-59961690D02*
X195440476Y-59999785D01*
X195440476Y-59999785D02*
X195478571Y-60075976D01*
X195478571Y-60075976D02*
X195478571Y-60114071D01*
X195478571Y-60114071D02*
X195440476Y-60190261D01*
X195440476Y-60190261D02*
X195402381Y-60228357D01*
X195402381Y-60228357D02*
X195326190Y-60266452D01*
X195326190Y-60266452D02*
X195173809Y-60266452D01*
X195173809Y-60266452D02*
X195097619Y-60304547D01*
X195097619Y-60304547D02*
X195059524Y-60342642D01*
X195059524Y-60342642D02*
X195021428Y-60418833D01*
X195021428Y-60418833D02*
X195021428Y-60571214D01*
X195021428Y-60571214D02*
X195059524Y-60647404D01*
X195059524Y-60647404D02*
X195097619Y-60685500D01*
X195097619Y-60685500D02*
X195173809Y-60723595D01*
X195173809Y-60723595D02*
X195326190Y-60723595D01*
X195326190Y-60723595D02*
X195402381Y-60685500D01*
X195402381Y-60685500D02*
X195440476Y-60647404D01*
X195440476Y-60647404D02*
X195478571Y-60571214D01*
X195478571Y-60571214D02*
X195478571Y-60418833D01*
X195478571Y-60418833D02*
X195440476Y-60342642D01*
X195440476Y-60342642D02*
X195402381Y-60304547D01*
X195402381Y-60304547D02*
X195326190Y-60266452D01*
X209115714Y-54837404D02*
X209077618Y-54875500D01*
X209077618Y-54875500D02*
X208963333Y-54913595D01*
X208963333Y-54913595D02*
X208887142Y-54913595D01*
X208887142Y-54913595D02*
X208772856Y-54875500D01*
X208772856Y-54875500D02*
X208696666Y-54799309D01*
X208696666Y-54799309D02*
X208658571Y-54723119D01*
X208658571Y-54723119D02*
X208620475Y-54570738D01*
X208620475Y-54570738D02*
X208620475Y-54456452D01*
X208620475Y-54456452D02*
X208658571Y-54304071D01*
X208658571Y-54304071D02*
X208696666Y-54227880D01*
X208696666Y-54227880D02*
X208772856Y-54151690D01*
X208772856Y-54151690D02*
X208887142Y-54113595D01*
X208887142Y-54113595D02*
X208963333Y-54113595D01*
X208963333Y-54113595D02*
X209077618Y-54151690D01*
X209077618Y-54151690D02*
X209115714Y-54189785D01*
X209877618Y-54913595D02*
X209420475Y-54913595D01*
X209649047Y-54913595D02*
X209649047Y-54113595D01*
X209649047Y-54113595D02*
X209572856Y-54227880D01*
X209572856Y-54227880D02*
X209496666Y-54304071D01*
X209496666Y-54304071D02*
X209420475Y-54342166D01*
X210563333Y-54380261D02*
X210563333Y-54913595D01*
X210372857Y-54075500D02*
X210182380Y-54646928D01*
X210182380Y-54646928D02*
X210677619Y-54646928D01*
X191066667Y-52687404D02*
X191028571Y-52725500D01*
X191028571Y-52725500D02*
X190914286Y-52763595D01*
X190914286Y-52763595D02*
X190838095Y-52763595D01*
X190838095Y-52763595D02*
X190723809Y-52725500D01*
X190723809Y-52725500D02*
X190647619Y-52649309D01*
X190647619Y-52649309D02*
X190609524Y-52573119D01*
X190609524Y-52573119D02*
X190571428Y-52420738D01*
X190571428Y-52420738D02*
X190571428Y-52306452D01*
X190571428Y-52306452D02*
X190609524Y-52154071D01*
X190609524Y-52154071D02*
X190647619Y-52077880D01*
X190647619Y-52077880D02*
X190723809Y-52001690D01*
X190723809Y-52001690D02*
X190838095Y-51963595D01*
X190838095Y-51963595D02*
X190914286Y-51963595D01*
X190914286Y-51963595D02*
X191028571Y-52001690D01*
X191028571Y-52001690D02*
X191066667Y-52039785D01*
X191828571Y-52763595D02*
X191371428Y-52763595D01*
X191600000Y-52763595D02*
X191600000Y-51963595D01*
X191600000Y-51963595D02*
X191523809Y-52077880D01*
X191523809Y-52077880D02*
X191447619Y-52154071D01*
X191447619Y-52154071D02*
X191371428Y-52192166D01*
X192776667Y-45557404D02*
X192738571Y-45595500D01*
X192738571Y-45595500D02*
X192624286Y-45633595D01*
X192624286Y-45633595D02*
X192548095Y-45633595D01*
X192548095Y-45633595D02*
X192433809Y-45595500D01*
X192433809Y-45595500D02*
X192357619Y-45519309D01*
X192357619Y-45519309D02*
X192319524Y-45443119D01*
X192319524Y-45443119D02*
X192281428Y-45290738D01*
X192281428Y-45290738D02*
X192281428Y-45176452D01*
X192281428Y-45176452D02*
X192319524Y-45024071D01*
X192319524Y-45024071D02*
X192357619Y-44947880D01*
X192357619Y-44947880D02*
X192433809Y-44871690D01*
X192433809Y-44871690D02*
X192548095Y-44833595D01*
X192548095Y-44833595D02*
X192624286Y-44833595D01*
X192624286Y-44833595D02*
X192738571Y-44871690D01*
X192738571Y-44871690D02*
X192776667Y-44909785D01*
X193043333Y-44833595D02*
X193538571Y-44833595D01*
X193538571Y-44833595D02*
X193271905Y-45138357D01*
X193271905Y-45138357D02*
X193386190Y-45138357D01*
X193386190Y-45138357D02*
X193462381Y-45176452D01*
X193462381Y-45176452D02*
X193500476Y-45214547D01*
X193500476Y-45214547D02*
X193538571Y-45290738D01*
X193538571Y-45290738D02*
X193538571Y-45481214D01*
X193538571Y-45481214D02*
X193500476Y-45557404D01*
X193500476Y-45557404D02*
X193462381Y-45595500D01*
X193462381Y-45595500D02*
X193386190Y-45633595D01*
X193386190Y-45633595D02*
X193157619Y-45633595D01*
X193157619Y-45633595D02*
X193081428Y-45595500D01*
X193081428Y-45595500D02*
X193043333Y-45557404D01*
X193532642Y-55780951D02*
X193913595Y-55780951D01*
X193113595Y-56047618D02*
X193532642Y-55780951D01*
X193532642Y-55780951D02*
X193113595Y-55514285D01*
X193189785Y-55285714D02*
X193151690Y-55247618D01*
X193151690Y-55247618D02*
X193113595Y-55171428D01*
X193113595Y-55171428D02*
X193113595Y-54980952D01*
X193113595Y-54980952D02*
X193151690Y-54904761D01*
X193151690Y-54904761D02*
X193189785Y-54866666D01*
X193189785Y-54866666D02*
X193265976Y-54828571D01*
X193265976Y-54828571D02*
X193342166Y-54828571D01*
X193342166Y-54828571D02*
X193456452Y-54866666D01*
X193456452Y-54866666D02*
X193913595Y-55323809D01*
X193913595Y-55323809D02*
X193913595Y-54828571D01*
X189694547Y-60866666D02*
X189694547Y-61133332D01*
X190113595Y-61133332D02*
X189313595Y-61133332D01*
X189313595Y-61133332D02*
X189313595Y-60752380D01*
X190113595Y-60028571D02*
X190113595Y-60485714D01*
X190113595Y-60257142D02*
X189313595Y-60257142D01*
X189313595Y-60257142D02*
X189427880Y-60333333D01*
X189427880Y-60333333D02*
X189504071Y-60409523D01*
X189504071Y-60409523D02*
X189542166Y-60485714D01*
X216641904Y-51263595D02*
X216641904Y-51835023D01*
X216641904Y-51835023D02*
X216603809Y-51949309D01*
X216603809Y-51949309D02*
X216527618Y-52025500D01*
X216527618Y-52025500D02*
X216413333Y-52063595D01*
X216413333Y-52063595D02*
X216337142Y-52063595D01*
X216832381Y-52139785D02*
X217441904Y-52139785D01*
X217594285Y-51835023D02*
X217975238Y-51835023D01*
X217518095Y-52063595D02*
X217784762Y-51263595D01*
X217784762Y-51263595D02*
X218051428Y-52063595D01*
X218318095Y-52063595D02*
X218318095Y-51263595D01*
X218318095Y-51263595D02*
X218775238Y-52063595D01*
X218775238Y-52063595D02*
X218775238Y-51263595D01*
X219041904Y-51263595D02*
X219499047Y-51263595D01*
X219270475Y-52063595D02*
X219270475Y-51263595D01*
X220184761Y-52063595D02*
X219727618Y-52063595D01*
X219956190Y-52063595D02*
X219956190Y-51263595D01*
X219956190Y-51263595D02*
X219879999Y-51377880D01*
X219879999Y-51377880D02*
X219803809Y-51454071D01*
X219803809Y-51454071D02*
X219727618Y-51492166D01*
X184563595Y-71866666D02*
X185135023Y-71866666D01*
X185135023Y-71866666D02*
X185249309Y-71904761D01*
X185249309Y-71904761D02*
X185325500Y-71980952D01*
X185325500Y-71980952D02*
X185363595Y-72095237D01*
X185363595Y-72095237D02*
X185363595Y-72171428D01*
X184563595Y-71561904D02*
X184563595Y-71066666D01*
X184563595Y-71066666D02*
X184868357Y-71333332D01*
X184868357Y-71333332D02*
X184868357Y-71219047D01*
X184868357Y-71219047D02*
X184906452Y-71142856D01*
X184906452Y-71142856D02*
X184944547Y-71104761D01*
X184944547Y-71104761D02*
X185020738Y-71066666D01*
X185020738Y-71066666D02*
X185211214Y-71066666D01*
X185211214Y-71066666D02*
X185287404Y-71104761D01*
X185287404Y-71104761D02*
X185325500Y-71142856D01*
X185325500Y-71142856D02*
X185363595Y-71219047D01*
X185363595Y-71219047D02*
X185363595Y-71447618D01*
X185363595Y-71447618D02*
X185325500Y-71523809D01*
X185325500Y-71523809D02*
X185287404Y-71561904D01*
X194716667Y-59677404D02*
X194678571Y-59715500D01*
X194678571Y-59715500D02*
X194564286Y-59753595D01*
X194564286Y-59753595D02*
X194488095Y-59753595D01*
X194488095Y-59753595D02*
X194373809Y-59715500D01*
X194373809Y-59715500D02*
X194297619Y-59639309D01*
X194297619Y-59639309D02*
X194259524Y-59563119D01*
X194259524Y-59563119D02*
X194221428Y-59410738D01*
X194221428Y-59410738D02*
X194221428Y-59296452D01*
X194221428Y-59296452D02*
X194259524Y-59144071D01*
X194259524Y-59144071D02*
X194297619Y-59067880D01*
X194297619Y-59067880D02*
X194373809Y-58991690D01*
X194373809Y-58991690D02*
X194488095Y-58953595D01*
X194488095Y-58953595D02*
X194564286Y-58953595D01*
X194564286Y-58953595D02*
X194678571Y-58991690D01*
X194678571Y-58991690D02*
X194716667Y-59029785D01*
X194983333Y-58953595D02*
X195516667Y-58953595D01*
X195516667Y-58953595D02*
X195173809Y-59753595D01*
X203657404Y-48234285D02*
X203695500Y-48272381D01*
X203695500Y-48272381D02*
X203733595Y-48386666D01*
X203733595Y-48386666D02*
X203733595Y-48462857D01*
X203733595Y-48462857D02*
X203695500Y-48577143D01*
X203695500Y-48577143D02*
X203619309Y-48653333D01*
X203619309Y-48653333D02*
X203543119Y-48691428D01*
X203543119Y-48691428D02*
X203390738Y-48729524D01*
X203390738Y-48729524D02*
X203276452Y-48729524D01*
X203276452Y-48729524D02*
X203124071Y-48691428D01*
X203124071Y-48691428D02*
X203047880Y-48653333D01*
X203047880Y-48653333D02*
X202971690Y-48577143D01*
X202971690Y-48577143D02*
X202933595Y-48462857D01*
X202933595Y-48462857D02*
X202933595Y-48386666D01*
X202933595Y-48386666D02*
X202971690Y-48272381D01*
X202971690Y-48272381D02*
X203009785Y-48234285D01*
X203733595Y-47472381D02*
X203733595Y-47929524D01*
X203733595Y-47700952D02*
X202933595Y-47700952D01*
X202933595Y-47700952D02*
X203047880Y-47777143D01*
X203047880Y-47777143D02*
X203124071Y-47853333D01*
X203124071Y-47853333D02*
X203162166Y-47929524D01*
X203733595Y-46710476D02*
X203733595Y-47167619D01*
X203733595Y-46939047D02*
X202933595Y-46939047D01*
X202933595Y-46939047D02*
X203047880Y-47015238D01*
X203047880Y-47015238D02*
X203124071Y-47091428D01*
X203124071Y-47091428D02*
X203162166Y-47167619D01*
X215797404Y-52554285D02*
X215835500Y-52592381D01*
X215835500Y-52592381D02*
X215873595Y-52706666D01*
X215873595Y-52706666D02*
X215873595Y-52782857D01*
X215873595Y-52782857D02*
X215835500Y-52897143D01*
X215835500Y-52897143D02*
X215759309Y-52973333D01*
X215759309Y-52973333D02*
X215683119Y-53011428D01*
X215683119Y-53011428D02*
X215530738Y-53049524D01*
X215530738Y-53049524D02*
X215416452Y-53049524D01*
X215416452Y-53049524D02*
X215264071Y-53011428D01*
X215264071Y-53011428D02*
X215187880Y-52973333D01*
X215187880Y-52973333D02*
X215111690Y-52897143D01*
X215111690Y-52897143D02*
X215073595Y-52782857D01*
X215073595Y-52782857D02*
X215073595Y-52706666D01*
X215073595Y-52706666D02*
X215111690Y-52592381D01*
X215111690Y-52592381D02*
X215149785Y-52554285D01*
X215873595Y-51792381D02*
X215873595Y-52249524D01*
X215873595Y-52020952D02*
X215073595Y-52020952D01*
X215073595Y-52020952D02*
X215187880Y-52097143D01*
X215187880Y-52097143D02*
X215264071Y-52173333D01*
X215264071Y-52173333D02*
X215302166Y-52249524D01*
X215873595Y-51411428D02*
X215873595Y-51259047D01*
X215873595Y-51259047D02*
X215835500Y-51182857D01*
X215835500Y-51182857D02*
X215797404Y-51144761D01*
X215797404Y-51144761D02*
X215683119Y-51068571D01*
X215683119Y-51068571D02*
X215530738Y-51030476D01*
X215530738Y-51030476D02*
X215225976Y-51030476D01*
X215225976Y-51030476D02*
X215149785Y-51068571D01*
X215149785Y-51068571D02*
X215111690Y-51106666D01*
X215111690Y-51106666D02*
X215073595Y-51182857D01*
X215073595Y-51182857D02*
X215073595Y-51335238D01*
X215073595Y-51335238D02*
X215111690Y-51411428D01*
X215111690Y-51411428D02*
X215149785Y-51449523D01*
X215149785Y-51449523D02*
X215225976Y-51487619D01*
X215225976Y-51487619D02*
X215416452Y-51487619D01*
X215416452Y-51487619D02*
X215492642Y-51449523D01*
X215492642Y-51449523D02*
X215530738Y-51411428D01*
X215530738Y-51411428D02*
X215568833Y-51335238D01*
X215568833Y-51335238D02*
X215568833Y-51182857D01*
X215568833Y-51182857D02*
X215530738Y-51106666D01*
X215530738Y-51106666D02*
X215492642Y-51068571D01*
X215492642Y-51068571D02*
X215416452Y-51030476D01*
X217275500Y-68666667D02*
X217313595Y-68552381D01*
X217313595Y-68552381D02*
X217313595Y-68361905D01*
X217313595Y-68361905D02*
X217275500Y-68285714D01*
X217275500Y-68285714D02*
X217237404Y-68247619D01*
X217237404Y-68247619D02*
X217161214Y-68209524D01*
X217161214Y-68209524D02*
X217085023Y-68209524D01*
X217085023Y-68209524D02*
X217008833Y-68247619D01*
X217008833Y-68247619D02*
X216970738Y-68285714D01*
X216970738Y-68285714D02*
X216932642Y-68361905D01*
X216932642Y-68361905D02*
X216894547Y-68514286D01*
X216894547Y-68514286D02*
X216856452Y-68590476D01*
X216856452Y-68590476D02*
X216818357Y-68628571D01*
X216818357Y-68628571D02*
X216742166Y-68666667D01*
X216742166Y-68666667D02*
X216665976Y-68666667D01*
X216665976Y-68666667D02*
X216589785Y-68628571D01*
X216589785Y-68628571D02*
X216551690Y-68590476D01*
X216551690Y-68590476D02*
X216513595Y-68514286D01*
X216513595Y-68514286D02*
X216513595Y-68323809D01*
X216513595Y-68323809D02*
X216551690Y-68209524D01*
X216513595Y-67942857D02*
X217313595Y-67752381D01*
X217313595Y-67752381D02*
X216742166Y-67600000D01*
X216742166Y-67600000D02*
X217313595Y-67447619D01*
X217313595Y-67447619D02*
X216513595Y-67257143D01*
X217313595Y-66533333D02*
X217313595Y-66990476D01*
X217313595Y-66761904D02*
X216513595Y-66761904D01*
X216513595Y-66761904D02*
X216627880Y-66838095D01*
X216627880Y-66838095D02*
X216704071Y-66914285D01*
X216704071Y-66914285D02*
X216742166Y-66990476D01*
X205087404Y-48064285D02*
X205125500Y-48102381D01*
X205125500Y-48102381D02*
X205163595Y-48216666D01*
X205163595Y-48216666D02*
X205163595Y-48292857D01*
X205163595Y-48292857D02*
X205125500Y-48407143D01*
X205125500Y-48407143D02*
X205049309Y-48483333D01*
X205049309Y-48483333D02*
X204973119Y-48521428D01*
X204973119Y-48521428D02*
X204820738Y-48559524D01*
X204820738Y-48559524D02*
X204706452Y-48559524D01*
X204706452Y-48559524D02*
X204554071Y-48521428D01*
X204554071Y-48521428D02*
X204477880Y-48483333D01*
X204477880Y-48483333D02*
X204401690Y-48407143D01*
X204401690Y-48407143D02*
X204363595Y-48292857D01*
X204363595Y-48292857D02*
X204363595Y-48216666D01*
X204363595Y-48216666D02*
X204401690Y-48102381D01*
X204401690Y-48102381D02*
X204439785Y-48064285D01*
X204439785Y-47759524D02*
X204401690Y-47721428D01*
X204401690Y-47721428D02*
X204363595Y-47645238D01*
X204363595Y-47645238D02*
X204363595Y-47454762D01*
X204363595Y-47454762D02*
X204401690Y-47378571D01*
X204401690Y-47378571D02*
X204439785Y-47340476D01*
X204439785Y-47340476D02*
X204515976Y-47302381D01*
X204515976Y-47302381D02*
X204592166Y-47302381D01*
X204592166Y-47302381D02*
X204706452Y-47340476D01*
X204706452Y-47340476D02*
X205163595Y-47797619D01*
X205163595Y-47797619D02*
X205163595Y-47302381D01*
X204363595Y-46807142D02*
X204363595Y-46730952D01*
X204363595Y-46730952D02*
X204401690Y-46654761D01*
X204401690Y-46654761D02*
X204439785Y-46616666D01*
X204439785Y-46616666D02*
X204515976Y-46578571D01*
X204515976Y-46578571D02*
X204668357Y-46540476D01*
X204668357Y-46540476D02*
X204858833Y-46540476D01*
X204858833Y-46540476D02*
X205011214Y-46578571D01*
X205011214Y-46578571D02*
X205087404Y-46616666D01*
X205087404Y-46616666D02*
X205125500Y-46654761D01*
X205125500Y-46654761D02*
X205163595Y-46730952D01*
X205163595Y-46730952D02*
X205163595Y-46807142D01*
X205163595Y-46807142D02*
X205125500Y-46883333D01*
X205125500Y-46883333D02*
X205087404Y-46921428D01*
X205087404Y-46921428D02*
X205011214Y-46959523D01*
X205011214Y-46959523D02*
X204858833Y-46997619D01*
X204858833Y-46997619D02*
X204668357Y-46997619D01*
X204668357Y-46997619D02*
X204515976Y-46959523D01*
X204515976Y-46959523D02*
X204439785Y-46921428D01*
X204439785Y-46921428D02*
X204401690Y-46883333D01*
X204401690Y-46883333D02*
X204363595Y-46807142D01*
X209115714Y-53687404D02*
X209077618Y-53725500D01*
X209077618Y-53725500D02*
X208963333Y-53763595D01*
X208963333Y-53763595D02*
X208887142Y-53763595D01*
X208887142Y-53763595D02*
X208772856Y-53725500D01*
X208772856Y-53725500D02*
X208696666Y-53649309D01*
X208696666Y-53649309D02*
X208658571Y-53573119D01*
X208658571Y-53573119D02*
X208620475Y-53420738D01*
X208620475Y-53420738D02*
X208620475Y-53306452D01*
X208620475Y-53306452D02*
X208658571Y-53154071D01*
X208658571Y-53154071D02*
X208696666Y-53077880D01*
X208696666Y-53077880D02*
X208772856Y-53001690D01*
X208772856Y-53001690D02*
X208887142Y-52963595D01*
X208887142Y-52963595D02*
X208963333Y-52963595D01*
X208963333Y-52963595D02*
X209077618Y-53001690D01*
X209077618Y-53001690D02*
X209115714Y-53039785D01*
X209877618Y-53763595D02*
X209420475Y-53763595D01*
X209649047Y-53763595D02*
X209649047Y-52963595D01*
X209649047Y-52963595D02*
X209572856Y-53077880D01*
X209572856Y-53077880D02*
X209496666Y-53154071D01*
X209496666Y-53154071D02*
X209420475Y-53192166D01*
X210182380Y-53039785D02*
X210220476Y-53001690D01*
X210220476Y-53001690D02*
X210296666Y-52963595D01*
X210296666Y-52963595D02*
X210487142Y-52963595D01*
X210487142Y-52963595D02*
X210563333Y-53001690D01*
X210563333Y-53001690D02*
X210601428Y-53039785D01*
X210601428Y-53039785D02*
X210639523Y-53115976D01*
X210639523Y-53115976D02*
X210639523Y-53192166D01*
X210639523Y-53192166D02*
X210601428Y-53306452D01*
X210601428Y-53306452D02*
X210144285Y-53763595D01*
X210144285Y-53763595D02*
X210639523Y-53763595D01*
X202763595Y-62733332D02*
X202382642Y-62999999D01*
X202763595Y-63190475D02*
X201963595Y-63190475D01*
X201963595Y-63190475D02*
X201963595Y-62885713D01*
X201963595Y-62885713D02*
X202001690Y-62809523D01*
X202001690Y-62809523D02*
X202039785Y-62771428D01*
X202039785Y-62771428D02*
X202115976Y-62733332D01*
X202115976Y-62733332D02*
X202230261Y-62733332D01*
X202230261Y-62733332D02*
X202306452Y-62771428D01*
X202306452Y-62771428D02*
X202344547Y-62809523D01*
X202344547Y-62809523D02*
X202382642Y-62885713D01*
X202382642Y-62885713D02*
X202382642Y-63190475D01*
X201963595Y-62466666D02*
X201963595Y-61971428D01*
X201963595Y-61971428D02*
X202268357Y-62238094D01*
X202268357Y-62238094D02*
X202268357Y-62123809D01*
X202268357Y-62123809D02*
X202306452Y-62047618D01*
X202306452Y-62047618D02*
X202344547Y-62009523D01*
X202344547Y-62009523D02*
X202420738Y-61971428D01*
X202420738Y-61971428D02*
X202611214Y-61971428D01*
X202611214Y-61971428D02*
X202687404Y-62009523D01*
X202687404Y-62009523D02*
X202725500Y-62047618D01*
X202725500Y-62047618D02*
X202763595Y-62123809D01*
X202763595Y-62123809D02*
X202763595Y-62352380D01*
X202763595Y-62352380D02*
X202725500Y-62428571D01*
X202725500Y-62428571D02*
X202687404Y-62466666D01*
X193955714Y-52087404D02*
X193917618Y-52125500D01*
X193917618Y-52125500D02*
X193803333Y-52163595D01*
X193803333Y-52163595D02*
X193727142Y-52163595D01*
X193727142Y-52163595D02*
X193612856Y-52125500D01*
X193612856Y-52125500D02*
X193536666Y-52049309D01*
X193536666Y-52049309D02*
X193498571Y-51973119D01*
X193498571Y-51973119D02*
X193460475Y-51820738D01*
X193460475Y-51820738D02*
X193460475Y-51706452D01*
X193460475Y-51706452D02*
X193498571Y-51554071D01*
X193498571Y-51554071D02*
X193536666Y-51477880D01*
X193536666Y-51477880D02*
X193612856Y-51401690D01*
X193612856Y-51401690D02*
X193727142Y-51363595D01*
X193727142Y-51363595D02*
X193803333Y-51363595D01*
X193803333Y-51363595D02*
X193917618Y-51401690D01*
X193917618Y-51401690D02*
X193955714Y-51439785D01*
X194717618Y-52163595D02*
X194260475Y-52163595D01*
X194489047Y-52163595D02*
X194489047Y-51363595D01*
X194489047Y-51363595D02*
X194412856Y-51477880D01*
X194412856Y-51477880D02*
X194336666Y-51554071D01*
X194336666Y-51554071D02*
X194260475Y-51592166D01*
X195212857Y-51363595D02*
X195289047Y-51363595D01*
X195289047Y-51363595D02*
X195365238Y-51401690D01*
X195365238Y-51401690D02*
X195403333Y-51439785D01*
X195403333Y-51439785D02*
X195441428Y-51515976D01*
X195441428Y-51515976D02*
X195479523Y-51668357D01*
X195479523Y-51668357D02*
X195479523Y-51858833D01*
X195479523Y-51858833D02*
X195441428Y-52011214D01*
X195441428Y-52011214D02*
X195403333Y-52087404D01*
X195403333Y-52087404D02*
X195365238Y-52125500D01*
X195365238Y-52125500D02*
X195289047Y-52163595D01*
X195289047Y-52163595D02*
X195212857Y-52163595D01*
X195212857Y-52163595D02*
X195136666Y-52125500D01*
X195136666Y-52125500D02*
X195098571Y-52087404D01*
X195098571Y-52087404D02*
X195060476Y-52011214D01*
X195060476Y-52011214D02*
X195022380Y-51858833D01*
X195022380Y-51858833D02*
X195022380Y-51668357D01*
X195022380Y-51668357D02*
X195060476Y-51515976D01*
X195060476Y-51515976D02*
X195098571Y-51439785D01*
X195098571Y-51439785D02*
X195136666Y-51401690D01*
X195136666Y-51401690D02*
X195212857Y-51363595D01*
X194716667Y-50087404D02*
X194678571Y-50125500D01*
X194678571Y-50125500D02*
X194564286Y-50163595D01*
X194564286Y-50163595D02*
X194488095Y-50163595D01*
X194488095Y-50163595D02*
X194373809Y-50125500D01*
X194373809Y-50125500D02*
X194297619Y-50049309D01*
X194297619Y-50049309D02*
X194259524Y-49973119D01*
X194259524Y-49973119D02*
X194221428Y-49820738D01*
X194221428Y-49820738D02*
X194221428Y-49706452D01*
X194221428Y-49706452D02*
X194259524Y-49554071D01*
X194259524Y-49554071D02*
X194297619Y-49477880D01*
X194297619Y-49477880D02*
X194373809Y-49401690D01*
X194373809Y-49401690D02*
X194488095Y-49363595D01*
X194488095Y-49363595D02*
X194564286Y-49363595D01*
X194564286Y-49363595D02*
X194678571Y-49401690D01*
X194678571Y-49401690D02*
X194716667Y-49439785D01*
X195440476Y-49363595D02*
X195059524Y-49363595D01*
X195059524Y-49363595D02*
X195021428Y-49744547D01*
X195021428Y-49744547D02*
X195059524Y-49706452D01*
X195059524Y-49706452D02*
X195135714Y-49668357D01*
X195135714Y-49668357D02*
X195326190Y-49668357D01*
X195326190Y-49668357D02*
X195402381Y-49706452D01*
X195402381Y-49706452D02*
X195440476Y-49744547D01*
X195440476Y-49744547D02*
X195478571Y-49820738D01*
X195478571Y-49820738D02*
X195478571Y-50011214D01*
X195478571Y-50011214D02*
X195440476Y-50087404D01*
X195440476Y-50087404D02*
X195402381Y-50125500D01*
X195402381Y-50125500D02*
X195326190Y-50163595D01*
X195326190Y-50163595D02*
X195135714Y-50163595D01*
X195135714Y-50163595D02*
X195059524Y-50125500D01*
X195059524Y-50125500D02*
X195021428Y-50087404D01*
X185409524Y-53563595D02*
X185409524Y-52763595D01*
X185409524Y-52763595D02*
X185600000Y-52763595D01*
X185600000Y-52763595D02*
X185714286Y-52801690D01*
X185714286Y-52801690D02*
X185790476Y-52877880D01*
X185790476Y-52877880D02*
X185828571Y-52954071D01*
X185828571Y-52954071D02*
X185866667Y-53106452D01*
X185866667Y-53106452D02*
X185866667Y-53220738D01*
X185866667Y-53220738D02*
X185828571Y-53373119D01*
X185828571Y-53373119D02*
X185790476Y-53449309D01*
X185790476Y-53449309D02*
X185714286Y-53525500D01*
X185714286Y-53525500D02*
X185600000Y-53563595D01*
X185600000Y-53563595D02*
X185409524Y-53563595D01*
X186628571Y-53563595D02*
X186171428Y-53563595D01*
X186400000Y-53563595D02*
X186400000Y-52763595D01*
X186400000Y-52763595D02*
X186323809Y-52877880D01*
X186323809Y-52877880D02*
X186247619Y-52954071D01*
X186247619Y-52954071D02*
X186171428Y-52992166D01*
X193885714Y-53167404D02*
X193847618Y-53205500D01*
X193847618Y-53205500D02*
X193733333Y-53243595D01*
X193733333Y-53243595D02*
X193657142Y-53243595D01*
X193657142Y-53243595D02*
X193542856Y-53205500D01*
X193542856Y-53205500D02*
X193466666Y-53129309D01*
X193466666Y-53129309D02*
X193428571Y-53053119D01*
X193428571Y-53053119D02*
X193390475Y-52900738D01*
X193390475Y-52900738D02*
X193390475Y-52786452D01*
X193390475Y-52786452D02*
X193428571Y-52634071D01*
X193428571Y-52634071D02*
X193466666Y-52557880D01*
X193466666Y-52557880D02*
X193542856Y-52481690D01*
X193542856Y-52481690D02*
X193657142Y-52443595D01*
X193657142Y-52443595D02*
X193733333Y-52443595D01*
X193733333Y-52443595D02*
X193847618Y-52481690D01*
X193847618Y-52481690D02*
X193885714Y-52519785D01*
X194190475Y-52519785D02*
X194228571Y-52481690D01*
X194228571Y-52481690D02*
X194304761Y-52443595D01*
X194304761Y-52443595D02*
X194495237Y-52443595D01*
X194495237Y-52443595D02*
X194571428Y-52481690D01*
X194571428Y-52481690D02*
X194609523Y-52519785D01*
X194609523Y-52519785D02*
X194647618Y-52595976D01*
X194647618Y-52595976D02*
X194647618Y-52672166D01*
X194647618Y-52672166D02*
X194609523Y-52786452D01*
X194609523Y-52786452D02*
X194152380Y-53243595D01*
X194152380Y-53243595D02*
X194647618Y-53243595D01*
X194952380Y-52519785D02*
X194990476Y-52481690D01*
X194990476Y-52481690D02*
X195066666Y-52443595D01*
X195066666Y-52443595D02*
X195257142Y-52443595D01*
X195257142Y-52443595D02*
X195333333Y-52481690D01*
X195333333Y-52481690D02*
X195371428Y-52519785D01*
X195371428Y-52519785D02*
X195409523Y-52595976D01*
X195409523Y-52595976D02*
X195409523Y-52672166D01*
X195409523Y-52672166D02*
X195371428Y-52786452D01*
X195371428Y-52786452D02*
X194914285Y-53243595D01*
X194914285Y-53243595D02*
X195409523Y-53243595D01*
X187363595Y-66333332D02*
X186982642Y-66599999D01*
X187363595Y-66790475D02*
X186563595Y-66790475D01*
X186563595Y-66790475D02*
X186563595Y-66485713D01*
X186563595Y-66485713D02*
X186601690Y-66409523D01*
X186601690Y-66409523D02*
X186639785Y-66371428D01*
X186639785Y-66371428D02*
X186715976Y-66333332D01*
X186715976Y-66333332D02*
X186830261Y-66333332D01*
X186830261Y-66333332D02*
X186906452Y-66371428D01*
X186906452Y-66371428D02*
X186944547Y-66409523D01*
X186944547Y-66409523D02*
X186982642Y-66485713D01*
X186982642Y-66485713D02*
X186982642Y-66790475D01*
X186830261Y-65647618D02*
X187363595Y-65647618D01*
X186525500Y-65838094D02*
X187096928Y-66028571D01*
X187096928Y-66028571D02*
X187096928Y-65533332D01*
X200687404Y-64914285D02*
X200725500Y-64952381D01*
X200725500Y-64952381D02*
X200763595Y-65066666D01*
X200763595Y-65066666D02*
X200763595Y-65142857D01*
X200763595Y-65142857D02*
X200725500Y-65257143D01*
X200725500Y-65257143D02*
X200649309Y-65333333D01*
X200649309Y-65333333D02*
X200573119Y-65371428D01*
X200573119Y-65371428D02*
X200420738Y-65409524D01*
X200420738Y-65409524D02*
X200306452Y-65409524D01*
X200306452Y-65409524D02*
X200154071Y-65371428D01*
X200154071Y-65371428D02*
X200077880Y-65333333D01*
X200077880Y-65333333D02*
X200001690Y-65257143D01*
X200001690Y-65257143D02*
X199963595Y-65142857D01*
X199963595Y-65142857D02*
X199963595Y-65066666D01*
X199963595Y-65066666D02*
X200001690Y-64952381D01*
X200001690Y-64952381D02*
X200039785Y-64914285D01*
X200763595Y-64152381D02*
X200763595Y-64609524D01*
X200763595Y-64380952D02*
X199963595Y-64380952D01*
X199963595Y-64380952D02*
X200077880Y-64457143D01*
X200077880Y-64457143D02*
X200154071Y-64533333D01*
X200154071Y-64533333D02*
X200192166Y-64609524D01*
X199963595Y-63428571D02*
X199963595Y-63809523D01*
X199963595Y-63809523D02*
X200344547Y-63847619D01*
X200344547Y-63847619D02*
X200306452Y-63809523D01*
X200306452Y-63809523D02*
X200268357Y-63733333D01*
X200268357Y-63733333D02*
X200268357Y-63542857D01*
X200268357Y-63542857D02*
X200306452Y-63466666D01*
X200306452Y-63466666D02*
X200344547Y-63428571D01*
X200344547Y-63428571D02*
X200420738Y-63390476D01*
X200420738Y-63390476D02*
X200611214Y-63390476D01*
X200611214Y-63390476D02*
X200687404Y-63428571D01*
X200687404Y-63428571D02*
X200725500Y-63466666D01*
X200725500Y-63466666D02*
X200763595Y-63542857D01*
X200763595Y-63542857D02*
X200763595Y-63733333D01*
X200763595Y-63733333D02*
X200725500Y-63809523D01*
X200725500Y-63809523D02*
X200687404Y-63847619D01*
X188363595Y-66333332D02*
X187982642Y-66599999D01*
X188363595Y-66790475D02*
X187563595Y-66790475D01*
X187563595Y-66790475D02*
X187563595Y-66485713D01*
X187563595Y-66485713D02*
X187601690Y-66409523D01*
X187601690Y-66409523D02*
X187639785Y-66371428D01*
X187639785Y-66371428D02*
X187715976Y-66333332D01*
X187715976Y-66333332D02*
X187830261Y-66333332D01*
X187830261Y-66333332D02*
X187906452Y-66371428D01*
X187906452Y-66371428D02*
X187944547Y-66409523D01*
X187944547Y-66409523D02*
X187982642Y-66485713D01*
X187982642Y-66485713D02*
X187982642Y-66790475D01*
X187563595Y-65609523D02*
X187563595Y-65990475D01*
X187563595Y-65990475D02*
X187944547Y-66028571D01*
X187944547Y-66028571D02*
X187906452Y-65990475D01*
X187906452Y-65990475D02*
X187868357Y-65914285D01*
X187868357Y-65914285D02*
X187868357Y-65723809D01*
X187868357Y-65723809D02*
X187906452Y-65647618D01*
X187906452Y-65647618D02*
X187944547Y-65609523D01*
X187944547Y-65609523D02*
X188020738Y-65571428D01*
X188020738Y-65571428D02*
X188211214Y-65571428D01*
X188211214Y-65571428D02*
X188287404Y-65609523D01*
X188287404Y-65609523D02*
X188325500Y-65647618D01*
X188325500Y-65647618D02*
X188363595Y-65723809D01*
X188363595Y-65723809D02*
X188363595Y-65914285D01*
X188363595Y-65914285D02*
X188325500Y-65990475D01*
X188325500Y-65990475D02*
X188287404Y-66028571D01*
X181933333Y-52908595D02*
X181933333Y-53480023D01*
X181933333Y-53480023D02*
X181895238Y-53594309D01*
X181895238Y-53594309D02*
X181819047Y-53670500D01*
X181819047Y-53670500D02*
X181704762Y-53708595D01*
X181704762Y-53708595D02*
X181628571Y-53708595D01*
X182276190Y-52984785D02*
X182314286Y-52946690D01*
X182314286Y-52946690D02*
X182390476Y-52908595D01*
X182390476Y-52908595D02*
X182580952Y-52908595D01*
X182580952Y-52908595D02*
X182657143Y-52946690D01*
X182657143Y-52946690D02*
X182695238Y-52984785D01*
X182695238Y-52984785D02*
X182733333Y-53060976D01*
X182733333Y-53060976D02*
X182733333Y-53137166D01*
X182733333Y-53137166D02*
X182695238Y-53251452D01*
X182695238Y-53251452D02*
X182238095Y-53708595D01*
X182238095Y-53708595D02*
X182733333Y-53708595D01*
X206669048Y-47082642D02*
X206669048Y-47463595D01*
X206402381Y-46663595D02*
X206669048Y-47082642D01*
X206669048Y-47082642D02*
X206935714Y-46663595D01*
X207621428Y-47463595D02*
X207164285Y-47463595D01*
X207392857Y-47463595D02*
X207392857Y-46663595D01*
X207392857Y-46663595D02*
X207316666Y-46777880D01*
X207316666Y-46777880D02*
X207240476Y-46854071D01*
X207240476Y-46854071D02*
X207164285Y-46892166D01*
X206163595Y-66009523D02*
X206811214Y-66009523D01*
X206811214Y-66009523D02*
X206887404Y-65971428D01*
X206887404Y-65971428D02*
X206925500Y-65933333D01*
X206925500Y-65933333D02*
X206963595Y-65857142D01*
X206963595Y-65857142D02*
X206963595Y-65704761D01*
X206963595Y-65704761D02*
X206925500Y-65628571D01*
X206925500Y-65628571D02*
X206887404Y-65590476D01*
X206887404Y-65590476D02*
X206811214Y-65552380D01*
X206811214Y-65552380D02*
X206163595Y-65552380D01*
X206163595Y-65247619D02*
X206163595Y-64752381D01*
X206163595Y-64752381D02*
X206468357Y-65019047D01*
X206468357Y-65019047D02*
X206468357Y-64904762D01*
X206468357Y-64904762D02*
X206506452Y-64828571D01*
X206506452Y-64828571D02*
X206544547Y-64790476D01*
X206544547Y-64790476D02*
X206620738Y-64752381D01*
X206620738Y-64752381D02*
X206811214Y-64752381D01*
X206811214Y-64752381D02*
X206887404Y-64790476D01*
X206887404Y-64790476D02*
X206925500Y-64828571D01*
X206925500Y-64828571D02*
X206963595Y-64904762D01*
X206963595Y-64904762D02*
X206963595Y-65133333D01*
X206963595Y-65133333D02*
X206925500Y-65209524D01*
X206925500Y-65209524D02*
X206887404Y-65247619D01*
X209485714Y-51587404D02*
X209447618Y-51625500D01*
X209447618Y-51625500D02*
X209333333Y-51663595D01*
X209333333Y-51663595D02*
X209257142Y-51663595D01*
X209257142Y-51663595D02*
X209142856Y-51625500D01*
X209142856Y-51625500D02*
X209066666Y-51549309D01*
X209066666Y-51549309D02*
X209028571Y-51473119D01*
X209028571Y-51473119D02*
X208990475Y-51320738D01*
X208990475Y-51320738D02*
X208990475Y-51206452D01*
X208990475Y-51206452D02*
X209028571Y-51054071D01*
X209028571Y-51054071D02*
X209066666Y-50977880D01*
X209066666Y-50977880D02*
X209142856Y-50901690D01*
X209142856Y-50901690D02*
X209257142Y-50863595D01*
X209257142Y-50863595D02*
X209333333Y-50863595D01*
X209333333Y-50863595D02*
X209447618Y-50901690D01*
X209447618Y-50901690D02*
X209485714Y-50939785D01*
X209790475Y-50939785D02*
X209828571Y-50901690D01*
X209828571Y-50901690D02*
X209904761Y-50863595D01*
X209904761Y-50863595D02*
X210095237Y-50863595D01*
X210095237Y-50863595D02*
X210171428Y-50901690D01*
X210171428Y-50901690D02*
X210209523Y-50939785D01*
X210209523Y-50939785D02*
X210247618Y-51015976D01*
X210247618Y-51015976D02*
X210247618Y-51092166D01*
X210247618Y-51092166D02*
X210209523Y-51206452D01*
X210209523Y-51206452D02*
X209752380Y-51663595D01*
X209752380Y-51663595D02*
X210247618Y-51663595D01*
X211009523Y-51663595D02*
X210552380Y-51663595D01*
X210780952Y-51663595D02*
X210780952Y-50863595D01*
X210780952Y-50863595D02*
X210704761Y-50977880D01*
X210704761Y-50977880D02*
X210628571Y-51054071D01*
X210628571Y-51054071D02*
X210552380Y-51092166D01*
X198837404Y-46564285D02*
X198875500Y-46602381D01*
X198875500Y-46602381D02*
X198913595Y-46716666D01*
X198913595Y-46716666D02*
X198913595Y-46792857D01*
X198913595Y-46792857D02*
X198875500Y-46907143D01*
X198875500Y-46907143D02*
X198799309Y-46983333D01*
X198799309Y-46983333D02*
X198723119Y-47021428D01*
X198723119Y-47021428D02*
X198570738Y-47059524D01*
X198570738Y-47059524D02*
X198456452Y-47059524D01*
X198456452Y-47059524D02*
X198304071Y-47021428D01*
X198304071Y-47021428D02*
X198227880Y-46983333D01*
X198227880Y-46983333D02*
X198151690Y-46907143D01*
X198151690Y-46907143D02*
X198113595Y-46792857D01*
X198113595Y-46792857D02*
X198113595Y-46716666D01*
X198113595Y-46716666D02*
X198151690Y-46602381D01*
X198151690Y-46602381D02*
X198189785Y-46564285D01*
X198913595Y-45802381D02*
X198913595Y-46259524D01*
X198913595Y-46030952D02*
X198113595Y-46030952D01*
X198113595Y-46030952D02*
X198227880Y-46107143D01*
X198227880Y-46107143D02*
X198304071Y-46183333D01*
X198304071Y-46183333D02*
X198342166Y-46259524D01*
X198113595Y-45116666D02*
X198113595Y-45269047D01*
X198113595Y-45269047D02*
X198151690Y-45345238D01*
X198151690Y-45345238D02*
X198189785Y-45383333D01*
X198189785Y-45383333D02*
X198304071Y-45459523D01*
X198304071Y-45459523D02*
X198456452Y-45497619D01*
X198456452Y-45497619D02*
X198761214Y-45497619D01*
X198761214Y-45497619D02*
X198837404Y-45459523D01*
X198837404Y-45459523D02*
X198875500Y-45421428D01*
X198875500Y-45421428D02*
X198913595Y-45345238D01*
X198913595Y-45345238D02*
X198913595Y-45192857D01*
X198913595Y-45192857D02*
X198875500Y-45116666D01*
X198875500Y-45116666D02*
X198837404Y-45078571D01*
X198837404Y-45078571D02*
X198761214Y-45040476D01*
X198761214Y-45040476D02*
X198570738Y-45040476D01*
X198570738Y-45040476D02*
X198494547Y-45078571D01*
X198494547Y-45078571D02*
X198456452Y-45116666D01*
X198456452Y-45116666D02*
X198418357Y-45192857D01*
X198418357Y-45192857D02*
X198418357Y-45345238D01*
X198418357Y-45345238D02*
X198456452Y-45421428D01*
X198456452Y-45421428D02*
X198494547Y-45459523D01*
X198494547Y-45459523D02*
X198570738Y-45497619D01*
X180563595Y-70066666D02*
X181135023Y-70066666D01*
X181135023Y-70066666D02*
X181249309Y-70104761D01*
X181249309Y-70104761D02*
X181325500Y-70180952D01*
X181325500Y-70180952D02*
X181363595Y-70295237D01*
X181363595Y-70295237D02*
X181363595Y-70371428D01*
X181363595Y-69266666D02*
X181363595Y-69723809D01*
X181363595Y-69495237D02*
X180563595Y-69495237D01*
X180563595Y-69495237D02*
X180677880Y-69571428D01*
X180677880Y-69571428D02*
X180754071Y-69647618D01*
X180754071Y-69647618D02*
X180792166Y-69723809D01*
X213846666Y-53173595D02*
X213465714Y-53173595D01*
X213465714Y-53173595D02*
X213465714Y-52373595D01*
X214532380Y-53173595D02*
X214075237Y-53173595D01*
X214303809Y-53173595D02*
X214303809Y-52373595D01*
X214303809Y-52373595D02*
X214227618Y-52487880D01*
X214227618Y-52487880D02*
X214151428Y-52564071D01*
X214151428Y-52564071D02*
X214075237Y-52602166D01*
X208613595Y-60653332D02*
X208232642Y-60919999D01*
X208613595Y-61110475D02*
X207813595Y-61110475D01*
X207813595Y-61110475D02*
X207813595Y-60805713D01*
X207813595Y-60805713D02*
X207851690Y-60729523D01*
X207851690Y-60729523D02*
X207889785Y-60691428D01*
X207889785Y-60691428D02*
X207965976Y-60653332D01*
X207965976Y-60653332D02*
X208080261Y-60653332D01*
X208080261Y-60653332D02*
X208156452Y-60691428D01*
X208156452Y-60691428D02*
X208194547Y-60729523D01*
X208194547Y-60729523D02*
X208232642Y-60805713D01*
X208232642Y-60805713D02*
X208232642Y-61110475D01*
X208613595Y-59891428D02*
X208613595Y-60348571D01*
X208613595Y-60119999D02*
X207813595Y-60119999D01*
X207813595Y-60119999D02*
X207927880Y-60196190D01*
X207927880Y-60196190D02*
X208004071Y-60272380D01*
X208004071Y-60272380D02*
X208042166Y-60348571D01*
X194285714Y-58287404D02*
X194247618Y-58325500D01*
X194247618Y-58325500D02*
X194133333Y-58363595D01*
X194133333Y-58363595D02*
X194057142Y-58363595D01*
X194057142Y-58363595D02*
X193942856Y-58325500D01*
X193942856Y-58325500D02*
X193866666Y-58249309D01*
X193866666Y-58249309D02*
X193828571Y-58173119D01*
X193828571Y-58173119D02*
X193790475Y-58020738D01*
X193790475Y-58020738D02*
X193790475Y-57906452D01*
X193790475Y-57906452D02*
X193828571Y-57754071D01*
X193828571Y-57754071D02*
X193866666Y-57677880D01*
X193866666Y-57677880D02*
X193942856Y-57601690D01*
X193942856Y-57601690D02*
X194057142Y-57563595D01*
X194057142Y-57563595D02*
X194133333Y-57563595D01*
X194133333Y-57563595D02*
X194247618Y-57601690D01*
X194247618Y-57601690D02*
X194285714Y-57639785D01*
X194590475Y-57639785D02*
X194628571Y-57601690D01*
X194628571Y-57601690D02*
X194704761Y-57563595D01*
X194704761Y-57563595D02*
X194895237Y-57563595D01*
X194895237Y-57563595D02*
X194971428Y-57601690D01*
X194971428Y-57601690D02*
X195009523Y-57639785D01*
X195009523Y-57639785D02*
X195047618Y-57715976D01*
X195047618Y-57715976D02*
X195047618Y-57792166D01*
X195047618Y-57792166D02*
X195009523Y-57906452D01*
X195009523Y-57906452D02*
X194552380Y-58363595D01*
X194552380Y-58363595D02*
X195047618Y-58363595D01*
X195314285Y-57563595D02*
X195809523Y-57563595D01*
X195809523Y-57563595D02*
X195542857Y-57868357D01*
X195542857Y-57868357D02*
X195657142Y-57868357D01*
X195657142Y-57868357D02*
X195733333Y-57906452D01*
X195733333Y-57906452D02*
X195771428Y-57944547D01*
X195771428Y-57944547D02*
X195809523Y-58020738D01*
X195809523Y-58020738D02*
X195809523Y-58211214D01*
X195809523Y-58211214D02*
X195771428Y-58287404D01*
X195771428Y-58287404D02*
X195733333Y-58325500D01*
X195733333Y-58325500D02*
X195657142Y-58363595D01*
X195657142Y-58363595D02*
X195428571Y-58363595D01*
X195428571Y-58363595D02*
X195352380Y-58325500D01*
X195352380Y-58325500D02*
X195314285Y-58287404D01*
X194716667Y-51087404D02*
X194678571Y-51125500D01*
X194678571Y-51125500D02*
X194564286Y-51163595D01*
X194564286Y-51163595D02*
X194488095Y-51163595D01*
X194488095Y-51163595D02*
X194373809Y-51125500D01*
X194373809Y-51125500D02*
X194297619Y-51049309D01*
X194297619Y-51049309D02*
X194259524Y-50973119D01*
X194259524Y-50973119D02*
X194221428Y-50820738D01*
X194221428Y-50820738D02*
X194221428Y-50706452D01*
X194221428Y-50706452D02*
X194259524Y-50554071D01*
X194259524Y-50554071D02*
X194297619Y-50477880D01*
X194297619Y-50477880D02*
X194373809Y-50401690D01*
X194373809Y-50401690D02*
X194488095Y-50363595D01*
X194488095Y-50363595D02*
X194564286Y-50363595D01*
X194564286Y-50363595D02*
X194678571Y-50401690D01*
X194678571Y-50401690D02*
X194716667Y-50439785D01*
X195402381Y-50363595D02*
X195250000Y-50363595D01*
X195250000Y-50363595D02*
X195173809Y-50401690D01*
X195173809Y-50401690D02*
X195135714Y-50439785D01*
X195135714Y-50439785D02*
X195059524Y-50554071D01*
X195059524Y-50554071D02*
X195021428Y-50706452D01*
X195021428Y-50706452D02*
X195021428Y-51011214D01*
X195021428Y-51011214D02*
X195059524Y-51087404D01*
X195059524Y-51087404D02*
X195097619Y-51125500D01*
X195097619Y-51125500D02*
X195173809Y-51163595D01*
X195173809Y-51163595D02*
X195326190Y-51163595D01*
X195326190Y-51163595D02*
X195402381Y-51125500D01*
X195402381Y-51125500D02*
X195440476Y-51087404D01*
X195440476Y-51087404D02*
X195478571Y-51011214D01*
X195478571Y-51011214D02*
X195478571Y-50820738D01*
X195478571Y-50820738D02*
X195440476Y-50744547D01*
X195440476Y-50744547D02*
X195402381Y-50706452D01*
X195402381Y-50706452D02*
X195326190Y-50668357D01*
X195326190Y-50668357D02*
X195173809Y-50668357D01*
X195173809Y-50668357D02*
X195097619Y-50706452D01*
X195097619Y-50706452D02*
X195059524Y-50744547D01*
X195059524Y-50744547D02*
X195021428Y-50820738D01*
X200467404Y-48234285D02*
X200505500Y-48272381D01*
X200505500Y-48272381D02*
X200543595Y-48386666D01*
X200543595Y-48386666D02*
X200543595Y-48462857D01*
X200543595Y-48462857D02*
X200505500Y-48577143D01*
X200505500Y-48577143D02*
X200429309Y-48653333D01*
X200429309Y-48653333D02*
X200353119Y-48691428D01*
X200353119Y-48691428D02*
X200200738Y-48729524D01*
X200200738Y-48729524D02*
X200086452Y-48729524D01*
X200086452Y-48729524D02*
X199934071Y-48691428D01*
X199934071Y-48691428D02*
X199857880Y-48653333D01*
X199857880Y-48653333D02*
X199781690Y-48577143D01*
X199781690Y-48577143D02*
X199743595Y-48462857D01*
X199743595Y-48462857D02*
X199743595Y-48386666D01*
X199743595Y-48386666D02*
X199781690Y-48272381D01*
X199781690Y-48272381D02*
X199819785Y-48234285D01*
X200543595Y-47472381D02*
X200543595Y-47929524D01*
X200543595Y-47700952D02*
X199743595Y-47700952D01*
X199743595Y-47700952D02*
X199857880Y-47777143D01*
X199857880Y-47777143D02*
X199934071Y-47853333D01*
X199934071Y-47853333D02*
X199972166Y-47929524D01*
X199743595Y-47205714D02*
X199743595Y-46710476D01*
X199743595Y-46710476D02*
X200048357Y-46977142D01*
X200048357Y-46977142D02*
X200048357Y-46862857D01*
X200048357Y-46862857D02*
X200086452Y-46786666D01*
X200086452Y-46786666D02*
X200124547Y-46748571D01*
X200124547Y-46748571D02*
X200200738Y-46710476D01*
X200200738Y-46710476D02*
X200391214Y-46710476D01*
X200391214Y-46710476D02*
X200467404Y-46748571D01*
X200467404Y-46748571D02*
X200505500Y-46786666D01*
X200505500Y-46786666D02*
X200543595Y-46862857D01*
X200543595Y-46862857D02*
X200543595Y-47091428D01*
X200543595Y-47091428D02*
X200505500Y-47167619D01*
X200505500Y-47167619D02*
X200467404Y-47205714D01*
X195666667Y-64087404D02*
X195628571Y-64125500D01*
X195628571Y-64125500D02*
X195514286Y-64163595D01*
X195514286Y-64163595D02*
X195438095Y-64163595D01*
X195438095Y-64163595D02*
X195323809Y-64125500D01*
X195323809Y-64125500D02*
X195247619Y-64049309D01*
X195247619Y-64049309D02*
X195209524Y-63973119D01*
X195209524Y-63973119D02*
X195171428Y-63820738D01*
X195171428Y-63820738D02*
X195171428Y-63706452D01*
X195171428Y-63706452D02*
X195209524Y-63554071D01*
X195209524Y-63554071D02*
X195247619Y-63477880D01*
X195247619Y-63477880D02*
X195323809Y-63401690D01*
X195323809Y-63401690D02*
X195438095Y-63363595D01*
X195438095Y-63363595D02*
X195514286Y-63363595D01*
X195514286Y-63363595D02*
X195628571Y-63401690D01*
X195628571Y-63401690D02*
X195666667Y-63439785D01*
X196047619Y-64163595D02*
X196200000Y-64163595D01*
X196200000Y-64163595D02*
X196276190Y-64125500D01*
X196276190Y-64125500D02*
X196314286Y-64087404D01*
X196314286Y-64087404D02*
X196390476Y-63973119D01*
X196390476Y-63973119D02*
X196428571Y-63820738D01*
X196428571Y-63820738D02*
X196428571Y-63515976D01*
X196428571Y-63515976D02*
X196390476Y-63439785D01*
X196390476Y-63439785D02*
X196352381Y-63401690D01*
X196352381Y-63401690D02*
X196276190Y-63363595D01*
X196276190Y-63363595D02*
X196123809Y-63363595D01*
X196123809Y-63363595D02*
X196047619Y-63401690D01*
X196047619Y-63401690D02*
X196009524Y-63439785D01*
X196009524Y-63439785D02*
X195971428Y-63515976D01*
X195971428Y-63515976D02*
X195971428Y-63706452D01*
X195971428Y-63706452D02*
X196009524Y-63782642D01*
X196009524Y-63782642D02*
X196047619Y-63820738D01*
X196047619Y-63820738D02*
X196123809Y-63858833D01*
X196123809Y-63858833D02*
X196276190Y-63858833D01*
X196276190Y-63858833D02*
X196352381Y-63820738D01*
X196352381Y-63820738D02*
X196390476Y-63782642D01*
X196390476Y-63782642D02*
X196428571Y-63706452D01*
X193746667Y-48737404D02*
X193708571Y-48775500D01*
X193708571Y-48775500D02*
X193594286Y-48813595D01*
X193594286Y-48813595D02*
X193518095Y-48813595D01*
X193518095Y-48813595D02*
X193403809Y-48775500D01*
X193403809Y-48775500D02*
X193327619Y-48699309D01*
X193327619Y-48699309D02*
X193289524Y-48623119D01*
X193289524Y-48623119D02*
X193251428Y-48470738D01*
X193251428Y-48470738D02*
X193251428Y-48356452D01*
X193251428Y-48356452D02*
X193289524Y-48204071D01*
X193289524Y-48204071D02*
X193327619Y-48127880D01*
X193327619Y-48127880D02*
X193403809Y-48051690D01*
X193403809Y-48051690D02*
X193518095Y-48013595D01*
X193518095Y-48013595D02*
X193594286Y-48013595D01*
X193594286Y-48013595D02*
X193708571Y-48051690D01*
X193708571Y-48051690D02*
X193746667Y-48089785D01*
X194432381Y-48280261D02*
X194432381Y-48813595D01*
X194241905Y-47975500D02*
X194051428Y-48546928D01*
X194051428Y-48546928D02*
X194546667Y-48546928D01*
D11*
%TO.C,R2*%
X202920000Y-60646359D02*
X202920000Y-60953641D01*
X203680000Y-60646359D02*
X203680000Y-60953641D01*
%TO.C,U2*%
X198440000Y-52820000D02*
X198440000Y-58910000D01*
X198440000Y-58910000D02*
X205660000Y-58910000D01*
X205660000Y-51690000D02*
X199570000Y-51690000D01*
X205660000Y-58910000D02*
X205660000Y-51690000D01*
X198440000Y-51690000D02*
X197940000Y-51690000D01*
X198440000Y-51190000D01*
X198440000Y-51690000D01*
G36*
X198440000Y-51690000D02*
G01*
X197940000Y-51690000D01*
X198440000Y-51190000D01*
X198440000Y-51690000D01*
G37*
%TO.C,C18*%
X212120000Y-54372164D02*
X212120000Y-54587836D01*
X212840000Y-54372164D02*
X212840000Y-54587836D01*
%TO.C,C17*%
X198065000Y-61288748D02*
X198065000Y-61811252D01*
X199535000Y-61288748D02*
X199535000Y-61811252D01*
%TO.C,C2*%
X187772164Y-53340000D02*
X187987836Y-53340000D01*
X187772164Y-54060000D02*
X187987836Y-54060000D01*
%TO.C,U1*%
X188162500Y-47840000D02*
X189982500Y-47840000D01*
X188162500Y-47890000D02*
X188162500Y-47840000D01*
X188162500Y-50960000D02*
X188162500Y-50910000D01*
X189982500Y-47840000D02*
X189982500Y-47890000D01*
X189982500Y-49010000D02*
X189982500Y-49790000D01*
X189982500Y-50910000D02*
X189982500Y-50960000D01*
X189982500Y-50960000D02*
X188162500Y-50960000D01*
X187622500Y-47890000D02*
X187382500Y-47560000D01*
X187862500Y-47560000D01*
X187622500Y-47890000D01*
G36*
X187622500Y-47890000D02*
G01*
X187382500Y-47560000D01*
X187862500Y-47560000D01*
X187622500Y-47890000D01*
G37*
%TO.C,C8*%
X196657836Y-59940000D02*
X196442164Y-59940000D01*
X196657836Y-60660000D02*
X196442164Y-60660000D01*
%TO.C,C14*%
X207442164Y-53940000D02*
X207657836Y-53940000D01*
X207442164Y-54660000D02*
X207657836Y-54660000D01*
%TO.C,C1*%
X188398748Y-51465000D02*
X188921252Y-51465000D01*
X188398748Y-52935000D02*
X188921252Y-52935000D01*
%TO.C,C3*%
X192648748Y-46215000D02*
X193171252Y-46215000D01*
X192648748Y-47685000D02*
X193171252Y-47685000D01*
%TO.C,Y2*%
X194425000Y-56075000D02*
X194425000Y-54725000D01*
X196175000Y-56075000D02*
X196175000Y-54725000D01*
%TO.C,F1*%
X185290000Y-61986252D02*
X185290000Y-59213748D01*
X188710000Y-61986252D02*
X188710000Y-59213748D01*
%TO.C,J_ANT1*%
X216900000Y-52700000D02*
X218280000Y-52700000D01*
X216900000Y-54080000D02*
X216900000Y-52700000D01*
X216900000Y-55350000D02*
X216900000Y-55460000D01*
X216900000Y-55350000D02*
X219660000Y-55350000D01*
X216900000Y-55460000D02*
X219660000Y-55460000D01*
X219660000Y-55350000D02*
X219660000Y-55460000D01*
%TO.C,J3*%
X186060000Y-72180000D02*
X186060000Y-70800000D01*
X187440000Y-72180000D02*
X186060000Y-72180000D01*
X188710000Y-69420000D02*
X216760000Y-69420000D01*
X188710000Y-72180000D02*
X188710000Y-69420000D01*
X188710000Y-72180000D02*
X216760000Y-72180000D01*
X216760000Y-72180000D02*
X216760000Y-69420000D01*
%TO.C,C7*%
X196657836Y-58940000D02*
X196442164Y-58940000D01*
X196657836Y-59660000D02*
X196442164Y-59660000D01*
%TO.C,C11*%
X202940000Y-49907836D02*
X202940000Y-49692164D01*
X203660000Y-49907836D02*
X203660000Y-49692164D01*
%TO.C,C19*%
X215120000Y-54372164D02*
X215120000Y-54587836D01*
X215840000Y-54372164D02*
X215840000Y-54587836D01*
%TO.C,SW1*%
X217770000Y-64370000D02*
X217800000Y-64370000D01*
X217770000Y-70830000D02*
X217770000Y-64370000D01*
X217800000Y-70830000D02*
X217770000Y-70830000D01*
X219700000Y-64370000D02*
X222300000Y-64370000D01*
X219700000Y-70830000D02*
X222300000Y-70830000D01*
X224230000Y-64370000D02*
X224200000Y-64370000D01*
X224230000Y-70830000D02*
X224200000Y-70830000D01*
X224230000Y-70830000D02*
X224230000Y-64370000D01*
%TO.C,C20*%
X204440000Y-49907836D02*
X204440000Y-49692164D01*
X205160000Y-49907836D02*
X205160000Y-49692164D01*
%TO.C,C12*%
X207442164Y-52940000D02*
X207657836Y-52940000D01*
X207442164Y-53660000D02*
X207657836Y-53660000D01*
%TO.C,R3*%
X201920000Y-60646359D02*
X201920000Y-60953641D01*
X202680000Y-60646359D02*
X202680000Y-60953641D01*
%TO.C,C10*%
X196657836Y-51940000D02*
X196442164Y-51940000D01*
X196657836Y-52660000D02*
X196442164Y-52660000D01*
%TO.C,C5*%
X196657836Y-49940000D02*
X196442164Y-49940000D01*
X196657836Y-50660000D02*
X196442164Y-50660000D01*
%TO.C,D1*%
X185190000Y-54190000D02*
X186710000Y-54190000D01*
X185190000Y-55190000D02*
X185190000Y-54190000D01*
X185190000Y-57310000D02*
X185190000Y-56310000D01*
X186710000Y-54190000D02*
X186710000Y-54240000D01*
X186710000Y-55360000D02*
X186710000Y-56140000D01*
X186710000Y-57260000D02*
X186710000Y-57310000D01*
X186710000Y-57310000D02*
X185190000Y-57310000D01*
X187250000Y-56130000D02*
X187010000Y-55800000D01*
X187490000Y-55800000D01*
X187250000Y-56130000D01*
G36*
X187250000Y-56130000D02*
G01*
X187010000Y-55800000D01*
X187490000Y-55800000D01*
X187250000Y-56130000D01*
G37*
%TO.C,C22*%
X196640000Y-53787836D02*
X196640000Y-53572164D01*
X197360000Y-53787836D02*
X197360000Y-53572164D01*
%TO.C,R4*%
X186640000Y-68193641D02*
X186640000Y-67886359D01*
X187400000Y-68193641D02*
X187400000Y-67886359D01*
%TO.C,C15*%
X200065000Y-61288748D02*
X200065000Y-61811252D01*
X201535000Y-61288748D02*
X201535000Y-61811252D01*
%TO.C,R5*%
X187590000Y-68203641D02*
X187590000Y-67896359D01*
X188350000Y-68203641D02*
X188350000Y-67896359D01*
%TO.C,J2*%
X180820000Y-54345000D02*
X182200000Y-54345000D01*
X180820000Y-55725000D02*
X180820000Y-54345000D01*
X180820000Y-56995000D02*
X180820000Y-59645000D01*
X180820000Y-56995000D02*
X183580000Y-56995000D01*
X180820000Y-59645000D02*
X183580000Y-59645000D01*
X183580000Y-56995000D02*
X183580000Y-59645000D01*
%TO.C,Y1*%
X205340000Y-47840000D02*
X205340000Y-50760000D01*
X205340000Y-50760000D02*
X208760000Y-50760000D01*
%TO.C,U3*%
X202640000Y-64490000D02*
X202690000Y-64490000D01*
X202640000Y-66310000D02*
X202640000Y-64490000D01*
X202690000Y-66310000D02*
X202640000Y-66310000D01*
X205710000Y-64490000D02*
X205760000Y-64490000D01*
X205760000Y-64490000D02*
X205760000Y-66310000D01*
X205760000Y-66310000D02*
X205710000Y-66310000D01*
X202690000Y-66850000D02*
X202360000Y-67090000D01*
X202360000Y-66610000D01*
X202690000Y-66850000D01*
G36*
X202690000Y-66850000D02*
G01*
X202360000Y-67090000D01*
X202360000Y-66610000D01*
X202690000Y-66850000D01*
G37*
%TO.C,C21*%
X207442164Y-50940000D02*
X207657836Y-50940000D01*
X207442164Y-51660000D02*
X207657836Y-51660000D01*
%TO.C,C16*%
X197815000Y-49311252D02*
X197815000Y-48788748D01*
X199285000Y-49311252D02*
X199285000Y-48788748D01*
%TO.C,J1*%
X179710000Y-60740000D02*
X180110000Y-60740000D01*
X180110000Y-68260000D02*
X179710000Y-68260000D01*
X182080000Y-60740000D02*
X184060000Y-60740000D01*
X182080000Y-68260000D02*
X184060000Y-68260000D01*
X184060000Y-60740000D02*
X184060000Y-61160000D01*
X184060000Y-68260000D02*
X184060000Y-67840000D01*
X184290000Y-62740000D02*
X184740000Y-62740000D01*
X184740000Y-63190000D02*
X184740000Y-62740000D01*
%TO.C,R1*%
X206720000Y-59663641D02*
X206720000Y-59356359D01*
X207480000Y-59663641D02*
X207480000Y-59356359D01*
%TO.C,C23*%
X196640000Y-56972164D02*
X196640000Y-57187836D01*
X197360000Y-56972164D02*
X197360000Y-57187836D01*
%TO.C,C6*%
X196657836Y-50940000D02*
X196442164Y-50940000D01*
X196657836Y-51660000D02*
X196442164Y-51660000D01*
%TO.C,C13*%
X199690000Y-49907836D02*
X199690000Y-49692164D01*
X200410000Y-49907836D02*
X200410000Y-49692164D01*
%TO.C,C9*%
X196061252Y-61065000D02*
X195538748Y-61065000D01*
X196061252Y-62535000D02*
X195538748Y-62535000D01*
%TO.C,C4*%
X192022164Y-48090000D02*
X192237836Y-48090000D01*
X192022164Y-48810000D02*
X192237836Y-48810000D01*
%TD*%
M02*
